G04 #@! TF.GenerationSoftware,KiCad,Pcbnew,8.0.6-8.0.6-0~ubuntu22.04.1*
G04 #@! TF.CreationDate,2024-12-26T22:40:20+01:00*
G04 #@! TF.ProjectId,ohsim_hat,6f687369-6d5f-4686-9174-2e6b69636164,rev?*
G04 #@! TF.SameCoordinates,Original*
G04 #@! TF.FileFunction,Copper,L2,Bot*
G04 #@! TF.FilePolarity,Positive*
%FSLAX46Y46*%
G04 Gerber Fmt 4.6, Leading zero omitted, Abs format (unit mm)*
G04 Created by KiCad (PCBNEW 8.0.6-8.0.6-0~ubuntu22.04.1) date 2024-12-26 22:40:20*
%MOMM*%
%LPD*%
G01*
G04 APERTURE LIST*
G04 #@! TA.AperFunction,ComponentPad*
%ADD10R,1.700000X1.700000*%
G04 #@! TD*
G04 #@! TA.AperFunction,ComponentPad*
%ADD11O,1.700000X1.700000*%
G04 #@! TD*
G04 #@! TA.AperFunction,ViaPad*
%ADD12C,0.600000*%
G04 #@! TD*
G04 #@! TA.AperFunction,Conductor*
%ADD13C,0.200000*%
G04 #@! TD*
G04 #@! TA.AperFunction,Conductor*
%ADD14C,0.127000*%
G04 #@! TD*
G04 #@! TA.AperFunction,Profile*
%ADD15C,0.100000*%
G04 #@! TD*
G04 APERTURE END LIST*
D10*
X151500000Y-93060000D03*
D11*
X151500000Y-95600000D03*
X148960000Y-93060000D03*
X148960000Y-95600000D03*
X146420000Y-93060000D03*
X146420000Y-95600000D03*
X143880000Y-93060000D03*
X143880000Y-95600000D03*
X141340000Y-93060000D03*
X141340000Y-95600000D03*
X138800000Y-93060000D03*
X138800000Y-95600000D03*
X136260000Y-93060000D03*
X136260000Y-95600000D03*
X133720000Y-93060000D03*
X133720000Y-95600000D03*
X131180000Y-93060000D03*
X131180000Y-95600000D03*
X128640000Y-93060000D03*
X128640000Y-95600000D03*
X126100000Y-93060000D03*
X126100000Y-95600000D03*
X123560000Y-93060000D03*
X123560000Y-95600000D03*
X121020000Y-93060000D03*
X121020000Y-95600000D03*
X118480000Y-93060000D03*
X118480000Y-95600000D03*
X115940000Y-93060000D03*
X115940000Y-95600000D03*
X113400000Y-93060000D03*
X113400000Y-95600000D03*
D10*
X108370000Y-48780000D03*
D11*
X108370000Y-46240000D03*
X110910000Y-48780000D03*
X110910000Y-46240000D03*
X113450000Y-48780000D03*
X113450000Y-46240000D03*
X115990000Y-48780000D03*
X115990000Y-46240000D03*
X118530000Y-48780000D03*
X118530000Y-46240000D03*
X121070000Y-48780000D03*
X121070000Y-46240000D03*
X123610000Y-48780000D03*
X123610000Y-46240000D03*
X126150000Y-48780000D03*
X126150000Y-46240000D03*
X128690000Y-48780000D03*
X128690000Y-46240000D03*
X131230000Y-48780000D03*
X131230000Y-46240000D03*
X133770000Y-48780000D03*
X133770000Y-46240000D03*
X136310000Y-48780000D03*
X136310000Y-46240000D03*
X138850000Y-48780000D03*
X138850000Y-46240000D03*
X141390000Y-48780000D03*
X141390000Y-46240000D03*
X143930000Y-48780000D03*
X143930000Y-46240000D03*
X146470000Y-48780000D03*
X146470000Y-46240000D03*
X149010000Y-48780000D03*
X149010000Y-46240000D03*
X151550000Y-48780000D03*
X151550000Y-46240000D03*
X154090000Y-48780000D03*
X154090000Y-46240000D03*
X156630000Y-48780000D03*
X156630000Y-46240000D03*
D12*
X113157200Y-77394000D03*
X117199428Y-89687600D03*
X163296800Y-59360000D03*
X122235884Y-88265200D03*
X132918400Y-76987600D03*
X115240000Y-53924400D03*
X126822400Y-83490000D03*
X131191200Y-84760000D03*
X115240000Y-51892400D03*
X114681200Y-88265200D03*
X118694400Y-84404400D03*
X109855200Y-47472800D03*
X103251200Y-69520000D03*
X160452000Y-59360000D03*
X143180000Y-88316000D03*
X105080000Y-65456000D03*
X125704800Y-83490000D03*
X114224000Y-60376000D03*
X120320000Y-84760000D03*
X114681200Y-89687600D03*
X109252200Y-75216855D03*
X143180000Y-89840000D03*
X116764000Y-69520000D03*
X103251200Y-71704400D03*
X104978400Y-69520000D03*
X136728400Y-76022400D03*
X119717656Y-89687600D03*
X100762000Y-60579200D03*
X121844000Y-83236000D03*
X123876000Y-78156000D03*
X118288000Y-71044000D03*
X140589200Y-89840000D03*
X119717656Y-88265200D03*
X118643600Y-75260400D03*
X123368000Y-83236000D03*
X102895600Y-60223600D03*
X112090400Y-47523600D03*
X104978400Y-71704400D03*
X129362400Y-79680000D03*
X116764000Y-71044000D03*
X161976000Y-59360000D03*
X114173200Y-51892400D03*
X119304000Y-61341200D03*
X115240000Y-53010000D03*
X122235884Y-89687600D03*
X116306800Y-79680000D03*
X129362400Y-81762800D03*
X129790568Y-88265200D03*
X132308800Y-88265200D03*
X122860000Y-78105200D03*
X124754112Y-89687600D03*
X104978400Y-70586800D03*
X127272340Y-89687600D03*
X117780000Y-79730800D03*
X118796000Y-60376000D03*
X107061200Y-54534000D03*
X129790568Y-89687600D03*
X120269200Y-60376000D03*
X115240000Y-69520000D03*
X103505200Y-53873600D03*
X123368000Y-81712000D03*
X124754112Y-88265200D03*
X105080000Y-64440000D03*
X128143200Y-75311200D03*
X122352000Y-81712000D03*
X127889200Y-80848400D03*
X124384000Y-77140000D03*
X103251200Y-70586800D03*
X111684000Y-60376000D03*
X130480000Y-79680000D03*
X163296800Y-60579200D03*
X123368000Y-77140000D03*
X117199428Y-88265200D03*
X127272340Y-88265200D03*
X129057600Y-84764700D03*
X122352000Y-77140000D03*
X161976000Y-60579200D03*
X103556000Y-64440000D03*
X132308800Y-89687600D03*
X118288000Y-69520000D03*
X104064000Y-65456000D03*
X106248400Y-54534000D03*
X117780000Y-81204000D03*
X113208000Y-60376000D03*
X117729200Y-84404400D03*
X110363200Y-75971600D03*
X128194000Y-76124000D03*
X110972800Y-69012000D03*
X128549600Y-51689200D03*
X138760400Y-52248000D03*
X124968200Y-54559400D03*
X154610000Y-69520000D03*
X163093600Y-69774000D03*
X113360400Y-64338400D03*
X125095200Y-69113600D03*
X139268400Y-69266000D03*
X118491200Y-66929200D03*
X107620000Y-69012000D03*
X115697200Y-74193600D03*
X114935200Y-77394000D03*
X113970000Y-81661200D03*
X112801600Y-74142800D03*
X131851600Y-77038400D03*
X133578800Y-74244400D03*
X130835600Y-74092000D03*
X124434800Y-79680000D03*
X111328400Y-83490000D03*
X115849600Y-75971600D03*
X133985200Y-75885100D03*
X101676400Y-56007200D03*
X106908800Y-60426800D03*
X148310800Y-55905600D03*
X148463200Y-58598000D03*
X148361600Y-57734400D03*
X148361600Y-56820000D03*
D13*
X128194000Y-76124000D02*
X128107471Y-76124000D01*
X118643600Y-72720400D02*
X113375471Y-72720400D01*
X124703871Y-72720400D02*
X118643600Y-72720400D01*
X113375471Y-71414671D02*
X113375471Y-72720400D01*
X110972800Y-69012000D02*
X113375471Y-71414671D01*
X110363200Y-75732671D02*
X110363200Y-75971600D01*
X113375471Y-72720400D02*
X110363200Y-75732671D01*
X128107471Y-76124000D02*
X124703871Y-72720400D01*
X126238200Y-54559400D02*
X128549600Y-52248000D01*
X155219600Y-69215200D02*
X154914800Y-69215200D01*
X162534800Y-69215200D02*
X155219600Y-69215200D01*
X138760400Y-52248000D02*
X129108400Y-52248000D01*
X124968200Y-54559400D02*
X126238200Y-54559400D01*
X128549600Y-52248000D02*
X128549600Y-51689200D01*
X129108400Y-52248000D02*
X128549600Y-51689200D01*
X163093600Y-69774000D02*
X162534800Y-69215200D01*
X154914800Y-69215200D02*
X154610000Y-69520000D01*
D14*
X122910800Y-66929200D02*
X124993600Y-69012000D01*
X122707600Y-66929200D02*
X136931600Y-66929200D01*
X118491200Y-66929200D02*
X115951200Y-66929200D01*
X115951200Y-66929200D02*
X109702800Y-66929200D01*
X109702800Y-66929200D02*
X107620000Y-69012000D01*
X122707600Y-66929200D02*
X122910800Y-66929200D01*
X115951200Y-66929200D02*
X113360400Y-64338400D01*
X118491200Y-66929200D02*
X122707600Y-66929200D01*
X124993600Y-69012000D02*
X125095200Y-69113600D01*
X136931600Y-66929200D02*
X139268400Y-69266000D01*
X115697200Y-74193600D02*
X114935200Y-74955600D01*
X114935200Y-74955600D02*
X114935200Y-77394000D01*
X113970000Y-75311200D02*
X112801600Y-74142800D01*
X113970000Y-81661200D02*
X113970000Y-75311200D01*
X133578800Y-74244400D02*
X131851600Y-75971600D01*
X131851600Y-75971600D02*
X131851600Y-77038400D01*
X130835600Y-75565200D02*
X130581600Y-75819200D01*
X130835600Y-74092000D02*
X130835600Y-75565200D01*
X124434800Y-78613200D02*
X124434800Y-79680000D01*
X126314400Y-76733600D02*
X124434800Y-78613200D01*
X130581600Y-75819200D02*
X129667200Y-76733600D01*
X129667200Y-76733600D02*
X126314400Y-76733600D01*
D13*
X133985200Y-75885100D02*
X133985200Y-76769329D01*
X131674529Y-79080000D02*
X125883329Y-79080000D01*
X133985200Y-76769329D02*
X131674529Y-79080000D01*
X111328400Y-83490000D02*
X116948000Y-83490000D01*
X120158000Y-80280000D02*
X115849600Y-75971600D01*
X124683329Y-80280000D02*
X120158000Y-80280000D01*
X125883329Y-79080000D02*
X124683329Y-80280000D01*
X116948000Y-83490000D02*
X120158000Y-80280000D01*
X104978400Y-60223600D02*
X105181600Y-60426800D01*
X101676400Y-56007200D02*
X101676400Y-56921600D01*
X105181600Y-60426800D02*
X106908800Y-60426800D01*
X101676400Y-56921600D02*
X104978400Y-60223600D01*
D14*
X116317000Y-54985656D02*
X118948344Y-57617000D01*
X115990000Y-46240000D02*
X117103500Y-47353500D01*
X116317000Y-51120200D02*
X116317000Y-54985656D01*
X117103500Y-47353500D02*
X117103500Y-50333700D01*
X146599400Y-57617000D02*
X148310800Y-55905600D01*
X117103500Y-50333700D02*
X116317000Y-51120200D01*
X118948344Y-57617000D02*
X146599400Y-57617000D01*
X110910000Y-50966000D02*
X118542000Y-58598000D01*
X118542000Y-58598000D02*
X148463200Y-58598000D01*
X110910000Y-48780000D02*
X110910000Y-50966000D01*
X147926600Y-58271000D02*
X148260000Y-57937600D01*
X118677448Y-58271000D02*
X120828000Y-58271000D01*
X113450000Y-53043552D02*
X113845624Y-53439176D01*
X120828000Y-58271000D02*
X147926600Y-58271000D01*
X113450000Y-48780000D02*
X113450000Y-53043552D01*
X113845624Y-53439176D02*
X118677448Y-58271000D01*
X148260000Y-57937600D02*
X148260000Y-57836000D01*
X148260000Y-57836000D02*
X148361600Y-57734400D01*
X147237600Y-57944000D02*
X118812896Y-57944000D01*
X148361600Y-56820000D02*
X147237600Y-57944000D01*
X115990000Y-55121104D02*
X115990000Y-48780000D01*
X118812896Y-57944000D02*
X115990000Y-55121104D01*
G04 #@! TA.AperFunction,Conductor*
G36*
X115474075Y-95407007D02*
G01*
X115440000Y-95534174D01*
X115440000Y-95665826D01*
X115474075Y-95792993D01*
X115506988Y-95850000D01*
X113833012Y-95850000D01*
X113865925Y-95792993D01*
X113900000Y-95665826D01*
X113900000Y-95534174D01*
X113865925Y-95407007D01*
X113833012Y-95350000D01*
X115506988Y-95350000D01*
X115474075Y-95407007D01*
G37*
G04 #@! TD.AperFunction*
G04 #@! TA.AperFunction,Conductor*
G36*
X118014075Y-95407007D02*
G01*
X117980000Y-95534174D01*
X117980000Y-95665826D01*
X118014075Y-95792993D01*
X118046988Y-95850000D01*
X116373012Y-95850000D01*
X116405925Y-95792993D01*
X116440000Y-95665826D01*
X116440000Y-95534174D01*
X116405925Y-95407007D01*
X116373012Y-95350000D01*
X118046988Y-95350000D01*
X118014075Y-95407007D01*
G37*
G04 #@! TD.AperFunction*
G04 #@! TA.AperFunction,Conductor*
G36*
X120554075Y-95407007D02*
G01*
X120520000Y-95534174D01*
X120520000Y-95665826D01*
X120554075Y-95792993D01*
X120586988Y-95850000D01*
X118913012Y-95850000D01*
X118945925Y-95792993D01*
X118980000Y-95665826D01*
X118980000Y-95534174D01*
X118945925Y-95407007D01*
X118913012Y-95350000D01*
X120586988Y-95350000D01*
X120554075Y-95407007D01*
G37*
G04 #@! TD.AperFunction*
G04 #@! TA.AperFunction,Conductor*
G36*
X123094075Y-95407007D02*
G01*
X123060000Y-95534174D01*
X123060000Y-95665826D01*
X123094075Y-95792993D01*
X123126988Y-95850000D01*
X121453012Y-95850000D01*
X121485925Y-95792993D01*
X121520000Y-95665826D01*
X121520000Y-95534174D01*
X121485925Y-95407007D01*
X121453012Y-95350000D01*
X123126988Y-95350000D01*
X123094075Y-95407007D01*
G37*
G04 #@! TD.AperFunction*
G04 #@! TA.AperFunction,Conductor*
G36*
X125634075Y-95407007D02*
G01*
X125600000Y-95534174D01*
X125600000Y-95665826D01*
X125634075Y-95792993D01*
X125666988Y-95850000D01*
X123993012Y-95850000D01*
X124025925Y-95792993D01*
X124060000Y-95665826D01*
X124060000Y-95534174D01*
X124025925Y-95407007D01*
X123993012Y-95350000D01*
X125666988Y-95350000D01*
X125634075Y-95407007D01*
G37*
G04 #@! TD.AperFunction*
G04 #@! TA.AperFunction,Conductor*
G36*
X128174075Y-95407007D02*
G01*
X128140000Y-95534174D01*
X128140000Y-95665826D01*
X128174075Y-95792993D01*
X128206988Y-95850000D01*
X126533012Y-95850000D01*
X126565925Y-95792993D01*
X126600000Y-95665826D01*
X126600000Y-95534174D01*
X126565925Y-95407007D01*
X126533012Y-95350000D01*
X128206988Y-95350000D01*
X128174075Y-95407007D01*
G37*
G04 #@! TD.AperFunction*
G04 #@! TA.AperFunction,Conductor*
G36*
X130714075Y-95407007D02*
G01*
X130680000Y-95534174D01*
X130680000Y-95665826D01*
X130714075Y-95792993D01*
X130746988Y-95850000D01*
X129073012Y-95850000D01*
X129105925Y-95792993D01*
X129140000Y-95665826D01*
X129140000Y-95534174D01*
X129105925Y-95407007D01*
X129073012Y-95350000D01*
X130746988Y-95350000D01*
X130714075Y-95407007D01*
G37*
G04 #@! TD.AperFunction*
G04 #@! TA.AperFunction,Conductor*
G36*
X133254075Y-95407007D02*
G01*
X133220000Y-95534174D01*
X133220000Y-95665826D01*
X133254075Y-95792993D01*
X133286988Y-95850000D01*
X131613012Y-95850000D01*
X131645925Y-95792993D01*
X131680000Y-95665826D01*
X131680000Y-95534174D01*
X131645925Y-95407007D01*
X131613012Y-95350000D01*
X133286988Y-95350000D01*
X133254075Y-95407007D01*
G37*
G04 #@! TD.AperFunction*
G04 #@! TA.AperFunction,Conductor*
G36*
X133970000Y-95166988D02*
G01*
X133912993Y-95134075D01*
X133785826Y-95100000D01*
X133654174Y-95100000D01*
X133527007Y-95134075D01*
X133470000Y-95166988D01*
X133470000Y-93493012D01*
X133527007Y-93525925D01*
X133654174Y-93560000D01*
X133785826Y-93560000D01*
X133912993Y-93525925D01*
X133970000Y-93493012D01*
X133970000Y-95166988D01*
G37*
G04 #@! TD.AperFunction*
G04 #@! TA.AperFunction,Conductor*
G36*
X146670000Y-95166988D02*
G01*
X146612993Y-95134075D01*
X146485826Y-95100000D01*
X146354174Y-95100000D01*
X146227007Y-95134075D01*
X146170000Y-95166988D01*
X146170000Y-93493012D01*
X146227007Y-93525925D01*
X146354174Y-93560000D01*
X146485826Y-93560000D01*
X146612993Y-93525925D01*
X146670000Y-93493012D01*
X146670000Y-95166988D01*
G37*
G04 #@! TD.AperFunction*
G04 #@! TA.AperFunction,Conductor*
G36*
X124595077Y-73040585D02*
G01*
X124615719Y-73057219D01*
X127660151Y-76101651D01*
X127693636Y-76162974D01*
X127695208Y-76171684D01*
X127708834Y-76266453D01*
X127708835Y-76266458D01*
X127721454Y-76294088D01*
X127731398Y-76363246D01*
X127702373Y-76426802D01*
X127643596Y-76464577D01*
X127608660Y-76469600D01*
X126261887Y-76469600D01*
X126255852Y-76472100D01*
X126255850Y-76472101D01*
X126255848Y-76472101D01*
X126164861Y-76509788D01*
X126164853Y-76509793D01*
X124285256Y-78389392D01*
X124210993Y-78463654D01*
X124170800Y-78560686D01*
X124170800Y-79187007D01*
X124151115Y-79254046D01*
X124113842Y-79291321D01*
X124103672Y-79297856D01*
X124103666Y-79297862D01*
X124009425Y-79406622D01*
X124009422Y-79406628D01*
X123949634Y-79537543D01*
X123929153Y-79680000D01*
X123950897Y-79831235D01*
X123949079Y-79831496D01*
X123949078Y-79890438D01*
X123911302Y-79949215D01*
X123847745Y-79978238D01*
X123830102Y-79979500D01*
X120333833Y-79979500D01*
X120266794Y-79959815D01*
X120246152Y-79943181D01*
X116388995Y-76086024D01*
X116355510Y-76024701D01*
X116353939Y-75980694D01*
X116355247Y-75971600D01*
X116334765Y-75829143D01*
X116274977Y-75698227D01*
X116180728Y-75589457D01*
X116059653Y-75511647D01*
X116059651Y-75511646D01*
X116059649Y-75511645D01*
X116059650Y-75511645D01*
X115921563Y-75471100D01*
X115921561Y-75471100D01*
X115777639Y-75471100D01*
X115777636Y-75471100D01*
X115639549Y-75511645D01*
X115518473Y-75589456D01*
X115518472Y-75589456D01*
X115518472Y-75589457D01*
X115456485Y-75660995D01*
X115418415Y-75704930D01*
X115416141Y-75702959D01*
X115374708Y-75738860D01*
X115305549Y-75748801D01*
X115241994Y-75719774D01*
X115204222Y-75660995D01*
X115199200Y-75626064D01*
X115199200Y-75116313D01*
X115218885Y-75049274D01*
X115235515Y-75028636D01*
X115533732Y-74730418D01*
X115595055Y-74696934D01*
X115621413Y-74694100D01*
X115769162Y-74694100D01*
X115769162Y-74694099D01*
X115907253Y-74653553D01*
X116028328Y-74575743D01*
X116122577Y-74466973D01*
X116182365Y-74336057D01*
X116202847Y-74193600D01*
X116182365Y-74051143D01*
X116122577Y-73920227D01*
X116028328Y-73811457D01*
X115907253Y-73733647D01*
X115907251Y-73733646D01*
X115907249Y-73733645D01*
X115907250Y-73733645D01*
X115769163Y-73693100D01*
X115769161Y-73693100D01*
X115625239Y-73693100D01*
X115625236Y-73693100D01*
X115487149Y-73733645D01*
X115366073Y-73811456D01*
X115271823Y-73920226D01*
X115271822Y-73920228D01*
X115212034Y-74051143D01*
X115191553Y-74193600D01*
X115199349Y-74247826D01*
X115189405Y-74316985D01*
X115164293Y-74353153D01*
X115099163Y-74418282D01*
X114785656Y-74731792D01*
X114711393Y-74806054D01*
X114671200Y-74903086D01*
X114671200Y-76901007D01*
X114651515Y-76968046D01*
X114614242Y-77005321D01*
X114604072Y-77011856D01*
X114604066Y-77011862D01*
X114509825Y-77120622D01*
X114509822Y-77120628D01*
X114470794Y-77206087D01*
X114425039Y-77258891D01*
X114357999Y-77278575D01*
X114290960Y-77258890D01*
X114245205Y-77206086D01*
X114234000Y-77154575D01*
X114234000Y-75258688D01*
X114234000Y-75258687D01*
X114193808Y-75161656D01*
X114119544Y-75087392D01*
X113334507Y-74302355D01*
X113301022Y-74241032D01*
X113299450Y-74197028D01*
X113307247Y-74142800D01*
X113286765Y-74000343D01*
X113226977Y-73869427D01*
X113132728Y-73760657D01*
X113035381Y-73698096D01*
X112989627Y-73645293D01*
X112979683Y-73576134D01*
X113008708Y-73512579D01*
X113014723Y-73506117D01*
X113463623Y-73057219D01*
X113524946Y-73023734D01*
X113551304Y-73020900D01*
X118604038Y-73020900D01*
X124528038Y-73020900D01*
X124595077Y-73040585D01*
G37*
G04 #@! TD.AperFunction*
G04 #@! TA.AperFunction,Conductor*
G36*
X114924745Y-46499454D02*
G01*
X114978623Y-46543939D01*
X114994593Y-46577447D01*
X115014768Y-46643954D01*
X115112315Y-46826450D01*
X115121765Y-46837965D01*
X115243589Y-46986410D01*
X115340209Y-47065702D01*
X115403550Y-47117685D01*
X115586046Y-47215232D01*
X115784066Y-47275300D01*
X115784065Y-47275300D01*
X115802529Y-47277118D01*
X115990000Y-47295583D01*
X116195934Y-47275300D01*
X116393954Y-47215232D01*
X116441829Y-47189641D01*
X116510229Y-47175397D01*
X116575474Y-47200395D01*
X116587965Y-47211317D01*
X116803181Y-47426533D01*
X116836666Y-47487856D01*
X116839500Y-47514214D01*
X116839500Y-47856017D01*
X116819815Y-47923056D01*
X116767011Y-47968811D01*
X116697853Y-47978755D01*
X116636836Y-47951871D01*
X116576453Y-47902317D01*
X116576451Y-47902316D01*
X116576450Y-47902315D01*
X116393954Y-47804768D01*
X116195934Y-47744700D01*
X116195932Y-47744699D01*
X116195934Y-47744699D01*
X115990000Y-47724417D01*
X115784067Y-47744699D01*
X115649736Y-47785448D01*
X115586050Y-47804767D01*
X115586043Y-47804769D01*
X115498114Y-47851769D01*
X115403550Y-47902315D01*
X115403548Y-47902316D01*
X115403547Y-47902317D01*
X115243589Y-48033589D01*
X115112317Y-48193547D01*
X115014769Y-48376043D01*
X114954699Y-48574067D01*
X114934417Y-48780000D01*
X114954699Y-48985932D01*
X114954700Y-48985934D01*
X115014768Y-49183954D01*
X115112315Y-49366450D01*
X115112317Y-49366452D01*
X115243589Y-49526410D01*
X115309884Y-49580816D01*
X115403550Y-49657685D01*
X115586046Y-49755232D01*
X115637996Y-49770990D01*
X115696433Y-49809286D01*
X115724890Y-49873098D01*
X115726000Y-49889650D01*
X115726000Y-54646838D01*
X115706315Y-54713877D01*
X115653511Y-54759632D01*
X115584353Y-54769576D01*
X115520797Y-54740551D01*
X115514319Y-54734519D01*
X114086874Y-53307074D01*
X114086872Y-53307071D01*
X113750319Y-52970518D01*
X113716834Y-52909195D01*
X113714000Y-52882837D01*
X113714000Y-49889650D01*
X113733685Y-49822611D01*
X113786489Y-49776856D01*
X113801992Y-49770994D01*
X113853954Y-49755232D01*
X114036450Y-49657685D01*
X114196410Y-49526410D01*
X114327685Y-49366450D01*
X114425232Y-49183954D01*
X114485300Y-48985934D01*
X114505583Y-48780000D01*
X114485300Y-48574066D01*
X114425232Y-48376046D01*
X114327685Y-48193550D01*
X114252897Y-48102420D01*
X114196410Y-48033589D01*
X114046121Y-47910252D01*
X114036450Y-47902315D01*
X113853954Y-47804768D01*
X113787447Y-47784593D01*
X113729009Y-47746296D01*
X113700553Y-47682484D01*
X113711113Y-47613417D01*
X113757337Y-47561023D01*
X113791350Y-47546158D01*
X113913483Y-47513433D01*
X113913492Y-47513429D01*
X114127578Y-47413600D01*
X114321082Y-47278105D01*
X114488105Y-47111082D01*
X114623600Y-46917578D01*
X114723429Y-46703492D01*
X114723433Y-46703483D01*
X114756158Y-46581350D01*
X114792522Y-46521690D01*
X114855369Y-46491160D01*
X114924745Y-46499454D01*
G37*
G04 #@! TD.AperFunction*
G04 #@! TA.AperFunction,Conductor*
G36*
X162003472Y-44300695D02*
G01*
X162295306Y-44317084D01*
X162309103Y-44318638D01*
X162593827Y-44367015D01*
X162607384Y-44370109D01*
X162884899Y-44450060D01*
X162898025Y-44454653D01*
X163164841Y-44565172D01*
X163177355Y-44571198D01*
X163343444Y-44662992D01*
X163430125Y-44710899D01*
X163441899Y-44718297D01*
X163677430Y-44885415D01*
X163688302Y-44894085D01*
X163903642Y-45086524D01*
X163913475Y-45096357D01*
X164105914Y-45311697D01*
X164114584Y-45322569D01*
X164281702Y-45558100D01*
X164289100Y-45569874D01*
X164428797Y-45822637D01*
X164434830Y-45835165D01*
X164545346Y-46101975D01*
X164549939Y-46115100D01*
X164629890Y-46392615D01*
X164632984Y-46406172D01*
X164681359Y-46690885D01*
X164682916Y-46704703D01*
X164699305Y-46996527D01*
X164699500Y-47003480D01*
X164699500Y-96996519D01*
X164699305Y-97003472D01*
X164682916Y-97295296D01*
X164681359Y-97309114D01*
X164632984Y-97593827D01*
X164629890Y-97607384D01*
X164549939Y-97884899D01*
X164545346Y-97898024D01*
X164434830Y-98164834D01*
X164428797Y-98177362D01*
X164289100Y-98430125D01*
X164281702Y-98441899D01*
X164114584Y-98677430D01*
X164105914Y-98688302D01*
X163913475Y-98903642D01*
X163903642Y-98913475D01*
X163688302Y-99105914D01*
X163677430Y-99114584D01*
X163441899Y-99281702D01*
X163430125Y-99289100D01*
X163177362Y-99428797D01*
X163164834Y-99434830D01*
X162898024Y-99545346D01*
X162884899Y-99549939D01*
X162607384Y-99629890D01*
X162593827Y-99632984D01*
X162309114Y-99681359D01*
X162295296Y-99682916D01*
X162003472Y-99699305D01*
X161996519Y-99699500D01*
X103003481Y-99699500D01*
X102996528Y-99699305D01*
X102704703Y-99682916D01*
X102690885Y-99681359D01*
X102406172Y-99632984D01*
X102392615Y-99629890D01*
X102115100Y-99549939D01*
X102101975Y-99545346D01*
X101835165Y-99434830D01*
X101822637Y-99428797D01*
X101569874Y-99289100D01*
X101558100Y-99281702D01*
X101322569Y-99114584D01*
X101311697Y-99105914D01*
X101096357Y-98913475D01*
X101086524Y-98903642D01*
X100894085Y-98688302D01*
X100885415Y-98677430D01*
X100718297Y-98441899D01*
X100710899Y-98430125D01*
X100571202Y-98177362D01*
X100565172Y-98164841D01*
X100454653Y-97898024D01*
X100450060Y-97884899D01*
X100370109Y-97607384D01*
X100367015Y-97593827D01*
X100318638Y-97309103D01*
X100317084Y-97295306D01*
X100300695Y-97003472D01*
X100300500Y-96996519D01*
X100300500Y-96370097D01*
X101849500Y-96370097D01*
X101849500Y-96629902D01*
X101890140Y-96886493D01*
X101970422Y-97133576D01*
X101990496Y-97172972D01*
X102088366Y-97365051D01*
X102241069Y-97575229D01*
X102424771Y-97758931D01*
X102634949Y-97911634D01*
X102782445Y-97986787D01*
X102866423Y-98029577D01*
X102866425Y-98029577D01*
X102866428Y-98029579D01*
X103113507Y-98109860D01*
X103245706Y-98130797D01*
X103370098Y-98150500D01*
X103370103Y-98150500D01*
X103629902Y-98150500D01*
X103743298Y-98132539D01*
X103886493Y-98109860D01*
X104133572Y-98029579D01*
X104365051Y-97911634D01*
X104575229Y-97758931D01*
X104758931Y-97575229D01*
X104911634Y-97365051D01*
X105029579Y-97133572D01*
X105109860Y-96886493D01*
X105146432Y-96655583D01*
X105150500Y-96629902D01*
X105150500Y-96370097D01*
X105121413Y-96186452D01*
X105109860Y-96113507D01*
X105029579Y-95866428D01*
X105029577Y-95866425D01*
X105029577Y-95866423D01*
X104986787Y-95782445D01*
X104911634Y-95634949D01*
X104758931Y-95424771D01*
X104684159Y-95349999D01*
X112069364Y-95349999D01*
X112069364Y-95350000D01*
X112966988Y-95350000D01*
X112934075Y-95407007D01*
X112900000Y-95534174D01*
X112900000Y-95665826D01*
X112934075Y-95792993D01*
X112966988Y-95850000D01*
X112069364Y-95850000D01*
X112126567Y-96063486D01*
X112126570Y-96063492D01*
X112226399Y-96277578D01*
X112361894Y-96471082D01*
X112528917Y-96638105D01*
X112722421Y-96773600D01*
X112936507Y-96873429D01*
X112936516Y-96873433D01*
X113150000Y-96930634D01*
X113150000Y-96033012D01*
X113207007Y-96065925D01*
X113334174Y-96100000D01*
X113465826Y-96100000D01*
X113592993Y-96065925D01*
X113650000Y-96033012D01*
X113650000Y-96930633D01*
X113863483Y-96873433D01*
X113863492Y-96873429D01*
X114077578Y-96773600D01*
X114271082Y-96638105D01*
X114438105Y-96471082D01*
X114568425Y-96284968D01*
X114623002Y-96241344D01*
X114692501Y-96234151D01*
X114754855Y-96265673D01*
X114771575Y-96284968D01*
X114901894Y-96471082D01*
X115068917Y-96638105D01*
X115262421Y-96773600D01*
X115476507Y-96873429D01*
X115476516Y-96873433D01*
X115690000Y-96930634D01*
X115690000Y-96033012D01*
X115747007Y-96065925D01*
X115874174Y-96100000D01*
X116005826Y-96100000D01*
X116132993Y-96065925D01*
X116190000Y-96033012D01*
X116190000Y-96930633D01*
X116403483Y-96873433D01*
X116403492Y-96873429D01*
X116617578Y-96773600D01*
X116811082Y-96638105D01*
X116978105Y-96471082D01*
X117108425Y-96284968D01*
X117163002Y-96241344D01*
X117232501Y-96234151D01*
X117294855Y-96265673D01*
X117311575Y-96284968D01*
X117441894Y-96471082D01*
X117608917Y-96638105D01*
X117802421Y-96773600D01*
X118016507Y-96873429D01*
X118016516Y-96873433D01*
X118230000Y-96930634D01*
X118230000Y-96033012D01*
X118287007Y-96065925D01*
X118414174Y-96100000D01*
X118545826Y-96100000D01*
X118672993Y-96065925D01*
X118730000Y-96033012D01*
X118730000Y-96930633D01*
X118943483Y-96873433D01*
X118943492Y-96873429D01*
X119157578Y-96773600D01*
X119351082Y-96638105D01*
X119518105Y-96471082D01*
X119648425Y-96284968D01*
X119703002Y-96241344D01*
X119772501Y-96234151D01*
X119834855Y-96265673D01*
X119851575Y-96284968D01*
X119981894Y-96471082D01*
X120148917Y-96638105D01*
X120342421Y-96773600D01*
X120556507Y-96873429D01*
X120556516Y-96873433D01*
X120770000Y-96930634D01*
X120770000Y-96033012D01*
X120827007Y-96065925D01*
X120954174Y-96100000D01*
X121085826Y-96100000D01*
X121212993Y-96065925D01*
X121270000Y-96033012D01*
X121270000Y-96930633D01*
X121483483Y-96873433D01*
X121483492Y-96873429D01*
X121697578Y-96773600D01*
X121891082Y-96638105D01*
X122058105Y-96471082D01*
X122188425Y-96284968D01*
X122243002Y-96241344D01*
X122312501Y-96234151D01*
X122374855Y-96265673D01*
X122391575Y-96284968D01*
X122521894Y-96471082D01*
X122688917Y-96638105D01*
X122882421Y-96773600D01*
X123096507Y-96873429D01*
X123096516Y-96873433D01*
X123310000Y-96930634D01*
X123310000Y-96033012D01*
X123367007Y-96065925D01*
X123494174Y-96100000D01*
X123625826Y-96100000D01*
X123752993Y-96065925D01*
X123810000Y-96033012D01*
X123810000Y-96930634D01*
X124023483Y-96873433D01*
X124023492Y-96873429D01*
X124237578Y-96773600D01*
X124431082Y-96638105D01*
X124598105Y-96471082D01*
X124728425Y-96284968D01*
X124783002Y-96241344D01*
X124852501Y-96234151D01*
X124914855Y-96265673D01*
X124931575Y-96284968D01*
X125061894Y-96471082D01*
X125228917Y-96638105D01*
X125422421Y-96773600D01*
X125636507Y-96873429D01*
X125636516Y-96873433D01*
X125850000Y-96930634D01*
X125850000Y-96033012D01*
X125907007Y-96065925D01*
X126034174Y-96100000D01*
X126165826Y-96100000D01*
X126292993Y-96065925D01*
X126350000Y-96033012D01*
X126350000Y-96930634D01*
X126563483Y-96873433D01*
X126563492Y-96873429D01*
X126777578Y-96773600D01*
X126971082Y-96638105D01*
X127138105Y-96471082D01*
X127268425Y-96284968D01*
X127323002Y-96241344D01*
X127392501Y-96234151D01*
X127454855Y-96265673D01*
X127471575Y-96284968D01*
X127601894Y-96471082D01*
X127768917Y-96638105D01*
X127962421Y-96773600D01*
X128176507Y-96873429D01*
X128176516Y-96873433D01*
X128390000Y-96930634D01*
X128390000Y-96033012D01*
X128447007Y-96065925D01*
X128574174Y-96100000D01*
X128705826Y-96100000D01*
X128832993Y-96065925D01*
X128890000Y-96033012D01*
X128890000Y-96930634D01*
X129103483Y-96873433D01*
X129103492Y-96873429D01*
X129317578Y-96773600D01*
X129511082Y-96638105D01*
X129678105Y-96471082D01*
X129808425Y-96284968D01*
X129863002Y-96241344D01*
X129932501Y-96234151D01*
X129994855Y-96265673D01*
X130011575Y-96284968D01*
X130141894Y-96471082D01*
X130308917Y-96638105D01*
X130502421Y-96773600D01*
X130716507Y-96873429D01*
X130716516Y-96873433D01*
X130930000Y-96930634D01*
X130930000Y-96033012D01*
X130987007Y-96065925D01*
X131114174Y-96100000D01*
X131245826Y-96100000D01*
X131372993Y-96065925D01*
X131430000Y-96033012D01*
X131430000Y-96930634D01*
X131643483Y-96873433D01*
X131643492Y-96873429D01*
X131857578Y-96773600D01*
X132051082Y-96638105D01*
X132218105Y-96471082D01*
X132348425Y-96284968D01*
X132403002Y-96241344D01*
X132472501Y-96234151D01*
X132534855Y-96265673D01*
X132551575Y-96284968D01*
X132681894Y-96471082D01*
X132848917Y-96638105D01*
X133042421Y-96773600D01*
X133256507Y-96873429D01*
X133256516Y-96873433D01*
X133470000Y-96930634D01*
X133470000Y-96033012D01*
X133527007Y-96065925D01*
X133654174Y-96100000D01*
X133785826Y-96100000D01*
X133912993Y-96065925D01*
X133970000Y-96033012D01*
X133970000Y-96930634D01*
X134183483Y-96873433D01*
X134183492Y-96873429D01*
X134397578Y-96773600D01*
X134591082Y-96638105D01*
X134758105Y-96471082D01*
X134893600Y-96277578D01*
X134993429Y-96063492D01*
X134993433Y-96063483D01*
X135026158Y-95941350D01*
X135062522Y-95881690D01*
X135125369Y-95851160D01*
X135194745Y-95859454D01*
X135248623Y-95903939D01*
X135264593Y-95937447D01*
X135284768Y-96003954D01*
X135382315Y-96186450D01*
X135382317Y-96186452D01*
X135513589Y-96346410D01*
X135610209Y-96425702D01*
X135673550Y-96477685D01*
X135856046Y-96575232D01*
X136054066Y-96635300D01*
X136054065Y-96635300D01*
X136072529Y-96637118D01*
X136260000Y-96655583D01*
X136465934Y-96635300D01*
X136663954Y-96575232D01*
X136846450Y-96477685D01*
X137006410Y-96346410D01*
X137137685Y-96186450D01*
X137235232Y-96003954D01*
X137295300Y-95805934D01*
X137315583Y-95600000D01*
X137744417Y-95600000D01*
X137764699Y-95805932D01*
X137764700Y-95805934D01*
X137824768Y-96003954D01*
X137922315Y-96186450D01*
X137922317Y-96186452D01*
X138053589Y-96346410D01*
X138150209Y-96425702D01*
X138213550Y-96477685D01*
X138396046Y-96575232D01*
X138594066Y-96635300D01*
X138594065Y-96635300D01*
X138612529Y-96637118D01*
X138800000Y-96655583D01*
X139005934Y-96635300D01*
X139203954Y-96575232D01*
X139386450Y-96477685D01*
X139546410Y-96346410D01*
X139677685Y-96186450D01*
X139775232Y-96003954D01*
X139835300Y-95805934D01*
X139855583Y-95600000D01*
X140284417Y-95600000D01*
X140304699Y-95805932D01*
X140304700Y-95805934D01*
X140364768Y-96003954D01*
X140462315Y-96186450D01*
X140462317Y-96186452D01*
X140593589Y-96346410D01*
X140690209Y-96425702D01*
X140753550Y-96477685D01*
X140936046Y-96575232D01*
X141134066Y-96635300D01*
X141134065Y-96635300D01*
X141152529Y-96637118D01*
X141340000Y-96655583D01*
X141545934Y-96635300D01*
X141743954Y-96575232D01*
X141926450Y-96477685D01*
X142086410Y-96346410D01*
X142217685Y-96186450D01*
X142315232Y-96003954D01*
X142375300Y-95805934D01*
X142395583Y-95600000D01*
X142375300Y-95394066D01*
X142315232Y-95196046D01*
X142217685Y-95013550D01*
X142116406Y-94890140D01*
X142086410Y-94853589D01*
X141968677Y-94756969D01*
X141926450Y-94722315D01*
X141743954Y-94624768D01*
X141545934Y-94564700D01*
X141545932Y-94564699D01*
X141545934Y-94564699D01*
X141340000Y-94544417D01*
X141134067Y-94564699D01*
X140936043Y-94624769D01*
X140825898Y-94683643D01*
X140753550Y-94722315D01*
X140753548Y-94722316D01*
X140753547Y-94722317D01*
X140593589Y-94853589D01*
X140462317Y-95013547D01*
X140364769Y-95196043D01*
X140304699Y-95394067D01*
X140284417Y-95600000D01*
X139855583Y-95600000D01*
X139835300Y-95394066D01*
X139775232Y-95196046D01*
X139677685Y-95013550D01*
X139576406Y-94890140D01*
X139546410Y-94853589D01*
X139428677Y-94756969D01*
X139386450Y-94722315D01*
X139203954Y-94624768D01*
X139005934Y-94564700D01*
X139005932Y-94564699D01*
X139005934Y-94564699D01*
X138800000Y-94544417D01*
X138594067Y-94564699D01*
X138396043Y-94624769D01*
X138285898Y-94683643D01*
X138213550Y-94722315D01*
X138213548Y-94722316D01*
X138213547Y-94722317D01*
X138053589Y-94853589D01*
X137922317Y-95013547D01*
X137824769Y-95196043D01*
X137764699Y-95394067D01*
X137744417Y-95600000D01*
X137315583Y-95600000D01*
X137295300Y-95394066D01*
X137235232Y-95196046D01*
X137137685Y-95013550D01*
X137036406Y-94890140D01*
X137006410Y-94853589D01*
X136888677Y-94756969D01*
X136846450Y-94722315D01*
X136663954Y-94624768D01*
X136465934Y-94564700D01*
X136465932Y-94564699D01*
X136465934Y-94564699D01*
X136260000Y-94544417D01*
X136054067Y-94564699D01*
X135856043Y-94624769D01*
X135745898Y-94683643D01*
X135673550Y-94722315D01*
X135673548Y-94722316D01*
X135673547Y-94722317D01*
X135513589Y-94853589D01*
X135382317Y-95013547D01*
X135284767Y-95196046D01*
X135264593Y-95262552D01*
X135226296Y-95320990D01*
X135162483Y-95349447D01*
X135093416Y-95338886D01*
X135041023Y-95292661D01*
X135026158Y-95258649D01*
X134993433Y-95136516D01*
X134993429Y-95136507D01*
X134893600Y-94922422D01*
X134893599Y-94922420D01*
X134758113Y-94728926D01*
X134758108Y-94728920D01*
X134591082Y-94561894D01*
X134404968Y-94431575D01*
X134361344Y-94376998D01*
X134354151Y-94307499D01*
X134385673Y-94245145D01*
X134404968Y-94228425D01*
X134591082Y-94098105D01*
X134758105Y-93931082D01*
X134893600Y-93737578D01*
X134993429Y-93523492D01*
X134993433Y-93523483D01*
X135026158Y-93401350D01*
X135062522Y-93341690D01*
X135125369Y-93311160D01*
X135194745Y-93319454D01*
X135248623Y-93363939D01*
X135264593Y-93397447D01*
X135284768Y-93463954D01*
X135382315Y-93646450D01*
X135382317Y-93646452D01*
X135513589Y-93806410D01*
X135610209Y-93885702D01*
X135673550Y-93937685D01*
X135856046Y-94035232D01*
X136054066Y-94095300D01*
X136054065Y-94095300D01*
X136072529Y-94097118D01*
X136260000Y-94115583D01*
X136465934Y-94095300D01*
X136663954Y-94035232D01*
X136846450Y-93937685D01*
X137006410Y-93806410D01*
X137137685Y-93646450D01*
X137235232Y-93463954D01*
X137295300Y-93265934D01*
X137315583Y-93060000D01*
X137744417Y-93060000D01*
X137764699Y-93265932D01*
X137764700Y-93265934D01*
X137824768Y-93463954D01*
X137922315Y-93646450D01*
X137922317Y-93646452D01*
X138053589Y-93806410D01*
X138150209Y-93885702D01*
X138213550Y-93937685D01*
X138396046Y-94035232D01*
X138594066Y-94095300D01*
X138594065Y-94095300D01*
X138612529Y-94097118D01*
X138800000Y-94115583D01*
X139005934Y-94095300D01*
X139203954Y-94035232D01*
X139386450Y-93937685D01*
X139546410Y-93806410D01*
X139677685Y-93646450D01*
X139775232Y-93463954D01*
X139835300Y-93265934D01*
X139855583Y-93060000D01*
X140284417Y-93060000D01*
X140304699Y-93265932D01*
X140304700Y-93265934D01*
X140364768Y-93463954D01*
X140462315Y-93646450D01*
X140462317Y-93646452D01*
X140593589Y-93806410D01*
X140690209Y-93885702D01*
X140753550Y-93937685D01*
X140936046Y-94035232D01*
X141134066Y-94095300D01*
X141134065Y-94095300D01*
X141152529Y-94097118D01*
X141340000Y-94115583D01*
X141545934Y-94095300D01*
X141743954Y-94035232D01*
X141926450Y-93937685D01*
X142086410Y-93806410D01*
X142217685Y-93646450D01*
X142315232Y-93463954D01*
X142375300Y-93265934D01*
X142395583Y-93060000D01*
X142824417Y-93060000D01*
X142844699Y-93265932D01*
X142844700Y-93265934D01*
X142904768Y-93463954D01*
X143002315Y-93646450D01*
X143002317Y-93646452D01*
X143133589Y-93806410D01*
X143230209Y-93885702D01*
X143293550Y-93937685D01*
X143476046Y-94035232D01*
X143674066Y-94095300D01*
X143674065Y-94095300D01*
X143692529Y-94097118D01*
X143880000Y-94115583D01*
X144085934Y-94095300D01*
X144283954Y-94035232D01*
X144466450Y-93937685D01*
X144626410Y-93806410D01*
X144757685Y-93646450D01*
X144855232Y-93463954D01*
X144875406Y-93397446D01*
X144913702Y-93339010D01*
X144977514Y-93310553D01*
X145046581Y-93321112D01*
X145098975Y-93367336D01*
X145113841Y-93401349D01*
X145146567Y-93523486D01*
X145146570Y-93523492D01*
X145246399Y-93737578D01*
X145381894Y-93931082D01*
X145548917Y-94098105D01*
X145735031Y-94228425D01*
X145778656Y-94283003D01*
X145785848Y-94352501D01*
X145754326Y-94414856D01*
X145735031Y-94431575D01*
X145548922Y-94561890D01*
X145548920Y-94561891D01*
X145381891Y-94728920D01*
X145381886Y-94728926D01*
X145246400Y-94922420D01*
X145246399Y-94922422D01*
X145146570Y-95136507D01*
X145146567Y-95136514D01*
X145113841Y-95258650D01*
X145077476Y-95318310D01*
X145014629Y-95348839D01*
X144945253Y-95340544D01*
X144891375Y-95296059D01*
X144875406Y-95262552D01*
X144855232Y-95196046D01*
X144757685Y-95013550D01*
X144656406Y-94890140D01*
X144626410Y-94853589D01*
X144508677Y-94756969D01*
X144466450Y-94722315D01*
X144283954Y-94624768D01*
X144085934Y-94564700D01*
X144085932Y-94564699D01*
X144085934Y-94564699D01*
X143880000Y-94544417D01*
X143674067Y-94564699D01*
X143476043Y-94624769D01*
X143365898Y-94683643D01*
X143293550Y-94722315D01*
X143293548Y-94722316D01*
X143293547Y-94722317D01*
X143133589Y-94853589D01*
X143002317Y-95013547D01*
X142904769Y-95196043D01*
X142844699Y-95394067D01*
X142824417Y-95600000D01*
X142844699Y-95805932D01*
X142844700Y-95805934D01*
X142904768Y-96003954D01*
X143002315Y-96186450D01*
X143002317Y-96186452D01*
X143133589Y-96346410D01*
X143230209Y-96425702D01*
X143293550Y-96477685D01*
X143476046Y-96575232D01*
X143674066Y-96635300D01*
X143674065Y-96635300D01*
X143692529Y-96637118D01*
X143880000Y-96655583D01*
X144085934Y-96635300D01*
X144283954Y-96575232D01*
X144466450Y-96477685D01*
X144626410Y-96346410D01*
X144757685Y-96186450D01*
X144855232Y-96003954D01*
X144875406Y-95937446D01*
X144913702Y-95879010D01*
X144977514Y-95850553D01*
X145046581Y-95861112D01*
X145098975Y-95907336D01*
X145113841Y-95941349D01*
X145146567Y-96063486D01*
X145146570Y-96063492D01*
X145246399Y-96277578D01*
X145381894Y-96471082D01*
X145548917Y-96638105D01*
X145742421Y-96773600D01*
X145956507Y-96873429D01*
X145956516Y-96873433D01*
X146170000Y-96930634D01*
X146170000Y-96033012D01*
X146227007Y-96065925D01*
X146354174Y-96100000D01*
X146485826Y-96100000D01*
X146612993Y-96065925D01*
X146670000Y-96033012D01*
X146670000Y-96930633D01*
X146883483Y-96873433D01*
X146883492Y-96873429D01*
X147097578Y-96773600D01*
X147291082Y-96638105D01*
X147458105Y-96471082D01*
X147593600Y-96277578D01*
X147693429Y-96063492D01*
X147693433Y-96063483D01*
X147726158Y-95941350D01*
X147762522Y-95881690D01*
X147825369Y-95851160D01*
X147894745Y-95859454D01*
X147948623Y-95903939D01*
X147964593Y-95937447D01*
X147984768Y-96003954D01*
X148082315Y-96186450D01*
X148082317Y-96186452D01*
X148213589Y-96346410D01*
X148310209Y-96425702D01*
X148373550Y-96477685D01*
X148556046Y-96575232D01*
X148754066Y-96635300D01*
X148754065Y-96635300D01*
X148772529Y-96637118D01*
X148960000Y-96655583D01*
X149165934Y-96635300D01*
X149363954Y-96575232D01*
X149546450Y-96477685D01*
X149706410Y-96346410D01*
X149837685Y-96186450D01*
X149935232Y-96003954D01*
X149995300Y-95805934D01*
X150015583Y-95600000D01*
X150444417Y-95600000D01*
X150464699Y-95805932D01*
X150464700Y-95805934D01*
X150524768Y-96003954D01*
X150622315Y-96186450D01*
X150622317Y-96186452D01*
X150753589Y-96346410D01*
X150850209Y-96425702D01*
X150913550Y-96477685D01*
X151096046Y-96575232D01*
X151294066Y-96635300D01*
X151294065Y-96635300D01*
X151312529Y-96637118D01*
X151500000Y-96655583D01*
X151705934Y-96635300D01*
X151903954Y-96575232D01*
X152086450Y-96477685D01*
X152217547Y-96370097D01*
X159849500Y-96370097D01*
X159849500Y-96629902D01*
X159890140Y-96886493D01*
X159970422Y-97133576D01*
X159990496Y-97172972D01*
X160088366Y-97365051D01*
X160241069Y-97575229D01*
X160424771Y-97758931D01*
X160634949Y-97911634D01*
X160782445Y-97986787D01*
X160866423Y-98029577D01*
X160866425Y-98029577D01*
X160866428Y-98029579D01*
X161113507Y-98109860D01*
X161245706Y-98130797D01*
X161370098Y-98150500D01*
X161370103Y-98150500D01*
X161629902Y-98150500D01*
X161743298Y-98132539D01*
X161886493Y-98109860D01*
X162133572Y-98029579D01*
X162365051Y-97911634D01*
X162575229Y-97758931D01*
X162758931Y-97575229D01*
X162911634Y-97365051D01*
X163029579Y-97133572D01*
X163109860Y-96886493D01*
X163146432Y-96655583D01*
X163150500Y-96629902D01*
X163150500Y-96370097D01*
X163121413Y-96186452D01*
X163109860Y-96113507D01*
X163029579Y-95866428D01*
X163029577Y-95866425D01*
X163029577Y-95866423D01*
X162986787Y-95782445D01*
X162911634Y-95634949D01*
X162758931Y-95424771D01*
X162575229Y-95241069D01*
X162365051Y-95088366D01*
X162292764Y-95051534D01*
X162133576Y-94970422D01*
X161886493Y-94890140D01*
X161629902Y-94849500D01*
X161629897Y-94849500D01*
X161370103Y-94849500D01*
X161370098Y-94849500D01*
X161113506Y-94890140D01*
X160866423Y-94970422D01*
X160634945Y-95088368D01*
X160424774Y-95241066D01*
X160424768Y-95241071D01*
X160241071Y-95424768D01*
X160241066Y-95424774D01*
X160088368Y-95634945D01*
X159970422Y-95866423D01*
X159890140Y-96113506D01*
X159849500Y-96370097D01*
X152217547Y-96370097D01*
X152246410Y-96346410D01*
X152377685Y-96186450D01*
X152475232Y-96003954D01*
X152535300Y-95805934D01*
X152555583Y-95600000D01*
X152535300Y-95394066D01*
X152475232Y-95196046D01*
X152377685Y-95013550D01*
X152276406Y-94890140D01*
X152246410Y-94853589D01*
X152128677Y-94756969D01*
X152086450Y-94722315D01*
X151903954Y-94624768D01*
X151705934Y-94564700D01*
X151705932Y-94564699D01*
X151705934Y-94564699D01*
X151500000Y-94544417D01*
X151294067Y-94564699D01*
X151096043Y-94624769D01*
X150985898Y-94683643D01*
X150913550Y-94722315D01*
X150913548Y-94722316D01*
X150913547Y-94722317D01*
X150753589Y-94853589D01*
X150622317Y-95013547D01*
X150524769Y-95196043D01*
X150464699Y-95394067D01*
X150444417Y-95600000D01*
X150015583Y-95600000D01*
X149995300Y-95394066D01*
X149935232Y-95196046D01*
X149837685Y-95013550D01*
X149736406Y-94890140D01*
X149706410Y-94853589D01*
X149588677Y-94756969D01*
X149546450Y-94722315D01*
X149363954Y-94624768D01*
X149165934Y-94564700D01*
X149165932Y-94564699D01*
X149165934Y-94564699D01*
X148960000Y-94544417D01*
X148754067Y-94564699D01*
X148556043Y-94624769D01*
X148445898Y-94683643D01*
X148373550Y-94722315D01*
X148373548Y-94722316D01*
X148373547Y-94722317D01*
X148213589Y-94853589D01*
X148082317Y-95013547D01*
X147984767Y-95196046D01*
X147964593Y-95262552D01*
X147926296Y-95320990D01*
X147862483Y-95349447D01*
X147793416Y-95338886D01*
X147741023Y-95292661D01*
X147726158Y-95258649D01*
X147693433Y-95136516D01*
X147693429Y-95136507D01*
X147593600Y-94922422D01*
X147593599Y-94922420D01*
X147458113Y-94728926D01*
X147458108Y-94728920D01*
X147291082Y-94561894D01*
X147104968Y-94431575D01*
X147061344Y-94376998D01*
X147054151Y-94307499D01*
X147085673Y-94245145D01*
X147104968Y-94228425D01*
X147291082Y-94098105D01*
X147458105Y-93931082D01*
X147593600Y-93737578D01*
X147693429Y-93523492D01*
X147693433Y-93523483D01*
X147726158Y-93401350D01*
X147762522Y-93341690D01*
X147825369Y-93311160D01*
X147894745Y-93319454D01*
X147948623Y-93363939D01*
X147964593Y-93397447D01*
X147984768Y-93463954D01*
X148082315Y-93646450D01*
X148082317Y-93646452D01*
X148213589Y-93806410D01*
X148310209Y-93885702D01*
X148373550Y-93937685D01*
X148556046Y-94035232D01*
X148754066Y-94095300D01*
X148754065Y-94095300D01*
X148772529Y-94097118D01*
X148960000Y-94115583D01*
X149165934Y-94095300D01*
X149363954Y-94035232D01*
X149546450Y-93937685D01*
X149706410Y-93806410D01*
X149837685Y-93646450D01*
X149935232Y-93463954D01*
X149995300Y-93265934D01*
X150015583Y-93060000D01*
X149995300Y-92854066D01*
X149935232Y-92656046D01*
X149837685Y-92473550D01*
X149762897Y-92382420D01*
X149706410Y-92313589D01*
X149556121Y-92190252D01*
X149556115Y-92190247D01*
X150449500Y-92190247D01*
X150449500Y-93929752D01*
X150461131Y-93988229D01*
X150461132Y-93988230D01*
X150505447Y-94054552D01*
X150571769Y-94098867D01*
X150571770Y-94098868D01*
X150630247Y-94110499D01*
X150630250Y-94110500D01*
X150630252Y-94110500D01*
X152369750Y-94110500D01*
X152369751Y-94110499D01*
X152384568Y-94107552D01*
X152428229Y-94098868D01*
X152428229Y-94098867D01*
X152428231Y-94098867D01*
X152494552Y-94054552D01*
X152538867Y-93988231D01*
X152538867Y-93988229D01*
X152538868Y-93988229D01*
X152548922Y-93937682D01*
X152550500Y-93929748D01*
X152550500Y-92190252D01*
X152550500Y-92190249D01*
X152550499Y-92190247D01*
X152538868Y-92131770D01*
X152538867Y-92131769D01*
X152494552Y-92065447D01*
X152428230Y-92021132D01*
X152428229Y-92021131D01*
X152369752Y-92009500D01*
X152369748Y-92009500D01*
X150630252Y-92009500D01*
X150630247Y-92009500D01*
X150571770Y-92021131D01*
X150571769Y-92021132D01*
X150505447Y-92065447D01*
X150461132Y-92131769D01*
X150461131Y-92131770D01*
X150449500Y-92190247D01*
X149556115Y-92190247D01*
X149546450Y-92182315D01*
X149363954Y-92084768D01*
X149165934Y-92024700D01*
X149165932Y-92024699D01*
X149165934Y-92024699D01*
X148960000Y-92004417D01*
X148754067Y-92024699D01*
X148556043Y-92084769D01*
X148468114Y-92131769D01*
X148373550Y-92182315D01*
X148373548Y-92182316D01*
X148373547Y-92182317D01*
X148213589Y-92313589D01*
X148082317Y-92473547D01*
X147984767Y-92656046D01*
X147964593Y-92722552D01*
X147926296Y-92780990D01*
X147862483Y-92809447D01*
X147793416Y-92798886D01*
X147741023Y-92752661D01*
X147726158Y-92718649D01*
X147693433Y-92596516D01*
X147693429Y-92596507D01*
X147593600Y-92382422D01*
X147593599Y-92382420D01*
X147458113Y-92188926D01*
X147458108Y-92188920D01*
X147291082Y-92021894D01*
X147097578Y-91886399D01*
X146883492Y-91786570D01*
X146883486Y-91786567D01*
X146670000Y-91729364D01*
X146670000Y-92626988D01*
X146612993Y-92594075D01*
X146485826Y-92560000D01*
X146354174Y-92560000D01*
X146227007Y-92594075D01*
X146170000Y-92626988D01*
X146170000Y-91729364D01*
X146169999Y-91729364D01*
X145956513Y-91786567D01*
X145956507Y-91786570D01*
X145742422Y-91886399D01*
X145742420Y-91886400D01*
X145548926Y-92021886D01*
X145548920Y-92021891D01*
X145381891Y-92188920D01*
X145381886Y-92188926D01*
X145246400Y-92382420D01*
X145246399Y-92382422D01*
X145146570Y-92596507D01*
X145146567Y-92596514D01*
X145113841Y-92718650D01*
X145077476Y-92778310D01*
X145014629Y-92808839D01*
X144945253Y-92800544D01*
X144891375Y-92756059D01*
X144875406Y-92722552D01*
X144855232Y-92656046D01*
X144757685Y-92473550D01*
X144682897Y-92382420D01*
X144626410Y-92313589D01*
X144476121Y-92190252D01*
X144466450Y-92182315D01*
X144283954Y-92084768D01*
X144085934Y-92024700D01*
X144085932Y-92024699D01*
X144085934Y-92024699D01*
X143880000Y-92004417D01*
X143674067Y-92024699D01*
X143476043Y-92084769D01*
X143388114Y-92131769D01*
X143293550Y-92182315D01*
X143293548Y-92182316D01*
X143293547Y-92182317D01*
X143133589Y-92313589D01*
X143002317Y-92473547D01*
X142904769Y-92656043D01*
X142844699Y-92854067D01*
X142824417Y-93060000D01*
X142395583Y-93060000D01*
X142375300Y-92854066D01*
X142315232Y-92656046D01*
X142217685Y-92473550D01*
X142142897Y-92382420D01*
X142086410Y-92313589D01*
X141936121Y-92190252D01*
X141926450Y-92182315D01*
X141743954Y-92084768D01*
X141545934Y-92024700D01*
X141545932Y-92024699D01*
X141545934Y-92024699D01*
X141340000Y-92004417D01*
X141134067Y-92024699D01*
X140936043Y-92084769D01*
X140848114Y-92131769D01*
X140753550Y-92182315D01*
X140753548Y-92182316D01*
X140753547Y-92182317D01*
X140593589Y-92313589D01*
X140462317Y-92473547D01*
X140364769Y-92656043D01*
X140304699Y-92854067D01*
X140284417Y-93060000D01*
X139855583Y-93060000D01*
X139835300Y-92854066D01*
X139775232Y-92656046D01*
X139677685Y-92473550D01*
X139602897Y-92382420D01*
X139546410Y-92313589D01*
X139396121Y-92190252D01*
X139386450Y-92182315D01*
X139203954Y-92084768D01*
X139005934Y-92024700D01*
X139005932Y-92024699D01*
X139005934Y-92024699D01*
X138800000Y-92004417D01*
X138594067Y-92024699D01*
X138396043Y-92084769D01*
X138308114Y-92131769D01*
X138213550Y-92182315D01*
X138213548Y-92182316D01*
X138213547Y-92182317D01*
X138053589Y-92313589D01*
X137922317Y-92473547D01*
X137824769Y-92656043D01*
X137764699Y-92854067D01*
X137744417Y-93060000D01*
X137315583Y-93060000D01*
X137295300Y-92854066D01*
X137235232Y-92656046D01*
X137137685Y-92473550D01*
X137062897Y-92382420D01*
X137006410Y-92313589D01*
X136856121Y-92190252D01*
X136846450Y-92182315D01*
X136663954Y-92084768D01*
X136465934Y-92024700D01*
X136465932Y-92024699D01*
X136465934Y-92024699D01*
X136260000Y-92004417D01*
X136054067Y-92024699D01*
X135856043Y-92084769D01*
X135768114Y-92131769D01*
X135673550Y-92182315D01*
X135673548Y-92182316D01*
X135673547Y-92182317D01*
X135513589Y-92313589D01*
X135382317Y-92473547D01*
X135284767Y-92656046D01*
X135264593Y-92722552D01*
X135226296Y-92780990D01*
X135162483Y-92809447D01*
X135093416Y-92798886D01*
X135041023Y-92752661D01*
X135026158Y-92718649D01*
X134993433Y-92596516D01*
X134993429Y-92596507D01*
X134893600Y-92382422D01*
X134893599Y-92382420D01*
X134758113Y-92188926D01*
X134758108Y-92188920D01*
X134591082Y-92021894D01*
X134397578Y-91886399D01*
X134183492Y-91786570D01*
X134183486Y-91786567D01*
X133970000Y-91729364D01*
X133970000Y-92626988D01*
X133912993Y-92594075D01*
X133785826Y-92560000D01*
X133654174Y-92560000D01*
X133527007Y-92594075D01*
X133470000Y-92626988D01*
X133470000Y-91729364D01*
X133469999Y-91729364D01*
X133256513Y-91786567D01*
X133256507Y-91786570D01*
X133042422Y-91886399D01*
X133042420Y-91886400D01*
X132848926Y-92021886D01*
X132848920Y-92021891D01*
X132681891Y-92188920D01*
X132681886Y-92188926D01*
X132546400Y-92382420D01*
X132546399Y-92382422D01*
X132446570Y-92596507D01*
X132446567Y-92596514D01*
X132413841Y-92718650D01*
X132377476Y-92778310D01*
X132314629Y-92808839D01*
X132245253Y-92800544D01*
X132191375Y-92756059D01*
X132175406Y-92722552D01*
X132155232Y-92656046D01*
X132057685Y-92473550D01*
X131982897Y-92382420D01*
X131926410Y-92313589D01*
X131776121Y-92190252D01*
X131766450Y-92182315D01*
X131583954Y-92084768D01*
X131385934Y-92024700D01*
X131385932Y-92024699D01*
X131385934Y-92024699D01*
X131180000Y-92004417D01*
X130974067Y-92024699D01*
X130776043Y-92084769D01*
X130688114Y-92131769D01*
X130593550Y-92182315D01*
X130593548Y-92182316D01*
X130593547Y-92182317D01*
X130433589Y-92313589D01*
X130302317Y-92473547D01*
X130204769Y-92656043D01*
X130144699Y-92854067D01*
X130124417Y-93060000D01*
X130144699Y-93265932D01*
X130144700Y-93265934D01*
X130204768Y-93463954D01*
X130302315Y-93646450D01*
X130302317Y-93646452D01*
X130433589Y-93806410D01*
X130530209Y-93885702D01*
X130593550Y-93937685D01*
X130776046Y-94035232D01*
X130842551Y-94055405D01*
X130900989Y-94093702D01*
X130929446Y-94157514D01*
X130918887Y-94226581D01*
X130872663Y-94278975D01*
X130838650Y-94293841D01*
X130716514Y-94326567D01*
X130716507Y-94326570D01*
X130502422Y-94426399D01*
X130502420Y-94426400D01*
X130308926Y-94561886D01*
X130308920Y-94561891D01*
X130141891Y-94728920D01*
X130141890Y-94728922D01*
X130011575Y-94915031D01*
X129956998Y-94958655D01*
X129887499Y-94965848D01*
X129825145Y-94934326D01*
X129808425Y-94915031D01*
X129678109Y-94728922D01*
X129678108Y-94728920D01*
X129511082Y-94561894D01*
X129317578Y-94426399D01*
X129103492Y-94326570D01*
X129103486Y-94326567D01*
X128981349Y-94293841D01*
X128921689Y-94257476D01*
X128891160Y-94194629D01*
X128899455Y-94125253D01*
X128943940Y-94071375D01*
X128977444Y-94055407D01*
X129043954Y-94035232D01*
X129226450Y-93937685D01*
X129386410Y-93806410D01*
X129517685Y-93646450D01*
X129615232Y-93463954D01*
X129675300Y-93265934D01*
X129695583Y-93060000D01*
X129675300Y-92854066D01*
X129615232Y-92656046D01*
X129517685Y-92473550D01*
X129442897Y-92382420D01*
X129386410Y-92313589D01*
X129236121Y-92190252D01*
X129226450Y-92182315D01*
X129043954Y-92084768D01*
X128845934Y-92024700D01*
X128845932Y-92024699D01*
X128845934Y-92024699D01*
X128640000Y-92004417D01*
X128434067Y-92024699D01*
X128236043Y-92084769D01*
X128148114Y-92131769D01*
X128053550Y-92182315D01*
X128053548Y-92182316D01*
X128053547Y-92182317D01*
X127893589Y-92313589D01*
X127762317Y-92473547D01*
X127664769Y-92656043D01*
X127604699Y-92854067D01*
X127584417Y-93060000D01*
X127604699Y-93265932D01*
X127604700Y-93265934D01*
X127664768Y-93463954D01*
X127762315Y-93646450D01*
X127762317Y-93646452D01*
X127893589Y-93806410D01*
X127990209Y-93885702D01*
X128053550Y-93937685D01*
X128236046Y-94035232D01*
X128302551Y-94055405D01*
X128360989Y-94093702D01*
X128389446Y-94157514D01*
X128378887Y-94226581D01*
X128332663Y-94278975D01*
X128298650Y-94293841D01*
X128176514Y-94326567D01*
X128176507Y-94326570D01*
X127962422Y-94426399D01*
X127962420Y-94426400D01*
X127768926Y-94561886D01*
X127768920Y-94561891D01*
X127601891Y-94728920D01*
X127601890Y-94728922D01*
X127471575Y-94915031D01*
X127416998Y-94958655D01*
X127347499Y-94965848D01*
X127285145Y-94934326D01*
X127268425Y-94915031D01*
X127138109Y-94728922D01*
X127138108Y-94728920D01*
X126971082Y-94561894D01*
X126777578Y-94426399D01*
X126563492Y-94326570D01*
X126563486Y-94326567D01*
X126441349Y-94293841D01*
X126381689Y-94257476D01*
X126351160Y-94194629D01*
X126359455Y-94125253D01*
X126403940Y-94071375D01*
X126437444Y-94055407D01*
X126503954Y-94035232D01*
X126686450Y-93937685D01*
X126846410Y-93806410D01*
X126977685Y-93646450D01*
X127075232Y-93463954D01*
X127135300Y-93265934D01*
X127155583Y-93060000D01*
X127135300Y-92854066D01*
X127075232Y-92656046D01*
X126977685Y-92473550D01*
X126902897Y-92382420D01*
X126846410Y-92313589D01*
X126696121Y-92190252D01*
X126686450Y-92182315D01*
X126503954Y-92084768D01*
X126305934Y-92024700D01*
X126305932Y-92024699D01*
X126305934Y-92024699D01*
X126100000Y-92004417D01*
X125894067Y-92024699D01*
X125696043Y-92084769D01*
X125608114Y-92131769D01*
X125513550Y-92182315D01*
X125513548Y-92182316D01*
X125513547Y-92182317D01*
X125353589Y-92313589D01*
X125222317Y-92473547D01*
X125124769Y-92656043D01*
X125064699Y-92854067D01*
X125044417Y-93060000D01*
X125064699Y-93265932D01*
X125064700Y-93265934D01*
X125124768Y-93463954D01*
X125222315Y-93646450D01*
X125222317Y-93646452D01*
X125353589Y-93806410D01*
X125450209Y-93885702D01*
X125513550Y-93937685D01*
X125696046Y-94035232D01*
X125762551Y-94055405D01*
X125820989Y-94093702D01*
X125849446Y-94157514D01*
X125838887Y-94226581D01*
X125792663Y-94278975D01*
X125758650Y-94293841D01*
X125636514Y-94326567D01*
X125636507Y-94326570D01*
X125422422Y-94426399D01*
X125422420Y-94426400D01*
X125228926Y-94561886D01*
X125228920Y-94561891D01*
X125061891Y-94728920D01*
X125061890Y-94728922D01*
X124931575Y-94915031D01*
X124876998Y-94958655D01*
X124807499Y-94965848D01*
X124745145Y-94934326D01*
X124728425Y-94915031D01*
X124598109Y-94728922D01*
X124598108Y-94728920D01*
X124431082Y-94561894D01*
X124237578Y-94426399D01*
X124023492Y-94326570D01*
X124023486Y-94326567D01*
X123901349Y-94293841D01*
X123841689Y-94257476D01*
X123811160Y-94194629D01*
X123819455Y-94125253D01*
X123863940Y-94071375D01*
X123897444Y-94055407D01*
X123963954Y-94035232D01*
X124146450Y-93937685D01*
X124306410Y-93806410D01*
X124437685Y-93646450D01*
X124535232Y-93463954D01*
X124595300Y-93265934D01*
X124615583Y-93060000D01*
X124595300Y-92854066D01*
X124535232Y-92656046D01*
X124437685Y-92473550D01*
X124362897Y-92382420D01*
X124306410Y-92313589D01*
X124156121Y-92190252D01*
X124146450Y-92182315D01*
X123963954Y-92084768D01*
X123765934Y-92024700D01*
X123765932Y-92024699D01*
X123765934Y-92024699D01*
X123560000Y-92004417D01*
X123354067Y-92024699D01*
X123156043Y-92084769D01*
X123068114Y-92131769D01*
X122973550Y-92182315D01*
X122973548Y-92182316D01*
X122973547Y-92182317D01*
X122813589Y-92313589D01*
X122682317Y-92473547D01*
X122584769Y-92656043D01*
X122524699Y-92854067D01*
X122504417Y-93060000D01*
X122524699Y-93265932D01*
X122524700Y-93265934D01*
X122584768Y-93463954D01*
X122682315Y-93646450D01*
X122682317Y-93646452D01*
X122813589Y-93806410D01*
X122910209Y-93885702D01*
X122973550Y-93937685D01*
X123156046Y-94035232D01*
X123222551Y-94055405D01*
X123280989Y-94093702D01*
X123309446Y-94157514D01*
X123298887Y-94226581D01*
X123252663Y-94278975D01*
X123218650Y-94293841D01*
X123096514Y-94326567D01*
X123096507Y-94326570D01*
X122882422Y-94426399D01*
X122882420Y-94426400D01*
X122688926Y-94561886D01*
X122688920Y-94561891D01*
X122521891Y-94728920D01*
X122521890Y-94728922D01*
X122391575Y-94915031D01*
X122336998Y-94958655D01*
X122267499Y-94965848D01*
X122205145Y-94934326D01*
X122188425Y-94915031D01*
X122058109Y-94728922D01*
X122058108Y-94728920D01*
X121891082Y-94561894D01*
X121697578Y-94426399D01*
X121483492Y-94326570D01*
X121483486Y-94326567D01*
X121361349Y-94293841D01*
X121301689Y-94257476D01*
X121271160Y-94194629D01*
X121279455Y-94125253D01*
X121323940Y-94071375D01*
X121357444Y-94055407D01*
X121423954Y-94035232D01*
X121606450Y-93937685D01*
X121766410Y-93806410D01*
X121897685Y-93646450D01*
X121995232Y-93463954D01*
X122055300Y-93265934D01*
X122075583Y-93060000D01*
X122055300Y-92854066D01*
X121995232Y-92656046D01*
X121897685Y-92473550D01*
X121822897Y-92382420D01*
X121766410Y-92313589D01*
X121616121Y-92190252D01*
X121606450Y-92182315D01*
X121423954Y-92084768D01*
X121225934Y-92024700D01*
X121225932Y-92024699D01*
X121225934Y-92024699D01*
X121020000Y-92004417D01*
X120814067Y-92024699D01*
X120616043Y-92084769D01*
X120528114Y-92131769D01*
X120433550Y-92182315D01*
X120433548Y-92182316D01*
X120433547Y-92182317D01*
X120273589Y-92313589D01*
X120142317Y-92473547D01*
X120044769Y-92656043D01*
X119984699Y-92854067D01*
X119964417Y-93060000D01*
X119984699Y-93265932D01*
X119984700Y-93265934D01*
X120044768Y-93463954D01*
X120142315Y-93646450D01*
X120142317Y-93646452D01*
X120273589Y-93806410D01*
X120370209Y-93885702D01*
X120433550Y-93937685D01*
X120616046Y-94035232D01*
X120682551Y-94055405D01*
X120740989Y-94093702D01*
X120769446Y-94157514D01*
X120758887Y-94226581D01*
X120712663Y-94278975D01*
X120678650Y-94293841D01*
X120556514Y-94326567D01*
X120556507Y-94326570D01*
X120342422Y-94426399D01*
X120342420Y-94426400D01*
X120148926Y-94561886D01*
X120148920Y-94561891D01*
X119981891Y-94728920D01*
X119981890Y-94728922D01*
X119851575Y-94915031D01*
X119796998Y-94958655D01*
X119727499Y-94965848D01*
X119665145Y-94934326D01*
X119648425Y-94915031D01*
X119518109Y-94728922D01*
X119518108Y-94728920D01*
X119351082Y-94561894D01*
X119157578Y-94426399D01*
X118943492Y-94326570D01*
X118943486Y-94326567D01*
X118821349Y-94293841D01*
X118761689Y-94257476D01*
X118731160Y-94194629D01*
X118739455Y-94125253D01*
X118783940Y-94071375D01*
X118817444Y-94055407D01*
X118883954Y-94035232D01*
X119066450Y-93937685D01*
X119226410Y-93806410D01*
X119357685Y-93646450D01*
X119455232Y-93463954D01*
X119515300Y-93265934D01*
X119535583Y-93060000D01*
X119515300Y-92854066D01*
X119455232Y-92656046D01*
X119357685Y-92473550D01*
X119282897Y-92382420D01*
X119226410Y-92313589D01*
X119076121Y-92190252D01*
X119066450Y-92182315D01*
X118883954Y-92084768D01*
X118685934Y-92024700D01*
X118685932Y-92024699D01*
X118685934Y-92024699D01*
X118480000Y-92004417D01*
X118274067Y-92024699D01*
X118076043Y-92084769D01*
X117988114Y-92131769D01*
X117893550Y-92182315D01*
X117893548Y-92182316D01*
X117893547Y-92182317D01*
X117733589Y-92313589D01*
X117602317Y-92473547D01*
X117504769Y-92656043D01*
X117444699Y-92854067D01*
X117424417Y-93060000D01*
X117444699Y-93265932D01*
X117444700Y-93265934D01*
X117504768Y-93463954D01*
X117602315Y-93646450D01*
X117602317Y-93646452D01*
X117733589Y-93806410D01*
X117830209Y-93885702D01*
X117893550Y-93937685D01*
X118076046Y-94035232D01*
X118142551Y-94055405D01*
X118200989Y-94093702D01*
X118229446Y-94157514D01*
X118218887Y-94226581D01*
X118172663Y-94278975D01*
X118138650Y-94293841D01*
X118016514Y-94326567D01*
X118016507Y-94326570D01*
X117802422Y-94426399D01*
X117802420Y-94426400D01*
X117608926Y-94561886D01*
X117608920Y-94561891D01*
X117441891Y-94728920D01*
X117441890Y-94728922D01*
X117311575Y-94915031D01*
X117256998Y-94958655D01*
X117187499Y-94965848D01*
X117125145Y-94934326D01*
X117108425Y-94915031D01*
X116978109Y-94728922D01*
X116978108Y-94728920D01*
X116811082Y-94561894D01*
X116617578Y-94426399D01*
X116403492Y-94326570D01*
X116403486Y-94326567D01*
X116281349Y-94293841D01*
X116221689Y-94257476D01*
X116191160Y-94194629D01*
X116199455Y-94125253D01*
X116243940Y-94071375D01*
X116277444Y-94055407D01*
X116343954Y-94035232D01*
X116526450Y-93937685D01*
X116686410Y-93806410D01*
X116817685Y-93646450D01*
X116915232Y-93463954D01*
X116975300Y-93265934D01*
X116995583Y-93060000D01*
X116975300Y-92854066D01*
X116915232Y-92656046D01*
X116817685Y-92473550D01*
X116742897Y-92382420D01*
X116686410Y-92313589D01*
X116536121Y-92190252D01*
X116526450Y-92182315D01*
X116343954Y-92084768D01*
X116145934Y-92024700D01*
X116145932Y-92024699D01*
X116145934Y-92024699D01*
X115940000Y-92004417D01*
X115734067Y-92024699D01*
X115536043Y-92084769D01*
X115448114Y-92131769D01*
X115353550Y-92182315D01*
X115353548Y-92182316D01*
X115353547Y-92182317D01*
X115193589Y-92313589D01*
X115062317Y-92473547D01*
X114964769Y-92656043D01*
X114904699Y-92854067D01*
X114884417Y-93060000D01*
X114904699Y-93265932D01*
X114904700Y-93265934D01*
X114964768Y-93463954D01*
X115062315Y-93646450D01*
X115062317Y-93646452D01*
X115193589Y-93806410D01*
X115290209Y-93885702D01*
X115353550Y-93937685D01*
X115536046Y-94035232D01*
X115602551Y-94055405D01*
X115660989Y-94093702D01*
X115689446Y-94157514D01*
X115678887Y-94226581D01*
X115632663Y-94278975D01*
X115598650Y-94293841D01*
X115476514Y-94326567D01*
X115476507Y-94326570D01*
X115262422Y-94426399D01*
X115262420Y-94426400D01*
X115068926Y-94561886D01*
X115068920Y-94561891D01*
X114901891Y-94728920D01*
X114901890Y-94728922D01*
X114771575Y-94915031D01*
X114716998Y-94958655D01*
X114647499Y-94965848D01*
X114585145Y-94934326D01*
X114568425Y-94915031D01*
X114438109Y-94728922D01*
X114438108Y-94728920D01*
X114271082Y-94561894D01*
X114077578Y-94426399D01*
X113863492Y-94326570D01*
X113863486Y-94326567D01*
X113741349Y-94293841D01*
X113681689Y-94257476D01*
X113651160Y-94194629D01*
X113659455Y-94125253D01*
X113703940Y-94071375D01*
X113737444Y-94055407D01*
X113803954Y-94035232D01*
X113986450Y-93937685D01*
X114146410Y-93806410D01*
X114277685Y-93646450D01*
X114375232Y-93463954D01*
X114435300Y-93265934D01*
X114455583Y-93060000D01*
X114435300Y-92854066D01*
X114375232Y-92656046D01*
X114277685Y-92473550D01*
X114202897Y-92382420D01*
X114146410Y-92313589D01*
X113996121Y-92190252D01*
X113986450Y-92182315D01*
X113803954Y-92084768D01*
X113605934Y-92024700D01*
X113605932Y-92024699D01*
X113605934Y-92024699D01*
X113400000Y-92004417D01*
X113194067Y-92024699D01*
X112996043Y-92084769D01*
X112908114Y-92131769D01*
X112813550Y-92182315D01*
X112813548Y-92182316D01*
X112813547Y-92182317D01*
X112653589Y-92313589D01*
X112522317Y-92473547D01*
X112424769Y-92656043D01*
X112364699Y-92854067D01*
X112344417Y-93060000D01*
X112364699Y-93265932D01*
X112364700Y-93265934D01*
X112424768Y-93463954D01*
X112522315Y-93646450D01*
X112522317Y-93646452D01*
X112653589Y-93806410D01*
X112750209Y-93885702D01*
X112813550Y-93937685D01*
X112996046Y-94035232D01*
X113062551Y-94055405D01*
X113120989Y-94093702D01*
X113149446Y-94157514D01*
X113138887Y-94226581D01*
X113092663Y-94278975D01*
X113058650Y-94293841D01*
X112936514Y-94326567D01*
X112936507Y-94326570D01*
X112722422Y-94426399D01*
X112722420Y-94426400D01*
X112528926Y-94561886D01*
X112528920Y-94561891D01*
X112361891Y-94728920D01*
X112361886Y-94728926D01*
X112226400Y-94922420D01*
X112226399Y-94922422D01*
X112126570Y-95136507D01*
X112126567Y-95136513D01*
X112069364Y-95349999D01*
X104684159Y-95349999D01*
X104575229Y-95241069D01*
X104365051Y-95088366D01*
X104292764Y-95051534D01*
X104133576Y-94970422D01*
X103886493Y-94890140D01*
X103629902Y-94849500D01*
X103629897Y-94849500D01*
X103370103Y-94849500D01*
X103370098Y-94849500D01*
X103113506Y-94890140D01*
X102866423Y-94970422D01*
X102634945Y-95088368D01*
X102424774Y-95241066D01*
X102424768Y-95241071D01*
X102241071Y-95424768D01*
X102241066Y-95424774D01*
X102088368Y-95634945D01*
X101970422Y-95866423D01*
X101890140Y-96113506D01*
X101849500Y-96370097D01*
X100300500Y-96370097D01*
X100300500Y-75971600D01*
X109857553Y-75971600D01*
X109878034Y-76114056D01*
X109914725Y-76194397D01*
X109937823Y-76244973D01*
X110032072Y-76353743D01*
X110153147Y-76431553D01*
X110153150Y-76431554D01*
X110153149Y-76431554D01*
X110260307Y-76463017D01*
X110288480Y-76471290D01*
X110291236Y-76472099D01*
X110291238Y-76472100D01*
X110291239Y-76472100D01*
X110435162Y-76472100D01*
X110435162Y-76472099D01*
X110573253Y-76431553D01*
X110694328Y-76353743D01*
X110788577Y-76244973D01*
X110848365Y-76114057D01*
X110868847Y-75971600D01*
X110848365Y-75829143D01*
X110835012Y-75799906D01*
X110825069Y-75730749D01*
X110854094Y-75667193D01*
X110860112Y-75660728D01*
X112164804Y-74356036D01*
X112226125Y-74322553D01*
X112295817Y-74327537D01*
X112351750Y-74369409D01*
X112365276Y-74392205D01*
X112370642Y-74403953D01*
X112376223Y-74416173D01*
X112470472Y-74524943D01*
X112591547Y-74602753D01*
X112591550Y-74602754D01*
X112591549Y-74602754D01*
X112729636Y-74643299D01*
X112729638Y-74643300D01*
X112877386Y-74643300D01*
X112944425Y-74662985D01*
X112965067Y-74679619D01*
X113669681Y-75384233D01*
X113703166Y-75445556D01*
X113706000Y-75471914D01*
X113706000Y-81168207D01*
X113686315Y-81235246D01*
X113649042Y-81272521D01*
X113638872Y-81279056D01*
X113638866Y-81279062D01*
X113544625Y-81387822D01*
X113544622Y-81387828D01*
X113484834Y-81518743D01*
X113464353Y-81661200D01*
X113484834Y-81803656D01*
X113544622Y-81934571D01*
X113544623Y-81934573D01*
X113638872Y-82043343D01*
X113759947Y-82121153D01*
X113759950Y-82121154D01*
X113759949Y-82121154D01*
X113898036Y-82161699D01*
X113898038Y-82161700D01*
X113898039Y-82161700D01*
X114041962Y-82161700D01*
X114041962Y-82161699D01*
X114180053Y-82121153D01*
X114301128Y-82043343D01*
X114395377Y-81934573D01*
X114455165Y-81803657D01*
X114475647Y-81661200D01*
X114455165Y-81518743D01*
X114395377Y-81387827D01*
X114395375Y-81387825D01*
X114395374Y-81387822D01*
X114301133Y-81279062D01*
X114301127Y-81279056D01*
X114290958Y-81272521D01*
X114245205Y-81219716D01*
X114234000Y-81168207D01*
X114234000Y-77633424D01*
X114253685Y-77566385D01*
X114306489Y-77520630D01*
X114375647Y-77510686D01*
X114439203Y-77539711D01*
X114470793Y-77581911D01*
X114509823Y-77667373D01*
X114604072Y-77776143D01*
X114725147Y-77853953D01*
X114725150Y-77853954D01*
X114725149Y-77853954D01*
X114863236Y-77894499D01*
X114863238Y-77894500D01*
X114863239Y-77894500D01*
X115007162Y-77894500D01*
X115007162Y-77894499D01*
X115145253Y-77853953D01*
X115266328Y-77776143D01*
X115360577Y-77667373D01*
X115420365Y-77536457D01*
X115440847Y-77394000D01*
X115420365Y-77251543D01*
X115360577Y-77120627D01*
X115360575Y-77120625D01*
X115360574Y-77120622D01*
X115266333Y-77011862D01*
X115266327Y-77011856D01*
X115256158Y-77005321D01*
X115210405Y-76952516D01*
X115199200Y-76901007D01*
X115199200Y-76317135D01*
X115218885Y-76250096D01*
X115271689Y-76204341D01*
X115340847Y-76194397D01*
X115404403Y-76223422D01*
X115417758Y-76238838D01*
X115418415Y-76238270D01*
X115424222Y-76244972D01*
X115424223Y-76244973D01*
X115518472Y-76353743D01*
X115639547Y-76431553D01*
X115639550Y-76431554D01*
X115639549Y-76431554D01*
X115746707Y-76463017D01*
X115774880Y-76471290D01*
X115777636Y-76472099D01*
X115777638Y-76472100D01*
X115873767Y-76472100D01*
X115940806Y-76491785D01*
X115961448Y-76508419D01*
X119645348Y-80192319D01*
X119678833Y-80253642D01*
X119673849Y-80323334D01*
X119645348Y-80367681D01*
X116859848Y-83153181D01*
X116798525Y-83186666D01*
X116772167Y-83189500D01*
X111786901Y-83189500D01*
X111719862Y-83169815D01*
X111693188Y-83146703D01*
X111659528Y-83107857D01*
X111538453Y-83030047D01*
X111538451Y-83030046D01*
X111538449Y-83030045D01*
X111538450Y-83030045D01*
X111400363Y-82989500D01*
X111400361Y-82989500D01*
X111256439Y-82989500D01*
X111256436Y-82989500D01*
X111118349Y-83030045D01*
X110997273Y-83107856D01*
X110903023Y-83216626D01*
X110903022Y-83216628D01*
X110843234Y-83347543D01*
X110822753Y-83490000D01*
X110843234Y-83632456D01*
X110887991Y-83730458D01*
X110903023Y-83763373D01*
X110997272Y-83872143D01*
X111118347Y-83949953D01*
X111118350Y-83949954D01*
X111118349Y-83949954D01*
X111256436Y-83990499D01*
X111256438Y-83990500D01*
X111256439Y-83990500D01*
X111400362Y-83990500D01*
X111400362Y-83990499D01*
X111538453Y-83949953D01*
X111659528Y-83872143D01*
X111693188Y-83833296D01*
X111751967Y-83795523D01*
X111786901Y-83790500D01*
X116987560Y-83790500D01*
X116987562Y-83790500D01*
X117063989Y-83770021D01*
X117132511Y-83730460D01*
X117188460Y-83674511D01*
X120246152Y-80616819D01*
X120307475Y-80583334D01*
X120333833Y-80580500D01*
X124722889Y-80580500D01*
X124722891Y-80580500D01*
X124799318Y-80560021D01*
X124867840Y-80520460D01*
X124923789Y-80464511D01*
X125971481Y-79416819D01*
X126032804Y-79383334D01*
X126059162Y-79380500D01*
X131714089Y-79380500D01*
X131714091Y-79380500D01*
X131790518Y-79360021D01*
X131859040Y-79320460D01*
X131914989Y-79264511D01*
X134225660Y-76953840D01*
X134250870Y-76910174D01*
X134265221Y-76885318D01*
X134285700Y-76808891D01*
X134285700Y-76348838D01*
X134305385Y-76281799D01*
X134315987Y-76267635D01*
X134316324Y-76267244D01*
X134316328Y-76267243D01*
X134410577Y-76158473D01*
X134470365Y-76027557D01*
X134490847Y-75885100D01*
X134470365Y-75742643D01*
X134410577Y-75611727D01*
X134316328Y-75502957D01*
X134195253Y-75425147D01*
X134195251Y-75425146D01*
X134195249Y-75425145D01*
X134195250Y-75425145D01*
X134057163Y-75384600D01*
X134057161Y-75384600D01*
X133913239Y-75384600D01*
X133913236Y-75384600D01*
X133775149Y-75425145D01*
X133654073Y-75502956D01*
X133559823Y-75611726D01*
X133559822Y-75611728D01*
X133500034Y-75742643D01*
X133479553Y-75885100D01*
X133500034Y-76027556D01*
X133547201Y-76130835D01*
X133559823Y-76158473D01*
X133654072Y-76267243D01*
X133654075Y-76267244D01*
X133654413Y-76267635D01*
X133683438Y-76331191D01*
X133684700Y-76348838D01*
X133684700Y-76593496D01*
X133665015Y-76660535D01*
X133648381Y-76681177D01*
X131586377Y-78743181D01*
X131525054Y-78776666D01*
X131498696Y-78779500D01*
X125843767Y-78779500D01*
X125792815Y-78793152D01*
X125767339Y-78799979D01*
X125731787Y-78820505D01*
X125703206Y-78837006D01*
X125703203Y-78837008D01*
X125698821Y-78839537D01*
X125698817Y-78839540D01*
X125071596Y-79466760D01*
X125010273Y-79500245D01*
X124940581Y-79495261D01*
X124884648Y-79453389D01*
X124871121Y-79430590D01*
X124860179Y-79406630D01*
X124860174Y-79406622D01*
X124765933Y-79297862D01*
X124765927Y-79297856D01*
X124755758Y-79291321D01*
X124710005Y-79238516D01*
X124698800Y-79187007D01*
X124698800Y-78773914D01*
X124718485Y-78706875D01*
X124735119Y-78686233D01*
X126382953Y-77038400D01*
X131345953Y-77038400D01*
X131366434Y-77180856D01*
X131402072Y-77258890D01*
X131426223Y-77311773D01*
X131520472Y-77420543D01*
X131641547Y-77498353D01*
X131641550Y-77498354D01*
X131641549Y-77498354D01*
X131717416Y-77520630D01*
X131771315Y-77536456D01*
X131779636Y-77538899D01*
X131779638Y-77538900D01*
X131779639Y-77538900D01*
X131923562Y-77538900D01*
X131923562Y-77538899D01*
X132061653Y-77498353D01*
X132182728Y-77420543D01*
X132276977Y-77311773D01*
X132336765Y-77180857D01*
X132357247Y-77038400D01*
X132336765Y-76895943D01*
X132276977Y-76765027D01*
X132276975Y-76765025D01*
X132276974Y-76765022D01*
X132182733Y-76656262D01*
X132182727Y-76656256D01*
X132172558Y-76649721D01*
X132126805Y-76596916D01*
X132115600Y-76545407D01*
X132115600Y-76132313D01*
X132135285Y-76065274D01*
X132151914Y-76044637D01*
X133415332Y-74781218D01*
X133476655Y-74747734D01*
X133503013Y-74744900D01*
X133650762Y-74744900D01*
X133650762Y-74744899D01*
X133788853Y-74704353D01*
X133909928Y-74626543D01*
X134004177Y-74517773D01*
X134063965Y-74386857D01*
X134084447Y-74244400D01*
X134063965Y-74101943D01*
X134004177Y-73971027D01*
X133909928Y-73862257D01*
X133788853Y-73784447D01*
X133788851Y-73784446D01*
X133788849Y-73784445D01*
X133788850Y-73784445D01*
X133650763Y-73743900D01*
X133650761Y-73743900D01*
X133506839Y-73743900D01*
X133506836Y-73743900D01*
X133368749Y-73784445D01*
X133247673Y-73862256D01*
X133153423Y-73971026D01*
X133153422Y-73971028D01*
X133093634Y-74101943D01*
X133073153Y-74244400D01*
X133080949Y-74298626D01*
X133071005Y-74367785D01*
X133045892Y-74403953D01*
X131702056Y-75747792D01*
X131627793Y-75822054D01*
X131627792Y-75822055D01*
X131627792Y-75822056D01*
X131616021Y-75850472D01*
X131587600Y-75919086D01*
X131587600Y-76545407D01*
X131567915Y-76612446D01*
X131530642Y-76649721D01*
X131520472Y-76656256D01*
X131520466Y-76656262D01*
X131426225Y-76765022D01*
X131426222Y-76765028D01*
X131366434Y-76895943D01*
X131345953Y-77038400D01*
X126382953Y-77038400D01*
X126387434Y-77033919D01*
X126448757Y-77000434D01*
X126475115Y-76997600D01*
X129719712Y-76997600D01*
X129719713Y-76997600D01*
X129816744Y-76957408D01*
X130805409Y-75968744D01*
X130805409Y-75968742D01*
X130822845Y-75951307D01*
X130822846Y-75951304D01*
X131059408Y-75714744D01*
X131099600Y-75617713D01*
X131099600Y-75512688D01*
X131099600Y-74584992D01*
X131119285Y-74517953D01*
X131156561Y-74480676D01*
X131166728Y-74474143D01*
X131260977Y-74365373D01*
X131320765Y-74234457D01*
X131341247Y-74092000D01*
X131320765Y-73949543D01*
X131260977Y-73818627D01*
X131166728Y-73709857D01*
X131045653Y-73632047D01*
X131045651Y-73632046D01*
X131045649Y-73632045D01*
X131045650Y-73632045D01*
X130907563Y-73591500D01*
X130907561Y-73591500D01*
X130763639Y-73591500D01*
X130763636Y-73591500D01*
X130625549Y-73632045D01*
X130504473Y-73709856D01*
X130410223Y-73818626D01*
X130410222Y-73818628D01*
X130350434Y-73949543D01*
X130329953Y-74092000D01*
X130350434Y-74234456D01*
X130404642Y-74353153D01*
X130410223Y-74365373D01*
X130504472Y-74474143D01*
X130514637Y-74480676D01*
X130560393Y-74533477D01*
X130571600Y-74584992D01*
X130571600Y-75404485D01*
X130551915Y-75471524D01*
X130535281Y-75492166D01*
X130437992Y-75589455D01*
X130432057Y-75595390D01*
X130432056Y-75595391D01*
X129999891Y-76027557D01*
X129594167Y-76433281D01*
X129532844Y-76466766D01*
X129506486Y-76469600D01*
X128779340Y-76469600D01*
X128712301Y-76449915D01*
X128666546Y-76397111D01*
X128656602Y-76327953D01*
X128666546Y-76294088D01*
X128678806Y-76267243D01*
X128679165Y-76266457D01*
X128699647Y-76124000D01*
X128679165Y-75981543D01*
X128619377Y-75850627D01*
X128525128Y-75741857D01*
X128404053Y-75664047D01*
X128404051Y-75664046D01*
X128404049Y-75664045D01*
X128404050Y-75664045D01*
X128265963Y-75623500D01*
X128265961Y-75623500D01*
X128122039Y-75623500D01*
X128113261Y-75624762D01*
X128113039Y-75623224D01*
X128053106Y-75623220D01*
X128000368Y-75591926D01*
X124888383Y-72479941D01*
X124888375Y-72479935D01*
X124819866Y-72440382D01*
X124819861Y-72440379D01*
X124794384Y-72433552D01*
X124743433Y-72419900D01*
X124743431Y-72419900D01*
X113799971Y-72419900D01*
X113732932Y-72400215D01*
X113687177Y-72347411D01*
X113675971Y-72295900D01*
X113675971Y-71375110D01*
X113655491Y-71298680D01*
X113655488Y-71298675D01*
X113615935Y-71230166D01*
X113615929Y-71230158D01*
X111512195Y-69126424D01*
X111478710Y-69065101D01*
X111477139Y-69021094D01*
X111478447Y-69012000D01*
X111457965Y-68869543D01*
X111398177Y-68738627D01*
X111303928Y-68629857D01*
X111182853Y-68552047D01*
X111182851Y-68552046D01*
X111182849Y-68552045D01*
X111182850Y-68552045D01*
X111044763Y-68511500D01*
X111044761Y-68511500D01*
X110900839Y-68511500D01*
X110900836Y-68511500D01*
X110762749Y-68552045D01*
X110641673Y-68629856D01*
X110547423Y-68738626D01*
X110547422Y-68738628D01*
X110487634Y-68869543D01*
X110467153Y-69012000D01*
X110487634Y-69154456D01*
X110542001Y-69273500D01*
X110547423Y-69285373D01*
X110641672Y-69394143D01*
X110762747Y-69471953D01*
X110762750Y-69471954D01*
X110762749Y-69471954D01*
X110843769Y-69495743D01*
X110898080Y-69511690D01*
X110900836Y-69512499D01*
X110900838Y-69512500D01*
X110996967Y-69512500D01*
X111064006Y-69532185D01*
X111084648Y-69548819D01*
X113038652Y-71502823D01*
X113072137Y-71564146D01*
X113074971Y-71590504D01*
X113074971Y-72544567D01*
X113055286Y-72611606D01*
X113038652Y-72632248D01*
X110179663Y-75491236D01*
X110159022Y-75507870D01*
X110032074Y-75589455D01*
X109937823Y-75698226D01*
X109937822Y-75698228D01*
X109878034Y-75829143D01*
X109857553Y-75971600D01*
X100300500Y-75971600D01*
X100300500Y-69012000D01*
X107114353Y-69012000D01*
X107134834Y-69154456D01*
X107189201Y-69273500D01*
X107194623Y-69285373D01*
X107288872Y-69394143D01*
X107409947Y-69471953D01*
X107409950Y-69471954D01*
X107409949Y-69471954D01*
X107490969Y-69495743D01*
X107545280Y-69511690D01*
X107548036Y-69512499D01*
X107548038Y-69512500D01*
X107548039Y-69512500D01*
X107691962Y-69512500D01*
X107691962Y-69512499D01*
X107830053Y-69471953D01*
X107951128Y-69394143D01*
X108045377Y-69285373D01*
X108105165Y-69154457D01*
X108125647Y-69012000D01*
X108117850Y-68957770D01*
X108127794Y-68888612D01*
X108152904Y-68852446D01*
X109775833Y-67229519D01*
X109837156Y-67196034D01*
X109863514Y-67193200D01*
X115898687Y-67193200D01*
X118001072Y-67193200D01*
X118068111Y-67212885D01*
X118094784Y-67235996D01*
X118160072Y-67311343D01*
X118281147Y-67389153D01*
X118281150Y-67389154D01*
X118281149Y-67389154D01*
X118419236Y-67429699D01*
X118419238Y-67429700D01*
X118419239Y-67429700D01*
X118563162Y-67429700D01*
X118563162Y-67429699D01*
X118701253Y-67389153D01*
X118822328Y-67311343D01*
X118887615Y-67235996D01*
X118946393Y-67198223D01*
X118981328Y-67193200D01*
X122655087Y-67193200D01*
X122750086Y-67193200D01*
X122817125Y-67212885D01*
X122837767Y-67229519D01*
X124562292Y-68954044D01*
X124595777Y-69015367D01*
X124597349Y-69059370D01*
X124589553Y-69113598D01*
X124589553Y-69113599D01*
X124610034Y-69256056D01*
X124636518Y-69314047D01*
X124669823Y-69386973D01*
X124764072Y-69495743D01*
X124885147Y-69573553D01*
X124885150Y-69573554D01*
X124885149Y-69573554D01*
X125023236Y-69614099D01*
X125023238Y-69614100D01*
X125023239Y-69614100D01*
X125167162Y-69614100D01*
X125167162Y-69614099D01*
X125305253Y-69573553D01*
X125426328Y-69495743D01*
X125520577Y-69386973D01*
X125580365Y-69256057D01*
X125600847Y-69113600D01*
X125580365Y-68971143D01*
X125520577Y-68840227D01*
X125426328Y-68731457D01*
X125305253Y-68653647D01*
X125305251Y-68653646D01*
X125305249Y-68653645D01*
X125305250Y-68653645D01*
X125167163Y-68613100D01*
X125167161Y-68613100D01*
X125023239Y-68613100D01*
X125019414Y-68613100D01*
X124952375Y-68593415D01*
X124931733Y-68576781D01*
X123759833Y-67404881D01*
X123726348Y-67343558D01*
X123731332Y-67273866D01*
X123773204Y-67217933D01*
X123838668Y-67193516D01*
X123847514Y-67193200D01*
X136770886Y-67193200D01*
X136837925Y-67212885D01*
X136858567Y-67229519D01*
X138735492Y-69106444D01*
X138768977Y-69167767D01*
X138770549Y-69211770D01*
X138762753Y-69265998D01*
X138762753Y-69265999D01*
X138783234Y-69408456D01*
X138834506Y-69520723D01*
X138843023Y-69539373D01*
X138937272Y-69648143D01*
X139058347Y-69725953D01*
X139058350Y-69725954D01*
X139058349Y-69725954D01*
X139196436Y-69766499D01*
X139196438Y-69766500D01*
X139196439Y-69766500D01*
X139340362Y-69766500D01*
X139340362Y-69766499D01*
X139478453Y-69725953D01*
X139599528Y-69648143D01*
X139693777Y-69539373D01*
X139702624Y-69520000D01*
X154104353Y-69520000D01*
X154124834Y-69662456D01*
X154184622Y-69793371D01*
X154184623Y-69793373D01*
X154278872Y-69902143D01*
X154399947Y-69979953D01*
X154399950Y-69979954D01*
X154399949Y-69979954D01*
X154538036Y-70020499D01*
X154538038Y-70020500D01*
X154538039Y-70020500D01*
X154681962Y-70020500D01*
X154681962Y-70020499D01*
X154820053Y-69979953D01*
X154941128Y-69902143D01*
X155035377Y-69793373D01*
X155095165Y-69662457D01*
X155100974Y-69622053D01*
X155129999Y-69558498D01*
X155188776Y-69520723D01*
X155223712Y-69515700D01*
X162358967Y-69515700D01*
X162426006Y-69535385D01*
X162446648Y-69552019D01*
X162554204Y-69659575D01*
X162587689Y-69720898D01*
X162589261Y-69764902D01*
X162587953Y-69773999D01*
X162608434Y-69916456D01*
X162637433Y-69979953D01*
X162668223Y-70047373D01*
X162762472Y-70156143D01*
X162883547Y-70233953D01*
X162883550Y-70233954D01*
X162883549Y-70233954D01*
X163021636Y-70274499D01*
X163021638Y-70274500D01*
X163021639Y-70274500D01*
X163165562Y-70274500D01*
X163165562Y-70274499D01*
X163303653Y-70233953D01*
X163424728Y-70156143D01*
X163518977Y-70047373D01*
X163578765Y-69916457D01*
X163599247Y-69774000D01*
X163578765Y-69631543D01*
X163518977Y-69500627D01*
X163424728Y-69391857D01*
X163303653Y-69314047D01*
X163303651Y-69314046D01*
X163303649Y-69314045D01*
X163303650Y-69314045D01*
X163165563Y-69273500D01*
X163165561Y-69273500D01*
X163069433Y-69273500D01*
X163002394Y-69253815D01*
X162981752Y-69237181D01*
X162719314Y-68974742D01*
X162719311Y-68974740D01*
X162713081Y-68971143D01*
X162713081Y-68971142D01*
X162650789Y-68935179D01*
X162650790Y-68935179D01*
X162625313Y-68928352D01*
X162574362Y-68914700D01*
X155259162Y-68914700D01*
X154875238Y-68914700D01*
X154824286Y-68928352D01*
X154798810Y-68935179D01*
X154736517Y-68971144D01*
X154730286Y-68974741D01*
X154721847Y-68983181D01*
X154660524Y-69016666D01*
X154634166Y-69019500D01*
X154538036Y-69019500D01*
X154399949Y-69060045D01*
X154278873Y-69137856D01*
X154184623Y-69246626D01*
X154184622Y-69246628D01*
X154124834Y-69377543D01*
X154104353Y-69520000D01*
X139702624Y-69520000D01*
X139753565Y-69408457D01*
X139774047Y-69266000D01*
X139753565Y-69123543D01*
X139693777Y-68992627D01*
X139599528Y-68883857D01*
X139478453Y-68806047D01*
X139478451Y-68806046D01*
X139478449Y-68806045D01*
X139478450Y-68806045D01*
X139340363Y-68765500D01*
X139340361Y-68765500D01*
X139196439Y-68765500D01*
X139192614Y-68765500D01*
X139125575Y-68745815D01*
X139104933Y-68729181D01*
X137081145Y-66705393D01*
X137081144Y-66705392D01*
X136984113Y-66665200D01*
X118981328Y-66665200D01*
X118914289Y-66645515D01*
X118887615Y-66622403D01*
X118822328Y-66547057D01*
X118701253Y-66469247D01*
X118701251Y-66469246D01*
X118701249Y-66469245D01*
X118701250Y-66469245D01*
X118563163Y-66428700D01*
X118563161Y-66428700D01*
X118419239Y-66428700D01*
X118419236Y-66428700D01*
X118281149Y-66469245D01*
X118160073Y-66547056D01*
X118094785Y-66622403D01*
X118036007Y-66660177D01*
X118001072Y-66665200D01*
X116111914Y-66665200D01*
X116044875Y-66645515D01*
X116024233Y-66628881D01*
X113893307Y-64497955D01*
X113859822Y-64436632D01*
X113858250Y-64392628D01*
X113866047Y-64338400D01*
X113845565Y-64195943D01*
X113785777Y-64065027D01*
X113691528Y-63956257D01*
X113570453Y-63878447D01*
X113570451Y-63878446D01*
X113570449Y-63878445D01*
X113570450Y-63878445D01*
X113432363Y-63837900D01*
X113432361Y-63837900D01*
X113288439Y-63837900D01*
X113288436Y-63837900D01*
X113150349Y-63878445D01*
X113029273Y-63956256D01*
X112935023Y-64065026D01*
X112935022Y-64065028D01*
X112875234Y-64195943D01*
X112854753Y-64338400D01*
X112875234Y-64480856D01*
X112883043Y-64497955D01*
X112935023Y-64611773D01*
X113029272Y-64720543D01*
X113150347Y-64798353D01*
X113150350Y-64798354D01*
X113150349Y-64798354D01*
X113288436Y-64838899D01*
X113288438Y-64838900D01*
X113436186Y-64838900D01*
X113503225Y-64858585D01*
X113523867Y-64875219D01*
X115102167Y-66453519D01*
X115135652Y-66514842D01*
X115130668Y-66584534D01*
X115088796Y-66640467D01*
X115023332Y-66664884D01*
X115014486Y-66665200D01*
X109650286Y-66665200D01*
X109553254Y-66705393D01*
X107783466Y-68475181D01*
X107722143Y-68508666D01*
X107695785Y-68511500D01*
X107548036Y-68511500D01*
X107409949Y-68552045D01*
X107288873Y-68629856D01*
X107194623Y-68738626D01*
X107194622Y-68738628D01*
X107134834Y-68869543D01*
X107114353Y-69012000D01*
X100300500Y-69012000D01*
X100300500Y-56007200D01*
X101170753Y-56007200D01*
X101191234Y-56149656D01*
X101204623Y-56178973D01*
X101251023Y-56280573D01*
X101345272Y-56389343D01*
X101345275Y-56389344D01*
X101345613Y-56389735D01*
X101374638Y-56453291D01*
X101375900Y-56470938D01*
X101375900Y-56961162D01*
X101396379Y-57037589D01*
X101428586Y-57093373D01*
X101435940Y-57106111D01*
X101435943Y-57106115D01*
X103151638Y-58821809D01*
X104737940Y-60408111D01*
X104941140Y-60611311D01*
X104997089Y-60667260D01*
X104997091Y-60667261D01*
X104997095Y-60667264D01*
X105054093Y-60700171D01*
X105065611Y-60706821D01*
X105142038Y-60727300D01*
X106450299Y-60727300D01*
X106517338Y-60746985D01*
X106544011Y-60770096D01*
X106577672Y-60808943D01*
X106698747Y-60886753D01*
X106698750Y-60886754D01*
X106698749Y-60886754D01*
X106836836Y-60927299D01*
X106836838Y-60927300D01*
X106836839Y-60927300D01*
X106980762Y-60927300D01*
X106980762Y-60927299D01*
X107118853Y-60886753D01*
X107239928Y-60808943D01*
X107334177Y-60700173D01*
X107393965Y-60569257D01*
X107414447Y-60426800D01*
X107393965Y-60284343D01*
X107334177Y-60153427D01*
X107239928Y-60044657D01*
X107118853Y-59966847D01*
X107118851Y-59966846D01*
X107118849Y-59966845D01*
X107118850Y-59966845D01*
X106980763Y-59926300D01*
X106980761Y-59926300D01*
X106836839Y-59926300D01*
X106836836Y-59926300D01*
X106698749Y-59966845D01*
X106577673Y-60044656D01*
X106544012Y-60083503D01*
X106485233Y-60121277D01*
X106450299Y-60126300D01*
X105357433Y-60126300D01*
X105290394Y-60106615D01*
X105269752Y-60089981D01*
X102013219Y-56833448D01*
X101979734Y-56772125D01*
X101976900Y-56745767D01*
X101976900Y-56470938D01*
X101996585Y-56403899D01*
X102007187Y-56389735D01*
X102007524Y-56389344D01*
X102007528Y-56389343D01*
X102101777Y-56280573D01*
X102161565Y-56149657D01*
X102182047Y-56007200D01*
X102161565Y-55864743D01*
X102101777Y-55733827D01*
X102007528Y-55625057D01*
X101886453Y-55547247D01*
X101886451Y-55547246D01*
X101886449Y-55547245D01*
X101886450Y-55547245D01*
X101748363Y-55506700D01*
X101748361Y-55506700D01*
X101604439Y-55506700D01*
X101604436Y-55506700D01*
X101466349Y-55547245D01*
X101345273Y-55625056D01*
X101251023Y-55733826D01*
X101251022Y-55733828D01*
X101191234Y-55864743D01*
X101170753Y-56007200D01*
X100300500Y-56007200D01*
X100300500Y-47370097D01*
X101849500Y-47370097D01*
X101849500Y-47629902D01*
X101890140Y-47886493D01*
X101970422Y-48133576D01*
X102000981Y-48193550D01*
X102063631Y-48316507D01*
X102088368Y-48365054D01*
X102208208Y-48530000D01*
X102241069Y-48575229D01*
X102424771Y-48758931D01*
X102634949Y-48911634D01*
X102780766Y-48985932D01*
X102866423Y-49029577D01*
X102866425Y-49029577D01*
X102866428Y-49029579D01*
X103113507Y-49109860D01*
X103245706Y-49130797D01*
X103370098Y-49150500D01*
X103370103Y-49150500D01*
X103629902Y-49150500D01*
X103743298Y-49132539D01*
X103886493Y-49109860D01*
X104133572Y-49029579D01*
X104365051Y-48911634D01*
X104575229Y-48758931D01*
X104758931Y-48575229D01*
X104911634Y-48365051D01*
X105029579Y-48133572D01*
X105102142Y-47910247D01*
X107319500Y-47910247D01*
X107319500Y-49649752D01*
X107331131Y-49708229D01*
X107331132Y-49708230D01*
X107375447Y-49774552D01*
X107441769Y-49818867D01*
X107441770Y-49818868D01*
X107500247Y-49830499D01*
X107500250Y-49830500D01*
X107500252Y-49830500D01*
X109239750Y-49830500D01*
X109239751Y-49830499D01*
X109262120Y-49826050D01*
X109298229Y-49818868D01*
X109298229Y-49818867D01*
X109298231Y-49818867D01*
X109364552Y-49774552D01*
X109408867Y-49708231D01*
X109408867Y-49708229D01*
X109408868Y-49708229D01*
X109418922Y-49657682D01*
X109420500Y-49649748D01*
X109420500Y-47910252D01*
X109420500Y-47910249D01*
X109420499Y-47910247D01*
X109408868Y-47851770D01*
X109408867Y-47851769D01*
X109364552Y-47785447D01*
X109298230Y-47741132D01*
X109298229Y-47741131D01*
X109239752Y-47729500D01*
X109239748Y-47729500D01*
X107500252Y-47729500D01*
X107500247Y-47729500D01*
X107441770Y-47741131D01*
X107441769Y-47741132D01*
X107375447Y-47785447D01*
X107331132Y-47851769D01*
X107331131Y-47851770D01*
X107319500Y-47910247D01*
X105102142Y-47910247D01*
X105109860Y-47886493D01*
X105137062Y-47714745D01*
X105150500Y-47629902D01*
X105150500Y-47370097D01*
X105119662Y-47175397D01*
X105109860Y-47113507D01*
X105029579Y-46866428D01*
X105029577Y-46866425D01*
X105029577Y-46866423D01*
X104986787Y-46782445D01*
X104911634Y-46634949D01*
X104758931Y-46424771D01*
X104575229Y-46241069D01*
X104573758Y-46240000D01*
X107314417Y-46240000D01*
X107334699Y-46445932D01*
X107348067Y-46490000D01*
X107394768Y-46643954D01*
X107492315Y-46826450D01*
X107501765Y-46837965D01*
X107623589Y-46986410D01*
X107720209Y-47065702D01*
X107783550Y-47117685D01*
X107966046Y-47215232D01*
X108164066Y-47275300D01*
X108164065Y-47275300D01*
X108182529Y-47277118D01*
X108370000Y-47295583D01*
X108575934Y-47275300D01*
X108773954Y-47215232D01*
X108956450Y-47117685D01*
X109116410Y-46986410D01*
X109247685Y-46826450D01*
X109345232Y-46643954D01*
X109405300Y-46445934D01*
X109425583Y-46240000D01*
X109854417Y-46240000D01*
X109874699Y-46445932D01*
X109888067Y-46490000D01*
X109934768Y-46643954D01*
X110032315Y-46826450D01*
X110041765Y-46837965D01*
X110163589Y-46986410D01*
X110260209Y-47065702D01*
X110323550Y-47117685D01*
X110506046Y-47215232D01*
X110704066Y-47275300D01*
X110704065Y-47275300D01*
X110722529Y-47277118D01*
X110910000Y-47295583D01*
X111115934Y-47275300D01*
X111313954Y-47215232D01*
X111496450Y-47117685D01*
X111656410Y-46986410D01*
X111787685Y-46826450D01*
X111885232Y-46643954D01*
X111905406Y-46577446D01*
X111943702Y-46519010D01*
X112007514Y-46490553D01*
X112076581Y-46501112D01*
X112128975Y-46547336D01*
X112143841Y-46581349D01*
X112176567Y-46703486D01*
X112176570Y-46703492D01*
X112276399Y-46917578D01*
X112411894Y-47111082D01*
X112578917Y-47278105D01*
X112772421Y-47413600D01*
X112986507Y-47513429D01*
X112986516Y-47513433D01*
X113108649Y-47546158D01*
X113168310Y-47582523D01*
X113198839Y-47645369D01*
X113190545Y-47714745D01*
X113146059Y-47768623D01*
X113112552Y-47784593D01*
X113046046Y-47804767D01*
X112915358Y-47874622D01*
X112863550Y-47902315D01*
X112863548Y-47902316D01*
X112863547Y-47902317D01*
X112703589Y-48033589D01*
X112572317Y-48193547D01*
X112474769Y-48376043D01*
X112414699Y-48574067D01*
X112394417Y-48780000D01*
X112414699Y-48985932D01*
X112414700Y-48985934D01*
X112474768Y-49183954D01*
X112572315Y-49366450D01*
X112572317Y-49366452D01*
X112703589Y-49526410D01*
X112769884Y-49580816D01*
X112863550Y-49657685D01*
X113046046Y-49755232D01*
X113097996Y-49770990D01*
X113156433Y-49809286D01*
X113184890Y-49873098D01*
X113186000Y-49889650D01*
X113186000Y-52569285D01*
X113166315Y-52636324D01*
X113113511Y-52682079D01*
X113044353Y-52692023D01*
X112980797Y-52662998D01*
X112974319Y-52656966D01*
X111210319Y-50892966D01*
X111176834Y-50831643D01*
X111174000Y-50805285D01*
X111174000Y-49889650D01*
X111193685Y-49822611D01*
X111246489Y-49776856D01*
X111261992Y-49770994D01*
X111313954Y-49755232D01*
X111496450Y-49657685D01*
X111656410Y-49526410D01*
X111787685Y-49366450D01*
X111885232Y-49183954D01*
X111945300Y-48985934D01*
X111965583Y-48780000D01*
X111945300Y-48574066D01*
X111885232Y-48376046D01*
X111787685Y-48193550D01*
X111712897Y-48102420D01*
X111656410Y-48033589D01*
X111506121Y-47910252D01*
X111496450Y-47902315D01*
X111313954Y-47804768D01*
X111115934Y-47744700D01*
X111115932Y-47744699D01*
X111115934Y-47744699D01*
X110910000Y-47724417D01*
X110704067Y-47744699D01*
X110569736Y-47785448D01*
X110506050Y-47804767D01*
X110506043Y-47804769D01*
X110418114Y-47851769D01*
X110323550Y-47902315D01*
X110323548Y-47902316D01*
X110323547Y-47902317D01*
X110163589Y-48033589D01*
X110032317Y-48193547D01*
X109934769Y-48376043D01*
X109874699Y-48574067D01*
X109854417Y-48780000D01*
X109874699Y-48985932D01*
X109874700Y-48985934D01*
X109934768Y-49183954D01*
X110032315Y-49366450D01*
X110032317Y-49366452D01*
X110163589Y-49526410D01*
X110229884Y-49580816D01*
X110323550Y-49657685D01*
X110506046Y-49755232D01*
X110557996Y-49770990D01*
X110616433Y-49809286D01*
X110644890Y-49873098D01*
X110646000Y-49889650D01*
X110646000Y-50913487D01*
X110646000Y-51018513D01*
X110686192Y-51115544D01*
X110686193Y-51115545D01*
X118392456Y-58821809D01*
X118392458Y-58821811D01*
X118467501Y-58852893D01*
X118489487Y-58862000D01*
X147973072Y-58862000D01*
X148040111Y-58881685D01*
X148066784Y-58904796D01*
X148132072Y-58980143D01*
X148253147Y-59057953D01*
X148253150Y-59057954D01*
X148253149Y-59057954D01*
X148391236Y-59098499D01*
X148391238Y-59098500D01*
X148391239Y-59098500D01*
X148535162Y-59098500D01*
X148535162Y-59098499D01*
X148673253Y-59057953D01*
X148794328Y-58980143D01*
X148888577Y-58871373D01*
X148948365Y-58740457D01*
X148968847Y-58598000D01*
X148948365Y-58455543D01*
X148888577Y-58324627D01*
X148794328Y-58215857D01*
X148794325Y-58215855D01*
X148794323Y-58215853D01*
X148794180Y-58215761D01*
X148794068Y-58215632D01*
X148787623Y-58210047D01*
X148788425Y-58209120D01*
X148748425Y-58162958D01*
X148738481Y-58093799D01*
X148767505Y-58030244D01*
X148786977Y-58007773D01*
X148846765Y-57876857D01*
X148867247Y-57734400D01*
X148846765Y-57591943D01*
X148786977Y-57461027D01*
X148698050Y-57358399D01*
X148669027Y-57294847D01*
X148678970Y-57225689D01*
X148698047Y-57196003D01*
X148786977Y-57093373D01*
X148846765Y-56962457D01*
X148867247Y-56820000D01*
X148846765Y-56677543D01*
X148786977Y-56546627D01*
X148692728Y-56437857D01*
X148692725Y-56437855D01*
X148686023Y-56432047D01*
X148687789Y-56430008D01*
X148651176Y-56387746D01*
X148641239Y-56318587D01*
X148670260Y-56255045D01*
X148736177Y-56178973D01*
X148795965Y-56048057D01*
X148816447Y-55905600D01*
X148795965Y-55763143D01*
X148736177Y-55632227D01*
X148641928Y-55523457D01*
X148520853Y-55445647D01*
X148520851Y-55445646D01*
X148520849Y-55445645D01*
X148520850Y-55445645D01*
X148382763Y-55405100D01*
X148382761Y-55405100D01*
X148238839Y-55405100D01*
X148238836Y-55405100D01*
X148100749Y-55445645D01*
X147979673Y-55523456D01*
X147885423Y-55632226D01*
X147885422Y-55632228D01*
X147825634Y-55763143D01*
X147805153Y-55905600D01*
X147812949Y-55959827D01*
X147803005Y-56028986D01*
X147777892Y-56065154D01*
X146526367Y-57316681D01*
X146465044Y-57350166D01*
X146438686Y-57353000D01*
X119109058Y-57353000D01*
X119042019Y-57333315D01*
X119021377Y-57316681D01*
X116617319Y-54912623D01*
X116583834Y-54851300D01*
X116581000Y-54824942D01*
X116581000Y-54559400D01*
X124462553Y-54559400D01*
X124483034Y-54701856D01*
X124527791Y-54799858D01*
X124542823Y-54832773D01*
X124637072Y-54941543D01*
X124758147Y-55019353D01*
X124758150Y-55019354D01*
X124758149Y-55019354D01*
X124896236Y-55059899D01*
X124896238Y-55059900D01*
X124896239Y-55059900D01*
X125040162Y-55059900D01*
X125040162Y-55059899D01*
X125178253Y-55019353D01*
X125299328Y-54941543D01*
X125332988Y-54902696D01*
X125391767Y-54864923D01*
X125426701Y-54859900D01*
X126277760Y-54859900D01*
X126277762Y-54859900D01*
X126354189Y-54839421D01*
X126422711Y-54799860D01*
X126478660Y-54743911D01*
X128741319Y-52481252D01*
X128802642Y-52447767D01*
X128872334Y-52452751D01*
X128916681Y-52481252D01*
X128923889Y-52488460D01*
X128992412Y-52528022D01*
X129068838Y-52548500D01*
X129147962Y-52548500D01*
X138301899Y-52548500D01*
X138368938Y-52568185D01*
X138395611Y-52591296D01*
X138429272Y-52630143D01*
X138550347Y-52707953D01*
X138550350Y-52707954D01*
X138550349Y-52707954D01*
X138688436Y-52748499D01*
X138688438Y-52748500D01*
X138688439Y-52748500D01*
X138832362Y-52748500D01*
X138832362Y-52748499D01*
X138970453Y-52707953D01*
X139091528Y-52630143D01*
X139185777Y-52521373D01*
X139245565Y-52390457D01*
X139266047Y-52248000D01*
X139245565Y-52105543D01*
X139185777Y-51974627D01*
X139091528Y-51865857D01*
X138970453Y-51788047D01*
X138970451Y-51788046D01*
X138970449Y-51788045D01*
X138970450Y-51788045D01*
X138832363Y-51747500D01*
X138832361Y-51747500D01*
X138688439Y-51747500D01*
X138688436Y-51747500D01*
X138550349Y-51788045D01*
X138429273Y-51865856D01*
X138395612Y-51904703D01*
X138336833Y-51942477D01*
X138301899Y-51947500D01*
X129284233Y-51947500D01*
X129217194Y-51927815D01*
X129196552Y-51911181D01*
X129088995Y-51803624D01*
X129055510Y-51742301D01*
X129053939Y-51698294D01*
X129055247Y-51689200D01*
X129034765Y-51546743D01*
X128974977Y-51415827D01*
X128880728Y-51307057D01*
X128759653Y-51229247D01*
X128759651Y-51229246D01*
X128759649Y-51229245D01*
X128759650Y-51229245D01*
X128621563Y-51188700D01*
X128621561Y-51188700D01*
X128477639Y-51188700D01*
X128477636Y-51188700D01*
X128339549Y-51229245D01*
X128218473Y-51307056D01*
X128124223Y-51415826D01*
X128124222Y-51415828D01*
X128064434Y-51546743D01*
X128043953Y-51689200D01*
X128064434Y-51831656D01*
X128124222Y-51962571D01*
X128124225Y-51962577D01*
X128181315Y-52028462D01*
X128210340Y-52092017D01*
X128200396Y-52161176D01*
X128175283Y-52197345D01*
X126150048Y-54222581D01*
X126088725Y-54256066D01*
X126062367Y-54258900D01*
X125426701Y-54258900D01*
X125359662Y-54239215D01*
X125332988Y-54216103D01*
X125299328Y-54177257D01*
X125178253Y-54099447D01*
X125178251Y-54099446D01*
X125178249Y-54099445D01*
X125178250Y-54099445D01*
X125040163Y-54058900D01*
X125040161Y-54058900D01*
X124896239Y-54058900D01*
X124896236Y-54058900D01*
X124758149Y-54099445D01*
X124637073Y-54177256D01*
X124542823Y-54286026D01*
X124542822Y-54286028D01*
X124483034Y-54416943D01*
X124462553Y-54559400D01*
X116581000Y-54559400D01*
X116581000Y-51280914D01*
X116600685Y-51213875D01*
X116617319Y-51193233D01*
X116953905Y-50856647D01*
X117327309Y-50483244D01*
X117327309Y-50483242D01*
X117327311Y-50483241D01*
X117347404Y-50434728D01*
X117367500Y-50386213D01*
X117367500Y-50281187D01*
X117367500Y-49826050D01*
X117387185Y-49759011D01*
X117439989Y-49713256D01*
X117509147Y-49703312D01*
X117572703Y-49732337D01*
X117579181Y-49738369D01*
X117658917Y-49818105D01*
X117852421Y-49953600D01*
X118066507Y-50053429D01*
X118066516Y-50053433D01*
X118280000Y-50110634D01*
X118280000Y-49213012D01*
X118337007Y-49245925D01*
X118464174Y-49280000D01*
X118595826Y-49280000D01*
X118722993Y-49245925D01*
X118780000Y-49213012D01*
X118780000Y-50110633D01*
X118993483Y-50053433D01*
X118993492Y-50053429D01*
X119207578Y-49953600D01*
X119401082Y-49818105D01*
X119568105Y-49651082D01*
X119703600Y-49457578D01*
X119803429Y-49243492D01*
X119803433Y-49243483D01*
X119836158Y-49121350D01*
X119872522Y-49061690D01*
X119935369Y-49031160D01*
X120004745Y-49039454D01*
X120058623Y-49083939D01*
X120074593Y-49117447D01*
X120094768Y-49183954D01*
X120192315Y-49366450D01*
X120192317Y-49366452D01*
X120323589Y-49526410D01*
X120389884Y-49580816D01*
X120483550Y-49657685D01*
X120666046Y-49755232D01*
X120864066Y-49815300D01*
X120864065Y-49815300D01*
X120882529Y-49817118D01*
X121070000Y-49835583D01*
X121275934Y-49815300D01*
X121473954Y-49755232D01*
X121656450Y-49657685D01*
X121816410Y-49526410D01*
X121947685Y-49366450D01*
X122045232Y-49183954D01*
X122105300Y-48985934D01*
X122125583Y-48780000D01*
X122105300Y-48574066D01*
X122045232Y-48376046D01*
X121947685Y-48193550D01*
X121872897Y-48102420D01*
X121816410Y-48033589D01*
X121666121Y-47910252D01*
X121656450Y-47902315D01*
X121473954Y-47804768D01*
X121275934Y-47744700D01*
X121275932Y-47744699D01*
X121275934Y-47744699D01*
X121070000Y-47724417D01*
X120864067Y-47744699D01*
X120729736Y-47785448D01*
X120666050Y-47804767D01*
X120666043Y-47804769D01*
X120578114Y-47851769D01*
X120483550Y-47902315D01*
X120483548Y-47902316D01*
X120483547Y-47902317D01*
X120323589Y-48033589D01*
X120192317Y-48193547D01*
X120094767Y-48376046D01*
X120074593Y-48442552D01*
X120036296Y-48500990D01*
X119972483Y-48529447D01*
X119903416Y-48518886D01*
X119851023Y-48472661D01*
X119836158Y-48438649D01*
X119803433Y-48316516D01*
X119803429Y-48316507D01*
X119703600Y-48102422D01*
X119703599Y-48102420D01*
X119568113Y-47908926D01*
X119568108Y-47908920D01*
X119401082Y-47741894D01*
X119207578Y-47606399D01*
X118993492Y-47506570D01*
X118993486Y-47506567D01*
X118871349Y-47473841D01*
X118811689Y-47437476D01*
X118781160Y-47374629D01*
X118789455Y-47305253D01*
X118833940Y-47251375D01*
X118867444Y-47235407D01*
X118933954Y-47215232D01*
X119116450Y-47117685D01*
X119276410Y-46986410D01*
X119407685Y-46826450D01*
X119505232Y-46643954D01*
X119565300Y-46445934D01*
X119585583Y-46240000D01*
X120014417Y-46240000D01*
X120034699Y-46445932D01*
X120048067Y-46490000D01*
X120094768Y-46643954D01*
X120192315Y-46826450D01*
X120201765Y-46837965D01*
X120323589Y-46986410D01*
X120420209Y-47065702D01*
X120483550Y-47117685D01*
X120666046Y-47215232D01*
X120864066Y-47275300D01*
X120864065Y-47275300D01*
X120882529Y-47277118D01*
X121070000Y-47295583D01*
X121275934Y-47275300D01*
X121473954Y-47215232D01*
X121656450Y-47117685D01*
X121816410Y-46986410D01*
X121947685Y-46826450D01*
X122045232Y-46643954D01*
X122065406Y-46577446D01*
X122103702Y-46519010D01*
X122167514Y-46490553D01*
X122236581Y-46501112D01*
X122288975Y-46547336D01*
X122303841Y-46581349D01*
X122336567Y-46703486D01*
X122336570Y-46703492D01*
X122436399Y-46917578D01*
X122571894Y-47111082D01*
X122738917Y-47278105D01*
X122932421Y-47413600D01*
X123146507Y-47513429D01*
X123146516Y-47513433D01*
X123268649Y-47546158D01*
X123328310Y-47582523D01*
X123358839Y-47645369D01*
X123350545Y-47714745D01*
X123306059Y-47768623D01*
X123272552Y-47784593D01*
X123206046Y-47804767D01*
X123075358Y-47874622D01*
X123023550Y-47902315D01*
X123023548Y-47902316D01*
X123023547Y-47902317D01*
X122863589Y-48033589D01*
X122732317Y-48193547D01*
X122634769Y-48376043D01*
X122574699Y-48574067D01*
X122554417Y-48780000D01*
X122574699Y-48985932D01*
X122574700Y-48985934D01*
X122634768Y-49183954D01*
X122732315Y-49366450D01*
X122732317Y-49366452D01*
X122863589Y-49526410D01*
X122929884Y-49580816D01*
X123023550Y-49657685D01*
X123206046Y-49755232D01*
X123404066Y-49815300D01*
X123404065Y-49815300D01*
X123422529Y-49817118D01*
X123610000Y-49835583D01*
X123815934Y-49815300D01*
X124013954Y-49755232D01*
X124196450Y-49657685D01*
X124356410Y-49526410D01*
X124487685Y-49366450D01*
X124585232Y-49183954D01*
X124645300Y-48985934D01*
X124665583Y-48780000D01*
X125094417Y-48780000D01*
X125114699Y-48985932D01*
X125114700Y-48985934D01*
X125174768Y-49183954D01*
X125272315Y-49366450D01*
X125272317Y-49366452D01*
X125403589Y-49526410D01*
X125469884Y-49580816D01*
X125563550Y-49657685D01*
X125746046Y-49755232D01*
X125944066Y-49815300D01*
X125944065Y-49815300D01*
X125962529Y-49817118D01*
X126150000Y-49835583D01*
X126355934Y-49815300D01*
X126553954Y-49755232D01*
X126736450Y-49657685D01*
X126896410Y-49526410D01*
X127027685Y-49366450D01*
X127125232Y-49183954D01*
X127185300Y-48985934D01*
X127205583Y-48780000D01*
X127634417Y-48780000D01*
X127654699Y-48985932D01*
X127654700Y-48985934D01*
X127714768Y-49183954D01*
X127812315Y-49366450D01*
X127812317Y-49366452D01*
X127943589Y-49526410D01*
X128009884Y-49580816D01*
X128103550Y-49657685D01*
X128286046Y-49755232D01*
X128484066Y-49815300D01*
X128484065Y-49815300D01*
X128502529Y-49817118D01*
X128690000Y-49835583D01*
X128895934Y-49815300D01*
X129093954Y-49755232D01*
X129276450Y-49657685D01*
X129436410Y-49526410D01*
X129567685Y-49366450D01*
X129665232Y-49183954D01*
X129725300Y-48985934D01*
X129745583Y-48780000D01*
X129725300Y-48574066D01*
X129665232Y-48376046D01*
X129567685Y-48193550D01*
X129492897Y-48102420D01*
X129436410Y-48033589D01*
X129286121Y-47910252D01*
X129276450Y-47902315D01*
X129093954Y-47804768D01*
X128895934Y-47744700D01*
X128895932Y-47744699D01*
X128895934Y-47744699D01*
X128690000Y-47724417D01*
X128484067Y-47744699D01*
X128349736Y-47785448D01*
X128286050Y-47804767D01*
X128286043Y-47804769D01*
X128198114Y-47851769D01*
X128103550Y-47902315D01*
X128103548Y-47902316D01*
X128103547Y-47902317D01*
X127943589Y-48033589D01*
X127812317Y-48193547D01*
X127714769Y-48376043D01*
X127654699Y-48574067D01*
X127634417Y-48780000D01*
X127205583Y-48780000D01*
X127185300Y-48574066D01*
X127125232Y-48376046D01*
X127027685Y-48193550D01*
X126952897Y-48102420D01*
X126896410Y-48033589D01*
X126746121Y-47910252D01*
X126736450Y-47902315D01*
X126553954Y-47804768D01*
X126355934Y-47744700D01*
X126355932Y-47744699D01*
X126355934Y-47744699D01*
X126150000Y-47724417D01*
X125944067Y-47744699D01*
X125809736Y-47785448D01*
X125746050Y-47804767D01*
X125746043Y-47804769D01*
X125658114Y-47851769D01*
X125563550Y-47902315D01*
X125563548Y-47902316D01*
X125563547Y-47902317D01*
X125403589Y-48033589D01*
X125272317Y-48193547D01*
X125174769Y-48376043D01*
X125114699Y-48574067D01*
X125094417Y-48780000D01*
X124665583Y-48780000D01*
X124645300Y-48574066D01*
X124585232Y-48376046D01*
X124487685Y-48193550D01*
X124412897Y-48102420D01*
X124356410Y-48033589D01*
X124206121Y-47910252D01*
X124196450Y-47902315D01*
X124013954Y-47804768D01*
X123947447Y-47784593D01*
X123889009Y-47746296D01*
X123860553Y-47682484D01*
X123871113Y-47613417D01*
X123917337Y-47561023D01*
X123951350Y-47546158D01*
X124073483Y-47513433D01*
X124073492Y-47513429D01*
X124287578Y-47413600D01*
X124481082Y-47278105D01*
X124648105Y-47111082D01*
X124783600Y-46917578D01*
X124883429Y-46703492D01*
X124883433Y-46703483D01*
X124916158Y-46581350D01*
X124952522Y-46521690D01*
X125015369Y-46491160D01*
X125084745Y-46499454D01*
X125138623Y-46543939D01*
X125154593Y-46577447D01*
X125174768Y-46643954D01*
X125272315Y-46826450D01*
X125281765Y-46837965D01*
X125403589Y-46986410D01*
X125500209Y-47065702D01*
X125563550Y-47117685D01*
X125746046Y-47215232D01*
X125944066Y-47275300D01*
X125944065Y-47275300D01*
X125962529Y-47277118D01*
X126150000Y-47295583D01*
X126355934Y-47275300D01*
X126553954Y-47215232D01*
X126736450Y-47117685D01*
X126896410Y-46986410D01*
X127027685Y-46826450D01*
X127125232Y-46643954D01*
X127185300Y-46445934D01*
X127205583Y-46240000D01*
X127634417Y-46240000D01*
X127654699Y-46445932D01*
X127668067Y-46490000D01*
X127714768Y-46643954D01*
X127812315Y-46826450D01*
X127821765Y-46837965D01*
X127943589Y-46986410D01*
X128040209Y-47065702D01*
X128103550Y-47117685D01*
X128286046Y-47215232D01*
X128484066Y-47275300D01*
X128484065Y-47275300D01*
X128502529Y-47277118D01*
X128690000Y-47295583D01*
X128895934Y-47275300D01*
X129093954Y-47215232D01*
X129276450Y-47117685D01*
X129436410Y-46986410D01*
X129567685Y-46826450D01*
X129665232Y-46643954D01*
X129685406Y-46577446D01*
X129723702Y-46519010D01*
X129787514Y-46490553D01*
X129856581Y-46501112D01*
X129908975Y-46547336D01*
X129923841Y-46581349D01*
X129956567Y-46703486D01*
X129956570Y-46703492D01*
X130056399Y-46917578D01*
X130191894Y-47111082D01*
X130358917Y-47278105D01*
X130552421Y-47413600D01*
X130766507Y-47513429D01*
X130766516Y-47513433D01*
X130888649Y-47546158D01*
X130948310Y-47582523D01*
X130978839Y-47645369D01*
X130970545Y-47714745D01*
X130926059Y-47768623D01*
X130892552Y-47784593D01*
X130826046Y-47804767D01*
X130695358Y-47874622D01*
X130643550Y-47902315D01*
X130643548Y-47902316D01*
X130643547Y-47902317D01*
X130483589Y-48033589D01*
X130352317Y-48193547D01*
X130254769Y-48376043D01*
X130194699Y-48574067D01*
X130174417Y-48780000D01*
X130194699Y-48985932D01*
X130194700Y-48985934D01*
X130254768Y-49183954D01*
X130352315Y-49366450D01*
X130352317Y-49366452D01*
X130483589Y-49526410D01*
X130549884Y-49580816D01*
X130643550Y-49657685D01*
X130826046Y-49755232D01*
X131024066Y-49815300D01*
X131024065Y-49815300D01*
X131042529Y-49817118D01*
X131230000Y-49835583D01*
X131435934Y-49815300D01*
X131633954Y-49755232D01*
X131816450Y-49657685D01*
X131976410Y-49526410D01*
X132107685Y-49366450D01*
X132205232Y-49183954D01*
X132265300Y-48985934D01*
X132285583Y-48780000D01*
X132714417Y-48780000D01*
X132734699Y-48985932D01*
X132734700Y-48985934D01*
X132794768Y-49183954D01*
X132892315Y-49366450D01*
X132892317Y-49366452D01*
X133023589Y-49526410D01*
X133089884Y-49580816D01*
X133183550Y-49657685D01*
X133366046Y-49755232D01*
X133564066Y-49815300D01*
X133564065Y-49815300D01*
X133582529Y-49817118D01*
X133770000Y-49835583D01*
X133975934Y-49815300D01*
X134173954Y-49755232D01*
X134356450Y-49657685D01*
X134516410Y-49526410D01*
X134647685Y-49366450D01*
X134745232Y-49183954D01*
X134805300Y-48985934D01*
X134825583Y-48780000D01*
X135254417Y-48780000D01*
X135274699Y-48985932D01*
X135274700Y-48985934D01*
X135334768Y-49183954D01*
X135432315Y-49366450D01*
X135432317Y-49366452D01*
X135563589Y-49526410D01*
X135629884Y-49580816D01*
X135723550Y-49657685D01*
X135906046Y-49755232D01*
X136104066Y-49815300D01*
X136104065Y-49815300D01*
X136122529Y-49817118D01*
X136310000Y-49835583D01*
X136515934Y-49815300D01*
X136713954Y-49755232D01*
X136896450Y-49657685D01*
X137056410Y-49526410D01*
X137187685Y-49366450D01*
X137285232Y-49183954D01*
X137305406Y-49117446D01*
X137343702Y-49059010D01*
X137407514Y-49030553D01*
X137476581Y-49041112D01*
X137528975Y-49087336D01*
X137543841Y-49121349D01*
X137576567Y-49243486D01*
X137576570Y-49243492D01*
X137676399Y-49457578D01*
X137811894Y-49651082D01*
X137978917Y-49818105D01*
X138172421Y-49953600D01*
X138386507Y-50053429D01*
X138386516Y-50053433D01*
X138600000Y-50110634D01*
X138600000Y-49213012D01*
X138657007Y-49245925D01*
X138784174Y-49280000D01*
X138915826Y-49280000D01*
X139042993Y-49245925D01*
X139100000Y-49213012D01*
X139100000Y-50110633D01*
X139313483Y-50053433D01*
X139313492Y-50053429D01*
X139527578Y-49953600D01*
X139721082Y-49818105D01*
X139888105Y-49651082D01*
X140023600Y-49457578D01*
X140123429Y-49243492D01*
X140123433Y-49243483D01*
X140156158Y-49121350D01*
X140192522Y-49061690D01*
X140255369Y-49031160D01*
X140324745Y-49039454D01*
X140378623Y-49083939D01*
X140394593Y-49117447D01*
X140414768Y-49183954D01*
X140512315Y-49366450D01*
X140512317Y-49366452D01*
X140643589Y-49526410D01*
X140709884Y-49580816D01*
X140803550Y-49657685D01*
X140986046Y-49755232D01*
X141184066Y-49815300D01*
X141184065Y-49815300D01*
X141202529Y-49817118D01*
X141390000Y-49835583D01*
X141595934Y-49815300D01*
X141793954Y-49755232D01*
X141976450Y-49657685D01*
X142136410Y-49526410D01*
X142267685Y-49366450D01*
X142365232Y-49183954D01*
X142425300Y-48985934D01*
X142445583Y-48780000D01*
X142425300Y-48574066D01*
X142365232Y-48376046D01*
X142267685Y-48193550D01*
X142192897Y-48102420D01*
X142136410Y-48033589D01*
X141986121Y-47910252D01*
X141976450Y-47902315D01*
X141793954Y-47804768D01*
X141595934Y-47744700D01*
X141595932Y-47744699D01*
X141595934Y-47744699D01*
X141390000Y-47724417D01*
X141184067Y-47744699D01*
X141049736Y-47785448D01*
X140986050Y-47804767D01*
X140986043Y-47804769D01*
X140898114Y-47851769D01*
X140803550Y-47902315D01*
X140803548Y-47902316D01*
X140803547Y-47902317D01*
X140643589Y-48033589D01*
X140512317Y-48193547D01*
X140414767Y-48376046D01*
X140394593Y-48442552D01*
X140356296Y-48500990D01*
X140292483Y-48529447D01*
X140223416Y-48518886D01*
X140171023Y-48472661D01*
X140156158Y-48438649D01*
X140123433Y-48316516D01*
X140123429Y-48316507D01*
X140023600Y-48102422D01*
X140023599Y-48102420D01*
X139888113Y-47908926D01*
X139888108Y-47908920D01*
X139721082Y-47741894D01*
X139527578Y-47606399D01*
X139313492Y-47506570D01*
X139313486Y-47506567D01*
X139191349Y-47473841D01*
X139131689Y-47437476D01*
X139101160Y-47374629D01*
X139109455Y-47305253D01*
X139153940Y-47251375D01*
X139187444Y-47235407D01*
X139253954Y-47215232D01*
X139436450Y-47117685D01*
X139596410Y-46986410D01*
X139727685Y-46826450D01*
X139825232Y-46643954D01*
X139885300Y-46445934D01*
X139905583Y-46240000D01*
X140334417Y-46240000D01*
X140354699Y-46445932D01*
X140368067Y-46490000D01*
X140414768Y-46643954D01*
X140512315Y-46826450D01*
X140521765Y-46837965D01*
X140643589Y-46986410D01*
X140740209Y-47065702D01*
X140803550Y-47117685D01*
X140986046Y-47215232D01*
X141184066Y-47275300D01*
X141184065Y-47275300D01*
X141202529Y-47277118D01*
X141390000Y-47295583D01*
X141595934Y-47275300D01*
X141793954Y-47215232D01*
X141976450Y-47117685D01*
X142136410Y-46986410D01*
X142267685Y-46826450D01*
X142365232Y-46643954D01*
X142385406Y-46577446D01*
X142423702Y-46519010D01*
X142487514Y-46490553D01*
X142556581Y-46501112D01*
X142608975Y-46547336D01*
X142623841Y-46581349D01*
X142656567Y-46703486D01*
X142656570Y-46703492D01*
X142756399Y-46917578D01*
X142891894Y-47111082D01*
X143058917Y-47278105D01*
X143252421Y-47413600D01*
X143466507Y-47513429D01*
X143466516Y-47513433D01*
X143588649Y-47546158D01*
X143648310Y-47582523D01*
X143678839Y-47645369D01*
X143670545Y-47714745D01*
X143626059Y-47768623D01*
X143592552Y-47784593D01*
X143526046Y-47804767D01*
X143395358Y-47874622D01*
X143343550Y-47902315D01*
X143343548Y-47902316D01*
X143343547Y-47902317D01*
X143183589Y-48033589D01*
X143052317Y-48193547D01*
X142954769Y-48376043D01*
X142894699Y-48574067D01*
X142874417Y-48780000D01*
X142894699Y-48985932D01*
X142894700Y-48985934D01*
X142954768Y-49183954D01*
X143052315Y-49366450D01*
X143052317Y-49366452D01*
X143183589Y-49526410D01*
X143249884Y-49580816D01*
X143343550Y-49657685D01*
X143526046Y-49755232D01*
X143724066Y-49815300D01*
X143724065Y-49815300D01*
X143742529Y-49817118D01*
X143930000Y-49835583D01*
X144135934Y-49815300D01*
X144333954Y-49755232D01*
X144516450Y-49657685D01*
X144676410Y-49526410D01*
X144807685Y-49366450D01*
X144905232Y-49183954D01*
X144965300Y-48985934D01*
X144985583Y-48780000D01*
X145414417Y-48780000D01*
X145434699Y-48985932D01*
X145434700Y-48985934D01*
X145494768Y-49183954D01*
X145592315Y-49366450D01*
X145592317Y-49366452D01*
X145723589Y-49526410D01*
X145789884Y-49580816D01*
X145883550Y-49657685D01*
X146066046Y-49755232D01*
X146264066Y-49815300D01*
X146264065Y-49815300D01*
X146282529Y-49817118D01*
X146470000Y-49835583D01*
X146675934Y-49815300D01*
X146873954Y-49755232D01*
X147056450Y-49657685D01*
X147216410Y-49526410D01*
X147347685Y-49366450D01*
X147445232Y-49183954D01*
X147505300Y-48985934D01*
X147525583Y-48780000D01*
X147505300Y-48574066D01*
X147445232Y-48376046D01*
X147347685Y-48193550D01*
X147272897Y-48102420D01*
X147216410Y-48033589D01*
X147066121Y-47910252D01*
X147056450Y-47902315D01*
X146873954Y-47804768D01*
X146675934Y-47744700D01*
X146675932Y-47744699D01*
X146675934Y-47744699D01*
X146470000Y-47724417D01*
X146264067Y-47744699D01*
X146129736Y-47785448D01*
X146066050Y-47804767D01*
X146066043Y-47804769D01*
X145978114Y-47851769D01*
X145883550Y-47902315D01*
X145883548Y-47902316D01*
X145883547Y-47902317D01*
X145723589Y-48033589D01*
X145592317Y-48193547D01*
X145494769Y-48376043D01*
X145434699Y-48574067D01*
X145414417Y-48780000D01*
X144985583Y-48780000D01*
X144965300Y-48574066D01*
X144905232Y-48376046D01*
X144807685Y-48193550D01*
X144732897Y-48102420D01*
X144676410Y-48033589D01*
X144526121Y-47910252D01*
X144516450Y-47902315D01*
X144333954Y-47804768D01*
X144267447Y-47784593D01*
X144209009Y-47746296D01*
X144180553Y-47682484D01*
X144191113Y-47613417D01*
X144237337Y-47561023D01*
X144271350Y-47546158D01*
X144393483Y-47513433D01*
X144393492Y-47513429D01*
X144607578Y-47413600D01*
X144801082Y-47278105D01*
X144968105Y-47111082D01*
X145103600Y-46917578D01*
X145203429Y-46703492D01*
X145203433Y-46703483D01*
X145236158Y-46581350D01*
X145272522Y-46521690D01*
X145335369Y-46491160D01*
X145404745Y-46499454D01*
X145458623Y-46543939D01*
X145474593Y-46577447D01*
X145494768Y-46643954D01*
X145592315Y-46826450D01*
X145601765Y-46837965D01*
X145723589Y-46986410D01*
X145820209Y-47065702D01*
X145883550Y-47117685D01*
X146066046Y-47215232D01*
X146264066Y-47275300D01*
X146264065Y-47275300D01*
X146282529Y-47277118D01*
X146470000Y-47295583D01*
X146675934Y-47275300D01*
X146873954Y-47215232D01*
X147056450Y-47117685D01*
X147216410Y-46986410D01*
X147347685Y-46826450D01*
X147445232Y-46643954D01*
X147465406Y-46577446D01*
X147503702Y-46519010D01*
X147567514Y-46490553D01*
X147636581Y-46501112D01*
X147688975Y-46547336D01*
X147703841Y-46581349D01*
X147736567Y-46703486D01*
X147736570Y-46703492D01*
X147836399Y-46917578D01*
X147971894Y-47111082D01*
X148138917Y-47278105D01*
X148332421Y-47413600D01*
X148546507Y-47513429D01*
X148546516Y-47513433D01*
X148668649Y-47546158D01*
X148728310Y-47582523D01*
X148758839Y-47645369D01*
X148750545Y-47714745D01*
X148706059Y-47768623D01*
X148672552Y-47784593D01*
X148606046Y-47804767D01*
X148475358Y-47874622D01*
X148423550Y-47902315D01*
X148423548Y-47902316D01*
X148423547Y-47902317D01*
X148263589Y-48033589D01*
X148132317Y-48193547D01*
X148034769Y-48376043D01*
X147974699Y-48574067D01*
X147954417Y-48780000D01*
X147974699Y-48985932D01*
X147974700Y-48985934D01*
X148034768Y-49183954D01*
X148132315Y-49366450D01*
X148132317Y-49366452D01*
X148263589Y-49526410D01*
X148329884Y-49580816D01*
X148423550Y-49657685D01*
X148606046Y-49755232D01*
X148804066Y-49815300D01*
X148804065Y-49815300D01*
X148822529Y-49817118D01*
X149010000Y-49835583D01*
X149215934Y-49815300D01*
X149413954Y-49755232D01*
X149596450Y-49657685D01*
X149756410Y-49526410D01*
X149887685Y-49366450D01*
X149985232Y-49183954D01*
X150045300Y-48985934D01*
X150065583Y-48780000D01*
X150494417Y-48780000D01*
X150514699Y-48985932D01*
X150514700Y-48985934D01*
X150574768Y-49183954D01*
X150672315Y-49366450D01*
X150672317Y-49366452D01*
X150803589Y-49526410D01*
X150869884Y-49580816D01*
X150963550Y-49657685D01*
X151146046Y-49755232D01*
X151344066Y-49815300D01*
X151344065Y-49815300D01*
X151362529Y-49817118D01*
X151550000Y-49835583D01*
X151755934Y-49815300D01*
X151953954Y-49755232D01*
X152136450Y-49657685D01*
X152296410Y-49526410D01*
X152427685Y-49366450D01*
X152525232Y-49183954D01*
X152585300Y-48985934D01*
X152605583Y-48780000D01*
X153034417Y-48780000D01*
X153054699Y-48985932D01*
X153054700Y-48985934D01*
X153114768Y-49183954D01*
X153212315Y-49366450D01*
X153212317Y-49366452D01*
X153343589Y-49526410D01*
X153409884Y-49580816D01*
X153503550Y-49657685D01*
X153686046Y-49755232D01*
X153884066Y-49815300D01*
X153884065Y-49815300D01*
X153902529Y-49817118D01*
X154090000Y-49835583D01*
X154295934Y-49815300D01*
X154493954Y-49755232D01*
X154676450Y-49657685D01*
X154836410Y-49526410D01*
X154967685Y-49366450D01*
X155065232Y-49183954D01*
X155085406Y-49117446D01*
X155123702Y-49059010D01*
X155187514Y-49030553D01*
X155256581Y-49041112D01*
X155308975Y-49087336D01*
X155323841Y-49121349D01*
X155356567Y-49243486D01*
X155356570Y-49243492D01*
X155456399Y-49457578D01*
X155591894Y-49651082D01*
X155758917Y-49818105D01*
X155952421Y-49953600D01*
X156166507Y-50053429D01*
X156166516Y-50053433D01*
X156380000Y-50110634D01*
X156380000Y-49213012D01*
X156437007Y-49245925D01*
X156564174Y-49280000D01*
X156695826Y-49280000D01*
X156822993Y-49245925D01*
X156880000Y-49213012D01*
X156880000Y-50110633D01*
X157093483Y-50053433D01*
X157093492Y-50053429D01*
X157307578Y-49953600D01*
X157501082Y-49818105D01*
X157668105Y-49651082D01*
X157803600Y-49457578D01*
X157903429Y-49243492D01*
X157903432Y-49243486D01*
X157960636Y-49030000D01*
X157063012Y-49030000D01*
X157095925Y-48972993D01*
X157130000Y-48845826D01*
X157130000Y-48714174D01*
X157095925Y-48587007D01*
X157063012Y-48530000D01*
X157960636Y-48530000D01*
X157960635Y-48529999D01*
X157903432Y-48316513D01*
X157903429Y-48316507D01*
X157803600Y-48102422D01*
X157803599Y-48102420D01*
X157668113Y-47908926D01*
X157668108Y-47908920D01*
X157501082Y-47741894D01*
X157307578Y-47606399D01*
X157093492Y-47506570D01*
X157093486Y-47506567D01*
X156971349Y-47473841D01*
X156911689Y-47437476D01*
X156881160Y-47374629D01*
X156881702Y-47370097D01*
X159849500Y-47370097D01*
X159849500Y-47629902D01*
X159890140Y-47886493D01*
X159970422Y-48133576D01*
X160000981Y-48193550D01*
X160063631Y-48316507D01*
X160088368Y-48365054D01*
X160208208Y-48530000D01*
X160241069Y-48575229D01*
X160424771Y-48758931D01*
X160634949Y-48911634D01*
X160780766Y-48985932D01*
X160866423Y-49029577D01*
X160866425Y-49029577D01*
X160866428Y-49029579D01*
X161113507Y-49109860D01*
X161245706Y-49130797D01*
X161370098Y-49150500D01*
X161370103Y-49150500D01*
X161629902Y-49150500D01*
X161743298Y-49132539D01*
X161886493Y-49109860D01*
X162133572Y-49029579D01*
X162365051Y-48911634D01*
X162575229Y-48758931D01*
X162758931Y-48575229D01*
X162911634Y-48365051D01*
X163029579Y-48133572D01*
X163109860Y-47886493D01*
X163137062Y-47714745D01*
X163150500Y-47629902D01*
X163150500Y-47370097D01*
X163119662Y-47175397D01*
X163109860Y-47113507D01*
X163029579Y-46866428D01*
X163029577Y-46866425D01*
X163029577Y-46866423D01*
X162986787Y-46782445D01*
X162911634Y-46634949D01*
X162758931Y-46424771D01*
X162575229Y-46241069D01*
X162365051Y-46088366D01*
X162258482Y-46034066D01*
X162133576Y-45970422D01*
X161886493Y-45890140D01*
X161629902Y-45849500D01*
X161629897Y-45849500D01*
X161370103Y-45849500D01*
X161370098Y-45849500D01*
X161113506Y-45890140D01*
X160866423Y-45970422D01*
X160634945Y-46088368D01*
X160424774Y-46241066D01*
X160424768Y-46241071D01*
X160241071Y-46424768D01*
X160241066Y-46424774D01*
X160088368Y-46634945D01*
X159970422Y-46866423D01*
X159890140Y-47113506D01*
X159849500Y-47370097D01*
X156881702Y-47370097D01*
X156889455Y-47305253D01*
X156933940Y-47251375D01*
X156967444Y-47235407D01*
X157033954Y-47215232D01*
X157216450Y-47117685D01*
X157376410Y-46986410D01*
X157507685Y-46826450D01*
X157605232Y-46643954D01*
X157665300Y-46445934D01*
X157685583Y-46240000D01*
X157665300Y-46034066D01*
X157605232Y-45836046D01*
X157507685Y-45653550D01*
X157439014Y-45569874D01*
X157376410Y-45493589D01*
X157258677Y-45396969D01*
X157216450Y-45362315D01*
X157033954Y-45264768D01*
X156835934Y-45204700D01*
X156835932Y-45204699D01*
X156835934Y-45204699D01*
X156630000Y-45184417D01*
X156424067Y-45204699D01*
X156226043Y-45264769D01*
X156138249Y-45311697D01*
X156043550Y-45362315D01*
X156043548Y-45362316D01*
X156043547Y-45362317D01*
X155883589Y-45493589D01*
X155752317Y-45653547D01*
X155654769Y-45836043D01*
X155594699Y-46034067D01*
X155574417Y-46240000D01*
X155594699Y-46445932D01*
X155608067Y-46490000D01*
X155654768Y-46643954D01*
X155752315Y-46826450D01*
X155761765Y-46837965D01*
X155883589Y-46986410D01*
X155980209Y-47065702D01*
X156043550Y-47117685D01*
X156226046Y-47215232D01*
X156292551Y-47235405D01*
X156350989Y-47273702D01*
X156379446Y-47337514D01*
X156368887Y-47406581D01*
X156322663Y-47458975D01*
X156288650Y-47473841D01*
X156166514Y-47506567D01*
X156166507Y-47506570D01*
X155952422Y-47606399D01*
X155952420Y-47606400D01*
X155758926Y-47741886D01*
X155758920Y-47741891D01*
X155591891Y-47908920D01*
X155591886Y-47908926D01*
X155456400Y-48102420D01*
X155456399Y-48102422D01*
X155356570Y-48316507D01*
X155356567Y-48316514D01*
X155323841Y-48438650D01*
X155287476Y-48498310D01*
X155224629Y-48528839D01*
X155155253Y-48520544D01*
X155101375Y-48476059D01*
X155085406Y-48442552D01*
X155065232Y-48376046D01*
X154967685Y-48193550D01*
X154892897Y-48102420D01*
X154836410Y-48033589D01*
X154686121Y-47910252D01*
X154676450Y-47902315D01*
X154493954Y-47804768D01*
X154295934Y-47744700D01*
X154295932Y-47744699D01*
X154295934Y-47744699D01*
X154090000Y-47724417D01*
X153884067Y-47744699D01*
X153749736Y-47785448D01*
X153686050Y-47804767D01*
X153686043Y-47804769D01*
X153598114Y-47851769D01*
X153503550Y-47902315D01*
X153503548Y-47902316D01*
X153503547Y-47902317D01*
X153343589Y-48033589D01*
X153212317Y-48193547D01*
X153114769Y-48376043D01*
X153054699Y-48574067D01*
X153034417Y-48780000D01*
X152605583Y-48780000D01*
X152585300Y-48574066D01*
X152525232Y-48376046D01*
X152427685Y-48193550D01*
X152352897Y-48102420D01*
X152296410Y-48033589D01*
X152146121Y-47910252D01*
X152136450Y-47902315D01*
X151953954Y-47804768D01*
X151755934Y-47744700D01*
X151755932Y-47744699D01*
X151755934Y-47744699D01*
X151550000Y-47724417D01*
X151344067Y-47744699D01*
X151209736Y-47785448D01*
X151146050Y-47804767D01*
X151146043Y-47804769D01*
X151058114Y-47851769D01*
X150963550Y-47902315D01*
X150963548Y-47902316D01*
X150963547Y-47902317D01*
X150803589Y-48033589D01*
X150672317Y-48193547D01*
X150574769Y-48376043D01*
X150514699Y-48574067D01*
X150494417Y-48780000D01*
X150065583Y-48780000D01*
X150045300Y-48574066D01*
X149985232Y-48376046D01*
X149887685Y-48193550D01*
X149812897Y-48102420D01*
X149756410Y-48033589D01*
X149606121Y-47910252D01*
X149596450Y-47902315D01*
X149413954Y-47804768D01*
X149347447Y-47784593D01*
X149289009Y-47746296D01*
X149260553Y-47682484D01*
X149271113Y-47613417D01*
X149317337Y-47561023D01*
X149351350Y-47546158D01*
X149473483Y-47513433D01*
X149473492Y-47513429D01*
X149687578Y-47413600D01*
X149881082Y-47278105D01*
X150048105Y-47111082D01*
X150183600Y-46917578D01*
X150283429Y-46703492D01*
X150283433Y-46703483D01*
X150316158Y-46581350D01*
X150352522Y-46521690D01*
X150415369Y-46491160D01*
X150484745Y-46499454D01*
X150538623Y-46543939D01*
X150554593Y-46577447D01*
X150574768Y-46643954D01*
X150672315Y-46826450D01*
X150681765Y-46837965D01*
X150803589Y-46986410D01*
X150900209Y-47065702D01*
X150963550Y-47117685D01*
X151146046Y-47215232D01*
X151344066Y-47275300D01*
X151344065Y-47275300D01*
X151362529Y-47277118D01*
X151550000Y-47295583D01*
X151755934Y-47275300D01*
X151953954Y-47215232D01*
X152136450Y-47117685D01*
X152296410Y-46986410D01*
X152427685Y-46826450D01*
X152525232Y-46643954D01*
X152585300Y-46445934D01*
X152605583Y-46240000D01*
X153034417Y-46240000D01*
X153054699Y-46445932D01*
X153068067Y-46490000D01*
X153114768Y-46643954D01*
X153212315Y-46826450D01*
X153221765Y-46837965D01*
X153343589Y-46986410D01*
X153440209Y-47065702D01*
X153503550Y-47117685D01*
X153686046Y-47215232D01*
X153884066Y-47275300D01*
X153884065Y-47275300D01*
X153902529Y-47277118D01*
X154090000Y-47295583D01*
X154295934Y-47275300D01*
X154493954Y-47215232D01*
X154676450Y-47117685D01*
X154836410Y-46986410D01*
X154967685Y-46826450D01*
X155065232Y-46643954D01*
X155125300Y-46445934D01*
X155145583Y-46240000D01*
X155125300Y-46034066D01*
X155065232Y-45836046D01*
X154967685Y-45653550D01*
X154899014Y-45569874D01*
X154836410Y-45493589D01*
X154718677Y-45396969D01*
X154676450Y-45362315D01*
X154493954Y-45264768D01*
X154295934Y-45204700D01*
X154295932Y-45204699D01*
X154295934Y-45204699D01*
X154090000Y-45184417D01*
X153884067Y-45204699D01*
X153686043Y-45264769D01*
X153598249Y-45311697D01*
X153503550Y-45362315D01*
X153503548Y-45362316D01*
X153503547Y-45362317D01*
X153343589Y-45493589D01*
X153212317Y-45653547D01*
X153114769Y-45836043D01*
X153054699Y-46034067D01*
X153034417Y-46240000D01*
X152605583Y-46240000D01*
X152585300Y-46034066D01*
X152525232Y-45836046D01*
X152427685Y-45653550D01*
X152359014Y-45569874D01*
X152296410Y-45493589D01*
X152178677Y-45396969D01*
X152136450Y-45362315D01*
X151953954Y-45264768D01*
X151755934Y-45204700D01*
X151755932Y-45204699D01*
X151755934Y-45204699D01*
X151550000Y-45184417D01*
X151344067Y-45204699D01*
X151146043Y-45264769D01*
X151058249Y-45311697D01*
X150963550Y-45362315D01*
X150963548Y-45362316D01*
X150963547Y-45362317D01*
X150803589Y-45493589D01*
X150672317Y-45653547D01*
X150574767Y-45836046D01*
X150554593Y-45902552D01*
X150516296Y-45960990D01*
X150452483Y-45989447D01*
X150383416Y-45978886D01*
X150331023Y-45932661D01*
X150316158Y-45898649D01*
X150283433Y-45776516D01*
X150283429Y-45776507D01*
X150183600Y-45562422D01*
X150183599Y-45562420D01*
X150048113Y-45368926D01*
X150048108Y-45368920D01*
X149881082Y-45201894D01*
X149687578Y-45066399D01*
X149473492Y-44966570D01*
X149473486Y-44966567D01*
X149260000Y-44909364D01*
X149260000Y-45806988D01*
X149202993Y-45774075D01*
X149075826Y-45740000D01*
X148944174Y-45740000D01*
X148817007Y-45774075D01*
X148760000Y-45806988D01*
X148760000Y-44909364D01*
X148759999Y-44909364D01*
X148546513Y-44966567D01*
X148546507Y-44966570D01*
X148332422Y-45066399D01*
X148332420Y-45066400D01*
X148138926Y-45201886D01*
X148138920Y-45201891D01*
X147971891Y-45368920D01*
X147971886Y-45368926D01*
X147836400Y-45562420D01*
X147836399Y-45562422D01*
X147736570Y-45776507D01*
X147736567Y-45776514D01*
X147703841Y-45898650D01*
X147667476Y-45958310D01*
X147604629Y-45988839D01*
X147535253Y-45980544D01*
X147481375Y-45936059D01*
X147465406Y-45902552D01*
X147445232Y-45836046D01*
X147347685Y-45653550D01*
X147279014Y-45569874D01*
X147216410Y-45493589D01*
X147098677Y-45396969D01*
X147056450Y-45362315D01*
X146873954Y-45264768D01*
X146675934Y-45204700D01*
X146675932Y-45204699D01*
X146675934Y-45204699D01*
X146470000Y-45184417D01*
X146264067Y-45204699D01*
X146066043Y-45264769D01*
X145978249Y-45311697D01*
X145883550Y-45362315D01*
X145883548Y-45362316D01*
X145883547Y-45362317D01*
X145723589Y-45493589D01*
X145592317Y-45653547D01*
X145494767Y-45836046D01*
X145474593Y-45902552D01*
X145436296Y-45960990D01*
X145372483Y-45989447D01*
X145303416Y-45978886D01*
X145251023Y-45932661D01*
X145236158Y-45898649D01*
X145203433Y-45776516D01*
X145203429Y-45776507D01*
X145103600Y-45562422D01*
X145103599Y-45562420D01*
X144968113Y-45368926D01*
X144968108Y-45368920D01*
X144801082Y-45201894D01*
X144607578Y-45066399D01*
X144393492Y-44966570D01*
X144393486Y-44966567D01*
X144180000Y-44909364D01*
X144180000Y-45806988D01*
X144122993Y-45774075D01*
X143995826Y-45740000D01*
X143864174Y-45740000D01*
X143737007Y-45774075D01*
X143680000Y-45806988D01*
X143680000Y-44909364D01*
X143679999Y-44909364D01*
X143466513Y-44966567D01*
X143466507Y-44966570D01*
X143252422Y-45066399D01*
X143252420Y-45066400D01*
X143058926Y-45201886D01*
X143058920Y-45201891D01*
X142891891Y-45368920D01*
X142891886Y-45368926D01*
X142756400Y-45562420D01*
X142756399Y-45562422D01*
X142656570Y-45776507D01*
X142656567Y-45776514D01*
X142623841Y-45898650D01*
X142587476Y-45958310D01*
X142524629Y-45988839D01*
X142455253Y-45980544D01*
X142401375Y-45936059D01*
X142385406Y-45902552D01*
X142365232Y-45836046D01*
X142267685Y-45653550D01*
X142199014Y-45569874D01*
X142136410Y-45493589D01*
X142018677Y-45396969D01*
X141976450Y-45362315D01*
X141793954Y-45264768D01*
X141595934Y-45204700D01*
X141595932Y-45204699D01*
X141595934Y-45204699D01*
X141390000Y-45184417D01*
X141184067Y-45204699D01*
X140986043Y-45264769D01*
X140898249Y-45311697D01*
X140803550Y-45362315D01*
X140803548Y-45362316D01*
X140803547Y-45362317D01*
X140643589Y-45493589D01*
X140512317Y-45653547D01*
X140414769Y-45836043D01*
X140354699Y-46034067D01*
X140334417Y-46240000D01*
X139905583Y-46240000D01*
X139885300Y-46034066D01*
X139825232Y-45836046D01*
X139727685Y-45653550D01*
X139659014Y-45569874D01*
X139596410Y-45493589D01*
X139478677Y-45396969D01*
X139436450Y-45362315D01*
X139253954Y-45264768D01*
X139055934Y-45204700D01*
X139055932Y-45204699D01*
X139055934Y-45204699D01*
X138850000Y-45184417D01*
X138644067Y-45204699D01*
X138446043Y-45264769D01*
X138358249Y-45311697D01*
X138263550Y-45362315D01*
X138263548Y-45362316D01*
X138263547Y-45362317D01*
X138103589Y-45493589D01*
X137972317Y-45653547D01*
X137874769Y-45836043D01*
X137814699Y-46034067D01*
X137794417Y-46240000D01*
X137814699Y-46445932D01*
X137828067Y-46490000D01*
X137874768Y-46643954D01*
X137972315Y-46826450D01*
X137981765Y-46837965D01*
X138103589Y-46986410D01*
X138200209Y-47065702D01*
X138263550Y-47117685D01*
X138446046Y-47215232D01*
X138512551Y-47235405D01*
X138570989Y-47273702D01*
X138599446Y-47337514D01*
X138588887Y-47406581D01*
X138542663Y-47458975D01*
X138508650Y-47473841D01*
X138386514Y-47506567D01*
X138386507Y-47506570D01*
X138172422Y-47606399D01*
X138172420Y-47606400D01*
X137978926Y-47741886D01*
X137978920Y-47741891D01*
X137811891Y-47908920D01*
X137811886Y-47908926D01*
X137676400Y-48102420D01*
X137676399Y-48102422D01*
X137576570Y-48316507D01*
X137576567Y-48316514D01*
X137543841Y-48438650D01*
X137507476Y-48498310D01*
X137444629Y-48528839D01*
X137375253Y-48520544D01*
X137321375Y-48476059D01*
X137305406Y-48442552D01*
X137285232Y-48376046D01*
X137187685Y-48193550D01*
X137112897Y-48102420D01*
X137056410Y-48033589D01*
X136906121Y-47910252D01*
X136896450Y-47902315D01*
X136713954Y-47804768D01*
X136515934Y-47744700D01*
X136515932Y-47744699D01*
X136515934Y-47744699D01*
X136310000Y-47724417D01*
X136104067Y-47744699D01*
X135969736Y-47785448D01*
X135906050Y-47804767D01*
X135906043Y-47804769D01*
X135818114Y-47851769D01*
X135723550Y-47902315D01*
X135723548Y-47902316D01*
X135723547Y-47902317D01*
X135563589Y-48033589D01*
X135432317Y-48193547D01*
X135334769Y-48376043D01*
X135274699Y-48574067D01*
X135254417Y-48780000D01*
X134825583Y-48780000D01*
X134805300Y-48574066D01*
X134745232Y-48376046D01*
X134647685Y-48193550D01*
X134572897Y-48102420D01*
X134516410Y-48033589D01*
X134366121Y-47910252D01*
X134356450Y-47902315D01*
X134173954Y-47804768D01*
X133975934Y-47744700D01*
X133975932Y-47744699D01*
X133975934Y-47744699D01*
X133770000Y-47724417D01*
X133564067Y-47744699D01*
X133429736Y-47785448D01*
X133366050Y-47804767D01*
X133366043Y-47804769D01*
X133278114Y-47851769D01*
X133183550Y-47902315D01*
X133183548Y-47902316D01*
X133183547Y-47902317D01*
X133023589Y-48033589D01*
X132892317Y-48193547D01*
X132794769Y-48376043D01*
X132734699Y-48574067D01*
X132714417Y-48780000D01*
X132285583Y-48780000D01*
X132265300Y-48574066D01*
X132205232Y-48376046D01*
X132107685Y-48193550D01*
X132032897Y-48102420D01*
X131976410Y-48033589D01*
X131826121Y-47910252D01*
X131816450Y-47902315D01*
X131633954Y-47804768D01*
X131567447Y-47784593D01*
X131509009Y-47746296D01*
X131480553Y-47682484D01*
X131491113Y-47613417D01*
X131537337Y-47561023D01*
X131571350Y-47546158D01*
X131693483Y-47513433D01*
X131693492Y-47513429D01*
X131907578Y-47413600D01*
X132101082Y-47278105D01*
X132268105Y-47111082D01*
X132403600Y-46917578D01*
X132503429Y-46703492D01*
X132503433Y-46703483D01*
X132536158Y-46581350D01*
X132572522Y-46521690D01*
X132635369Y-46491160D01*
X132704745Y-46499454D01*
X132758623Y-46543939D01*
X132774593Y-46577447D01*
X132794768Y-46643954D01*
X132892315Y-46826450D01*
X132901765Y-46837965D01*
X133023589Y-46986410D01*
X133120209Y-47065702D01*
X133183550Y-47117685D01*
X133366046Y-47215232D01*
X133564066Y-47275300D01*
X133564065Y-47275300D01*
X133582529Y-47277118D01*
X133770000Y-47295583D01*
X133975934Y-47275300D01*
X134173954Y-47215232D01*
X134356450Y-47117685D01*
X134516410Y-46986410D01*
X134647685Y-46826450D01*
X134745232Y-46643954D01*
X134805300Y-46445934D01*
X134825583Y-46240000D01*
X135254417Y-46240000D01*
X135274699Y-46445932D01*
X135288067Y-46490000D01*
X135334768Y-46643954D01*
X135432315Y-46826450D01*
X135441765Y-46837965D01*
X135563589Y-46986410D01*
X135660209Y-47065702D01*
X135723550Y-47117685D01*
X135906046Y-47215232D01*
X136104066Y-47275300D01*
X136104065Y-47275300D01*
X136122529Y-47277118D01*
X136310000Y-47295583D01*
X136515934Y-47275300D01*
X136713954Y-47215232D01*
X136896450Y-47117685D01*
X137056410Y-46986410D01*
X137187685Y-46826450D01*
X137285232Y-46643954D01*
X137345300Y-46445934D01*
X137365583Y-46240000D01*
X137345300Y-46034066D01*
X137285232Y-45836046D01*
X137187685Y-45653550D01*
X137119014Y-45569874D01*
X137056410Y-45493589D01*
X136938677Y-45396969D01*
X136896450Y-45362315D01*
X136713954Y-45264768D01*
X136515934Y-45204700D01*
X136515932Y-45204699D01*
X136515934Y-45204699D01*
X136310000Y-45184417D01*
X136104067Y-45204699D01*
X135906043Y-45264769D01*
X135818249Y-45311697D01*
X135723550Y-45362315D01*
X135723548Y-45362316D01*
X135723547Y-45362317D01*
X135563589Y-45493589D01*
X135432317Y-45653547D01*
X135334769Y-45836043D01*
X135274699Y-46034067D01*
X135254417Y-46240000D01*
X134825583Y-46240000D01*
X134805300Y-46034066D01*
X134745232Y-45836046D01*
X134647685Y-45653550D01*
X134579014Y-45569874D01*
X134516410Y-45493589D01*
X134398677Y-45396969D01*
X134356450Y-45362315D01*
X134173954Y-45264768D01*
X133975934Y-45204700D01*
X133975932Y-45204699D01*
X133975934Y-45204699D01*
X133770000Y-45184417D01*
X133564067Y-45204699D01*
X133366043Y-45264769D01*
X133278249Y-45311697D01*
X133183550Y-45362315D01*
X133183548Y-45362316D01*
X133183547Y-45362317D01*
X133023589Y-45493589D01*
X132892317Y-45653547D01*
X132794767Y-45836046D01*
X132774593Y-45902552D01*
X132736296Y-45960990D01*
X132672483Y-45989447D01*
X132603416Y-45978886D01*
X132551023Y-45932661D01*
X132536158Y-45898649D01*
X132503433Y-45776516D01*
X132503429Y-45776507D01*
X132403600Y-45562422D01*
X132403599Y-45562420D01*
X132268113Y-45368926D01*
X132268108Y-45368920D01*
X132101082Y-45201894D01*
X131907578Y-45066399D01*
X131693492Y-44966570D01*
X131693486Y-44966567D01*
X131480000Y-44909364D01*
X131480000Y-45806988D01*
X131422993Y-45774075D01*
X131295826Y-45740000D01*
X131164174Y-45740000D01*
X131037007Y-45774075D01*
X130980000Y-45806988D01*
X130980000Y-44909364D01*
X130979999Y-44909364D01*
X130766513Y-44966567D01*
X130766507Y-44966570D01*
X130552422Y-45066399D01*
X130552420Y-45066400D01*
X130358926Y-45201886D01*
X130358920Y-45201891D01*
X130191891Y-45368920D01*
X130191886Y-45368926D01*
X130056400Y-45562420D01*
X130056399Y-45562422D01*
X129956570Y-45776507D01*
X129956567Y-45776514D01*
X129923841Y-45898650D01*
X129887476Y-45958310D01*
X129824629Y-45988839D01*
X129755253Y-45980544D01*
X129701375Y-45936059D01*
X129685406Y-45902552D01*
X129665232Y-45836046D01*
X129567685Y-45653550D01*
X129499014Y-45569874D01*
X129436410Y-45493589D01*
X129318677Y-45396969D01*
X129276450Y-45362315D01*
X129093954Y-45264768D01*
X128895934Y-45204700D01*
X128895932Y-45204699D01*
X128895934Y-45204699D01*
X128690000Y-45184417D01*
X128484067Y-45204699D01*
X128286043Y-45264769D01*
X128198249Y-45311697D01*
X128103550Y-45362315D01*
X128103548Y-45362316D01*
X128103547Y-45362317D01*
X127943589Y-45493589D01*
X127812317Y-45653547D01*
X127714769Y-45836043D01*
X127654699Y-46034067D01*
X127634417Y-46240000D01*
X127205583Y-46240000D01*
X127185300Y-46034066D01*
X127125232Y-45836046D01*
X127027685Y-45653550D01*
X126959014Y-45569874D01*
X126896410Y-45493589D01*
X126778677Y-45396969D01*
X126736450Y-45362315D01*
X126553954Y-45264768D01*
X126355934Y-45204700D01*
X126355932Y-45204699D01*
X126355934Y-45204699D01*
X126150000Y-45184417D01*
X125944067Y-45204699D01*
X125746043Y-45264769D01*
X125658249Y-45311697D01*
X125563550Y-45362315D01*
X125563548Y-45362316D01*
X125563547Y-45362317D01*
X125403589Y-45493589D01*
X125272317Y-45653547D01*
X125174767Y-45836046D01*
X125154593Y-45902552D01*
X125116296Y-45960990D01*
X125052483Y-45989447D01*
X124983416Y-45978886D01*
X124931023Y-45932661D01*
X124916158Y-45898649D01*
X124883433Y-45776516D01*
X124883429Y-45776507D01*
X124783600Y-45562422D01*
X124783599Y-45562420D01*
X124648113Y-45368926D01*
X124648108Y-45368920D01*
X124481082Y-45201894D01*
X124287578Y-45066399D01*
X124073492Y-44966570D01*
X124073486Y-44966567D01*
X123860000Y-44909364D01*
X123860000Y-45806988D01*
X123802993Y-45774075D01*
X123675826Y-45740000D01*
X123544174Y-45740000D01*
X123417007Y-45774075D01*
X123360000Y-45806988D01*
X123360000Y-44909364D01*
X123359999Y-44909364D01*
X123146513Y-44966567D01*
X123146507Y-44966570D01*
X122932422Y-45066399D01*
X122932420Y-45066400D01*
X122738926Y-45201886D01*
X122738920Y-45201891D01*
X122571891Y-45368920D01*
X122571886Y-45368926D01*
X122436400Y-45562420D01*
X122436399Y-45562422D01*
X122336570Y-45776507D01*
X122336567Y-45776514D01*
X122303841Y-45898650D01*
X122267476Y-45958310D01*
X122204629Y-45988839D01*
X122135253Y-45980544D01*
X122081375Y-45936059D01*
X122065406Y-45902552D01*
X122045232Y-45836046D01*
X121947685Y-45653550D01*
X121879014Y-45569874D01*
X121816410Y-45493589D01*
X121698677Y-45396969D01*
X121656450Y-45362315D01*
X121473954Y-45264768D01*
X121275934Y-45204700D01*
X121275932Y-45204699D01*
X121275934Y-45204699D01*
X121070000Y-45184417D01*
X120864067Y-45204699D01*
X120666043Y-45264769D01*
X120578249Y-45311697D01*
X120483550Y-45362315D01*
X120483548Y-45362316D01*
X120483547Y-45362317D01*
X120323589Y-45493589D01*
X120192317Y-45653547D01*
X120094769Y-45836043D01*
X120034699Y-46034067D01*
X120014417Y-46240000D01*
X119585583Y-46240000D01*
X119565300Y-46034066D01*
X119505232Y-45836046D01*
X119407685Y-45653550D01*
X119339014Y-45569874D01*
X119276410Y-45493589D01*
X119158677Y-45396969D01*
X119116450Y-45362315D01*
X118933954Y-45264768D01*
X118735934Y-45204700D01*
X118735932Y-45204699D01*
X118735934Y-45204699D01*
X118530000Y-45184417D01*
X118324067Y-45204699D01*
X118126043Y-45264769D01*
X118038249Y-45311697D01*
X117943550Y-45362315D01*
X117943548Y-45362316D01*
X117943547Y-45362317D01*
X117783589Y-45493589D01*
X117652317Y-45653547D01*
X117554769Y-45836043D01*
X117494699Y-46034067D01*
X117474417Y-46240000D01*
X117494699Y-46445932D01*
X117508067Y-46490000D01*
X117554768Y-46643954D01*
X117652315Y-46826450D01*
X117661765Y-46837965D01*
X117783589Y-46986410D01*
X117880209Y-47065702D01*
X117943550Y-47117685D01*
X118126046Y-47215232D01*
X118192551Y-47235405D01*
X118250989Y-47273702D01*
X118279446Y-47337514D01*
X118268887Y-47406581D01*
X118222663Y-47458975D01*
X118188650Y-47473841D01*
X118066514Y-47506567D01*
X118066507Y-47506570D01*
X117852422Y-47606399D01*
X117852420Y-47606400D01*
X117658926Y-47741886D01*
X117658920Y-47741891D01*
X117579181Y-47821631D01*
X117517858Y-47855116D01*
X117448166Y-47850132D01*
X117392233Y-47808260D01*
X117367816Y-47742796D01*
X117367500Y-47733950D01*
X117367500Y-47300988D01*
X117367499Y-47300984D01*
X117355115Y-47271088D01*
X117355115Y-47271085D01*
X117327311Y-47203961D01*
X117327309Y-47203956D01*
X116961316Y-46837964D01*
X116927832Y-46776642D01*
X116932816Y-46706951D01*
X116939638Y-46691835D01*
X116965232Y-46643954D01*
X117025300Y-46445934D01*
X117045583Y-46240000D01*
X117025300Y-46034066D01*
X116965232Y-45836046D01*
X116867685Y-45653550D01*
X116799014Y-45569874D01*
X116736410Y-45493589D01*
X116618677Y-45396969D01*
X116576450Y-45362315D01*
X116393954Y-45264768D01*
X116195934Y-45204700D01*
X116195932Y-45204699D01*
X116195934Y-45204699D01*
X115990000Y-45184417D01*
X115784067Y-45204699D01*
X115586043Y-45264769D01*
X115498249Y-45311697D01*
X115403550Y-45362315D01*
X115403548Y-45362316D01*
X115403547Y-45362317D01*
X115243589Y-45493589D01*
X115112317Y-45653547D01*
X115014767Y-45836046D01*
X114994593Y-45902552D01*
X114956296Y-45960990D01*
X114892483Y-45989447D01*
X114823416Y-45978886D01*
X114771023Y-45932661D01*
X114756158Y-45898649D01*
X114723433Y-45776516D01*
X114723429Y-45776507D01*
X114623600Y-45562422D01*
X114623599Y-45562420D01*
X114488113Y-45368926D01*
X114488108Y-45368920D01*
X114321082Y-45201894D01*
X114127578Y-45066399D01*
X113913492Y-44966570D01*
X113913486Y-44966567D01*
X113700000Y-44909364D01*
X113700000Y-45806988D01*
X113642993Y-45774075D01*
X113515826Y-45740000D01*
X113384174Y-45740000D01*
X113257007Y-45774075D01*
X113200000Y-45806988D01*
X113200000Y-44909364D01*
X113199999Y-44909364D01*
X112986513Y-44966567D01*
X112986507Y-44966570D01*
X112772422Y-45066399D01*
X112772420Y-45066400D01*
X112578926Y-45201886D01*
X112578920Y-45201891D01*
X112411891Y-45368920D01*
X112411886Y-45368926D01*
X112276400Y-45562420D01*
X112276399Y-45562422D01*
X112176570Y-45776507D01*
X112176567Y-45776514D01*
X112143841Y-45898650D01*
X112107476Y-45958310D01*
X112044629Y-45988839D01*
X111975253Y-45980544D01*
X111921375Y-45936059D01*
X111905406Y-45902552D01*
X111885232Y-45836046D01*
X111787685Y-45653550D01*
X111719014Y-45569874D01*
X111656410Y-45493589D01*
X111538677Y-45396969D01*
X111496450Y-45362315D01*
X111313954Y-45264768D01*
X111115934Y-45204700D01*
X111115932Y-45204699D01*
X111115934Y-45204699D01*
X110910000Y-45184417D01*
X110704067Y-45204699D01*
X110506043Y-45264769D01*
X110418249Y-45311697D01*
X110323550Y-45362315D01*
X110323548Y-45362316D01*
X110323547Y-45362317D01*
X110163589Y-45493589D01*
X110032317Y-45653547D01*
X109934769Y-45836043D01*
X109874699Y-46034067D01*
X109854417Y-46240000D01*
X109425583Y-46240000D01*
X109405300Y-46034066D01*
X109345232Y-45836046D01*
X109247685Y-45653550D01*
X109179014Y-45569874D01*
X109116410Y-45493589D01*
X108998677Y-45396969D01*
X108956450Y-45362315D01*
X108773954Y-45264768D01*
X108575934Y-45204700D01*
X108575932Y-45204699D01*
X108575934Y-45204699D01*
X108370000Y-45184417D01*
X108164067Y-45204699D01*
X107966043Y-45264769D01*
X107878249Y-45311697D01*
X107783550Y-45362315D01*
X107783548Y-45362316D01*
X107783547Y-45362317D01*
X107623589Y-45493589D01*
X107492317Y-45653547D01*
X107394769Y-45836043D01*
X107334699Y-46034067D01*
X107314417Y-46240000D01*
X104573758Y-46240000D01*
X104365051Y-46088366D01*
X104258482Y-46034066D01*
X104133576Y-45970422D01*
X103886493Y-45890140D01*
X103629902Y-45849500D01*
X103629897Y-45849500D01*
X103370103Y-45849500D01*
X103370098Y-45849500D01*
X103113506Y-45890140D01*
X102866423Y-45970422D01*
X102634945Y-46088368D01*
X102424774Y-46241066D01*
X102424768Y-46241071D01*
X102241071Y-46424768D01*
X102241066Y-46424774D01*
X102088368Y-46634945D01*
X101970422Y-46866423D01*
X101890140Y-47113506D01*
X101849500Y-47370097D01*
X100300500Y-47370097D01*
X100300500Y-47003480D01*
X100300695Y-46996527D01*
X100308001Y-46866428D01*
X100317084Y-46704691D01*
X100318638Y-46690898D01*
X100367015Y-46406167D01*
X100370109Y-46392615D01*
X100413769Y-46241071D01*
X100450061Y-46115096D01*
X100454653Y-46101975D01*
X100565175Y-45835151D01*
X100571195Y-45822651D01*
X100710902Y-45569868D01*
X100718297Y-45558100D01*
X100759842Y-45499548D01*
X100885422Y-45322559D01*
X100894077Y-45311705D01*
X101086534Y-45096346D01*
X101096346Y-45086534D01*
X101311705Y-44894077D01*
X101322559Y-44885422D01*
X101558105Y-44718293D01*
X101569868Y-44710902D01*
X101822651Y-44571195D01*
X101835151Y-44565175D01*
X102101979Y-44454651D01*
X102115096Y-44450061D01*
X102392621Y-44370107D01*
X102406167Y-44367015D01*
X102690898Y-44318638D01*
X102704691Y-44317084D01*
X102996528Y-44300695D01*
X103003481Y-44300500D01*
X103047595Y-44300500D01*
X161952405Y-44300500D01*
X161996519Y-44300500D01*
X162003472Y-44300695D01*
G37*
G04 #@! TD.AperFunction*
D15*
X162000000Y-44000000D02*
G75*
G02*
X165000000Y-47000000I0J-3000000D01*
G01*
X165000000Y-97000000D02*
X165000000Y-47000000D01*
X100000000Y-47000000D02*
X100000000Y-81000000D01*
X103000000Y-100000000D02*
G75*
G02*
X100000000Y-97000000I0J3000000D01*
G01*
X103000000Y-100000000D02*
X162000000Y-100000000D01*
X165000000Y-97000000D02*
G75*
G02*
X162000000Y-100000000I-3000000J0D01*
G01*
X100000000Y-47000000D02*
G75*
G02*
X103000000Y-44000000I3000000J0D01*
G01*
X100000000Y-81000000D02*
X100000000Y-97000000D01*
X162000000Y-44000000D02*
X103000000Y-44000000D01*
M02*
