M48
; DRILL file {KiCad 8.0.6-8.0.6-0~ubuntu22.04.1} date 2024-12-26T22:40:30+0100
; FORMAT={-:-/ absolute / inch / decimal}
; #@! TF.CreationDate,2024-12-26T22:40:30+01:00
; #@! TF.GenerationSoftware,Kicad,Pcbnew,8.0.6-8.0.6-0~ubuntu22.04.1
; #@! TF.FileFunction,Plated,1,2,PTH
FMAT,2
INCH
; #@! TA.AperFunction,Plated,PTH,ViaDrill
T1C0.0118
; #@! TA.AperFunction,Plated,PTH,ComponentDrill
T2C0.0394
%
G90
G05
T1
X3.967Y-2.385
X4.003Y-2.205
X4.051Y-2.371
X4.065Y-2.737
X4.065Y-2.779
X4.065Y-2.823
X4.075Y-2.121
X4.077Y-2.537
X4.097Y-2.577
X4.133Y-2.737
X4.133Y-2.779
X4.133Y-2.823
X4.137Y-2.537
X4.137Y-2.577
X4.183Y-2.147
X4.209Y-2.379
X4.215Y-2.147
X4.237Y-2.717
X4.3013Y-2.9613
X4.325Y-1.869
X4.345Y-2.991
X4.369Y-2.717
X4.383Y-3.287
X4.397Y-2.377
X4.413Y-1.871
X4.441Y-2.919
X4.455Y-3.047
X4.457Y-2.377
X4.463Y-2.533
X4.487Y-3.215
X4.495Y-2.043
X4.497Y-2.377
X4.515Y-3.475
X4.515Y-3.531
X4.525Y-3.047
X4.537Y-2.043
X4.537Y-2.087
X4.537Y-2.123
X4.537Y-2.737
X4.555Y-2.921
X4.561Y-2.991
X4.579Y-3.137
X4.597Y-2.737
X4.597Y-2.797
X4.6142Y-3.475
X4.6142Y-3.531
X4.635Y-3.323
X4.637Y-3.139
X4.637Y-3.197
X4.657Y-2.737
X4.657Y-2.797
X4.665Y-2.635
X4.671Y-2.963
X4.673Y-3.323
X4.677Y-2.377
X4.697Y-2.415
X4.7133Y-3.475
X4.7133Y-3.531
X4.735Y-2.377
X4.737Y-3.337
X4.797Y-3.277
X4.8124Y-3.475
X4.8124Y-3.531
X4.817Y-3.037
X4.817Y-3.217
X4.837Y-3.075
X4.857Y-3.037
X4.857Y-3.217
X4.857Y-3.277
X4.877Y-3.077
X4.897Y-3.037
X4.899Y-3.137
X4.9116Y-3.475
X4.9116Y-3.531
X4.92Y-2.148
X4.925Y-2.721
X4.949Y-3.287
X4.993Y-3.287
X5.0107Y-3.475
X5.0107Y-3.531
X5.035Y-3.183
X5.045Y-2.965
X5.047Y-2.997
X5.061Y-2.035
X5.081Y-3.3372
X5.093Y-3.137
X5.093Y-3.219
X5.1099Y-3.475
X5.1099Y-3.531
X5.137Y-3.137
X5.151Y-2.917
X5.165Y-3.337
X5.191Y-3.033
X5.209Y-3.475
X5.209Y-3.531
X5.233Y-3.031
X5.259Y-2.923
X5.275Y-2.9876
X5.383Y-2.993
X5.463Y-2.057
X5.483Y-2.727
X5.535Y-3.537
X5.637Y-3.477
X5.637Y-3.537
X5.839Y-2.201
X5.841Y-2.237
X5.841Y-2.273
X5.845Y-2.307
X6.087Y-2.737
X6.317Y-2.337
X6.377Y-2.337
X6.377Y-2.385
X6.421Y-2.747
X6.429Y-2.337
X6.429Y-2.385
T2
X4.2665Y-1.8205
X4.2665Y-1.9205
X4.3665Y-1.8205
X4.3665Y-1.9205
X4.4646Y-3.6638
X4.4646Y-3.7638
X4.4665Y-1.8205
X4.4665Y-1.9205
X4.5646Y-3.6638
X4.5646Y-3.7638
X4.5665Y-1.8205
X4.5665Y-1.9205
X4.6646Y-3.6638
X4.6646Y-3.7638
X4.6665Y-1.8205
X4.6665Y-1.9205
X4.7646Y-3.6638
X4.7646Y-3.7638
X4.7665Y-1.8205
X4.7665Y-1.9205
X4.8646Y-3.6638
X4.8646Y-3.7638
X4.8665Y-1.8205
X4.8665Y-1.9205
X4.9646Y-3.6638
X4.9646Y-3.7638
X4.9665Y-1.8205
X4.9665Y-1.9205
X5.0646Y-3.6638
X5.0646Y-3.7638
X5.0665Y-1.8205
X5.0665Y-1.9205
X5.1646Y-3.6638
X5.1646Y-3.7638
X5.1665Y-1.8205
X5.1665Y-1.9205
X5.2646Y-3.6638
X5.2646Y-3.7638
X5.2665Y-1.8205
X5.2665Y-1.9205
X5.3646Y-3.6638
X5.3646Y-3.7638
X5.3665Y-1.8205
X5.3665Y-1.9205
X5.4646Y-3.6638
X5.4646Y-3.7638
X5.4665Y-1.8205
X5.4665Y-1.9205
X5.5646Y-3.6638
X5.5646Y-3.7638
X5.5665Y-1.8205
X5.5665Y-1.9205
X5.6646Y-3.6638
X5.6646Y-3.7638
X5.6665Y-1.8205
X5.6665Y-1.9205
X5.7646Y-3.6638
X5.7646Y-3.7638
X5.7665Y-1.8205
X5.7665Y-1.9205
X5.8646Y-3.6638
X5.8646Y-3.7638
X5.8665Y-1.8205
X5.8665Y-1.9205
X5.9646Y-3.6638
X5.9646Y-3.7638
X5.9665Y-1.8205
X5.9665Y-1.9205
X6.0665Y-1.8205
X6.0665Y-1.9205
X6.1665Y-1.8205
X6.1665Y-1.9205
M30
