G04 #@! TF.GenerationSoftware,KiCad,Pcbnew,8.0.6-8.0.6-0~ubuntu22.04.1*
G04 #@! TF.CreationDate,2024-12-26T22:40:20+01:00*
G04 #@! TF.ProjectId,ohsim_hat,6f687369-6d5f-4686-9174-2e6b69636164,rev?*
G04 #@! TF.SameCoordinates,Original*
G04 #@! TF.FileFunction,Paste,Top*
G04 #@! TF.FilePolarity,Positive*
%FSLAX46Y46*%
G04 Gerber Fmt 4.6, Leading zero omitted, Abs format (unit mm)*
G04 Created by KiCad (PCBNEW 8.0.6-8.0.6-0~ubuntu22.04.1) date 2024-12-26 22:40:20*
%MOMM*%
%LPD*%
G01*
G04 APERTURE LIST*
G04 Aperture macros list*
%AMRoundRect*
0 Rectangle with rounded corners*
0 $1 Rounding radius*
0 $2 $3 $4 $5 $6 $7 $8 $9 X,Y pos of 4 corners*
0 Add a 4 corners polygon primitive as box body*
4,1,4,$2,$3,$4,$5,$6,$7,$8,$9,$2,$3,0*
0 Add four circle primitives for the rounded corners*
1,1,$1+$1,$2,$3*
1,1,$1+$1,$4,$5*
1,1,$1+$1,$6,$7*
1,1,$1+$1,$8,$9*
0 Add four rect primitives between the rounded corners*
20,1,$1+$1,$2,$3,$4,$5,0*
20,1,$1+$1,$4,$5,$6,$7,0*
20,1,$1+$1,$6,$7,$8,$9,0*
20,1,$1+$1,$8,$9,$2,$3,0*%
G04 Aperture macros list end*
%ADD10RoundRect,0.200000X0.200000X0.275000X-0.200000X0.275000X-0.200000X-0.275000X0.200000X-0.275000X0*%
%ADD11RoundRect,0.135000X-0.185000X0.135000X-0.185000X-0.135000X0.185000X-0.135000X0.185000X0.135000X0*%
%ADD12RoundRect,0.200000X-0.200000X-0.275000X0.200000X-0.275000X0.200000X0.275000X-0.200000X0.275000X0*%
%ADD13RoundRect,0.140000X0.170000X-0.140000X0.170000X0.140000X-0.170000X0.140000X-0.170000X-0.140000X0*%
%ADD14RoundRect,0.250000X-0.475000X0.250000X-0.475000X-0.250000X0.475000X-0.250000X0.475000X0.250000X0*%
%ADD15RoundRect,0.100000X-0.637500X-0.100000X0.637500X-0.100000X0.637500X0.100000X-0.637500X0.100000X0*%
%ADD16R,0.400000X0.250000*%
%ADD17R,0.400000X0.700000*%
%ADD18RoundRect,0.100000X-0.100000X0.637500X-0.100000X-0.637500X0.100000X-0.637500X0.100000X0.637500X0*%
%ADD19RoundRect,0.150000X-0.512500X-0.150000X0.512500X-0.150000X0.512500X0.150000X-0.512500X0.150000X0*%
%ADD20RoundRect,0.200000X0.275000X-0.200000X0.275000X0.200000X-0.275000X0.200000X-0.275000X-0.200000X0*%
%ADD21RoundRect,0.250000X-0.250000X-0.475000X0.250000X-0.475000X0.250000X0.475000X-0.250000X0.475000X0*%
%ADD22RoundRect,0.135000X0.185000X-0.135000X0.185000X0.135000X-0.185000X0.135000X-0.185000X-0.135000X0*%
%ADD23RoundRect,0.250000X-0.850000X0.375000X-0.850000X-0.375000X0.850000X-0.375000X0.850000X0.375000X0*%
%ADD24RoundRect,0.200000X-0.275000X0.200000X-0.275000X-0.200000X0.275000X-0.200000X0.275000X0.200000X0*%
%ADD25RoundRect,0.218750X0.218750X0.256250X-0.218750X0.256250X-0.218750X-0.256250X0.218750X-0.256250X0*%
%ADD26RoundRect,0.150000X0.150000X0.355000X-0.150000X0.355000X-0.150000X-0.355000X0.150000X-0.355000X0*%
%ADD27RoundRect,0.062500X0.375000X0.062500X-0.375000X0.062500X-0.375000X-0.062500X0.375000X-0.062500X0*%
%ADD28RoundRect,0.225000X0.250000X-0.225000X0.250000X0.225000X-0.250000X0.225000X-0.250000X-0.225000X0*%
%ADD29RoundRect,0.250000X0.250000X0.475000X-0.250000X0.475000X-0.250000X-0.475000X0.250000X-0.475000X0*%
%ADD30RoundRect,0.140000X-0.170000X0.140000X-0.170000X-0.140000X0.170000X-0.140000X0.170000X0.140000X0*%
%ADD31RoundRect,0.225000X-0.250000X0.225000X-0.250000X-0.225000X0.250000X-0.225000X0.250000X0.225000X0*%
%ADD32RoundRect,0.225000X0.225000X0.250000X-0.225000X0.250000X-0.225000X-0.250000X0.225000X-0.250000X0*%
%ADD33RoundRect,0.250000X-0.375000X-0.850000X0.375000X-0.850000X0.375000X0.850000X-0.375000X0.850000X0*%
G04 #@! TA.AperFunction,Profile*
%ADD34C,0.100000*%
G04 #@! TD*
G04 APERTURE END LIST*
D10*
X127088600Y-71994685D03*
X125438600Y-71994685D03*
D11*
X124638000Y-85774000D03*
X124638000Y-86794000D03*
D12*
X119495000Y-75216855D03*
X121145000Y-75216855D03*
D13*
X118897600Y-63584685D03*
X118897600Y-62624685D03*
X106400800Y-67256800D03*
X106400800Y-66296800D03*
D14*
X112547600Y-56936800D03*
X112547600Y-58836800D03*
D12*
X107602200Y-73605770D03*
X109252200Y-73605770D03*
X125438600Y-73605770D03*
X127088600Y-73605770D03*
D10*
X139331400Y-73605770D03*
X137681400Y-73605770D03*
X109252200Y-71994685D03*
X107602200Y-71994685D03*
X127088600Y-78439025D03*
X125438600Y-78439025D03*
D15*
X111564700Y-74021600D03*
X111564700Y-74671600D03*
X111564700Y-75321600D03*
X111564700Y-75971600D03*
X111564700Y-76621600D03*
X111564700Y-77271600D03*
X111564700Y-77921600D03*
X117289700Y-77921600D03*
X117289700Y-77271600D03*
X117289700Y-76621600D03*
X117289700Y-75971600D03*
X117289700Y-75321600D03*
X117289700Y-74671600D03*
X117289700Y-74021600D03*
D10*
X121145000Y-70383600D03*
X119495000Y-70383600D03*
D13*
X121031200Y-86764000D03*
X121031200Y-85804000D03*
D12*
X137681400Y-71994685D03*
X139331400Y-71994685D03*
D13*
X115976800Y-86764000D03*
X115976800Y-85804000D03*
D16*
X162845200Y-57560200D03*
X162845200Y-58010200D03*
D17*
X163545200Y-57785200D03*
D12*
X125438600Y-76827940D03*
X127088600Y-76827940D03*
D10*
X139331400Y-76827940D03*
X137681400Y-76827940D03*
D12*
X137681400Y-81661200D03*
X139331400Y-81661200D03*
D11*
X127178000Y-85774000D03*
X127178000Y-86794000D03*
D13*
X114528800Y-86764000D03*
X114528800Y-85804000D03*
D12*
X137681400Y-75216855D03*
X139331400Y-75216855D03*
D18*
X161787400Y-63631600D03*
X161137400Y-63631600D03*
X160487400Y-63631600D03*
X159837400Y-63631600D03*
X159187400Y-63631600D03*
X158537400Y-63631600D03*
X157887400Y-63631600D03*
X157237400Y-63631600D03*
X156587400Y-63631600D03*
X155937400Y-63631600D03*
X155937400Y-69356600D03*
X156587400Y-69356600D03*
X157237400Y-69356600D03*
X157887400Y-69356600D03*
X158537400Y-69356600D03*
X159187400Y-69356600D03*
X159837400Y-69356600D03*
X160487400Y-69356600D03*
X161137400Y-69356600D03*
X161787400Y-69356600D03*
D11*
X132207200Y-85774000D03*
X132207200Y-86794000D03*
D10*
X109271800Y-78439025D03*
X107621800Y-78439025D03*
D13*
X126111200Y-86764000D03*
X126111200Y-85804000D03*
D18*
X149203800Y-63631600D03*
X148553800Y-63631600D03*
X147903800Y-63631600D03*
X147253800Y-63631600D03*
X146603800Y-63631600D03*
X145953800Y-63631600D03*
X145303800Y-63631600D03*
X144653800Y-63631600D03*
X144003800Y-63631600D03*
X143353800Y-63631600D03*
X143353800Y-69356600D03*
X144003800Y-69356600D03*
X144653800Y-69356600D03*
X145303800Y-69356600D03*
X145953800Y-69356600D03*
X146603800Y-69356600D03*
X147253800Y-69356600D03*
X147903800Y-69356600D03*
X148553800Y-69356600D03*
X149203800Y-69356600D03*
D13*
X123571200Y-86764000D03*
X123571200Y-85804000D03*
D11*
X117043600Y-85774000D03*
X117043600Y-86794000D03*
D19*
X108057300Y-64288700D03*
X108057300Y-65238700D03*
X108057300Y-66188700D03*
X110332300Y-66188700D03*
X110332300Y-64288700D03*
D12*
X125438600Y-70383600D03*
X127088600Y-70383600D03*
D16*
X162946800Y-52632600D03*
X162946800Y-53082600D03*
D17*
X163646800Y-52857600D03*
D10*
X109271800Y-81661200D03*
X107621800Y-81661200D03*
D11*
X129667200Y-85774000D03*
X129667200Y-86794000D03*
D20*
X163296800Y-64960200D03*
X163296800Y-63310200D03*
D10*
X139331400Y-70383600D03*
X137681400Y-70383600D03*
D21*
X108092400Y-53670400D03*
X109992400Y-53670400D03*
D12*
X107621800Y-76827940D03*
X109271800Y-76827940D03*
X161811400Y-54330800D03*
X163461400Y-54330800D03*
D15*
X120601500Y-62301800D03*
X120601500Y-62951800D03*
X120601500Y-63601800D03*
X120601500Y-64251800D03*
X120601500Y-64901800D03*
X120601500Y-65551800D03*
X120601500Y-66201800D03*
X120601500Y-66851800D03*
X126326500Y-66851800D03*
X126326500Y-66201800D03*
X126326500Y-65551800D03*
X126326500Y-64901800D03*
X126326500Y-64251800D03*
X126326500Y-63601800D03*
X126326500Y-62951800D03*
X126326500Y-62301800D03*
X129564700Y-74021600D03*
X129564700Y-74671600D03*
X129564700Y-75321600D03*
X129564700Y-75971600D03*
X129564700Y-76621600D03*
X129564700Y-77271600D03*
X129564700Y-77921600D03*
X135289700Y-77921600D03*
X135289700Y-77271600D03*
X135289700Y-76621600D03*
X135289700Y-75971600D03*
X135289700Y-75321600D03*
X135289700Y-74671600D03*
X135289700Y-74021600D03*
D13*
X128600400Y-86764000D03*
X128600400Y-85804000D03*
D22*
X123164000Y-60886800D03*
X123164000Y-59866800D03*
D23*
X104927600Y-57726200D03*
X104927600Y-59876200D03*
D10*
X139331400Y-80050110D03*
X137681400Y-80050110D03*
D24*
X163296800Y-66510600D03*
X163296800Y-68160600D03*
D22*
X125364000Y-60886800D03*
X125364000Y-59866800D03*
D25*
X160071100Y-56210400D03*
X158496100Y-56210400D03*
X160121900Y-54330800D03*
X158546900Y-54330800D03*
D12*
X107621800Y-80050110D03*
X109271800Y-80050110D03*
X119495000Y-78439025D03*
X121145000Y-78439025D03*
X161709800Y-56210400D03*
X163359800Y-56210400D03*
D24*
X150800000Y-68021600D03*
X150800000Y-69671600D03*
D26*
X109620600Y-57394200D03*
X109620600Y-56144200D03*
X108870600Y-57394200D03*
X108870600Y-56144200D03*
D27*
X110683100Y-58019200D03*
X110683100Y-57519200D03*
X110683100Y-57019200D03*
X110683100Y-56519200D03*
X110683100Y-56019200D03*
X110683100Y-55519200D03*
X107808100Y-55519200D03*
X107808100Y-56019200D03*
X107808100Y-56519200D03*
X107808100Y-57019200D03*
X107808100Y-57519200D03*
X107808100Y-58019200D03*
D13*
X131191200Y-86764000D03*
X131191200Y-85804000D03*
D11*
X119558000Y-85774000D03*
X119558000Y-86794000D03*
D12*
X125438600Y-80050110D03*
X127088600Y-80050110D03*
D22*
X122064000Y-60886800D03*
X122064000Y-59866800D03*
D28*
X163296800Y-72987400D03*
X163296800Y-71437400D03*
D12*
X107602200Y-70383600D03*
X109252200Y-70383600D03*
D29*
X105522000Y-55702400D03*
X103622000Y-55702400D03*
D10*
X127088600Y-75216855D03*
X125438600Y-75216855D03*
D12*
X137681400Y-78439025D03*
X139331400Y-78439025D03*
D10*
X121145000Y-76827940D03*
X119495000Y-76827940D03*
D11*
X122098000Y-85774000D03*
X122098000Y-86794000D03*
D12*
X119495000Y-81661200D03*
X121145000Y-81661200D03*
D13*
X112242800Y-64259600D03*
X112242800Y-63299600D03*
D30*
X106400800Y-64315600D03*
X106400800Y-65275600D03*
D13*
X118491200Y-86764000D03*
X118491200Y-85804000D03*
D31*
X152476400Y-68071600D03*
X152476400Y-69621600D03*
D11*
X113411200Y-85774000D03*
X113411200Y-86794000D03*
D12*
X119495000Y-71994685D03*
X121145000Y-71994685D03*
D32*
X105550200Y-53416400D03*
X104000200Y-53416400D03*
D10*
X121145000Y-80050110D03*
X119495000Y-80050110D03*
D33*
X108119800Y-60528400D03*
X110269800Y-60528400D03*
D10*
X121145000Y-73605770D03*
X119495000Y-73605770D03*
X127088600Y-81661200D03*
X125438600Y-81661200D03*
D22*
X124264000Y-60886800D03*
X124264000Y-59866800D03*
D10*
X109252200Y-75216855D03*
X107602200Y-75216855D03*
D20*
X150800000Y-64947200D03*
X150800000Y-63297200D03*
D34*
X162000000Y-44000000D02*
G75*
G02*
X165000000Y-47000000I0J-3000000D01*
G01*
X165000000Y-97000000D02*
X165000000Y-47000000D01*
X100000000Y-47000000D02*
X100000000Y-81000000D01*
X103000000Y-100000000D02*
G75*
G02*
X100000000Y-97000000I0J3000000D01*
G01*
X103000000Y-100000000D02*
X162000000Y-100000000D01*
X165000000Y-97000000D02*
G75*
G02*
X162000000Y-100000000I-3000000J0D01*
G01*
X100000000Y-47000000D02*
G75*
G02*
X103000000Y-44000000I3000000J0D01*
G01*
X100000000Y-81000000D02*
X100000000Y-97000000D01*
X162000000Y-44000000D02*
X103000000Y-44000000D01*
M02*
