%TF.GenerationSoftware,KiCad,Pcbnew,8.0.6-8.0.6-0~ubuntu22.04.1*%
%TF.CreationDate,2024-12-26T22:40:31+01:00*%
%TF.ProjectId,ohsim_hat,6f687369-6d5f-4686-9174-2e6b69636164,rev?*%
%TF.SameCoordinates,Original*%
%TF.FileFunction,Drillmap*%
%TF.FilePolarity,Positive*%
%FSLAX45Y45*%
G04 Gerber Fmt 4.5, Leading zero omitted, Abs format (unit mm)*
G04 Created by KiCad (PCBNEW 8.0.6-8.0.6-0~ubuntu22.04.1) date 2024-12-26 22:40:31*
%MOMM*%
%LPD*%
G01*
G04 APERTURE LIST*
%ADD10C,0.100000*%
%ADD11C,0.200000*%
G04 APERTURE END LIST*
D10*
X16200000Y-4400000D02*
G75*
G02*
X16500000Y-4700000I0J-300000D01*
G01*
X16500000Y-9700000D02*
X16500000Y-4700000D01*
X10000000Y-4700000D02*
X10000000Y-8100000D01*
X10300000Y-10000000D02*
G75*
G02*
X10000000Y-9700000I0J300000D01*
G01*
X10300000Y-10000000D02*
X16200000Y-10000000D01*
X16500000Y-9700000D02*
G75*
G02*
X16200000Y-10000000I-300000J0D01*
G01*
X10000000Y-4700000D02*
G75*
G02*
X10300000Y-4400000I300000J0D01*
G01*
X10000000Y-8100000D02*
X10000000Y-9700000D01*
X16200000Y-4400000D02*
X10300000Y-4400000D01*
D11*
D10*
X10061200Y-6042920D02*
X10091200Y-6072920D01*
X10091200Y-6042920D02*
X10061200Y-6072920D01*
X10152640Y-5585720D02*
X10182640Y-5615720D01*
X10182640Y-5585720D02*
X10152640Y-5615720D01*
X10274560Y-6007360D02*
X10304560Y-6037360D01*
X10304560Y-6007360D02*
X10274560Y-6037360D01*
X10310120Y-6937000D02*
X10340120Y-6967000D01*
X10340120Y-6937000D02*
X10310120Y-6967000D01*
X10310120Y-7043680D02*
X10340120Y-7073680D01*
X10340120Y-7043680D02*
X10310120Y-7073680D01*
X10310120Y-7155440D02*
X10340120Y-7185440D01*
X10340120Y-7155440D02*
X10310120Y-7185440D01*
X10335520Y-5372360D02*
X10365520Y-5402360D01*
X10365520Y-5372360D02*
X10335520Y-5402360D01*
X10340600Y-6429000D02*
X10370600Y-6459000D01*
X10370600Y-6429000D02*
X10340600Y-6459000D01*
X10391400Y-6530600D02*
X10421400Y-6560600D01*
X10421400Y-6530600D02*
X10391400Y-6560600D01*
X10482840Y-6937000D02*
X10512840Y-6967000D01*
X10512840Y-6937000D02*
X10482840Y-6967000D01*
X10482840Y-7043680D02*
X10512840Y-7073680D01*
X10512840Y-7043680D02*
X10482840Y-7073680D01*
X10482840Y-7155440D02*
X10512840Y-7185440D01*
X10512840Y-7155440D02*
X10482840Y-7185440D01*
X10493000Y-6429000D02*
X10523000Y-6459000D01*
X10523000Y-6429000D02*
X10493000Y-6459000D01*
X10493000Y-6530600D02*
X10523000Y-6560600D01*
X10523000Y-6530600D02*
X10493000Y-6560600D01*
X10609840Y-5438400D02*
X10639840Y-5468400D01*
X10639840Y-5438400D02*
X10609840Y-5468400D01*
X10675880Y-6027680D02*
X10705880Y-6057680D01*
X10705880Y-6027680D02*
X10675880Y-6057680D01*
X10691120Y-5438400D02*
X10721120Y-5468400D01*
X10721120Y-5438400D02*
X10691120Y-5468400D01*
X10747000Y-6886200D02*
X10777000Y-6916200D01*
X10777000Y-6886200D02*
X10747000Y-6916200D01*
X10910220Y-7506685D02*
X10940220Y-7536685D01*
X10940220Y-7506685D02*
X10910220Y-7536685D01*
X10970520Y-4732280D02*
X11000520Y-4762280D01*
X11000520Y-4732280D02*
X10970520Y-4762280D01*
X11021320Y-7582160D02*
X11051320Y-7612160D01*
X11051320Y-7582160D02*
X11021320Y-7612160D01*
X11082280Y-6886200D02*
X11112280Y-6916200D01*
X11112280Y-6886200D02*
X11082280Y-6916200D01*
X11117840Y-8334000D02*
X11147840Y-8364000D01*
X11147840Y-8334000D02*
X11117840Y-8364000D01*
X11153400Y-6022600D02*
X11183400Y-6052600D01*
X11183400Y-6022600D02*
X11153400Y-6052600D01*
X11194040Y-4737360D02*
X11224040Y-4767360D01*
X11224040Y-4737360D02*
X11194040Y-4767360D01*
X11265160Y-7399280D02*
X11295160Y-7429280D01*
X11295160Y-7399280D02*
X11265160Y-7429280D01*
X11300720Y-7724400D02*
X11330720Y-7754400D01*
X11330720Y-7724400D02*
X11300720Y-7754400D01*
X11305800Y-6022600D02*
X11335800Y-6052600D01*
X11335800Y-6022600D02*
X11305800Y-6052600D01*
X11321040Y-6418840D02*
X11351040Y-6448840D01*
X11351040Y-6418840D02*
X11321040Y-6448840D01*
X11382000Y-8151120D02*
X11412000Y-8181120D01*
X11412000Y-8151120D02*
X11382000Y-8181120D01*
X11402320Y-5174240D02*
X11432320Y-5204240D01*
X11432320Y-5174240D02*
X11402320Y-5204240D01*
X11407400Y-6022600D02*
X11437400Y-6052600D01*
X11437400Y-6022600D02*
X11407400Y-6052600D01*
X11453120Y-8811520D02*
X11483120Y-8841520D01*
X11483120Y-8811520D02*
X11453120Y-8841520D01*
X11453120Y-8953760D02*
X11483120Y-8983760D01*
X11483120Y-8953760D02*
X11453120Y-8983760D01*
X11478520Y-7724400D02*
X11508520Y-7754400D01*
X11508520Y-7724400D02*
X11478520Y-7754400D01*
X11509000Y-5174240D02*
X11539000Y-5204240D01*
X11539000Y-5174240D02*
X11509000Y-5204240D01*
X11509000Y-5286000D02*
X11539000Y-5316000D01*
X11539000Y-5286000D02*
X11509000Y-5316000D01*
X11509000Y-5377440D02*
X11539000Y-5407440D01*
X11539000Y-5377440D02*
X11509000Y-5407440D01*
X11509000Y-6937000D02*
X11539000Y-6967000D01*
X11539000Y-6937000D02*
X11509000Y-6967000D01*
X11554720Y-7404360D02*
X11584720Y-7434360D01*
X11584720Y-7404360D02*
X11554720Y-7434360D01*
X11569960Y-7582160D02*
X11599960Y-7612160D01*
X11599960Y-7582160D02*
X11569960Y-7612160D01*
X11615680Y-7953000D02*
X11645680Y-7983000D01*
X11645680Y-7953000D02*
X11615680Y-7983000D01*
X11661400Y-6937000D02*
X11691400Y-6967000D01*
X11691400Y-6937000D02*
X11661400Y-6967000D01*
X11661400Y-7089400D02*
X11691400Y-7119400D01*
X11691400Y-7089400D02*
X11661400Y-7119400D01*
X11704943Y-8811520D02*
X11734943Y-8841520D01*
X11734943Y-8811520D02*
X11704943Y-8841520D01*
X11704943Y-8953760D02*
X11734943Y-8983760D01*
X11734943Y-8953760D02*
X11704943Y-8983760D01*
X11757920Y-8425440D02*
X11787920Y-8455440D01*
X11787920Y-8425440D02*
X11757920Y-8455440D01*
X11763000Y-7958080D02*
X11793000Y-7988080D01*
X11793000Y-7958080D02*
X11763000Y-7988080D01*
X11763000Y-8105400D02*
X11793000Y-8135400D01*
X11793000Y-8105400D02*
X11763000Y-8135400D01*
X11813800Y-6937000D02*
X11843800Y-6967000D01*
X11843800Y-6937000D02*
X11813800Y-6967000D01*
X11813800Y-7089400D02*
X11843800Y-7119400D01*
X11843800Y-7089400D02*
X11813800Y-7119400D01*
X11834120Y-6677920D02*
X11864120Y-6707920D01*
X11864120Y-6677920D02*
X11834120Y-6707920D01*
X11849360Y-7511040D02*
X11879360Y-7541040D01*
X11879360Y-7511040D02*
X11849360Y-7541040D01*
X11854440Y-8425440D02*
X11884440Y-8455440D01*
X11884440Y-8425440D02*
X11854440Y-8455440D01*
X11864600Y-6022600D02*
X11894600Y-6052600D01*
X11894600Y-6022600D02*
X11864600Y-6052600D01*
X11915400Y-6119120D02*
X11945400Y-6149120D01*
X11945400Y-6119120D02*
X11915400Y-6149120D01*
X11956766Y-8811520D02*
X11986766Y-8841520D01*
X11986766Y-8811520D02*
X11956766Y-8841520D01*
X11956766Y-8953760D02*
X11986766Y-8983760D01*
X11986766Y-8953760D02*
X11956766Y-8983760D01*
X12011920Y-6022600D02*
X12041920Y-6052600D01*
X12041920Y-6022600D02*
X12011920Y-6052600D01*
X12017000Y-8461000D02*
X12047000Y-8491000D01*
X12047000Y-8461000D02*
X12017000Y-8491000D01*
X12169400Y-8308600D02*
X12199400Y-8338600D01*
X12199400Y-8308600D02*
X12169400Y-8338600D01*
X12208588Y-8811520D02*
X12238588Y-8841520D01*
X12238588Y-8811520D02*
X12208588Y-8841520D01*
X12208588Y-8953760D02*
X12238588Y-8983760D01*
X12238588Y-8953760D02*
X12208588Y-8983760D01*
X12220200Y-7699000D02*
X12250200Y-7729000D01*
X12250200Y-7699000D02*
X12220200Y-7729000D01*
X12220200Y-8156200D02*
X12250200Y-8186200D01*
X12250200Y-8156200D02*
X12220200Y-8186200D01*
X12271000Y-7795520D02*
X12301000Y-7825520D01*
X12301000Y-7795520D02*
X12271000Y-7825520D01*
X12321800Y-7699000D02*
X12351800Y-7729000D01*
X12351800Y-7699000D02*
X12321800Y-7729000D01*
X12321800Y-8156200D02*
X12351800Y-8186200D01*
X12351800Y-8156200D02*
X12321800Y-8186200D01*
X12321800Y-8308600D02*
X12351800Y-8338600D01*
X12351800Y-8308600D02*
X12321800Y-8338600D01*
X12372600Y-7800600D02*
X12402600Y-7830600D01*
X12402600Y-7800600D02*
X12372600Y-7830600D01*
X12423400Y-7699000D02*
X12453400Y-7729000D01*
X12453400Y-7699000D02*
X12423400Y-7729000D01*
X12428480Y-7953000D02*
X12458480Y-7983000D01*
X12458480Y-7953000D02*
X12428480Y-7983000D01*
X12460411Y-8811520D02*
X12490411Y-8841520D01*
X12490411Y-8811520D02*
X12460411Y-8841520D01*
X12460411Y-8953760D02*
X12490411Y-8983760D01*
X12490411Y-8953760D02*
X12460411Y-8983760D01*
X12481820Y-5440940D02*
X12511820Y-5470940D01*
X12511820Y-5440940D02*
X12481820Y-5470940D01*
X12494520Y-6896360D02*
X12524520Y-6926360D01*
X12524520Y-6896360D02*
X12494520Y-6926360D01*
X12555480Y-8334000D02*
X12585480Y-8364000D01*
X12585480Y-8334000D02*
X12555480Y-8364000D01*
X12667240Y-8334000D02*
X12697240Y-8364000D01*
X12697240Y-8334000D02*
X12667240Y-8364000D01*
X12712234Y-8811520D02*
X12742234Y-8841520D01*
X12742234Y-8811520D02*
X12712234Y-8841520D01*
X12712234Y-8953760D02*
X12742234Y-8983760D01*
X12742234Y-8953760D02*
X12712234Y-8983760D01*
X12773920Y-8069840D02*
X12803920Y-8099840D01*
X12803920Y-8069840D02*
X12773920Y-8099840D01*
X12799320Y-7516120D02*
X12829320Y-7546120D01*
X12829320Y-7516120D02*
X12799320Y-7546120D01*
X12804400Y-7597400D02*
X12834400Y-7627400D01*
X12834400Y-7597400D02*
X12804400Y-7627400D01*
X12839960Y-5153920D02*
X12869960Y-5183920D01*
X12869960Y-5153920D02*
X12839960Y-5183920D01*
X12890760Y-8461470D02*
X12920760Y-8491470D01*
X12920760Y-8461470D02*
X12890760Y-8491470D01*
X12921240Y-7953000D02*
X12951240Y-7983000D01*
X12951240Y-7953000D02*
X12921240Y-7983000D01*
X12921240Y-8161280D02*
X12951240Y-8191280D01*
X12951240Y-8161280D02*
X12921240Y-8191280D01*
X12964057Y-8811520D02*
X12994057Y-8841520D01*
X12994057Y-8811520D02*
X12964057Y-8841520D01*
X12964057Y-8953760D02*
X12994057Y-8983760D01*
X12994057Y-8953760D02*
X12964057Y-8983760D01*
X13033000Y-7953000D02*
X13063000Y-7983000D01*
X13063000Y-7953000D02*
X13033000Y-7983000D01*
X13068560Y-7394200D02*
X13098560Y-7424200D01*
X13098560Y-7394200D02*
X13068560Y-7424200D01*
X13104120Y-8461000D02*
X13134120Y-8491000D01*
X13134120Y-8461000D02*
X13104120Y-8491000D01*
X13170160Y-7688840D02*
X13200160Y-7718840D01*
X13200160Y-7688840D02*
X13170160Y-7718840D01*
X13215880Y-8811520D02*
X13245880Y-8841520D01*
X13245880Y-8811520D02*
X13215880Y-8841520D01*
X13215880Y-8953760D02*
X13245880Y-8983760D01*
X13245880Y-8953760D02*
X13215880Y-8983760D01*
X13276840Y-7683760D02*
X13306840Y-7713760D01*
X13306840Y-7683760D02*
X13276840Y-7713760D01*
X13342880Y-7409440D02*
X13372880Y-7439440D01*
X13372880Y-7409440D02*
X13342880Y-7439440D01*
X13383520Y-7573510D02*
X13413520Y-7603510D01*
X13413520Y-7573510D02*
X13383520Y-7603510D01*
X13657840Y-7587240D02*
X13687840Y-7617240D01*
X13687840Y-7587240D02*
X13657840Y-7617240D01*
X13861040Y-5209800D02*
X13891040Y-5239800D01*
X13891040Y-5209800D02*
X13861040Y-5239800D01*
X13911840Y-6911600D02*
X13941840Y-6941600D01*
X13941840Y-6911600D02*
X13911840Y-6941600D01*
X14043920Y-8969000D02*
X14073920Y-8999000D01*
X14073920Y-8969000D02*
X14043920Y-8999000D01*
X14303000Y-8816600D02*
X14333000Y-8846600D01*
X14333000Y-8816600D02*
X14303000Y-8846600D01*
X14303000Y-8969000D02*
X14333000Y-8999000D01*
X14333000Y-8969000D02*
X14303000Y-8999000D01*
X14816080Y-5575560D02*
X14846080Y-5605560D01*
X14846080Y-5575560D02*
X14816080Y-5605560D01*
X14821160Y-5667000D02*
X14851160Y-5697000D01*
X14851160Y-5667000D02*
X14821160Y-5697000D01*
X14821160Y-5758440D02*
X14851160Y-5788440D01*
X14851160Y-5758440D02*
X14821160Y-5788440D01*
X14831320Y-5844800D02*
X14861320Y-5874800D01*
X14861320Y-5844800D02*
X14831320Y-5874800D01*
X15446000Y-6937000D02*
X15476000Y-6967000D01*
X15476000Y-6937000D02*
X15446000Y-6967000D01*
X16030200Y-5921000D02*
X16060200Y-5951000D01*
X16060200Y-5921000D02*
X16030200Y-5951000D01*
X16182600Y-5921000D02*
X16212600Y-5951000D01*
X16212600Y-5921000D02*
X16182600Y-5951000D01*
X16182600Y-6042920D02*
X16212600Y-6072920D01*
X16212600Y-6042920D02*
X16182600Y-6072920D01*
X16294360Y-6962400D02*
X16324360Y-6992400D01*
X16324360Y-6962400D02*
X16294360Y-6992400D01*
X16314680Y-5921000D02*
X16344680Y-5951000D01*
X16344680Y-5921000D02*
X16314680Y-5951000D01*
X16314680Y-6042920D02*
X16344680Y-6072920D01*
X16344680Y-6042920D02*
X16314680Y-6072920D01*
X10887000Y-4624000D02*
G75*
G02*
X10787000Y-4624000I-50000J0D01*
G01*
X10787000Y-4624000D02*
G75*
G02*
X10887000Y-4624000I50000J0D01*
G01*
X10887000Y-4878000D02*
G75*
G02*
X10787000Y-4878000I-50000J0D01*
G01*
X10787000Y-4878000D02*
G75*
G02*
X10887000Y-4878000I50000J0D01*
G01*
X11141000Y-4624000D02*
G75*
G02*
X11041000Y-4624000I-50000J0D01*
G01*
X11041000Y-4624000D02*
G75*
G02*
X11141000Y-4624000I50000J0D01*
G01*
X11141000Y-4878000D02*
G75*
G02*
X11041000Y-4878000I-50000J0D01*
G01*
X11041000Y-4878000D02*
G75*
G02*
X11141000Y-4878000I50000J0D01*
G01*
X11390000Y-9306000D02*
G75*
G02*
X11290000Y-9306000I-50000J0D01*
G01*
X11290000Y-9306000D02*
G75*
G02*
X11390000Y-9306000I50000J0D01*
G01*
X11390000Y-9560000D02*
G75*
G02*
X11290000Y-9560000I-50000J0D01*
G01*
X11290000Y-9560000D02*
G75*
G02*
X11390000Y-9560000I50000J0D01*
G01*
X11395000Y-4624000D02*
G75*
G02*
X11295000Y-4624000I-50000J0D01*
G01*
X11295000Y-4624000D02*
G75*
G02*
X11395000Y-4624000I50000J0D01*
G01*
X11395000Y-4878000D02*
G75*
G02*
X11295000Y-4878000I-50000J0D01*
G01*
X11295000Y-4878000D02*
G75*
G02*
X11395000Y-4878000I50000J0D01*
G01*
X11644000Y-9306000D02*
G75*
G02*
X11544000Y-9306000I-50000J0D01*
G01*
X11544000Y-9306000D02*
G75*
G02*
X11644000Y-9306000I50000J0D01*
G01*
X11644000Y-9560000D02*
G75*
G02*
X11544000Y-9560000I-50000J0D01*
G01*
X11544000Y-9560000D02*
G75*
G02*
X11644000Y-9560000I50000J0D01*
G01*
X11649000Y-4624000D02*
G75*
G02*
X11549000Y-4624000I-50000J0D01*
G01*
X11549000Y-4624000D02*
G75*
G02*
X11649000Y-4624000I50000J0D01*
G01*
X11649000Y-4878000D02*
G75*
G02*
X11549000Y-4878000I-50000J0D01*
G01*
X11549000Y-4878000D02*
G75*
G02*
X11649000Y-4878000I50000J0D01*
G01*
X11898000Y-9306000D02*
G75*
G02*
X11798000Y-9306000I-50000J0D01*
G01*
X11798000Y-9306000D02*
G75*
G02*
X11898000Y-9306000I50000J0D01*
G01*
X11898000Y-9560000D02*
G75*
G02*
X11798000Y-9560000I-50000J0D01*
G01*
X11798000Y-9560000D02*
G75*
G02*
X11898000Y-9560000I50000J0D01*
G01*
X11903000Y-4624000D02*
G75*
G02*
X11803000Y-4624000I-50000J0D01*
G01*
X11803000Y-4624000D02*
G75*
G02*
X11903000Y-4624000I50000J0D01*
G01*
X11903000Y-4878000D02*
G75*
G02*
X11803000Y-4878000I-50000J0D01*
G01*
X11803000Y-4878000D02*
G75*
G02*
X11903000Y-4878000I50000J0D01*
G01*
X12152000Y-9306000D02*
G75*
G02*
X12052000Y-9306000I-50000J0D01*
G01*
X12052000Y-9306000D02*
G75*
G02*
X12152000Y-9306000I50000J0D01*
G01*
X12152000Y-9560000D02*
G75*
G02*
X12052000Y-9560000I-50000J0D01*
G01*
X12052000Y-9560000D02*
G75*
G02*
X12152000Y-9560000I50000J0D01*
G01*
X12157000Y-4624000D02*
G75*
G02*
X12057000Y-4624000I-50000J0D01*
G01*
X12057000Y-4624000D02*
G75*
G02*
X12157000Y-4624000I50000J0D01*
G01*
X12157000Y-4878000D02*
G75*
G02*
X12057000Y-4878000I-50000J0D01*
G01*
X12057000Y-4878000D02*
G75*
G02*
X12157000Y-4878000I50000J0D01*
G01*
X12406000Y-9306000D02*
G75*
G02*
X12306000Y-9306000I-50000J0D01*
G01*
X12306000Y-9306000D02*
G75*
G02*
X12406000Y-9306000I50000J0D01*
G01*
X12406000Y-9560000D02*
G75*
G02*
X12306000Y-9560000I-50000J0D01*
G01*
X12306000Y-9560000D02*
G75*
G02*
X12406000Y-9560000I50000J0D01*
G01*
X12411000Y-4624000D02*
G75*
G02*
X12311000Y-4624000I-50000J0D01*
G01*
X12311000Y-4624000D02*
G75*
G02*
X12411000Y-4624000I50000J0D01*
G01*
X12411000Y-4878000D02*
G75*
G02*
X12311000Y-4878000I-50000J0D01*
G01*
X12311000Y-4878000D02*
G75*
G02*
X12411000Y-4878000I50000J0D01*
G01*
X12660000Y-9306000D02*
G75*
G02*
X12560000Y-9306000I-50000J0D01*
G01*
X12560000Y-9306000D02*
G75*
G02*
X12660000Y-9306000I50000J0D01*
G01*
X12660000Y-9560000D02*
G75*
G02*
X12560000Y-9560000I-50000J0D01*
G01*
X12560000Y-9560000D02*
G75*
G02*
X12660000Y-9560000I50000J0D01*
G01*
X12665000Y-4624000D02*
G75*
G02*
X12565000Y-4624000I-50000J0D01*
G01*
X12565000Y-4624000D02*
G75*
G02*
X12665000Y-4624000I50000J0D01*
G01*
X12665000Y-4878000D02*
G75*
G02*
X12565000Y-4878000I-50000J0D01*
G01*
X12565000Y-4878000D02*
G75*
G02*
X12665000Y-4878000I50000J0D01*
G01*
X12914000Y-9306000D02*
G75*
G02*
X12814000Y-9306000I-50000J0D01*
G01*
X12814000Y-9306000D02*
G75*
G02*
X12914000Y-9306000I50000J0D01*
G01*
X12914000Y-9560000D02*
G75*
G02*
X12814000Y-9560000I-50000J0D01*
G01*
X12814000Y-9560000D02*
G75*
G02*
X12914000Y-9560000I50000J0D01*
G01*
X12919000Y-4624000D02*
G75*
G02*
X12819000Y-4624000I-50000J0D01*
G01*
X12819000Y-4624000D02*
G75*
G02*
X12919000Y-4624000I50000J0D01*
G01*
X12919000Y-4878000D02*
G75*
G02*
X12819000Y-4878000I-50000J0D01*
G01*
X12819000Y-4878000D02*
G75*
G02*
X12919000Y-4878000I50000J0D01*
G01*
X13168000Y-9306000D02*
G75*
G02*
X13068000Y-9306000I-50000J0D01*
G01*
X13068000Y-9306000D02*
G75*
G02*
X13168000Y-9306000I50000J0D01*
G01*
X13168000Y-9560000D02*
G75*
G02*
X13068000Y-9560000I-50000J0D01*
G01*
X13068000Y-9560000D02*
G75*
G02*
X13168000Y-9560000I50000J0D01*
G01*
X13173000Y-4624000D02*
G75*
G02*
X13073000Y-4624000I-50000J0D01*
G01*
X13073000Y-4624000D02*
G75*
G02*
X13173000Y-4624000I50000J0D01*
G01*
X13173000Y-4878000D02*
G75*
G02*
X13073000Y-4878000I-50000J0D01*
G01*
X13073000Y-4878000D02*
G75*
G02*
X13173000Y-4878000I50000J0D01*
G01*
X13422000Y-9306000D02*
G75*
G02*
X13322000Y-9306000I-50000J0D01*
G01*
X13322000Y-9306000D02*
G75*
G02*
X13422000Y-9306000I50000J0D01*
G01*
X13422000Y-9560000D02*
G75*
G02*
X13322000Y-9560000I-50000J0D01*
G01*
X13322000Y-9560000D02*
G75*
G02*
X13422000Y-9560000I50000J0D01*
G01*
X13427000Y-4624000D02*
G75*
G02*
X13327000Y-4624000I-50000J0D01*
G01*
X13327000Y-4624000D02*
G75*
G02*
X13427000Y-4624000I50000J0D01*
G01*
X13427000Y-4878000D02*
G75*
G02*
X13327000Y-4878000I-50000J0D01*
G01*
X13327000Y-4878000D02*
G75*
G02*
X13427000Y-4878000I50000J0D01*
G01*
X13676000Y-9306000D02*
G75*
G02*
X13576000Y-9306000I-50000J0D01*
G01*
X13576000Y-9306000D02*
G75*
G02*
X13676000Y-9306000I50000J0D01*
G01*
X13676000Y-9560000D02*
G75*
G02*
X13576000Y-9560000I-50000J0D01*
G01*
X13576000Y-9560000D02*
G75*
G02*
X13676000Y-9560000I50000J0D01*
G01*
X13681000Y-4624000D02*
G75*
G02*
X13581000Y-4624000I-50000J0D01*
G01*
X13581000Y-4624000D02*
G75*
G02*
X13681000Y-4624000I50000J0D01*
G01*
X13681000Y-4878000D02*
G75*
G02*
X13581000Y-4878000I-50000J0D01*
G01*
X13581000Y-4878000D02*
G75*
G02*
X13681000Y-4878000I50000J0D01*
G01*
X13930000Y-9306000D02*
G75*
G02*
X13830000Y-9306000I-50000J0D01*
G01*
X13830000Y-9306000D02*
G75*
G02*
X13930000Y-9306000I50000J0D01*
G01*
X13930000Y-9560000D02*
G75*
G02*
X13830000Y-9560000I-50000J0D01*
G01*
X13830000Y-9560000D02*
G75*
G02*
X13930000Y-9560000I50000J0D01*
G01*
X13935000Y-4624000D02*
G75*
G02*
X13835000Y-4624000I-50000J0D01*
G01*
X13835000Y-4624000D02*
G75*
G02*
X13935000Y-4624000I50000J0D01*
G01*
X13935000Y-4878000D02*
G75*
G02*
X13835000Y-4878000I-50000J0D01*
G01*
X13835000Y-4878000D02*
G75*
G02*
X13935000Y-4878000I50000J0D01*
G01*
X14184000Y-9306000D02*
G75*
G02*
X14084000Y-9306000I-50000J0D01*
G01*
X14084000Y-9306000D02*
G75*
G02*
X14184000Y-9306000I50000J0D01*
G01*
X14184000Y-9560000D02*
G75*
G02*
X14084000Y-9560000I-50000J0D01*
G01*
X14084000Y-9560000D02*
G75*
G02*
X14184000Y-9560000I50000J0D01*
G01*
X14189000Y-4624000D02*
G75*
G02*
X14089000Y-4624000I-50000J0D01*
G01*
X14089000Y-4624000D02*
G75*
G02*
X14189000Y-4624000I50000J0D01*
G01*
X14189000Y-4878000D02*
G75*
G02*
X14089000Y-4878000I-50000J0D01*
G01*
X14089000Y-4878000D02*
G75*
G02*
X14189000Y-4878000I50000J0D01*
G01*
X14438000Y-9306000D02*
G75*
G02*
X14338000Y-9306000I-50000J0D01*
G01*
X14338000Y-9306000D02*
G75*
G02*
X14438000Y-9306000I50000J0D01*
G01*
X14438000Y-9560000D02*
G75*
G02*
X14338000Y-9560000I-50000J0D01*
G01*
X14338000Y-9560000D02*
G75*
G02*
X14438000Y-9560000I50000J0D01*
G01*
X14443000Y-4624000D02*
G75*
G02*
X14343000Y-4624000I-50000J0D01*
G01*
X14343000Y-4624000D02*
G75*
G02*
X14443000Y-4624000I50000J0D01*
G01*
X14443000Y-4878000D02*
G75*
G02*
X14343000Y-4878000I-50000J0D01*
G01*
X14343000Y-4878000D02*
G75*
G02*
X14443000Y-4878000I50000J0D01*
G01*
X14692000Y-9306000D02*
G75*
G02*
X14592000Y-9306000I-50000J0D01*
G01*
X14592000Y-9306000D02*
G75*
G02*
X14692000Y-9306000I50000J0D01*
G01*
X14692000Y-9560000D02*
G75*
G02*
X14592000Y-9560000I-50000J0D01*
G01*
X14592000Y-9560000D02*
G75*
G02*
X14692000Y-9560000I50000J0D01*
G01*
X14697000Y-4624000D02*
G75*
G02*
X14597000Y-4624000I-50000J0D01*
G01*
X14597000Y-4624000D02*
G75*
G02*
X14697000Y-4624000I50000J0D01*
G01*
X14697000Y-4878000D02*
G75*
G02*
X14597000Y-4878000I-50000J0D01*
G01*
X14597000Y-4878000D02*
G75*
G02*
X14697000Y-4878000I50000J0D01*
G01*
X14946000Y-9306000D02*
G75*
G02*
X14846000Y-9306000I-50000J0D01*
G01*
X14846000Y-9306000D02*
G75*
G02*
X14946000Y-9306000I50000J0D01*
G01*
X14946000Y-9560000D02*
G75*
G02*
X14846000Y-9560000I-50000J0D01*
G01*
X14846000Y-9560000D02*
G75*
G02*
X14946000Y-9560000I50000J0D01*
G01*
X14951000Y-4624000D02*
G75*
G02*
X14851000Y-4624000I-50000J0D01*
G01*
X14851000Y-4624000D02*
G75*
G02*
X14951000Y-4624000I50000J0D01*
G01*
X14951000Y-4878000D02*
G75*
G02*
X14851000Y-4878000I-50000J0D01*
G01*
X14851000Y-4878000D02*
G75*
G02*
X14951000Y-4878000I50000J0D01*
G01*
X15200000Y-9306000D02*
G75*
G02*
X15100000Y-9306000I-50000J0D01*
G01*
X15100000Y-9306000D02*
G75*
G02*
X15200000Y-9306000I50000J0D01*
G01*
X15200000Y-9560000D02*
G75*
G02*
X15100000Y-9560000I-50000J0D01*
G01*
X15100000Y-9560000D02*
G75*
G02*
X15200000Y-9560000I50000J0D01*
G01*
X15205000Y-4624000D02*
G75*
G02*
X15105000Y-4624000I-50000J0D01*
G01*
X15105000Y-4624000D02*
G75*
G02*
X15205000Y-4624000I50000J0D01*
G01*
X15205000Y-4878000D02*
G75*
G02*
X15105000Y-4878000I-50000J0D01*
G01*
X15105000Y-4878000D02*
G75*
G02*
X15205000Y-4878000I50000J0D01*
G01*
X15459000Y-4624000D02*
G75*
G02*
X15359000Y-4624000I-50000J0D01*
G01*
X15359000Y-4624000D02*
G75*
G02*
X15459000Y-4624000I50000J0D01*
G01*
X15459000Y-4878000D02*
G75*
G02*
X15359000Y-4878000I-50000J0D01*
G01*
X15359000Y-4878000D02*
G75*
G02*
X15459000Y-4878000I50000J0D01*
G01*
X15713000Y-4624000D02*
G75*
G02*
X15613000Y-4624000I-50000J0D01*
G01*
X15613000Y-4624000D02*
G75*
G02*
X15713000Y-4624000I50000J0D01*
G01*
X15713000Y-4878000D02*
G75*
G02*
X15613000Y-4878000I-50000J0D01*
G01*
X15613000Y-4878000D02*
G75*
G02*
X15713000Y-4878000I50000J0D01*
G01*
D11*
X10255777Y-10316484D02*
X10255777Y-10116484D01*
X10255777Y-10116484D02*
X10303396Y-10116484D01*
X10303396Y-10116484D02*
X10331967Y-10126008D01*
X10331967Y-10126008D02*
X10351015Y-10145055D01*
X10351015Y-10145055D02*
X10360539Y-10164103D01*
X10360539Y-10164103D02*
X10370063Y-10202198D01*
X10370063Y-10202198D02*
X10370063Y-10230770D01*
X10370063Y-10230770D02*
X10360539Y-10268865D01*
X10360539Y-10268865D02*
X10351015Y-10287912D01*
X10351015Y-10287912D02*
X10331967Y-10306960D01*
X10331967Y-10306960D02*
X10303396Y-10316484D01*
X10303396Y-10316484D02*
X10255777Y-10316484D01*
X10455777Y-10316484D02*
X10455777Y-10183150D01*
X10455777Y-10221246D02*
X10465301Y-10202198D01*
X10465301Y-10202198D02*
X10474824Y-10192674D01*
X10474824Y-10192674D02*
X10493872Y-10183150D01*
X10493872Y-10183150D02*
X10512920Y-10183150D01*
X10579586Y-10316484D02*
X10579586Y-10183150D01*
X10579586Y-10116484D02*
X10570063Y-10126008D01*
X10570063Y-10126008D02*
X10579586Y-10135531D01*
X10579586Y-10135531D02*
X10589110Y-10126008D01*
X10589110Y-10126008D02*
X10579586Y-10116484D01*
X10579586Y-10116484D02*
X10579586Y-10135531D01*
X10703396Y-10316484D02*
X10684348Y-10306960D01*
X10684348Y-10306960D02*
X10674824Y-10287912D01*
X10674824Y-10287912D02*
X10674824Y-10116484D01*
X10808158Y-10316484D02*
X10789110Y-10306960D01*
X10789110Y-10306960D02*
X10779586Y-10287912D01*
X10779586Y-10287912D02*
X10779586Y-10116484D01*
X11036729Y-10316484D02*
X11036729Y-10116484D01*
X11036729Y-10116484D02*
X11103396Y-10259341D01*
X11103396Y-10259341D02*
X11170063Y-10116484D01*
X11170063Y-10116484D02*
X11170063Y-10316484D01*
X11351015Y-10316484D02*
X11351015Y-10211722D01*
X11351015Y-10211722D02*
X11341491Y-10192674D01*
X11341491Y-10192674D02*
X11322443Y-10183150D01*
X11322443Y-10183150D02*
X11284348Y-10183150D01*
X11284348Y-10183150D02*
X11265301Y-10192674D01*
X11351015Y-10306960D02*
X11331967Y-10316484D01*
X11331967Y-10316484D02*
X11284348Y-10316484D01*
X11284348Y-10316484D02*
X11265301Y-10306960D01*
X11265301Y-10306960D02*
X11255777Y-10287912D01*
X11255777Y-10287912D02*
X11255777Y-10268865D01*
X11255777Y-10268865D02*
X11265301Y-10249817D01*
X11265301Y-10249817D02*
X11284348Y-10240293D01*
X11284348Y-10240293D02*
X11331967Y-10240293D01*
X11331967Y-10240293D02*
X11351015Y-10230770D01*
X11446253Y-10183150D02*
X11446253Y-10383150D01*
X11446253Y-10192674D02*
X11465301Y-10183150D01*
X11465301Y-10183150D02*
X11503396Y-10183150D01*
X11503396Y-10183150D02*
X11522443Y-10192674D01*
X11522443Y-10192674D02*
X11531967Y-10202198D01*
X11531967Y-10202198D02*
X11541491Y-10221246D01*
X11541491Y-10221246D02*
X11541491Y-10278389D01*
X11541491Y-10278389D02*
X11531967Y-10297436D01*
X11531967Y-10297436D02*
X11522443Y-10306960D01*
X11522443Y-10306960D02*
X11503396Y-10316484D01*
X11503396Y-10316484D02*
X11465301Y-10316484D01*
X11465301Y-10316484D02*
X11446253Y-10306960D01*
X11627205Y-10297436D02*
X11636729Y-10306960D01*
X11636729Y-10306960D02*
X11627205Y-10316484D01*
X11627205Y-10316484D02*
X11617682Y-10306960D01*
X11617682Y-10306960D02*
X11627205Y-10297436D01*
X11627205Y-10297436D02*
X11627205Y-10316484D01*
X11627205Y-10192674D02*
X11636729Y-10202198D01*
X11636729Y-10202198D02*
X11627205Y-10211722D01*
X11627205Y-10211722D02*
X11617682Y-10202198D01*
X11617682Y-10202198D02*
X11627205Y-10192674D01*
X11627205Y-10192674D02*
X11627205Y-10211722D01*
D10*
X9965000Y-10630000D02*
X9995000Y-10660000D01*
X9995000Y-10630000D02*
X9965000Y-10660000D01*
D11*
X10293872Y-10536484D02*
X10312920Y-10536484D01*
X10312920Y-10536484D02*
X10331967Y-10546008D01*
X10331967Y-10546008D02*
X10341491Y-10555531D01*
X10341491Y-10555531D02*
X10351015Y-10574579D01*
X10351015Y-10574579D02*
X10360539Y-10612674D01*
X10360539Y-10612674D02*
X10360539Y-10660293D01*
X10360539Y-10660293D02*
X10351015Y-10698389D01*
X10351015Y-10698389D02*
X10341491Y-10717436D01*
X10341491Y-10717436D02*
X10331967Y-10726960D01*
X10331967Y-10726960D02*
X10312920Y-10736484D01*
X10312920Y-10736484D02*
X10293872Y-10736484D01*
X10293872Y-10736484D02*
X10274824Y-10726960D01*
X10274824Y-10726960D02*
X10265301Y-10717436D01*
X10265301Y-10717436D02*
X10255777Y-10698389D01*
X10255777Y-10698389D02*
X10246253Y-10660293D01*
X10246253Y-10660293D02*
X10246253Y-10612674D01*
X10246253Y-10612674D02*
X10255777Y-10574579D01*
X10255777Y-10574579D02*
X10265301Y-10555531D01*
X10265301Y-10555531D02*
X10274824Y-10546008D01*
X10274824Y-10546008D02*
X10293872Y-10536484D01*
X10446253Y-10717436D02*
X10455777Y-10726960D01*
X10455777Y-10726960D02*
X10446253Y-10736484D01*
X10446253Y-10736484D02*
X10436729Y-10726960D01*
X10436729Y-10726960D02*
X10446253Y-10717436D01*
X10446253Y-10717436D02*
X10446253Y-10736484D01*
X10522444Y-10536484D02*
X10646253Y-10536484D01*
X10646253Y-10536484D02*
X10579586Y-10612674D01*
X10579586Y-10612674D02*
X10608158Y-10612674D01*
X10608158Y-10612674D02*
X10627205Y-10622198D01*
X10627205Y-10622198D02*
X10636729Y-10631722D01*
X10636729Y-10631722D02*
X10646253Y-10650770D01*
X10646253Y-10650770D02*
X10646253Y-10698389D01*
X10646253Y-10698389D02*
X10636729Y-10717436D01*
X10636729Y-10717436D02*
X10627205Y-10726960D01*
X10627205Y-10726960D02*
X10608158Y-10736484D01*
X10608158Y-10736484D02*
X10551015Y-10736484D01*
X10551015Y-10736484D02*
X10531967Y-10726960D01*
X10531967Y-10726960D02*
X10522444Y-10717436D01*
X10770063Y-10536484D02*
X10789110Y-10536484D01*
X10789110Y-10536484D02*
X10808158Y-10546008D01*
X10808158Y-10546008D02*
X10817682Y-10555531D01*
X10817682Y-10555531D02*
X10827205Y-10574579D01*
X10827205Y-10574579D02*
X10836729Y-10612674D01*
X10836729Y-10612674D02*
X10836729Y-10660293D01*
X10836729Y-10660293D02*
X10827205Y-10698389D01*
X10827205Y-10698389D02*
X10817682Y-10717436D01*
X10817682Y-10717436D02*
X10808158Y-10726960D01*
X10808158Y-10726960D02*
X10789110Y-10736484D01*
X10789110Y-10736484D02*
X10770063Y-10736484D01*
X10770063Y-10736484D02*
X10751015Y-10726960D01*
X10751015Y-10726960D02*
X10741491Y-10717436D01*
X10741491Y-10717436D02*
X10731967Y-10698389D01*
X10731967Y-10698389D02*
X10722444Y-10660293D01*
X10722444Y-10660293D02*
X10722444Y-10612674D01*
X10722444Y-10612674D02*
X10731967Y-10574579D01*
X10731967Y-10574579D02*
X10741491Y-10555531D01*
X10741491Y-10555531D02*
X10751015Y-10546008D01*
X10751015Y-10546008D02*
X10770063Y-10536484D01*
X10960539Y-10536484D02*
X10979586Y-10536484D01*
X10979586Y-10536484D02*
X10998634Y-10546008D01*
X10998634Y-10546008D02*
X11008158Y-10555531D01*
X11008158Y-10555531D02*
X11017682Y-10574579D01*
X11017682Y-10574579D02*
X11027205Y-10612674D01*
X11027205Y-10612674D02*
X11027205Y-10660293D01*
X11027205Y-10660293D02*
X11017682Y-10698389D01*
X11017682Y-10698389D02*
X11008158Y-10717436D01*
X11008158Y-10717436D02*
X10998634Y-10726960D01*
X10998634Y-10726960D02*
X10979586Y-10736484D01*
X10979586Y-10736484D02*
X10960539Y-10736484D01*
X10960539Y-10736484D02*
X10941491Y-10726960D01*
X10941491Y-10726960D02*
X10931967Y-10717436D01*
X10931967Y-10717436D02*
X10922444Y-10698389D01*
X10922444Y-10698389D02*
X10912920Y-10660293D01*
X10912920Y-10660293D02*
X10912920Y-10612674D01*
X10912920Y-10612674D02*
X10922444Y-10574579D01*
X10922444Y-10574579D02*
X10931967Y-10555531D01*
X10931967Y-10555531D02*
X10941491Y-10546008D01*
X10941491Y-10546008D02*
X10960539Y-10536484D01*
X11112920Y-10736484D02*
X11112920Y-10603150D01*
X11112920Y-10622198D02*
X11122444Y-10612674D01*
X11122444Y-10612674D02*
X11141491Y-10603150D01*
X11141491Y-10603150D02*
X11170063Y-10603150D01*
X11170063Y-10603150D02*
X11189110Y-10612674D01*
X11189110Y-10612674D02*
X11198634Y-10631722D01*
X11198634Y-10631722D02*
X11198634Y-10736484D01*
X11198634Y-10631722D02*
X11208158Y-10612674D01*
X11208158Y-10612674D02*
X11227205Y-10603150D01*
X11227205Y-10603150D02*
X11255777Y-10603150D01*
X11255777Y-10603150D02*
X11274824Y-10612674D01*
X11274824Y-10612674D02*
X11284348Y-10631722D01*
X11284348Y-10631722D02*
X11284348Y-10736484D01*
X11379586Y-10736484D02*
X11379586Y-10603150D01*
X11379586Y-10622198D02*
X11389110Y-10612674D01*
X11389110Y-10612674D02*
X11408158Y-10603150D01*
X11408158Y-10603150D02*
X11436729Y-10603150D01*
X11436729Y-10603150D02*
X11455777Y-10612674D01*
X11455777Y-10612674D02*
X11465301Y-10631722D01*
X11465301Y-10631722D02*
X11465301Y-10736484D01*
X11465301Y-10631722D02*
X11474824Y-10612674D01*
X11474824Y-10612674D02*
X11493872Y-10603150D01*
X11493872Y-10603150D02*
X11522443Y-10603150D01*
X11522443Y-10603150D02*
X11541491Y-10612674D01*
X11541491Y-10612674D02*
X11551015Y-10631722D01*
X11551015Y-10631722D02*
X11551015Y-10736484D01*
X11941491Y-10526960D02*
X11770063Y-10784103D01*
X12198634Y-10536484D02*
X12217682Y-10536484D01*
X12217682Y-10536484D02*
X12236729Y-10546008D01*
X12236729Y-10546008D02*
X12246253Y-10555531D01*
X12246253Y-10555531D02*
X12255777Y-10574579D01*
X12255777Y-10574579D02*
X12265301Y-10612674D01*
X12265301Y-10612674D02*
X12265301Y-10660293D01*
X12265301Y-10660293D02*
X12255777Y-10698389D01*
X12255777Y-10698389D02*
X12246253Y-10717436D01*
X12246253Y-10717436D02*
X12236729Y-10726960D01*
X12236729Y-10726960D02*
X12217682Y-10736484D01*
X12217682Y-10736484D02*
X12198634Y-10736484D01*
X12198634Y-10736484D02*
X12179586Y-10726960D01*
X12179586Y-10726960D02*
X12170063Y-10717436D01*
X12170063Y-10717436D02*
X12160539Y-10698389D01*
X12160539Y-10698389D02*
X12151015Y-10660293D01*
X12151015Y-10660293D02*
X12151015Y-10612674D01*
X12151015Y-10612674D02*
X12160539Y-10574579D01*
X12160539Y-10574579D02*
X12170063Y-10555531D01*
X12170063Y-10555531D02*
X12179586Y-10546008D01*
X12179586Y-10546008D02*
X12198634Y-10536484D01*
X12351015Y-10717436D02*
X12360539Y-10726960D01*
X12360539Y-10726960D02*
X12351015Y-10736484D01*
X12351015Y-10736484D02*
X12341491Y-10726960D01*
X12341491Y-10726960D02*
X12351015Y-10717436D01*
X12351015Y-10717436D02*
X12351015Y-10736484D01*
X12484348Y-10536484D02*
X12503396Y-10536484D01*
X12503396Y-10536484D02*
X12522444Y-10546008D01*
X12522444Y-10546008D02*
X12531967Y-10555531D01*
X12531967Y-10555531D02*
X12541491Y-10574579D01*
X12541491Y-10574579D02*
X12551015Y-10612674D01*
X12551015Y-10612674D02*
X12551015Y-10660293D01*
X12551015Y-10660293D02*
X12541491Y-10698389D01*
X12541491Y-10698389D02*
X12531967Y-10717436D01*
X12531967Y-10717436D02*
X12522444Y-10726960D01*
X12522444Y-10726960D02*
X12503396Y-10736484D01*
X12503396Y-10736484D02*
X12484348Y-10736484D01*
X12484348Y-10736484D02*
X12465301Y-10726960D01*
X12465301Y-10726960D02*
X12455777Y-10717436D01*
X12455777Y-10717436D02*
X12446253Y-10698389D01*
X12446253Y-10698389D02*
X12436729Y-10660293D01*
X12436729Y-10660293D02*
X12436729Y-10612674D01*
X12436729Y-10612674D02*
X12446253Y-10574579D01*
X12446253Y-10574579D02*
X12455777Y-10555531D01*
X12455777Y-10555531D02*
X12465301Y-10546008D01*
X12465301Y-10546008D02*
X12484348Y-10536484D01*
X12741491Y-10736484D02*
X12627206Y-10736484D01*
X12684348Y-10736484D02*
X12684348Y-10536484D01*
X12684348Y-10536484D02*
X12665301Y-10565055D01*
X12665301Y-10565055D02*
X12646253Y-10584103D01*
X12646253Y-10584103D02*
X12627206Y-10593627D01*
X12931967Y-10736484D02*
X12817682Y-10736484D01*
X12874825Y-10736484D02*
X12874825Y-10536484D01*
X12874825Y-10536484D02*
X12855777Y-10565055D01*
X12855777Y-10565055D02*
X12836729Y-10584103D01*
X12836729Y-10584103D02*
X12817682Y-10593627D01*
X13046253Y-10622198D02*
X13027206Y-10612674D01*
X13027206Y-10612674D02*
X13017682Y-10603150D01*
X13017682Y-10603150D02*
X13008158Y-10584103D01*
X13008158Y-10584103D02*
X13008158Y-10574579D01*
X13008158Y-10574579D02*
X13017682Y-10555531D01*
X13017682Y-10555531D02*
X13027206Y-10546008D01*
X13027206Y-10546008D02*
X13046253Y-10536484D01*
X13046253Y-10536484D02*
X13084348Y-10536484D01*
X13084348Y-10536484D02*
X13103396Y-10546008D01*
X13103396Y-10546008D02*
X13112920Y-10555531D01*
X13112920Y-10555531D02*
X13122444Y-10574579D01*
X13122444Y-10574579D02*
X13122444Y-10584103D01*
X13122444Y-10584103D02*
X13112920Y-10603150D01*
X13112920Y-10603150D02*
X13103396Y-10612674D01*
X13103396Y-10612674D02*
X13084348Y-10622198D01*
X13084348Y-10622198D02*
X13046253Y-10622198D01*
X13046253Y-10622198D02*
X13027206Y-10631722D01*
X13027206Y-10631722D02*
X13017682Y-10641246D01*
X13017682Y-10641246D02*
X13008158Y-10660293D01*
X13008158Y-10660293D02*
X13008158Y-10698389D01*
X13008158Y-10698389D02*
X13017682Y-10717436D01*
X13017682Y-10717436D02*
X13027206Y-10726960D01*
X13027206Y-10726960D02*
X13046253Y-10736484D01*
X13046253Y-10736484D02*
X13084348Y-10736484D01*
X13084348Y-10736484D02*
X13103396Y-10726960D01*
X13103396Y-10726960D02*
X13112920Y-10717436D01*
X13112920Y-10717436D02*
X13122444Y-10698389D01*
X13122444Y-10698389D02*
X13122444Y-10660293D01*
X13122444Y-10660293D02*
X13112920Y-10641246D01*
X13112920Y-10641246D02*
X13103396Y-10631722D01*
X13103396Y-10631722D02*
X13084348Y-10622198D01*
X13198634Y-10536484D02*
X13198634Y-10574579D01*
X13274825Y-10536484D02*
X13274825Y-10574579D01*
X13570063Y-10812674D02*
X13560539Y-10803150D01*
X13560539Y-10803150D02*
X13541491Y-10774579D01*
X13541491Y-10774579D02*
X13531968Y-10755531D01*
X13531968Y-10755531D02*
X13522444Y-10726960D01*
X13522444Y-10726960D02*
X13512920Y-10679341D01*
X13512920Y-10679341D02*
X13512920Y-10641246D01*
X13512920Y-10641246D02*
X13522444Y-10593627D01*
X13522444Y-10593627D02*
X13531968Y-10565055D01*
X13531968Y-10565055D02*
X13541491Y-10546008D01*
X13541491Y-10546008D02*
X13560539Y-10517436D01*
X13560539Y-10517436D02*
X13570063Y-10507912D01*
X13751015Y-10736484D02*
X13636729Y-10736484D01*
X13693872Y-10736484D02*
X13693872Y-10536484D01*
X13693872Y-10536484D02*
X13674825Y-10565055D01*
X13674825Y-10565055D02*
X13655777Y-10584103D01*
X13655777Y-10584103D02*
X13636729Y-10593627D01*
X13941491Y-10736484D02*
X13827206Y-10736484D01*
X13884348Y-10736484D02*
X13884348Y-10536484D01*
X13884348Y-10536484D02*
X13865301Y-10565055D01*
X13865301Y-10565055D02*
X13846253Y-10584103D01*
X13846253Y-10584103D02*
X13827206Y-10593627D01*
X14122444Y-10536484D02*
X14027206Y-10536484D01*
X14027206Y-10536484D02*
X14017682Y-10631722D01*
X14017682Y-10631722D02*
X14027206Y-10622198D01*
X14027206Y-10622198D02*
X14046253Y-10612674D01*
X14046253Y-10612674D02*
X14093872Y-10612674D01*
X14093872Y-10612674D02*
X14112920Y-10622198D01*
X14112920Y-10622198D02*
X14122444Y-10631722D01*
X14122444Y-10631722D02*
X14131968Y-10650770D01*
X14131968Y-10650770D02*
X14131968Y-10698389D01*
X14131968Y-10698389D02*
X14122444Y-10717436D01*
X14122444Y-10717436D02*
X14112920Y-10726960D01*
X14112920Y-10726960D02*
X14093872Y-10736484D01*
X14093872Y-10736484D02*
X14046253Y-10736484D01*
X14046253Y-10736484D02*
X14027206Y-10726960D01*
X14027206Y-10726960D02*
X14017682Y-10717436D01*
X14370063Y-10736484D02*
X14370063Y-10536484D01*
X14455777Y-10736484D02*
X14455777Y-10631722D01*
X14455777Y-10631722D02*
X14446253Y-10612674D01*
X14446253Y-10612674D02*
X14427206Y-10603150D01*
X14427206Y-10603150D02*
X14398634Y-10603150D01*
X14398634Y-10603150D02*
X14379587Y-10612674D01*
X14379587Y-10612674D02*
X14370063Y-10622198D01*
X14579587Y-10736484D02*
X14560539Y-10726960D01*
X14560539Y-10726960D02*
X14551015Y-10717436D01*
X14551015Y-10717436D02*
X14541491Y-10698389D01*
X14541491Y-10698389D02*
X14541491Y-10641246D01*
X14541491Y-10641246D02*
X14551015Y-10622198D01*
X14551015Y-10622198D02*
X14560539Y-10612674D01*
X14560539Y-10612674D02*
X14579587Y-10603150D01*
X14579587Y-10603150D02*
X14608158Y-10603150D01*
X14608158Y-10603150D02*
X14627206Y-10612674D01*
X14627206Y-10612674D02*
X14636730Y-10622198D01*
X14636730Y-10622198D02*
X14646253Y-10641246D01*
X14646253Y-10641246D02*
X14646253Y-10698389D01*
X14646253Y-10698389D02*
X14636730Y-10717436D01*
X14636730Y-10717436D02*
X14627206Y-10726960D01*
X14627206Y-10726960D02*
X14608158Y-10736484D01*
X14608158Y-10736484D02*
X14579587Y-10736484D01*
X14760539Y-10736484D02*
X14741491Y-10726960D01*
X14741491Y-10726960D02*
X14731968Y-10707912D01*
X14731968Y-10707912D02*
X14731968Y-10536484D01*
X14912920Y-10726960D02*
X14893872Y-10736484D01*
X14893872Y-10736484D02*
X14855777Y-10736484D01*
X14855777Y-10736484D02*
X14836730Y-10726960D01*
X14836730Y-10726960D02*
X14827206Y-10707912D01*
X14827206Y-10707912D02*
X14827206Y-10631722D01*
X14827206Y-10631722D02*
X14836730Y-10612674D01*
X14836730Y-10612674D02*
X14855777Y-10603150D01*
X14855777Y-10603150D02*
X14893872Y-10603150D01*
X14893872Y-10603150D02*
X14912920Y-10612674D01*
X14912920Y-10612674D02*
X14922444Y-10631722D01*
X14922444Y-10631722D02*
X14922444Y-10650770D01*
X14922444Y-10650770D02*
X14827206Y-10669817D01*
X14998634Y-10726960D02*
X15017682Y-10736484D01*
X15017682Y-10736484D02*
X15055777Y-10736484D01*
X15055777Y-10736484D02*
X15074825Y-10726960D01*
X15074825Y-10726960D02*
X15084349Y-10707912D01*
X15084349Y-10707912D02*
X15084349Y-10698389D01*
X15084349Y-10698389D02*
X15074825Y-10679341D01*
X15074825Y-10679341D02*
X15055777Y-10669817D01*
X15055777Y-10669817D02*
X15027206Y-10669817D01*
X15027206Y-10669817D02*
X15008158Y-10660293D01*
X15008158Y-10660293D02*
X14998634Y-10641246D01*
X14998634Y-10641246D02*
X14998634Y-10631722D01*
X14998634Y-10631722D02*
X15008158Y-10612674D01*
X15008158Y-10612674D02*
X15027206Y-10603150D01*
X15027206Y-10603150D02*
X15055777Y-10603150D01*
X15055777Y-10603150D02*
X15074825Y-10612674D01*
X15151015Y-10812674D02*
X15160539Y-10803150D01*
X15160539Y-10803150D02*
X15179587Y-10774579D01*
X15179587Y-10774579D02*
X15189111Y-10755531D01*
X15189111Y-10755531D02*
X15198634Y-10726960D01*
X15198634Y-10726960D02*
X15208158Y-10679341D01*
X15208158Y-10679341D02*
X15208158Y-10641246D01*
X15208158Y-10641246D02*
X15198634Y-10593627D01*
X15198634Y-10593627D02*
X15189111Y-10565055D01*
X15189111Y-10565055D02*
X15179587Y-10546008D01*
X15179587Y-10546008D02*
X15160539Y-10517436D01*
X15160539Y-10517436D02*
X15151015Y-10507912D01*
D10*
X9995000Y-10909000D02*
G75*
G02*
X9895000Y-10909000I-50000J0D01*
G01*
X9895000Y-10909000D02*
G75*
G02*
X9995000Y-10909000I50000J0D01*
G01*
D11*
X10360539Y-11000484D02*
X10246253Y-11000484D01*
X10303396Y-11000484D02*
X10303396Y-10800484D01*
X10303396Y-10800484D02*
X10284348Y-10829055D01*
X10284348Y-10829055D02*
X10265301Y-10848103D01*
X10265301Y-10848103D02*
X10246253Y-10857627D01*
X10446253Y-10981436D02*
X10455777Y-10990960D01*
X10455777Y-10990960D02*
X10446253Y-11000484D01*
X10446253Y-11000484D02*
X10436729Y-10990960D01*
X10436729Y-10990960D02*
X10446253Y-10981436D01*
X10446253Y-10981436D02*
X10446253Y-11000484D01*
X10579586Y-10800484D02*
X10598634Y-10800484D01*
X10598634Y-10800484D02*
X10617682Y-10810008D01*
X10617682Y-10810008D02*
X10627205Y-10819531D01*
X10627205Y-10819531D02*
X10636729Y-10838579D01*
X10636729Y-10838579D02*
X10646253Y-10876674D01*
X10646253Y-10876674D02*
X10646253Y-10924293D01*
X10646253Y-10924293D02*
X10636729Y-10962389D01*
X10636729Y-10962389D02*
X10627205Y-10981436D01*
X10627205Y-10981436D02*
X10617682Y-10990960D01*
X10617682Y-10990960D02*
X10598634Y-11000484D01*
X10598634Y-11000484D02*
X10579586Y-11000484D01*
X10579586Y-11000484D02*
X10560539Y-10990960D01*
X10560539Y-10990960D02*
X10551015Y-10981436D01*
X10551015Y-10981436D02*
X10541491Y-10962389D01*
X10541491Y-10962389D02*
X10531967Y-10924293D01*
X10531967Y-10924293D02*
X10531967Y-10876674D01*
X10531967Y-10876674D02*
X10541491Y-10838579D01*
X10541491Y-10838579D02*
X10551015Y-10819531D01*
X10551015Y-10819531D02*
X10560539Y-10810008D01*
X10560539Y-10810008D02*
X10579586Y-10800484D01*
X10770063Y-10800484D02*
X10789110Y-10800484D01*
X10789110Y-10800484D02*
X10808158Y-10810008D01*
X10808158Y-10810008D02*
X10817682Y-10819531D01*
X10817682Y-10819531D02*
X10827205Y-10838579D01*
X10827205Y-10838579D02*
X10836729Y-10876674D01*
X10836729Y-10876674D02*
X10836729Y-10924293D01*
X10836729Y-10924293D02*
X10827205Y-10962389D01*
X10827205Y-10962389D02*
X10817682Y-10981436D01*
X10817682Y-10981436D02*
X10808158Y-10990960D01*
X10808158Y-10990960D02*
X10789110Y-11000484D01*
X10789110Y-11000484D02*
X10770063Y-11000484D01*
X10770063Y-11000484D02*
X10751015Y-10990960D01*
X10751015Y-10990960D02*
X10741491Y-10981436D01*
X10741491Y-10981436D02*
X10731967Y-10962389D01*
X10731967Y-10962389D02*
X10722444Y-10924293D01*
X10722444Y-10924293D02*
X10722444Y-10876674D01*
X10722444Y-10876674D02*
X10731967Y-10838579D01*
X10731967Y-10838579D02*
X10741491Y-10819531D01*
X10741491Y-10819531D02*
X10751015Y-10810008D01*
X10751015Y-10810008D02*
X10770063Y-10800484D01*
X10960539Y-10800484D02*
X10979586Y-10800484D01*
X10979586Y-10800484D02*
X10998634Y-10810008D01*
X10998634Y-10810008D02*
X11008158Y-10819531D01*
X11008158Y-10819531D02*
X11017682Y-10838579D01*
X11017682Y-10838579D02*
X11027205Y-10876674D01*
X11027205Y-10876674D02*
X11027205Y-10924293D01*
X11027205Y-10924293D02*
X11017682Y-10962389D01*
X11017682Y-10962389D02*
X11008158Y-10981436D01*
X11008158Y-10981436D02*
X10998634Y-10990960D01*
X10998634Y-10990960D02*
X10979586Y-11000484D01*
X10979586Y-11000484D02*
X10960539Y-11000484D01*
X10960539Y-11000484D02*
X10941491Y-10990960D01*
X10941491Y-10990960D02*
X10931967Y-10981436D01*
X10931967Y-10981436D02*
X10922444Y-10962389D01*
X10922444Y-10962389D02*
X10912920Y-10924293D01*
X10912920Y-10924293D02*
X10912920Y-10876674D01*
X10912920Y-10876674D02*
X10922444Y-10838579D01*
X10922444Y-10838579D02*
X10931967Y-10819531D01*
X10931967Y-10819531D02*
X10941491Y-10810008D01*
X10941491Y-10810008D02*
X10960539Y-10800484D01*
X11112920Y-11000484D02*
X11112920Y-10867150D01*
X11112920Y-10886198D02*
X11122444Y-10876674D01*
X11122444Y-10876674D02*
X11141491Y-10867150D01*
X11141491Y-10867150D02*
X11170063Y-10867150D01*
X11170063Y-10867150D02*
X11189110Y-10876674D01*
X11189110Y-10876674D02*
X11198634Y-10895722D01*
X11198634Y-10895722D02*
X11198634Y-11000484D01*
X11198634Y-10895722D02*
X11208158Y-10876674D01*
X11208158Y-10876674D02*
X11227205Y-10867150D01*
X11227205Y-10867150D02*
X11255777Y-10867150D01*
X11255777Y-10867150D02*
X11274824Y-10876674D01*
X11274824Y-10876674D02*
X11284348Y-10895722D01*
X11284348Y-10895722D02*
X11284348Y-11000484D01*
X11379586Y-11000484D02*
X11379586Y-10867150D01*
X11379586Y-10886198D02*
X11389110Y-10876674D01*
X11389110Y-10876674D02*
X11408158Y-10867150D01*
X11408158Y-10867150D02*
X11436729Y-10867150D01*
X11436729Y-10867150D02*
X11455777Y-10876674D01*
X11455777Y-10876674D02*
X11465301Y-10895722D01*
X11465301Y-10895722D02*
X11465301Y-11000484D01*
X11465301Y-10895722D02*
X11474824Y-10876674D01*
X11474824Y-10876674D02*
X11493872Y-10867150D01*
X11493872Y-10867150D02*
X11522443Y-10867150D01*
X11522443Y-10867150D02*
X11541491Y-10876674D01*
X11541491Y-10876674D02*
X11551015Y-10895722D01*
X11551015Y-10895722D02*
X11551015Y-11000484D01*
X11941491Y-10790960D02*
X11770063Y-11048103D01*
X12198634Y-10800484D02*
X12217682Y-10800484D01*
X12217682Y-10800484D02*
X12236729Y-10810008D01*
X12236729Y-10810008D02*
X12246253Y-10819531D01*
X12246253Y-10819531D02*
X12255777Y-10838579D01*
X12255777Y-10838579D02*
X12265301Y-10876674D01*
X12265301Y-10876674D02*
X12265301Y-10924293D01*
X12265301Y-10924293D02*
X12255777Y-10962389D01*
X12255777Y-10962389D02*
X12246253Y-10981436D01*
X12246253Y-10981436D02*
X12236729Y-10990960D01*
X12236729Y-10990960D02*
X12217682Y-11000484D01*
X12217682Y-11000484D02*
X12198634Y-11000484D01*
X12198634Y-11000484D02*
X12179586Y-10990960D01*
X12179586Y-10990960D02*
X12170063Y-10981436D01*
X12170063Y-10981436D02*
X12160539Y-10962389D01*
X12160539Y-10962389D02*
X12151015Y-10924293D01*
X12151015Y-10924293D02*
X12151015Y-10876674D01*
X12151015Y-10876674D02*
X12160539Y-10838579D01*
X12160539Y-10838579D02*
X12170063Y-10819531D01*
X12170063Y-10819531D02*
X12179586Y-10810008D01*
X12179586Y-10810008D02*
X12198634Y-10800484D01*
X12351015Y-10981436D02*
X12360539Y-10990960D01*
X12360539Y-10990960D02*
X12351015Y-11000484D01*
X12351015Y-11000484D02*
X12341491Y-10990960D01*
X12341491Y-10990960D02*
X12351015Y-10981436D01*
X12351015Y-10981436D02*
X12351015Y-11000484D01*
X12484348Y-10800484D02*
X12503396Y-10800484D01*
X12503396Y-10800484D02*
X12522444Y-10810008D01*
X12522444Y-10810008D02*
X12531967Y-10819531D01*
X12531967Y-10819531D02*
X12541491Y-10838579D01*
X12541491Y-10838579D02*
X12551015Y-10876674D01*
X12551015Y-10876674D02*
X12551015Y-10924293D01*
X12551015Y-10924293D02*
X12541491Y-10962389D01*
X12541491Y-10962389D02*
X12531967Y-10981436D01*
X12531967Y-10981436D02*
X12522444Y-10990960D01*
X12522444Y-10990960D02*
X12503396Y-11000484D01*
X12503396Y-11000484D02*
X12484348Y-11000484D01*
X12484348Y-11000484D02*
X12465301Y-10990960D01*
X12465301Y-10990960D02*
X12455777Y-10981436D01*
X12455777Y-10981436D02*
X12446253Y-10962389D01*
X12446253Y-10962389D02*
X12436729Y-10924293D01*
X12436729Y-10924293D02*
X12436729Y-10876674D01*
X12436729Y-10876674D02*
X12446253Y-10838579D01*
X12446253Y-10838579D02*
X12455777Y-10819531D01*
X12455777Y-10819531D02*
X12465301Y-10810008D01*
X12465301Y-10810008D02*
X12484348Y-10800484D01*
X12617682Y-10800484D02*
X12741491Y-10800484D01*
X12741491Y-10800484D02*
X12674825Y-10876674D01*
X12674825Y-10876674D02*
X12703396Y-10876674D01*
X12703396Y-10876674D02*
X12722444Y-10886198D01*
X12722444Y-10886198D02*
X12731967Y-10895722D01*
X12731967Y-10895722D02*
X12741491Y-10914770D01*
X12741491Y-10914770D02*
X12741491Y-10962389D01*
X12741491Y-10962389D02*
X12731967Y-10981436D01*
X12731967Y-10981436D02*
X12722444Y-10990960D01*
X12722444Y-10990960D02*
X12703396Y-11000484D01*
X12703396Y-11000484D02*
X12646253Y-11000484D01*
X12646253Y-11000484D02*
X12627206Y-10990960D01*
X12627206Y-10990960D02*
X12617682Y-10981436D01*
X12836729Y-11000484D02*
X12874825Y-11000484D01*
X12874825Y-11000484D02*
X12893872Y-10990960D01*
X12893872Y-10990960D02*
X12903396Y-10981436D01*
X12903396Y-10981436D02*
X12922444Y-10952865D01*
X12922444Y-10952865D02*
X12931967Y-10914770D01*
X12931967Y-10914770D02*
X12931967Y-10838579D01*
X12931967Y-10838579D02*
X12922444Y-10819531D01*
X12922444Y-10819531D02*
X12912920Y-10810008D01*
X12912920Y-10810008D02*
X12893872Y-10800484D01*
X12893872Y-10800484D02*
X12855777Y-10800484D01*
X12855777Y-10800484D02*
X12836729Y-10810008D01*
X12836729Y-10810008D02*
X12827206Y-10819531D01*
X12827206Y-10819531D02*
X12817682Y-10838579D01*
X12817682Y-10838579D02*
X12817682Y-10886198D01*
X12817682Y-10886198D02*
X12827206Y-10905246D01*
X12827206Y-10905246D02*
X12836729Y-10914770D01*
X12836729Y-10914770D02*
X12855777Y-10924293D01*
X12855777Y-10924293D02*
X12893872Y-10924293D01*
X12893872Y-10924293D02*
X12912920Y-10914770D01*
X12912920Y-10914770D02*
X12922444Y-10905246D01*
X12922444Y-10905246D02*
X12931967Y-10886198D01*
X13103396Y-10867150D02*
X13103396Y-11000484D01*
X13055777Y-10790960D02*
X13008158Y-10933817D01*
X13008158Y-10933817D02*
X13131967Y-10933817D01*
X13198634Y-10800484D02*
X13198634Y-10838579D01*
X13274825Y-10800484D02*
X13274825Y-10838579D01*
X13570063Y-11076674D02*
X13560539Y-11067150D01*
X13560539Y-11067150D02*
X13541491Y-11038579D01*
X13541491Y-11038579D02*
X13531968Y-11019531D01*
X13531968Y-11019531D02*
X13522444Y-10990960D01*
X13522444Y-10990960D02*
X13512920Y-10943341D01*
X13512920Y-10943341D02*
X13512920Y-10905246D01*
X13512920Y-10905246D02*
X13522444Y-10857627D01*
X13522444Y-10857627D02*
X13531968Y-10829055D01*
X13531968Y-10829055D02*
X13541491Y-10810008D01*
X13541491Y-10810008D02*
X13560539Y-10781436D01*
X13560539Y-10781436D02*
X13570063Y-10771912D01*
X13627206Y-10800484D02*
X13760539Y-10800484D01*
X13760539Y-10800484D02*
X13674825Y-11000484D01*
X13827206Y-10819531D02*
X13836729Y-10810008D01*
X13836729Y-10810008D02*
X13855777Y-10800484D01*
X13855777Y-10800484D02*
X13903396Y-10800484D01*
X13903396Y-10800484D02*
X13922444Y-10810008D01*
X13922444Y-10810008D02*
X13931968Y-10819531D01*
X13931968Y-10819531D02*
X13941491Y-10838579D01*
X13941491Y-10838579D02*
X13941491Y-10857627D01*
X13941491Y-10857627D02*
X13931968Y-10886198D01*
X13931968Y-10886198D02*
X13817682Y-11000484D01*
X13817682Y-11000484D02*
X13941491Y-11000484D01*
X14179587Y-11000484D02*
X14179587Y-10800484D01*
X14265301Y-11000484D02*
X14265301Y-10895722D01*
X14265301Y-10895722D02*
X14255777Y-10876674D01*
X14255777Y-10876674D02*
X14236730Y-10867150D01*
X14236730Y-10867150D02*
X14208158Y-10867150D01*
X14208158Y-10867150D02*
X14189110Y-10876674D01*
X14189110Y-10876674D02*
X14179587Y-10886198D01*
X14389110Y-11000484D02*
X14370063Y-10990960D01*
X14370063Y-10990960D02*
X14360539Y-10981436D01*
X14360539Y-10981436D02*
X14351015Y-10962389D01*
X14351015Y-10962389D02*
X14351015Y-10905246D01*
X14351015Y-10905246D02*
X14360539Y-10886198D01*
X14360539Y-10886198D02*
X14370063Y-10876674D01*
X14370063Y-10876674D02*
X14389110Y-10867150D01*
X14389110Y-10867150D02*
X14417682Y-10867150D01*
X14417682Y-10867150D02*
X14436730Y-10876674D01*
X14436730Y-10876674D02*
X14446253Y-10886198D01*
X14446253Y-10886198D02*
X14455777Y-10905246D01*
X14455777Y-10905246D02*
X14455777Y-10962389D01*
X14455777Y-10962389D02*
X14446253Y-10981436D01*
X14446253Y-10981436D02*
X14436730Y-10990960D01*
X14436730Y-10990960D02*
X14417682Y-11000484D01*
X14417682Y-11000484D02*
X14389110Y-11000484D01*
X14570063Y-11000484D02*
X14551015Y-10990960D01*
X14551015Y-10990960D02*
X14541491Y-10971912D01*
X14541491Y-10971912D02*
X14541491Y-10800484D01*
X14722444Y-10990960D02*
X14703396Y-11000484D01*
X14703396Y-11000484D02*
X14665301Y-11000484D01*
X14665301Y-11000484D02*
X14646253Y-10990960D01*
X14646253Y-10990960D02*
X14636730Y-10971912D01*
X14636730Y-10971912D02*
X14636730Y-10895722D01*
X14636730Y-10895722D02*
X14646253Y-10876674D01*
X14646253Y-10876674D02*
X14665301Y-10867150D01*
X14665301Y-10867150D02*
X14703396Y-10867150D01*
X14703396Y-10867150D02*
X14722444Y-10876674D01*
X14722444Y-10876674D02*
X14731968Y-10895722D01*
X14731968Y-10895722D02*
X14731968Y-10914770D01*
X14731968Y-10914770D02*
X14636730Y-10933817D01*
X14808158Y-10990960D02*
X14827206Y-11000484D01*
X14827206Y-11000484D02*
X14865301Y-11000484D01*
X14865301Y-11000484D02*
X14884349Y-10990960D01*
X14884349Y-10990960D02*
X14893872Y-10971912D01*
X14893872Y-10971912D02*
X14893872Y-10962389D01*
X14893872Y-10962389D02*
X14884349Y-10943341D01*
X14884349Y-10943341D02*
X14865301Y-10933817D01*
X14865301Y-10933817D02*
X14836730Y-10933817D01*
X14836730Y-10933817D02*
X14817682Y-10924293D01*
X14817682Y-10924293D02*
X14808158Y-10905246D01*
X14808158Y-10905246D02*
X14808158Y-10895722D01*
X14808158Y-10895722D02*
X14817682Y-10876674D01*
X14817682Y-10876674D02*
X14836730Y-10867150D01*
X14836730Y-10867150D02*
X14865301Y-10867150D01*
X14865301Y-10867150D02*
X14884349Y-10876674D01*
X14960539Y-11076674D02*
X14970063Y-11067150D01*
X14970063Y-11067150D02*
X14989111Y-11038579D01*
X14989111Y-11038579D02*
X14998634Y-11019531D01*
X14998634Y-11019531D02*
X15008158Y-10990960D01*
X15008158Y-10990960D02*
X15017682Y-10943341D01*
X15017682Y-10943341D02*
X15017682Y-10905246D01*
X15017682Y-10905246D02*
X15008158Y-10857627D01*
X15008158Y-10857627D02*
X14998634Y-10829055D01*
X14998634Y-10829055D02*
X14989111Y-10810008D01*
X14989111Y-10810008D02*
X14970063Y-10781436D01*
X14970063Y-10781436D02*
X14960539Y-10771912D01*
M02*
