G04 #@! TF.GenerationSoftware,KiCad,Pcbnew,8.0.6-8.0.6-0~ubuntu22.04.1*
G04 #@! TF.CreationDate,2024-12-26T22:40:21+01:00*
G04 #@! TF.ProjectId,ohsim_hat,6f687369-6d5f-4686-9174-2e6b69636164,rev?*
G04 #@! TF.SameCoordinates,Original*
G04 #@! TF.FileFunction,Soldermask,Bot*
G04 #@! TF.FilePolarity,Negative*
%FSLAX46Y46*%
G04 Gerber Fmt 4.6, Leading zero omitted, Abs format (unit mm)*
G04 Created by KiCad (PCBNEW 8.0.6-8.0.6-0~ubuntu22.04.1) date 2024-12-26 22:40:21*
%MOMM*%
%LPD*%
G01*
G04 APERTURE LIST*
%ADD10C,2.700000*%
%ADD11R,1.700000X1.700000*%
%ADD12O,1.700000X1.700000*%
G04 #@! TA.AperFunction,Profile*
%ADD13C,0.100000*%
G04 #@! TD*
G04 APERTURE END LIST*
D10*
X161500000Y-47500000D03*
X103500000Y-96500000D03*
X103500000Y-47500000D03*
X161500000Y-96500000D03*
D11*
X151500000Y-93060000D03*
D12*
X151500000Y-95600000D03*
X148960000Y-93060000D03*
X148960000Y-95600000D03*
X146420000Y-93060000D03*
X146420000Y-95600000D03*
X143880000Y-93060000D03*
X143880000Y-95600000D03*
X141340000Y-93060000D03*
X141340000Y-95600000D03*
X138800000Y-93060000D03*
X138800000Y-95600000D03*
X136260000Y-93060000D03*
X136260000Y-95600000D03*
X133720000Y-93060000D03*
X133720000Y-95600000D03*
X131180000Y-93060000D03*
X131180000Y-95600000D03*
X128640000Y-93060000D03*
X128640000Y-95600000D03*
X126100000Y-93060000D03*
X126100000Y-95600000D03*
X123560000Y-93060000D03*
X123560000Y-95600000D03*
X121020000Y-93060000D03*
X121020000Y-95600000D03*
X118480000Y-93060000D03*
X118480000Y-95600000D03*
X115940000Y-93060000D03*
X115940000Y-95600000D03*
X113400000Y-93060000D03*
X113400000Y-95600000D03*
D11*
X108370000Y-48780000D03*
D12*
X108370000Y-46240000D03*
X110910000Y-48780000D03*
X110910000Y-46240000D03*
X113450000Y-48780000D03*
X113450000Y-46240000D03*
X115990000Y-48780000D03*
X115990000Y-46240000D03*
X118530000Y-48780000D03*
X118530000Y-46240000D03*
X121070000Y-48780000D03*
X121070000Y-46240000D03*
X123610000Y-48780000D03*
X123610000Y-46240000D03*
X126150000Y-48780000D03*
X126150000Y-46240000D03*
X128690000Y-48780000D03*
X128690000Y-46240000D03*
X131230000Y-48780000D03*
X131230000Y-46240000D03*
X133770000Y-48780000D03*
X133770000Y-46240000D03*
X136310000Y-48780000D03*
X136310000Y-46240000D03*
X138850000Y-48780000D03*
X138850000Y-46240000D03*
X141390000Y-48780000D03*
X141390000Y-46240000D03*
X143930000Y-48780000D03*
X143930000Y-46240000D03*
X146470000Y-48780000D03*
X146470000Y-46240000D03*
X149010000Y-48780000D03*
X149010000Y-46240000D03*
X151550000Y-48780000D03*
X151550000Y-46240000D03*
X154090000Y-48780000D03*
X154090000Y-46240000D03*
X156630000Y-48780000D03*
X156630000Y-46240000D03*
D13*
X162000000Y-44000000D02*
G75*
G02*
X165000000Y-47000000I0J-3000000D01*
G01*
X165000000Y-97000000D02*
X165000000Y-47000000D01*
X100000000Y-47000000D02*
X100000000Y-81000000D01*
X103000000Y-100000000D02*
G75*
G02*
X100000000Y-97000000I0J3000000D01*
G01*
X103000000Y-100000000D02*
X162000000Y-100000000D01*
X165000000Y-97000000D02*
G75*
G02*
X162000000Y-100000000I-3000000J0D01*
G01*
X100000000Y-47000000D02*
G75*
G02*
X103000000Y-44000000I3000000J0D01*
G01*
X100000000Y-81000000D02*
X100000000Y-97000000D01*
X162000000Y-44000000D02*
X103000000Y-44000000D01*
M02*
