G04 #@! TF.GenerationSoftware,KiCad,Pcbnew,8.0.6-8.0.6-0~ubuntu22.04.1*
G04 #@! TF.CreationDate,2024-12-26T22:40:21+01:00*
G04 #@! TF.ProjectId,ohsim_hat,6f687369-6d5f-4686-9174-2e6b69636164,rev?*
G04 #@! TF.SameCoordinates,Original*
G04 #@! TF.FileFunction,Legend,Bot*
G04 #@! TF.FilePolarity,Positive*
%FSLAX46Y46*%
G04 Gerber Fmt 4.6, Leading zero omitted, Abs format (unit mm)*
G04 Created by KiCad (PCBNEW 8.0.6-8.0.6-0~ubuntu22.04.1) date 2024-12-26 22:40:21*
%MOMM*%
%LPD*%
G01*
G04 APERTURE LIST*
%ADD10C,0.200000*%
%ADD11C,0.150000*%
%ADD12C,0.100000*%
%ADD13C,0.120000*%
G04 #@! TA.AperFunction,Profile*
%ADD14C,0.100000*%
G04 #@! TD*
G04 APERTURE END LIST*
D10*
X112090400Y-57482800D02*
X112090400Y-84711600D01*
D11*
G36*
X163523708Y-87246110D02*
G01*
X162724301Y-87246110D01*
X162717167Y-87246001D01*
X162666281Y-87238251D01*
X162620009Y-87218266D01*
X162614219Y-87214678D01*
X162575354Y-87182908D01*
X162544538Y-87142551D01*
X162541048Y-87136565D01*
X162522050Y-87089603D01*
X162515718Y-87038992D01*
X162515718Y-87027756D01*
X162735292Y-87027756D01*
X163308041Y-87027756D01*
X163308041Y-86456472D01*
X162735292Y-86456472D01*
X162735292Y-87027756D01*
X162515718Y-87027756D01*
X162515718Y-86445237D01*
X162515830Y-86438104D01*
X162523852Y-86387217D01*
X162544538Y-86340946D01*
X162548182Y-86335158D01*
X162580071Y-86296497D01*
X162620009Y-86266207D01*
X162625912Y-86262806D01*
X162672799Y-86244291D01*
X162724301Y-86238119D01*
X163523708Y-86238119D01*
X163523708Y-87246110D01*
G37*
G36*
X162393840Y-87246110D02*
G01*
X162393840Y-86238119D01*
X162179639Y-86238119D01*
X162179639Y-87246110D01*
X162393840Y-87246110D01*
G37*
G36*
X161852843Y-87246110D02*
G01*
X161903454Y-87239992D01*
X161950416Y-87221638D01*
X161956402Y-87218266D01*
X161996759Y-87187640D01*
X162028529Y-87148428D01*
X162032117Y-87142551D01*
X162052102Y-87096075D01*
X162059852Y-87045951D01*
X162059960Y-87038992D01*
X162059960Y-86445237D01*
X162053842Y-86393735D01*
X162035489Y-86346848D01*
X162032117Y-86340946D01*
X162001491Y-86301168D01*
X161962279Y-86269762D01*
X161956402Y-86266207D01*
X161909926Y-86246046D01*
X161859802Y-86238229D01*
X161852843Y-86238119D01*
X161260554Y-86238119D01*
X161209052Y-86244291D01*
X161162165Y-86262806D01*
X161156262Y-86266207D01*
X161116323Y-86296497D01*
X161084435Y-86335158D01*
X161080791Y-86340946D01*
X161060104Y-86387217D01*
X161052083Y-86438104D01*
X161051970Y-86445237D01*
X161051970Y-86540492D01*
X161271789Y-86540492D01*
X161271789Y-86456472D01*
X161843073Y-86456472D01*
X161843073Y-87027756D01*
X161271789Y-87027756D01*
X161271789Y-86876570D01*
X161490142Y-86876570D01*
X161490142Y-86658217D01*
X161051970Y-86658217D01*
X161051970Y-87038992D01*
X161058303Y-87089603D01*
X161077301Y-87136565D01*
X161080791Y-87142551D01*
X161111606Y-87182908D01*
X161150472Y-87214678D01*
X161156262Y-87218266D01*
X161202533Y-87238251D01*
X161253420Y-87246001D01*
X161260554Y-87246110D01*
X161852843Y-87246110D01*
G37*
G36*
X160933268Y-87246110D02*
G01*
X160933268Y-86238119D01*
X160719067Y-86238119D01*
X160719067Y-87246110D01*
X160933268Y-87246110D01*
G37*
G36*
X160226674Y-87246110D02*
G01*
X160226674Y-86456472D01*
X160621370Y-86456472D01*
X160621370Y-86238119D01*
X159613380Y-86238119D01*
X159613380Y-86456472D01*
X160008321Y-86456472D01*
X160008321Y-87246110D01*
X160226674Y-87246110D01*
G37*
G36*
X159305998Y-86238229D02*
G01*
X159356123Y-86246046D01*
X159402598Y-86266207D01*
X159408475Y-86269762D01*
X159447688Y-86301168D01*
X159478314Y-86340946D01*
X159481715Y-86346848D01*
X159500230Y-86393735D01*
X159506402Y-86445237D01*
X159506402Y-87246110D01*
X159289270Y-87246110D01*
X159289270Y-86921267D01*
X158717986Y-86921267D01*
X158717986Y-87246110D01*
X158498411Y-87246110D01*
X158498411Y-86702913D01*
X158717986Y-86702913D01*
X159289270Y-86702913D01*
X159289270Y-86456472D01*
X158717986Y-86456472D01*
X158717986Y-86702913D01*
X158498411Y-86702913D01*
X158498411Y-86445237D01*
X158498524Y-86438104D01*
X158506545Y-86387217D01*
X158527232Y-86340946D01*
X158530876Y-86335158D01*
X158562764Y-86296497D01*
X158602703Y-86266207D01*
X158608606Y-86262806D01*
X158655493Y-86244291D01*
X158706995Y-86238119D01*
X159299039Y-86238119D01*
X159305998Y-86238229D01*
G37*
G36*
X158337211Y-87246110D02*
G01*
X158337211Y-86236654D01*
X158120323Y-86236654D01*
X158120323Y-87027756D01*
X157329221Y-87027756D01*
X157329221Y-87246110D01*
X158337211Y-87246110D01*
G37*
G36*
X156832919Y-87246110D02*
G01*
X156832919Y-86238119D01*
X156618718Y-86238119D01*
X156618718Y-87246110D01*
X156832919Y-87246110D01*
G37*
G36*
X156499039Y-87246110D02*
G01*
X156499039Y-86238119D01*
X156275069Y-86238119D01*
X155710868Y-86910031D01*
X155710868Y-86238119D01*
X155491049Y-86238119D01*
X155491049Y-87246110D01*
X155715020Y-87246110D01*
X156282152Y-86571267D01*
X156282152Y-87246110D01*
X156499039Y-87246110D01*
G37*
G36*
X155404587Y-87246110D02*
G01*
X155404587Y-87029222D01*
X154759053Y-86238119D01*
X154682117Y-86238119D01*
X154682117Y-86453786D01*
X155327406Y-87246110D01*
X155404587Y-87246110D01*
G37*
G36*
X154408197Y-86238229D02*
G01*
X154458321Y-86246046D01*
X154504797Y-86266207D01*
X154510674Y-86269762D01*
X154549886Y-86301168D01*
X154580512Y-86340946D01*
X154583883Y-86346848D01*
X154602237Y-86393735D01*
X154608355Y-86445237D01*
X154608355Y-87038992D01*
X154608247Y-87045951D01*
X154600497Y-87096075D01*
X154580512Y-87142551D01*
X154576924Y-87148428D01*
X154545154Y-87187640D01*
X154504797Y-87218266D01*
X154498811Y-87221638D01*
X154451849Y-87239992D01*
X154401238Y-87246110D01*
X153807727Y-87246110D01*
X153800742Y-87246001D01*
X153750660Y-87238251D01*
X153704657Y-87218266D01*
X153698867Y-87214678D01*
X153660001Y-87182908D01*
X153629186Y-87142551D01*
X153625696Y-87136565D01*
X153606698Y-87089603D01*
X153600365Y-87038992D01*
X153600365Y-87027756D01*
X153820184Y-87027756D01*
X154391468Y-87027756D01*
X154391468Y-86456472D01*
X153820184Y-86456472D01*
X153820184Y-87027756D01*
X153600365Y-87027756D01*
X153600365Y-86445237D01*
X153600478Y-86438104D01*
X153608499Y-86387217D01*
X153629186Y-86340946D01*
X153632830Y-86335158D01*
X153664718Y-86296497D01*
X153704657Y-86266207D01*
X153710555Y-86262806D01*
X153757102Y-86244291D01*
X153807727Y-86238119D01*
X154401238Y-86238119D01*
X154408197Y-86238229D01*
G37*
G36*
X153242549Y-87246110D02*
G01*
X153293161Y-87239992D01*
X153340123Y-87221638D01*
X153346108Y-87218266D01*
X153386466Y-87187640D01*
X153418236Y-87148428D01*
X153421824Y-87142551D01*
X153441809Y-87096075D01*
X153449559Y-87045951D01*
X153449667Y-87038992D01*
X153449667Y-86238119D01*
X153232780Y-86238119D01*
X153232780Y-87027756D01*
X152661496Y-87027756D01*
X152661496Y-86238119D01*
X152441677Y-86238119D01*
X152441677Y-87038992D01*
X152448010Y-87089603D01*
X152467008Y-87136565D01*
X152470498Y-87142551D01*
X152501313Y-87182908D01*
X152540179Y-87214678D01*
X152545969Y-87218266D01*
X152591972Y-87238251D01*
X152642054Y-87246001D01*
X152649039Y-87246110D01*
X153242549Y-87246110D01*
G37*
G36*
X151943910Y-87246110D02*
G01*
X151943910Y-86456472D01*
X152338607Y-86456472D01*
X152338607Y-86238119D01*
X151330616Y-86238119D01*
X151330616Y-86456472D01*
X151725557Y-86456472D01*
X151725557Y-87246110D01*
X151943910Y-87246110D01*
G37*
G36*
X150571510Y-87246110D02*
G01*
X150622121Y-87239992D01*
X150669083Y-87221638D01*
X150675069Y-87218266D01*
X150715426Y-87187640D01*
X150747197Y-87148428D01*
X150750784Y-87142551D01*
X150770769Y-87096075D01*
X150778519Y-87045951D01*
X150778628Y-87038992D01*
X150778628Y-86945202D01*
X150561740Y-86945202D01*
X150561740Y-87027756D01*
X149990456Y-87027756D01*
X149990456Y-86851413D01*
X150571510Y-86851413D01*
X150622121Y-86845241D01*
X150669083Y-86826726D01*
X150675069Y-86823325D01*
X150715426Y-86792860D01*
X150747197Y-86754131D01*
X150750784Y-86748343D01*
X150770769Y-86702071D01*
X150778519Y-86651184D01*
X150778628Y-86644051D01*
X150778628Y-86445237D01*
X150772510Y-86393735D01*
X150754156Y-86346848D01*
X150750784Y-86340946D01*
X150720158Y-86301168D01*
X150680946Y-86269762D01*
X150675069Y-86266207D01*
X150628593Y-86246046D01*
X150578469Y-86238229D01*
X150571510Y-86238119D01*
X149978000Y-86238119D01*
X149927374Y-86244291D01*
X149880827Y-86262806D01*
X149874929Y-86266207D01*
X149834990Y-86296497D01*
X149803102Y-86335158D01*
X149799458Y-86340946D01*
X149778771Y-86387217D01*
X149770750Y-86438104D01*
X149770637Y-86445237D01*
X149770637Y-86539026D01*
X149990456Y-86539026D01*
X149990456Y-86456472D01*
X150561740Y-86456472D01*
X150561740Y-86632816D01*
X149978000Y-86632816D01*
X149927374Y-86638987D01*
X149880827Y-86657502D01*
X149874929Y-86660904D01*
X149834990Y-86691368D01*
X149803102Y-86730098D01*
X149799458Y-86735886D01*
X149778771Y-86782158D01*
X149770750Y-86833044D01*
X149770637Y-86840178D01*
X149770637Y-87038992D01*
X149776970Y-87089603D01*
X149795968Y-87136565D01*
X149799458Y-87142551D01*
X149830273Y-87182908D01*
X149869139Y-87214678D01*
X149874929Y-87218266D01*
X149920932Y-87238251D01*
X149971014Y-87246001D01*
X149978000Y-87246110D01*
X150571510Y-87246110D01*
G37*
G36*
X149412822Y-87246110D02*
G01*
X149463433Y-87239992D01*
X149510395Y-87221638D01*
X149516381Y-87218266D01*
X149556738Y-87187640D01*
X149588509Y-87148428D01*
X149592096Y-87142551D01*
X149612081Y-87096075D01*
X149619831Y-87045951D01*
X149619940Y-87038992D01*
X149619940Y-86238119D01*
X149403052Y-86238119D01*
X149403052Y-87027756D01*
X148831768Y-87027756D01*
X148831768Y-86238119D01*
X148611949Y-86238119D01*
X148611949Y-87038992D01*
X148618282Y-87089603D01*
X148637280Y-87136565D01*
X148640770Y-87142551D01*
X148671585Y-87182908D01*
X148710451Y-87214678D01*
X148716241Y-87218266D01*
X148762244Y-87238251D01*
X148812326Y-87246001D01*
X148819312Y-87246110D01*
X149412822Y-87246110D01*
G37*
G36*
X148458565Y-87246110D02*
G01*
X148241677Y-87246110D01*
X148241677Y-86915649D01*
X147659158Y-86914428D01*
X147652024Y-86914318D01*
X147601138Y-86906501D01*
X147554866Y-86886340D01*
X147549076Y-86882752D01*
X147510211Y-86850982D01*
X147479395Y-86810625D01*
X147475905Y-86804639D01*
X147456907Y-86757677D01*
X147450575Y-86707066D01*
X147450575Y-86695830D01*
X147670393Y-86695830D01*
X148241677Y-86695830D01*
X148241677Y-86456472D01*
X147670393Y-86456472D01*
X147670393Y-86695830D01*
X147450575Y-86695830D01*
X147450575Y-86446703D01*
X147450687Y-86439744D01*
X147458709Y-86389619D01*
X147479395Y-86343144D01*
X147483039Y-86337268D01*
X147514928Y-86298123D01*
X147554866Y-86267673D01*
X147560769Y-86264271D01*
X147607656Y-86245756D01*
X147659158Y-86239585D01*
X148458565Y-86239585D01*
X148458565Y-87246110D01*
G37*
G36*
X147351656Y-87246110D02*
G01*
X147134769Y-87246110D01*
X147134769Y-86915649D01*
X146552249Y-86914428D01*
X146545116Y-86914318D01*
X146494229Y-86906501D01*
X146447958Y-86886340D01*
X146442167Y-86882752D01*
X146403302Y-86850982D01*
X146372487Y-86810625D01*
X146368997Y-86804639D01*
X146349999Y-86757677D01*
X146343666Y-86707066D01*
X146343666Y-86695830D01*
X146563485Y-86695830D01*
X147134769Y-86695830D01*
X147134769Y-86456472D01*
X146563485Y-86456472D01*
X146563485Y-86695830D01*
X146343666Y-86695830D01*
X146343666Y-86446703D01*
X146343779Y-86439744D01*
X146351800Y-86389619D01*
X146372487Y-86343144D01*
X146376130Y-86337268D01*
X146408019Y-86298123D01*
X146447958Y-86267673D01*
X146453861Y-86264271D01*
X146500747Y-86245756D01*
X146552249Y-86239585D01*
X147351656Y-86239585D01*
X147351656Y-87246110D01*
G37*
G36*
X146047275Y-86238229D02*
G01*
X146097400Y-86246046D01*
X146143875Y-86266207D01*
X146149752Y-86269762D01*
X146188965Y-86301168D01*
X146219591Y-86340946D01*
X146222962Y-86346848D01*
X146241316Y-86393735D01*
X146247434Y-86445237D01*
X146247434Y-87038992D01*
X146247326Y-87045951D01*
X146239576Y-87096075D01*
X146219591Y-87142551D01*
X146216003Y-87148428D01*
X146184233Y-87187640D01*
X146143875Y-87218266D01*
X146137889Y-87221638D01*
X146090928Y-87239992D01*
X146040316Y-87246110D01*
X145446806Y-87246110D01*
X145439821Y-87246001D01*
X145389739Y-87238251D01*
X145343736Y-87218266D01*
X145337946Y-87214678D01*
X145299080Y-87182908D01*
X145268265Y-87142551D01*
X145264775Y-87136565D01*
X145245777Y-87089603D01*
X145239444Y-87038992D01*
X145239444Y-87027756D01*
X145459263Y-87027756D01*
X146030547Y-87027756D01*
X146030547Y-86456472D01*
X145459263Y-86456472D01*
X145459263Y-87027756D01*
X145239444Y-87027756D01*
X145239444Y-86445237D01*
X145239557Y-86438104D01*
X145247578Y-86387217D01*
X145268265Y-86340946D01*
X145271908Y-86335158D01*
X145303797Y-86296497D01*
X145343736Y-86266207D01*
X145349634Y-86262806D01*
X145396181Y-86244291D01*
X145446806Y-86238119D01*
X146040316Y-86238119D01*
X146047275Y-86238229D01*
G37*
G36*
X145086060Y-87246110D02*
G01*
X144869172Y-87246110D01*
X144869172Y-86915649D01*
X144581440Y-86915045D01*
X144303506Y-87246110D01*
X144079535Y-87246110D01*
X144079535Y-87171860D01*
X144297518Y-86914450D01*
X144286653Y-86914428D01*
X144279519Y-86914318D01*
X144228632Y-86906501D01*
X144182361Y-86886340D01*
X144176571Y-86882752D01*
X144137705Y-86850982D01*
X144106890Y-86810625D01*
X144103400Y-86804639D01*
X144084402Y-86757677D01*
X144078069Y-86707066D01*
X144078069Y-86695830D01*
X144297888Y-86695830D01*
X144869172Y-86695830D01*
X144869172Y-86456472D01*
X144297888Y-86456472D01*
X144297888Y-86695830D01*
X144078069Y-86695830D01*
X144078069Y-86446703D01*
X144078182Y-86439744D01*
X144086203Y-86389619D01*
X144106890Y-86343144D01*
X144110534Y-86337268D01*
X144142422Y-86298123D01*
X144182361Y-86267673D01*
X144188264Y-86264271D01*
X144235151Y-86245756D01*
X144286653Y-86239585D01*
X145086060Y-86239585D01*
X145086060Y-87246110D01*
G37*
G36*
X143586897Y-87246110D02*
G01*
X143586897Y-86456472D01*
X143981593Y-86456472D01*
X143981593Y-86238119D01*
X142973603Y-86238119D01*
X142973603Y-86456472D01*
X143368544Y-86456472D01*
X143368544Y-87246110D01*
X143586897Y-87246110D01*
G37*
G36*
X142218649Y-87246110D02*
G01*
X142269113Y-87239992D01*
X142315177Y-87221638D01*
X142320986Y-87218266D01*
X142360292Y-87187962D01*
X142391655Y-87149716D01*
X142395236Y-87144016D01*
X142415222Y-87098739D01*
X142422971Y-87049920D01*
X142423080Y-87043144D01*
X142423080Y-86964742D01*
X142208879Y-86964742D01*
X142208879Y-87031909D01*
X141647609Y-87031909D01*
X141647609Y-86845795D01*
X142257972Y-86845795D01*
X142257972Y-86631594D01*
X141685222Y-86631594D01*
X141685222Y-86452320D01*
X142208879Y-86452320D01*
X142208879Y-86530722D01*
X142423080Y-86530722D01*
X142423080Y-86441085D01*
X142416962Y-86390796D01*
X142398608Y-86344800D01*
X142395236Y-86338992D01*
X142364932Y-86299847D01*
X142326686Y-86268967D01*
X142320986Y-86265474D01*
X142275509Y-86245840D01*
X142225631Y-86238226D01*
X142218649Y-86238119D01*
X141674231Y-86238119D01*
X141623767Y-86244130D01*
X141577703Y-86262162D01*
X141571893Y-86265474D01*
X141532749Y-86295252D01*
X141501869Y-86333295D01*
X141498376Y-86338992D01*
X141478742Y-86384415D01*
X141471128Y-86434132D01*
X141471021Y-86441085D01*
X141471021Y-86642830D01*
X141473219Y-86675802D01*
X141479570Y-86707066D01*
X141452871Y-86749197D01*
X141446108Y-86765195D01*
X141434412Y-86814360D01*
X141433408Y-86834560D01*
X141433408Y-87043144D01*
X141439418Y-87092435D01*
X141457450Y-87138184D01*
X141460763Y-87144016D01*
X141490419Y-87183321D01*
X141528555Y-87214684D01*
X141534280Y-87218266D01*
X141579704Y-87238251D01*
X141629420Y-87246001D01*
X141636374Y-87246110D01*
X142218649Y-87246110D01*
G37*
G36*
X141265857Y-87246110D02*
G01*
X141265857Y-87031909D01*
X141051656Y-87031909D01*
X141051656Y-87246110D01*
X141265857Y-87246110D01*
G37*
G36*
X140736583Y-87246110D02*
G01*
X140787047Y-87239992D01*
X140833111Y-87221638D01*
X140838921Y-87218266D01*
X140878226Y-87187962D01*
X140909589Y-87149716D01*
X140913171Y-87144016D01*
X140933156Y-87098739D01*
X140940905Y-87049920D01*
X140941014Y-87043144D01*
X140941014Y-86964742D01*
X140726813Y-86964742D01*
X140726813Y-87031909D01*
X140165543Y-87031909D01*
X140165543Y-86845795D01*
X140775906Y-86845795D01*
X140775906Y-86631594D01*
X140203157Y-86631594D01*
X140203157Y-86452320D01*
X140726813Y-86452320D01*
X140726813Y-86530722D01*
X140941014Y-86530722D01*
X140941014Y-86441085D01*
X140934896Y-86390796D01*
X140916542Y-86344800D01*
X140913171Y-86338992D01*
X140882867Y-86299847D01*
X140844620Y-86268967D01*
X140838921Y-86265474D01*
X140793444Y-86245840D01*
X140743566Y-86238226D01*
X140736583Y-86238119D01*
X140192166Y-86238119D01*
X140141701Y-86244130D01*
X140095637Y-86262162D01*
X140089828Y-86265474D01*
X140050683Y-86295252D01*
X140019804Y-86333295D01*
X140016311Y-86338992D01*
X139996676Y-86384415D01*
X139989062Y-86434132D01*
X139988956Y-86441085D01*
X139988956Y-86642830D01*
X139991154Y-86675802D01*
X139997504Y-86707066D01*
X139970805Y-86749197D01*
X139964043Y-86765195D01*
X139952347Y-86814360D01*
X139951342Y-86834560D01*
X139951342Y-87043144D01*
X139957353Y-87092435D01*
X139975385Y-87138184D01*
X139978697Y-87144016D01*
X140008354Y-87183321D01*
X140046489Y-87214684D01*
X140052215Y-87218266D01*
X140097638Y-87238251D01*
X140147355Y-87246001D01*
X140154308Y-87246110D01*
X140736583Y-87246110D01*
G37*
G36*
X139226674Y-87246110D02*
G01*
X139810414Y-86238119D01*
X139558600Y-86238119D01*
X139135815Y-86970359D01*
X138712787Y-86238119D01*
X138462194Y-86238119D01*
X139046178Y-87246110D01*
X139226674Y-87246110D01*
G37*
G36*
X157331963Y-99203600D02*
G01*
X156692437Y-99203600D01*
X156686730Y-99203512D01*
X156646021Y-99197313D01*
X156609004Y-99181325D01*
X156604372Y-99178455D01*
X156573279Y-99153038D01*
X156548627Y-99120752D01*
X156545835Y-99115964D01*
X156530637Y-99078394D01*
X156525570Y-99037905D01*
X156525570Y-99028917D01*
X156701230Y-99028917D01*
X157159429Y-99028917D01*
X157159429Y-98571890D01*
X156701230Y-98571890D01*
X156701230Y-99028917D01*
X156525570Y-99028917D01*
X156525570Y-98562902D01*
X156525660Y-98557195D01*
X156532078Y-98516485D01*
X156548627Y-98479468D01*
X156551542Y-98474838D01*
X156577053Y-98443909D01*
X156609004Y-98419678D01*
X156613726Y-98416957D01*
X156651235Y-98402145D01*
X156692437Y-98397207D01*
X157331963Y-98397207D01*
X157331963Y-99203600D01*
G37*
G36*
X156248842Y-98554001D02*
G01*
X156287842Y-98560255D01*
X156323924Y-98576384D01*
X156328483Y-98579249D01*
X156359080Y-98604339D01*
X156383323Y-98635784D01*
X156386044Y-98640427D01*
X156400856Y-98676951D01*
X156405794Y-98716482D01*
X156405794Y-99041227D01*
X156405706Y-99046648D01*
X156399452Y-99085703D01*
X156383323Y-99121925D01*
X156380458Y-99126484D01*
X156355368Y-99157082D01*
X156323924Y-99181325D01*
X156319281Y-99184022D01*
X156282811Y-99198705D01*
X156243421Y-99203600D01*
X155747120Y-99203600D01*
X155747120Y-99032239D01*
X156234433Y-99032239D01*
X156234433Y-98965023D01*
X155747120Y-98965023D01*
X155747120Y-98814960D01*
X155918480Y-98814960D01*
X156234433Y-98814960D01*
X156234433Y-98725274D01*
X155918480Y-98725274D01*
X155918480Y-98814960D01*
X155747120Y-98814960D01*
X155747120Y-98716482D01*
X155747205Y-98711037D01*
X155753296Y-98671908D01*
X155769004Y-98635784D01*
X155771798Y-98631224D01*
X155796502Y-98600627D01*
X155827817Y-98576384D01*
X155832464Y-98573663D01*
X155869261Y-98558851D01*
X155909492Y-98553914D01*
X156243421Y-98553914D01*
X156248842Y-98554001D01*
G37*
G36*
X155483142Y-99203600D02*
G01*
X155522575Y-99198705D01*
X155559174Y-99184022D01*
X155563840Y-99181325D01*
X155595284Y-99157082D01*
X155620374Y-99126484D01*
X155623240Y-99121925D01*
X155639228Y-99085703D01*
X155645428Y-99046648D01*
X155645515Y-99041227D01*
X155645515Y-99008791D01*
X155474154Y-99008791D01*
X155474154Y-99032239D01*
X155158201Y-99032239D01*
X155158201Y-98965023D01*
X155483142Y-98965023D01*
X155522575Y-98960129D01*
X155559174Y-98945445D01*
X155563840Y-98942748D01*
X155595284Y-98918505D01*
X155620374Y-98887908D01*
X155623240Y-98883348D01*
X155639228Y-98847127D01*
X155645428Y-98808072D01*
X155645515Y-98802650D01*
X155645515Y-98716482D01*
X155640620Y-98676951D01*
X155625937Y-98640427D01*
X155623240Y-98635784D01*
X155598997Y-98604339D01*
X155568399Y-98579249D01*
X155563840Y-98576384D01*
X155527618Y-98560255D01*
X155488563Y-98554001D01*
X155483142Y-98553914D01*
X155149409Y-98553914D01*
X155109037Y-98558851D01*
X155072186Y-98573663D01*
X155067538Y-98576384D01*
X155036137Y-98600627D01*
X155011175Y-98631224D01*
X155008334Y-98635784D01*
X154992205Y-98671908D01*
X154985951Y-98711037D01*
X154985864Y-98716482D01*
X154985864Y-98748917D01*
X155158201Y-98748917D01*
X155158201Y-98725274D01*
X155474154Y-98725274D01*
X155474154Y-98792490D01*
X155149409Y-98792490D01*
X155109037Y-98797427D01*
X155072186Y-98812239D01*
X155067538Y-98814960D01*
X155036137Y-98839203D01*
X155011175Y-98869800D01*
X155008334Y-98874360D01*
X154992205Y-98910441D01*
X154985951Y-98949442D01*
X154985864Y-98954863D01*
X154985864Y-99041227D01*
X154990801Y-99080660D01*
X155005613Y-99117259D01*
X155008334Y-99121925D01*
X155032437Y-99153369D01*
X155062979Y-99178459D01*
X155067538Y-99181325D01*
X155103920Y-99197313D01*
X155143822Y-99203512D01*
X155149409Y-99203600D01*
X155483142Y-99203600D01*
G37*
G36*
X154872730Y-99203600D02*
G01*
X154872730Y-98553914D01*
X154701369Y-98553914D01*
X154701369Y-99203600D01*
X154872730Y-99203600D01*
G37*
G36*
X154872730Y-98513662D02*
G01*
X154872730Y-98341129D01*
X154701369Y-98341129D01*
X154701369Y-98513662D01*
X154872730Y-98513662D01*
G37*
G36*
X154470701Y-98554001D02*
G01*
X154510529Y-98560255D01*
X154547008Y-98576384D01*
X154551568Y-98579249D01*
X154582165Y-98604339D01*
X154606408Y-98635784D01*
X154609105Y-98640427D01*
X154623788Y-98676951D01*
X154628683Y-98716482D01*
X154628683Y-99041227D01*
X154628596Y-99046648D01*
X154622396Y-99085703D01*
X154606408Y-99121925D01*
X154603543Y-99126484D01*
X154578452Y-99157082D01*
X154547008Y-99181325D01*
X154542338Y-99184022D01*
X154505412Y-99198705D01*
X154465138Y-99203600D01*
X154140392Y-99203600D01*
X154140392Y-99287619D01*
X154525710Y-99287619D01*
X154525710Y-99460152D01*
X154131404Y-99460152D01*
X154125842Y-99460067D01*
X154086068Y-99453976D01*
X154049730Y-99438268D01*
X154045149Y-99435474D01*
X154014641Y-99410770D01*
X153990916Y-99379454D01*
X153988266Y-99374807D01*
X153973840Y-99337956D01*
X153969032Y-99297584D01*
X153969032Y-99032239D01*
X154140392Y-99032239D01*
X154457322Y-99032239D01*
X154457322Y-98725274D01*
X154140392Y-98725274D01*
X154140392Y-99032239D01*
X153969032Y-99032239D01*
X153969032Y-98716482D01*
X153969117Y-98711037D01*
X153975208Y-98671908D01*
X153990916Y-98635784D01*
X153993687Y-98631224D01*
X154018317Y-98600627D01*
X154049730Y-98576384D01*
X154054376Y-98573663D01*
X154091173Y-98558851D01*
X154131404Y-98553914D01*
X154465138Y-98553914D01*
X154470701Y-98554001D01*
G37*
G36*
X153849646Y-99203600D02*
G01*
X153849646Y-98553914D01*
X153353540Y-98553914D01*
X153313308Y-98558851D01*
X153276512Y-98573663D01*
X153271865Y-98576384D01*
X153240549Y-98600627D01*
X153215846Y-98631224D01*
X153213051Y-98635784D01*
X153197343Y-98671908D01*
X153191253Y-98711037D01*
X153191167Y-98716482D01*
X153191167Y-99203600D01*
X153362528Y-99203600D01*
X153362528Y-98725274D01*
X153678285Y-98725274D01*
X153678285Y-99203600D01*
X153849646Y-99203600D01*
G37*
G36*
X152950586Y-98554001D02*
G01*
X152989587Y-98560255D01*
X153025668Y-98576384D01*
X153030228Y-98579249D01*
X153060825Y-98604339D01*
X153085068Y-98635784D01*
X153087789Y-98640427D01*
X153102601Y-98676951D01*
X153107538Y-98716482D01*
X153107538Y-99041227D01*
X153107451Y-99046648D01*
X153101197Y-99085703D01*
X153085068Y-99121925D01*
X153082203Y-99126484D01*
X153057112Y-99157082D01*
X153025668Y-99181325D01*
X153021026Y-99184022D01*
X152984556Y-99198705D01*
X152945166Y-99203600D01*
X152448864Y-99203600D01*
X152448864Y-99032239D01*
X152936178Y-99032239D01*
X152936178Y-98965023D01*
X152448864Y-98965023D01*
X152448864Y-98814960D01*
X152620225Y-98814960D01*
X152936178Y-98814960D01*
X152936178Y-98725274D01*
X152620225Y-98725274D01*
X152620225Y-98814960D01*
X152448864Y-98814960D01*
X152448864Y-98716482D01*
X152448950Y-98711037D01*
X152455040Y-98671908D01*
X152470748Y-98635784D01*
X152473543Y-98631224D01*
X152498246Y-98600627D01*
X152529562Y-98576384D01*
X152534209Y-98573663D01*
X152571005Y-98558851D01*
X152611237Y-98553914D01*
X152945166Y-98553914D01*
X152950586Y-98554001D01*
G37*
G36*
X151875968Y-98553914D02*
G01*
X152201886Y-98553914D01*
X152207449Y-98554001D01*
X152247277Y-98560255D01*
X152283756Y-98576384D01*
X152288313Y-98579249D01*
X152318747Y-98604339D01*
X152342570Y-98635784D01*
X152345196Y-98640427D01*
X152359493Y-98676951D01*
X152364258Y-98716482D01*
X152364258Y-99041227D01*
X152364174Y-99046648D01*
X152358137Y-99085703D01*
X152342570Y-99121925D01*
X152339775Y-99126484D01*
X152315072Y-99157082D01*
X152283756Y-99181325D01*
X152279086Y-99184022D01*
X152242160Y-99198705D01*
X152201886Y-99203600D01*
X151704607Y-99203600D01*
X151704607Y-99032239D01*
X151875968Y-99032239D01*
X152191725Y-99032239D01*
X152191725Y-98725274D01*
X151875968Y-98725274D01*
X151875968Y-99032239D01*
X151704607Y-99032239D01*
X151704607Y-98341129D01*
X151875968Y-98341129D01*
X151875968Y-98553914D01*
G37*
G36*
X151225110Y-99203600D02*
G01*
X151225110Y-98553914D01*
X151053749Y-98553914D01*
X151053749Y-99203600D01*
X151225110Y-99203600D01*
G37*
G36*
X151225110Y-98513662D02*
G01*
X151225110Y-98341129D01*
X151053749Y-98341129D01*
X151053749Y-98513662D01*
X151225110Y-98513662D01*
G37*
G36*
X150921858Y-99203600D02*
G01*
X150921858Y-98553914D01*
X150425752Y-98553914D01*
X150385520Y-98558851D01*
X150348724Y-98573663D01*
X150344077Y-98576384D01*
X150312761Y-98600627D01*
X150288058Y-98631224D01*
X150285263Y-98635784D01*
X150269555Y-98671908D01*
X150263465Y-98711037D01*
X150263379Y-98716482D01*
X150263379Y-99203600D01*
X150434740Y-99203600D01*
X150434740Y-98725274D01*
X150750497Y-98725274D01*
X150750497Y-99203600D01*
X150921858Y-99203600D01*
G37*
G36*
X149336624Y-99203600D02*
G01*
X149803616Y-98397207D01*
X149602165Y-98397207D01*
X149263937Y-98982999D01*
X148925515Y-98397207D01*
X148725040Y-98397207D01*
X149192228Y-99203600D01*
X149336624Y-99203600D01*
G37*
G36*
X148661537Y-98725274D02*
G01*
X148174419Y-98725274D01*
X148174419Y-98792490D01*
X148661537Y-98792490D01*
X148661537Y-99041227D01*
X148661451Y-99046648D01*
X148655361Y-99085703D01*
X148639653Y-99121925D01*
X148636858Y-99126484D01*
X148612155Y-99157082D01*
X148580839Y-99181325D01*
X148576192Y-99184022D01*
X148539396Y-99198705D01*
X148499164Y-99203600D01*
X148003058Y-99203600D01*
X148003058Y-99032239D01*
X148174419Y-99032239D01*
X148490176Y-99032239D01*
X148490176Y-98942553D01*
X148174419Y-98942553D01*
X148174419Y-99032239D01*
X148003058Y-99032239D01*
X148003058Y-98716482D01*
X148003144Y-98711037D01*
X148009234Y-98671908D01*
X148024942Y-98635784D01*
X148027713Y-98631224D01*
X148052288Y-98600627D01*
X148083561Y-98576384D01*
X148088208Y-98573663D01*
X148125059Y-98558851D01*
X148165431Y-98553914D01*
X148661537Y-98553914D01*
X148661537Y-98725274D01*
G37*
G36*
X147752758Y-99203600D02*
G01*
X147792191Y-99198705D01*
X147828790Y-99184022D01*
X147833456Y-99181325D01*
X147864900Y-99157082D01*
X147889991Y-99126484D01*
X147892856Y-99121925D01*
X147908844Y-99085703D01*
X147915044Y-99046648D01*
X147915131Y-99041227D01*
X147915131Y-98340152D01*
X147742598Y-98340152D01*
X147742598Y-99032239D01*
X147611683Y-99032239D01*
X147611683Y-99203600D01*
X147752758Y-99203600D01*
G37*
G36*
X147370907Y-98554001D02*
G01*
X147409908Y-98560255D01*
X147445989Y-98576384D01*
X147450549Y-98579249D01*
X147481146Y-98604339D01*
X147505389Y-98635784D01*
X147508110Y-98640427D01*
X147522922Y-98676951D01*
X147527859Y-98716482D01*
X147527859Y-99041227D01*
X147527772Y-99046648D01*
X147521518Y-99085703D01*
X147505389Y-99121925D01*
X147502524Y-99126484D01*
X147477433Y-99157082D01*
X147445989Y-99181325D01*
X147441347Y-99184022D01*
X147404877Y-99198705D01*
X147365487Y-99203600D01*
X146869185Y-99203600D01*
X146869185Y-99032239D01*
X147356499Y-99032239D01*
X147356499Y-98965023D01*
X146869185Y-98965023D01*
X146869185Y-98814960D01*
X147040546Y-98814960D01*
X147356499Y-98814960D01*
X147356499Y-98725274D01*
X147040546Y-98725274D01*
X147040546Y-98814960D01*
X146869185Y-98814960D01*
X146869185Y-98716482D01*
X146869271Y-98711037D01*
X146875362Y-98671908D01*
X146891069Y-98635784D01*
X146893864Y-98631224D01*
X146918567Y-98600627D01*
X146949883Y-98576384D01*
X146954530Y-98573663D01*
X146991326Y-98558851D01*
X147031558Y-98553914D01*
X147365487Y-98553914D01*
X147370907Y-98554001D01*
G37*
G36*
X146749799Y-99203600D02*
G01*
X146749799Y-98553914D01*
X146253693Y-98553914D01*
X146213462Y-98558851D01*
X146176665Y-98573663D01*
X146172018Y-98576384D01*
X146140703Y-98600627D01*
X146115999Y-98631224D01*
X146113205Y-98635784D01*
X146097497Y-98671908D01*
X146091406Y-98711037D01*
X146091321Y-98716482D01*
X146091321Y-99203600D01*
X146262681Y-99203600D01*
X146262681Y-98725274D01*
X146578439Y-98725274D01*
X146578439Y-99203600D01*
X146749799Y-99203600D01*
G37*
G36*
X145839848Y-99203600D02*
G01*
X145879238Y-99198705D01*
X145915708Y-99184022D01*
X145920351Y-99181325D01*
X145951795Y-99157082D01*
X145976885Y-99126484D01*
X145979750Y-99121925D01*
X145995879Y-99085703D01*
X146002133Y-99046648D01*
X146002221Y-99041227D01*
X146002221Y-98716482D01*
X145997283Y-98676951D01*
X145982471Y-98640427D01*
X145979750Y-98635784D01*
X145955507Y-98604339D01*
X145924910Y-98579249D01*
X145920351Y-98576384D01*
X145884269Y-98560255D01*
X145845269Y-98554001D01*
X145839848Y-98553914D01*
X145344719Y-98553914D01*
X145344719Y-98725274D01*
X145830860Y-98725274D01*
X145830860Y-99032239D01*
X145343547Y-99032239D01*
X145343547Y-99203600D01*
X145839848Y-99203600D01*
G37*
G36*
X145222598Y-99203600D02*
G01*
X145222598Y-98553914D01*
X145051237Y-98553914D01*
X145051237Y-99203600D01*
X145222598Y-99203600D01*
G37*
G36*
X145222598Y-98513662D02*
G01*
X145222598Y-98341129D01*
X145051237Y-98341129D01*
X145051237Y-98513662D01*
X145222598Y-98513662D01*
G37*
G36*
X144965459Y-98725274D02*
G01*
X144478341Y-98725274D01*
X144478341Y-98792490D01*
X144965459Y-98792490D01*
X144965459Y-99041227D01*
X144965373Y-99046648D01*
X144959282Y-99085703D01*
X144943575Y-99121925D01*
X144940780Y-99126484D01*
X144916076Y-99157082D01*
X144884761Y-99181325D01*
X144880114Y-99184022D01*
X144843317Y-99198705D01*
X144803086Y-99203600D01*
X144306980Y-99203600D01*
X144306980Y-99032239D01*
X144478341Y-99032239D01*
X144794098Y-99032239D01*
X144794098Y-98942553D01*
X144478341Y-98942553D01*
X144478341Y-99032239D01*
X144306980Y-99032239D01*
X144306980Y-98716482D01*
X144307066Y-98711037D01*
X144313156Y-98671908D01*
X144328864Y-98635784D01*
X144331635Y-98631224D01*
X144356210Y-98600627D01*
X144387482Y-98576384D01*
X144392130Y-98573663D01*
X144428981Y-98558851D01*
X144469353Y-98553914D01*
X144965459Y-98553914D01*
X144965459Y-98725274D01*
G37*
G36*
X117557264Y-58831200D02*
G01*
X117607875Y-58825082D01*
X117654837Y-58806728D01*
X117660823Y-58803356D01*
X117701180Y-58772730D01*
X117732951Y-58733518D01*
X117736538Y-58727641D01*
X117756523Y-58681165D01*
X117764273Y-58631041D01*
X117764382Y-58624082D01*
X117764382Y-58030327D01*
X117758264Y-57978825D01*
X117739910Y-57931938D01*
X117736538Y-57926036D01*
X117705912Y-57886258D01*
X117666700Y-57854852D01*
X117660823Y-57851297D01*
X117614347Y-57831136D01*
X117564223Y-57823319D01*
X117557264Y-57823209D01*
X116964975Y-57823209D01*
X116913473Y-57829381D01*
X116866586Y-57847896D01*
X116860683Y-57851297D01*
X116820744Y-57881587D01*
X116788856Y-57920248D01*
X116785212Y-57926036D01*
X116764525Y-57972307D01*
X116756504Y-58023194D01*
X116756391Y-58030327D01*
X116756391Y-58125582D01*
X116976210Y-58125582D01*
X116976210Y-58041562D01*
X117547494Y-58041562D01*
X117547494Y-58612846D01*
X116976210Y-58612846D01*
X116976210Y-58461660D01*
X117194563Y-58461660D01*
X117194563Y-58243307D01*
X116756391Y-58243307D01*
X116756391Y-58624082D01*
X116762724Y-58674693D01*
X116781722Y-58721655D01*
X116785212Y-58727641D01*
X116816027Y-58767998D01*
X116854893Y-58799768D01*
X116860683Y-58803356D01*
X116906954Y-58823341D01*
X116957841Y-58831091D01*
X116964975Y-58831200D01*
X117557264Y-58831200D01*
G37*
G36*
X116602763Y-58831200D02*
G01*
X116385875Y-58831200D01*
X116385875Y-58500739D01*
X115803356Y-58499518D01*
X115796222Y-58499408D01*
X115745335Y-58491591D01*
X115699064Y-58471430D01*
X115693274Y-58467842D01*
X115654408Y-58436072D01*
X115623593Y-58395715D01*
X115620103Y-58389729D01*
X115601105Y-58342767D01*
X115594772Y-58292156D01*
X115594772Y-58280920D01*
X115814591Y-58280920D01*
X116385875Y-58280920D01*
X116385875Y-58041562D01*
X115814591Y-58041562D01*
X115814591Y-58280920D01*
X115594772Y-58280920D01*
X115594772Y-58031793D01*
X115594885Y-58024834D01*
X115602906Y-57974709D01*
X115623593Y-57928234D01*
X115627237Y-57922358D01*
X115659125Y-57883213D01*
X115699064Y-57852763D01*
X115704967Y-57849361D01*
X115751854Y-57830846D01*
X115803356Y-57824675D01*
X116602763Y-57824675D01*
X116602763Y-58831200D01*
G37*
G36*
X115530781Y-58831200D02*
G01*
X115530781Y-57823209D01*
X115316580Y-57823209D01*
X115316580Y-58831200D01*
X115530781Y-58831200D01*
G37*
G36*
X114999428Y-57823319D02*
G01*
X115049553Y-57831136D01*
X115096028Y-57851297D01*
X115101906Y-57854852D01*
X115141118Y-57886258D01*
X115171744Y-57926036D01*
X115175115Y-57931938D01*
X115193469Y-57978825D01*
X115199587Y-58030327D01*
X115199587Y-58624082D01*
X115199479Y-58631041D01*
X115191729Y-58681165D01*
X115171744Y-58727641D01*
X115168156Y-58733518D01*
X115136386Y-58772730D01*
X115096028Y-58803356D01*
X115090043Y-58806728D01*
X115043081Y-58825082D01*
X114992469Y-58831200D01*
X114398959Y-58831200D01*
X114391974Y-58831091D01*
X114341892Y-58823341D01*
X114295889Y-58803356D01*
X114290099Y-58799768D01*
X114251233Y-58767998D01*
X114220418Y-58727641D01*
X114216928Y-58721655D01*
X114197930Y-58674693D01*
X114191597Y-58624082D01*
X114191597Y-58612846D01*
X114411416Y-58612846D01*
X114982700Y-58612846D01*
X114982700Y-58041562D01*
X114411416Y-58041562D01*
X114411416Y-58612846D01*
X114191597Y-58612846D01*
X114191597Y-58030327D01*
X114191710Y-58023194D01*
X114199731Y-57972307D01*
X114220418Y-57926036D01*
X114224061Y-57920248D01*
X114255950Y-57881587D01*
X114295889Y-57851297D01*
X114301787Y-57847896D01*
X114348334Y-57829381D01*
X114398959Y-57823209D01*
X114992469Y-57823209D01*
X114999428Y-57823319D01*
G37*
G36*
X113784933Y-58831200D02*
G01*
X113784933Y-58149518D01*
X113831095Y-58206915D01*
X114115149Y-58206915D01*
X113793237Y-57823209D01*
X113570732Y-57823209D01*
X113570732Y-58831200D01*
X113784933Y-58831200D01*
G37*
G36*
X113561206Y-58388876D02*
G01*
X113561206Y-58580606D01*
X112957682Y-58580606D01*
X112957682Y-58831200D01*
X112743481Y-58831200D01*
X112743481Y-58580606D01*
X112609148Y-58580606D01*
X112609148Y-58364940D01*
X112743481Y-58364940D01*
X112957682Y-58364940D01*
X113212428Y-58364940D01*
X112957682Y-58157822D01*
X112957682Y-58364940D01*
X112743481Y-58364940D01*
X112743481Y-57823209D01*
X112935212Y-57823209D01*
X113561206Y-58388876D01*
G37*
G36*
X118177641Y-60511200D02*
G01*
X118228252Y-60505082D01*
X118275214Y-60486728D01*
X118281200Y-60483356D01*
X118321557Y-60452730D01*
X118353328Y-60413518D01*
X118356915Y-60407641D01*
X118376900Y-60361165D01*
X118384650Y-60311041D01*
X118384759Y-60304082D01*
X118384759Y-59710327D01*
X118378641Y-59658825D01*
X118360287Y-59611938D01*
X118356915Y-59606036D01*
X118326289Y-59566258D01*
X118287077Y-59534852D01*
X118281200Y-59531297D01*
X118234724Y-59511136D01*
X118184600Y-59503319D01*
X118177641Y-59503209D01*
X117585352Y-59503209D01*
X117533850Y-59509381D01*
X117486963Y-59527896D01*
X117481060Y-59531297D01*
X117441121Y-59561587D01*
X117409233Y-59600248D01*
X117405589Y-59606036D01*
X117384902Y-59652307D01*
X117376881Y-59703194D01*
X117376768Y-59710327D01*
X117376768Y-59805582D01*
X117596587Y-59805582D01*
X117596587Y-59721562D01*
X118167871Y-59721562D01*
X118167871Y-60292846D01*
X117596587Y-60292846D01*
X117596587Y-60141660D01*
X117814940Y-60141660D01*
X117814940Y-59923307D01*
X117376768Y-59923307D01*
X117376768Y-60304082D01*
X117383101Y-60354693D01*
X117402099Y-60401655D01*
X117405589Y-60407641D01*
X117436404Y-60447998D01*
X117475270Y-60479768D01*
X117481060Y-60483356D01*
X117527331Y-60503341D01*
X117578218Y-60511091D01*
X117585352Y-60511200D01*
X118177641Y-60511200D01*
G37*
G36*
X117223140Y-60511200D02*
G01*
X117006252Y-60511200D01*
X117006252Y-60180739D01*
X116423733Y-60179518D01*
X116416599Y-60179408D01*
X116365712Y-60171591D01*
X116319441Y-60151430D01*
X116313651Y-60147842D01*
X116274785Y-60116072D01*
X116243970Y-60075715D01*
X116240480Y-60069729D01*
X116221482Y-60022767D01*
X116215149Y-59972156D01*
X116215149Y-59960920D01*
X116434968Y-59960920D01*
X117006252Y-59960920D01*
X117006252Y-59721562D01*
X116434968Y-59721562D01*
X116434968Y-59960920D01*
X116215149Y-59960920D01*
X116215149Y-59711793D01*
X116215262Y-59704834D01*
X116223283Y-59654709D01*
X116243970Y-59608234D01*
X116247614Y-59602358D01*
X116279502Y-59563213D01*
X116319441Y-59532763D01*
X116325344Y-59529361D01*
X116372231Y-59510846D01*
X116423733Y-59504675D01*
X117223140Y-59504675D01*
X117223140Y-60511200D01*
G37*
G36*
X116151158Y-60511200D02*
G01*
X116151158Y-59503209D01*
X115936957Y-59503209D01*
X115936957Y-60511200D01*
X116151158Y-60511200D01*
G37*
G36*
X115619805Y-59503319D02*
G01*
X115669930Y-59511136D01*
X115716405Y-59531297D01*
X115722283Y-59534852D01*
X115761495Y-59566258D01*
X115792121Y-59606036D01*
X115795492Y-59611938D01*
X115813846Y-59658825D01*
X115819964Y-59710327D01*
X115819964Y-60304082D01*
X115819856Y-60311041D01*
X115812106Y-60361165D01*
X115792121Y-60407641D01*
X115788533Y-60413518D01*
X115756763Y-60452730D01*
X115716405Y-60483356D01*
X115710420Y-60486728D01*
X115663458Y-60505082D01*
X115612846Y-60511200D01*
X115019336Y-60511200D01*
X115012351Y-60511091D01*
X114962269Y-60503341D01*
X114916266Y-60483356D01*
X114910476Y-60479768D01*
X114871610Y-60447998D01*
X114840795Y-60407641D01*
X114837305Y-60401655D01*
X114818307Y-60354693D01*
X114811974Y-60304082D01*
X114811974Y-60292846D01*
X115031793Y-60292846D01*
X115603077Y-60292846D01*
X115603077Y-59721562D01*
X115031793Y-59721562D01*
X115031793Y-60292846D01*
X114811974Y-60292846D01*
X114811974Y-59710327D01*
X114812087Y-59703194D01*
X114820108Y-59652307D01*
X114840795Y-59606036D01*
X114844438Y-59600248D01*
X114876327Y-59561587D01*
X114916266Y-59531297D01*
X114922164Y-59527896D01*
X114968711Y-59509381D01*
X115019336Y-59503209D01*
X115612846Y-59503209D01*
X115619805Y-59503319D01*
G37*
G36*
X114459676Y-59503322D02*
G01*
X114509554Y-59511343D01*
X114555031Y-59532030D01*
X114560730Y-59535676D01*
X114598977Y-59567769D01*
X114629281Y-59608234D01*
X114632652Y-59614220D01*
X114651006Y-59661181D01*
X114657124Y-59711793D01*
X114657124Y-60294312D01*
X114657015Y-60301102D01*
X114649266Y-60350872D01*
X114629281Y-60398604D01*
X114625699Y-60404731D01*
X114594336Y-60446183D01*
X114555031Y-60479692D01*
X114549221Y-60483508D01*
X114503157Y-60504277D01*
X114452693Y-60511200D01*
X113871883Y-60511200D01*
X113864901Y-60511076D01*
X113815023Y-60502307D01*
X113769546Y-60479692D01*
X113763847Y-60475683D01*
X113725669Y-60441115D01*
X113695540Y-60398604D01*
X113692139Y-60392357D01*
X113673624Y-60344354D01*
X113667452Y-60294312D01*
X113667452Y-60283077D01*
X113881653Y-60283077D01*
X114328129Y-60283077D01*
X113881653Y-59907920D01*
X113881653Y-60283077D01*
X113667452Y-60283077D01*
X113667452Y-59723028D01*
X113996447Y-59723028D01*
X114442923Y-60098185D01*
X114442923Y-59723028D01*
X113996447Y-59723028D01*
X113667452Y-59723028D01*
X113667452Y-59711793D01*
X113667562Y-59704834D01*
X113675379Y-59654709D01*
X113695540Y-59608234D01*
X113699092Y-59602355D01*
X113730294Y-59563006D01*
X113769546Y-59532030D01*
X113775355Y-59528540D01*
X113821419Y-59509542D01*
X113871883Y-59503209D01*
X114452693Y-59503209D01*
X114459676Y-59503322D01*
G37*
G36*
X113561207Y-60068876D02*
G01*
X113561207Y-60260606D01*
X112957682Y-60260606D01*
X112957682Y-60511200D01*
X112743482Y-60511200D01*
X112743482Y-60260606D01*
X112609148Y-60260606D01*
X112609148Y-60044940D01*
X112743482Y-60044940D01*
X112957682Y-60044940D01*
X113212428Y-60044940D01*
X112957682Y-59837822D01*
X112957682Y-60044940D01*
X112743482Y-60044940D01*
X112743482Y-59503209D01*
X112935212Y-59503209D01*
X113561207Y-60068876D01*
G37*
G36*
X118311486Y-62191200D02*
G01*
X118362097Y-62185082D01*
X118409059Y-62166728D01*
X118415045Y-62163356D01*
X118455402Y-62132730D01*
X118487173Y-62093518D01*
X118490760Y-62087641D01*
X118510745Y-62041165D01*
X118518495Y-61991041D01*
X118518604Y-61984082D01*
X118518604Y-61390327D01*
X118512486Y-61338825D01*
X118494132Y-61291938D01*
X118490760Y-61286036D01*
X118460134Y-61246258D01*
X118420922Y-61214852D01*
X118415045Y-61211297D01*
X118368569Y-61191136D01*
X118318445Y-61183319D01*
X118311486Y-61183209D01*
X117719197Y-61183209D01*
X117667695Y-61189381D01*
X117620808Y-61207896D01*
X117614905Y-61211297D01*
X117574966Y-61241587D01*
X117543078Y-61280248D01*
X117539434Y-61286036D01*
X117518747Y-61332307D01*
X117510726Y-61383194D01*
X117510613Y-61390327D01*
X117510613Y-61485582D01*
X117730432Y-61485582D01*
X117730432Y-61401562D01*
X118301716Y-61401562D01*
X118301716Y-61972846D01*
X117730432Y-61972846D01*
X117730432Y-61821660D01*
X117948785Y-61821660D01*
X117948785Y-61603307D01*
X117510613Y-61603307D01*
X117510613Y-61984082D01*
X117516946Y-62034693D01*
X117535944Y-62081655D01*
X117539434Y-62087641D01*
X117570249Y-62127998D01*
X117609115Y-62159768D01*
X117614905Y-62163356D01*
X117661176Y-62183341D01*
X117712063Y-62191091D01*
X117719197Y-62191200D01*
X118311486Y-62191200D01*
G37*
G36*
X117356985Y-62191200D02*
G01*
X117140097Y-62191200D01*
X117140097Y-61860739D01*
X116557578Y-61859518D01*
X116550444Y-61859408D01*
X116499557Y-61851591D01*
X116453286Y-61831430D01*
X116447496Y-61827842D01*
X116408630Y-61796072D01*
X116377815Y-61755715D01*
X116374325Y-61749729D01*
X116355327Y-61702767D01*
X116348994Y-61652156D01*
X116348994Y-61640920D01*
X116568813Y-61640920D01*
X117140097Y-61640920D01*
X117140097Y-61401562D01*
X116568813Y-61401562D01*
X116568813Y-61640920D01*
X116348994Y-61640920D01*
X116348994Y-61391793D01*
X116349107Y-61384834D01*
X116357128Y-61334709D01*
X116377815Y-61288234D01*
X116381459Y-61282358D01*
X116413347Y-61243213D01*
X116453286Y-61212763D01*
X116459189Y-61209361D01*
X116506076Y-61190846D01*
X116557578Y-61184675D01*
X117356985Y-61184675D01*
X117356985Y-62191200D01*
G37*
G36*
X116285003Y-62191200D02*
G01*
X116285003Y-61183209D01*
X116070802Y-61183209D01*
X116070802Y-62191200D01*
X116285003Y-62191200D01*
G37*
G36*
X115753650Y-61183319D02*
G01*
X115803775Y-61191136D01*
X115850250Y-61211297D01*
X115856128Y-61214852D01*
X115895340Y-61246258D01*
X115925966Y-61286036D01*
X115929337Y-61291938D01*
X115947691Y-61338825D01*
X115953809Y-61390327D01*
X115953809Y-61984082D01*
X115953701Y-61991041D01*
X115945951Y-62041165D01*
X115925966Y-62087641D01*
X115922378Y-62093518D01*
X115890608Y-62132730D01*
X115850250Y-62163356D01*
X115844265Y-62166728D01*
X115797303Y-62185082D01*
X115746691Y-62191200D01*
X115153181Y-62191200D01*
X115146196Y-62191091D01*
X115096114Y-62183341D01*
X115050111Y-62163356D01*
X115044321Y-62159768D01*
X115005455Y-62127998D01*
X114974640Y-62087641D01*
X114971150Y-62081655D01*
X114952152Y-62034693D01*
X114945819Y-61984082D01*
X114945819Y-61972846D01*
X115165638Y-61972846D01*
X115736922Y-61972846D01*
X115736922Y-61401562D01*
X115165638Y-61401562D01*
X115165638Y-61972846D01*
X114945819Y-61972846D01*
X114945819Y-61390327D01*
X114945932Y-61383194D01*
X114953953Y-61332307D01*
X114974640Y-61286036D01*
X114978283Y-61280248D01*
X115010172Y-61241587D01*
X115050111Y-61211297D01*
X115056009Y-61207896D01*
X115102556Y-61189381D01*
X115153181Y-61183209D01*
X115746691Y-61183209D01*
X115753650Y-61183319D01*
G37*
G36*
X114593521Y-61183322D02*
G01*
X114643399Y-61191343D01*
X114688876Y-61212030D01*
X114694575Y-61215676D01*
X114732822Y-61247769D01*
X114763126Y-61288234D01*
X114766497Y-61294220D01*
X114784851Y-61341181D01*
X114790969Y-61391793D01*
X114790969Y-61974312D01*
X114790860Y-61981102D01*
X114783111Y-62030872D01*
X114763126Y-62078604D01*
X114759544Y-62084731D01*
X114728181Y-62126183D01*
X114688876Y-62159692D01*
X114683066Y-62163508D01*
X114637002Y-62184277D01*
X114586538Y-62191200D01*
X114005728Y-62191200D01*
X113998746Y-62191076D01*
X113948868Y-62182307D01*
X113903391Y-62159692D01*
X113897692Y-62155683D01*
X113859514Y-62121115D01*
X113829385Y-62078604D01*
X113825984Y-62072357D01*
X113807469Y-62024354D01*
X113801297Y-61974312D01*
X113801297Y-61963077D01*
X114015498Y-61963077D01*
X114461974Y-61963077D01*
X114015498Y-61587920D01*
X114015498Y-61963077D01*
X113801297Y-61963077D01*
X113801297Y-61403028D01*
X114130292Y-61403028D01*
X114576768Y-61778185D01*
X114576768Y-61403028D01*
X114130292Y-61403028D01*
X113801297Y-61403028D01*
X113801297Y-61391793D01*
X113801407Y-61384834D01*
X113809224Y-61334709D01*
X113829385Y-61288234D01*
X113832937Y-61282355D01*
X113864139Y-61243006D01*
X113903391Y-61212030D01*
X113909200Y-61208540D01*
X113955264Y-61189542D01*
X114005728Y-61183209D01*
X114586538Y-61183209D01*
X114593521Y-61183322D01*
G37*
G36*
X113424675Y-62191200D02*
G01*
X113475139Y-62185082D01*
X113521203Y-62166728D01*
X113527012Y-62163356D01*
X113566318Y-62133052D01*
X113597681Y-62094806D01*
X113601262Y-62089106D01*
X113621248Y-62043829D01*
X113628997Y-61995010D01*
X113629106Y-61988234D01*
X113629106Y-61909832D01*
X113414905Y-61909832D01*
X113414905Y-61976999D01*
X112853635Y-61976999D01*
X112853635Y-61790885D01*
X113463998Y-61790885D01*
X113463998Y-61576684D01*
X112891248Y-61576684D01*
X112891248Y-61397410D01*
X113414905Y-61397410D01*
X113414905Y-61475812D01*
X113629106Y-61475812D01*
X113629106Y-61386175D01*
X113622988Y-61335886D01*
X113604634Y-61289890D01*
X113601262Y-61284082D01*
X113570959Y-61244937D01*
X113532712Y-61214057D01*
X113527012Y-61210564D01*
X113481535Y-61190930D01*
X113431658Y-61183316D01*
X113424675Y-61183209D01*
X112880257Y-61183209D01*
X112829793Y-61189220D01*
X112783729Y-61207252D01*
X112777920Y-61210564D01*
X112738775Y-61240342D01*
X112707895Y-61278385D01*
X112704403Y-61284082D01*
X112684768Y-61329505D01*
X112677154Y-61379222D01*
X112677047Y-61386175D01*
X112677047Y-61587920D01*
X112679246Y-61620892D01*
X112685596Y-61652156D01*
X112658897Y-61694287D01*
X112652135Y-61710285D01*
X112640439Y-61759450D01*
X112639434Y-61779650D01*
X112639434Y-61988234D01*
X112645445Y-62037525D01*
X112663477Y-62083274D01*
X112666789Y-62089106D01*
X112696445Y-62128411D01*
X112734581Y-62159774D01*
X112740306Y-62163356D01*
X112785730Y-62183341D01*
X112835446Y-62191091D01*
X112842400Y-62191200D01*
X113424675Y-62191200D01*
G37*
G36*
X118317348Y-63871200D02*
G01*
X118367959Y-63865082D01*
X118414921Y-63846728D01*
X118420907Y-63843356D01*
X118461264Y-63812730D01*
X118493035Y-63773518D01*
X118496622Y-63767641D01*
X118516607Y-63721165D01*
X118524357Y-63671041D01*
X118524466Y-63664082D01*
X118524466Y-63070327D01*
X118518348Y-63018825D01*
X118499994Y-62971938D01*
X118496622Y-62966036D01*
X118465996Y-62926258D01*
X118426784Y-62894852D01*
X118420907Y-62891297D01*
X118374431Y-62871136D01*
X118324307Y-62863319D01*
X118317348Y-62863209D01*
X117725059Y-62863209D01*
X117673557Y-62869381D01*
X117626670Y-62887896D01*
X117620767Y-62891297D01*
X117580828Y-62921587D01*
X117548940Y-62960248D01*
X117545296Y-62966036D01*
X117524609Y-63012307D01*
X117516588Y-63063194D01*
X117516475Y-63070327D01*
X117516475Y-63165582D01*
X117736294Y-63165582D01*
X117736294Y-63081562D01*
X118307578Y-63081562D01*
X118307578Y-63652846D01*
X117736294Y-63652846D01*
X117736294Y-63501660D01*
X117954647Y-63501660D01*
X117954647Y-63283307D01*
X117516475Y-63283307D01*
X117516475Y-63664082D01*
X117522808Y-63714693D01*
X117541806Y-63761655D01*
X117545296Y-63767641D01*
X117576111Y-63807998D01*
X117614977Y-63839768D01*
X117620767Y-63843356D01*
X117667038Y-63863341D01*
X117717925Y-63871091D01*
X117725059Y-63871200D01*
X118317348Y-63871200D01*
G37*
G36*
X117362847Y-63871200D02*
G01*
X117145959Y-63871200D01*
X117145959Y-63540739D01*
X116563440Y-63539518D01*
X116556306Y-63539408D01*
X116505419Y-63531591D01*
X116459148Y-63511430D01*
X116453358Y-63507842D01*
X116414492Y-63476072D01*
X116383677Y-63435715D01*
X116380187Y-63429729D01*
X116361189Y-63382767D01*
X116354856Y-63332156D01*
X116354856Y-63320920D01*
X116574675Y-63320920D01*
X117145959Y-63320920D01*
X117145959Y-63081562D01*
X116574675Y-63081562D01*
X116574675Y-63320920D01*
X116354856Y-63320920D01*
X116354856Y-63071793D01*
X116354969Y-63064834D01*
X116362990Y-63014709D01*
X116383677Y-62968234D01*
X116387321Y-62962358D01*
X116419209Y-62923213D01*
X116459148Y-62892763D01*
X116465051Y-62889361D01*
X116511938Y-62870846D01*
X116563440Y-62864675D01*
X117362847Y-62864675D01*
X117362847Y-63871200D01*
G37*
G36*
X116290865Y-63871200D02*
G01*
X116290865Y-62863209D01*
X116076664Y-62863209D01*
X116076664Y-63871200D01*
X116290865Y-63871200D01*
G37*
G36*
X115759512Y-62863319D02*
G01*
X115809637Y-62871136D01*
X115856112Y-62891297D01*
X115861990Y-62894852D01*
X115901202Y-62926258D01*
X115931828Y-62966036D01*
X115935199Y-62971938D01*
X115953553Y-63018825D01*
X115959671Y-63070327D01*
X115959671Y-63664082D01*
X115959563Y-63671041D01*
X115951813Y-63721165D01*
X115931828Y-63767641D01*
X115928240Y-63773518D01*
X115896470Y-63812730D01*
X115856112Y-63843356D01*
X115850127Y-63846728D01*
X115803165Y-63865082D01*
X115752553Y-63871200D01*
X115159043Y-63871200D01*
X115152058Y-63871091D01*
X115101976Y-63863341D01*
X115055973Y-63843356D01*
X115050183Y-63839768D01*
X115011317Y-63807998D01*
X114980502Y-63767641D01*
X114977012Y-63761655D01*
X114958014Y-63714693D01*
X114951681Y-63664082D01*
X114951681Y-63652846D01*
X115171500Y-63652846D01*
X115742784Y-63652846D01*
X115742784Y-63081562D01*
X115171500Y-63081562D01*
X115171500Y-63652846D01*
X114951681Y-63652846D01*
X114951681Y-63070327D01*
X114951794Y-63063194D01*
X114959815Y-63012307D01*
X114980502Y-62966036D01*
X114984145Y-62960248D01*
X115016034Y-62921587D01*
X115055973Y-62891297D01*
X115061871Y-62887896D01*
X115108418Y-62869381D01*
X115159043Y-62863209D01*
X115752553Y-62863209D01*
X115759512Y-62863319D01*
G37*
G36*
X114599383Y-62863322D02*
G01*
X114649261Y-62871343D01*
X114694738Y-62892030D01*
X114700437Y-62895676D01*
X114738684Y-62927769D01*
X114768988Y-62968234D01*
X114772359Y-62974220D01*
X114790713Y-63021181D01*
X114796831Y-63071793D01*
X114796831Y-63654312D01*
X114796722Y-63661102D01*
X114788973Y-63710872D01*
X114768988Y-63758604D01*
X114765406Y-63764731D01*
X114734043Y-63806183D01*
X114694738Y-63839692D01*
X114688928Y-63843508D01*
X114642864Y-63864277D01*
X114592400Y-63871200D01*
X114011590Y-63871200D01*
X114004608Y-63871076D01*
X113954730Y-63862307D01*
X113909253Y-63839692D01*
X113903554Y-63835683D01*
X113865376Y-63801115D01*
X113835247Y-63758604D01*
X113831846Y-63752357D01*
X113813331Y-63704354D01*
X113807159Y-63654312D01*
X113807159Y-63643077D01*
X114021360Y-63643077D01*
X114467836Y-63643077D01*
X114021360Y-63267920D01*
X114021360Y-63643077D01*
X113807159Y-63643077D01*
X113807159Y-63083028D01*
X114136154Y-63083028D01*
X114582630Y-63458185D01*
X114582630Y-63083028D01*
X114136154Y-63083028D01*
X113807159Y-63083028D01*
X113807159Y-63071793D01*
X113807269Y-63064834D01*
X113815086Y-63014709D01*
X113835247Y-62968234D01*
X113838799Y-62962355D01*
X113870001Y-62923006D01*
X113909253Y-62892030D01*
X113915062Y-62888540D01*
X113961126Y-62869542D01*
X114011590Y-62863209D01*
X114592400Y-62863209D01*
X114599383Y-62863322D01*
G37*
G36*
X113629350Y-63871200D02*
G01*
X113629350Y-63480655D01*
X113623232Y-63430191D01*
X113604878Y-63384127D01*
X113601507Y-63378317D01*
X113571203Y-63339227D01*
X113532957Y-63308508D01*
X113527257Y-63305045D01*
X113481780Y-63285410D01*
X113431902Y-63277796D01*
X113424919Y-63277689D01*
X112853879Y-63277689D01*
X112853879Y-63077410D01*
X113415149Y-63077410D01*
X113415149Y-63158499D01*
X113629350Y-63158499D01*
X113629350Y-63066175D01*
X113623232Y-63015886D01*
X113604878Y-62969890D01*
X113601507Y-62964082D01*
X113571203Y-62924937D01*
X113532957Y-62894057D01*
X113527257Y-62890564D01*
X113481780Y-62870930D01*
X113431902Y-62863316D01*
X113424919Y-62863209D01*
X112844110Y-62863209D01*
X112793645Y-62869220D01*
X112747581Y-62887252D01*
X112741772Y-62890564D01*
X112702520Y-62920342D01*
X112671318Y-62958385D01*
X112667766Y-62964082D01*
X112647606Y-63009505D01*
X112639788Y-63059222D01*
X112639678Y-63066175D01*
X112639678Y-63288680D01*
X112645850Y-63339145D01*
X112664365Y-63385209D01*
X112667766Y-63391018D01*
X112697895Y-63430324D01*
X112736073Y-63461686D01*
X112741772Y-63465268D01*
X112787249Y-63485253D01*
X112837127Y-63493003D01*
X112844110Y-63493112D01*
X113415149Y-63493112D01*
X113415149Y-63656999D01*
X112639678Y-63656999D01*
X112639678Y-63871200D01*
X113629350Y-63871200D01*
G37*
G36*
X117702833Y-65551200D02*
G01*
X117753444Y-65545082D01*
X117800406Y-65526728D01*
X117806392Y-65523356D01*
X117846749Y-65492730D01*
X117878520Y-65453518D01*
X117882107Y-65447641D01*
X117902092Y-65401165D01*
X117909842Y-65351041D01*
X117909951Y-65344082D01*
X117909951Y-64750327D01*
X117903833Y-64698825D01*
X117885479Y-64651938D01*
X117882107Y-64646036D01*
X117851481Y-64606258D01*
X117812269Y-64574852D01*
X117806392Y-64571297D01*
X117759916Y-64551136D01*
X117709792Y-64543319D01*
X117702833Y-64543209D01*
X117110544Y-64543209D01*
X117059042Y-64549381D01*
X117012155Y-64567896D01*
X117006252Y-64571297D01*
X116966313Y-64601587D01*
X116934425Y-64640248D01*
X116930781Y-64646036D01*
X116910094Y-64692307D01*
X116902073Y-64743194D01*
X116901960Y-64750327D01*
X116901960Y-64845582D01*
X117121779Y-64845582D01*
X117121779Y-64761562D01*
X117693063Y-64761562D01*
X117693063Y-65332846D01*
X117121779Y-65332846D01*
X117121779Y-65181660D01*
X117340132Y-65181660D01*
X117340132Y-64963307D01*
X116901960Y-64963307D01*
X116901960Y-65344082D01*
X116908293Y-65394693D01*
X116927291Y-65441655D01*
X116930781Y-65447641D01*
X116961596Y-65487998D01*
X117000462Y-65519768D01*
X117006252Y-65523356D01*
X117052523Y-65543341D01*
X117103410Y-65551091D01*
X117110544Y-65551200D01*
X117702833Y-65551200D01*
G37*
G36*
X116748332Y-65551200D02*
G01*
X116531444Y-65551200D01*
X116531444Y-65220739D01*
X115948925Y-65219518D01*
X115941791Y-65219408D01*
X115890904Y-65211591D01*
X115844633Y-65191430D01*
X115838843Y-65187842D01*
X115799977Y-65156072D01*
X115769162Y-65115715D01*
X115765672Y-65109729D01*
X115746674Y-65062767D01*
X115740341Y-65012156D01*
X115740341Y-65000920D01*
X115960160Y-65000920D01*
X116531444Y-65000920D01*
X116531444Y-64761562D01*
X115960160Y-64761562D01*
X115960160Y-65000920D01*
X115740341Y-65000920D01*
X115740341Y-64751793D01*
X115740454Y-64744834D01*
X115748475Y-64694709D01*
X115769162Y-64648234D01*
X115772806Y-64642358D01*
X115804694Y-64603213D01*
X115844633Y-64572763D01*
X115850536Y-64569361D01*
X115897423Y-64550846D01*
X115948925Y-64544675D01*
X116748332Y-64544675D01*
X116748332Y-65551200D01*
G37*
G36*
X115676350Y-65551200D02*
G01*
X115676350Y-64543209D01*
X115462149Y-64543209D01*
X115462149Y-65551200D01*
X115676350Y-65551200D01*
G37*
G36*
X115144997Y-64543319D02*
G01*
X115195122Y-64551136D01*
X115241597Y-64571297D01*
X115247475Y-64574852D01*
X115286687Y-64606258D01*
X115317313Y-64646036D01*
X115320684Y-64651938D01*
X115339038Y-64698825D01*
X115345156Y-64750327D01*
X115345156Y-65344082D01*
X115345048Y-65351041D01*
X115337298Y-65401165D01*
X115317313Y-65447641D01*
X115313725Y-65453518D01*
X115281955Y-65492730D01*
X115241597Y-65523356D01*
X115235612Y-65526728D01*
X115188650Y-65545082D01*
X115138038Y-65551200D01*
X114544528Y-65551200D01*
X114537543Y-65551091D01*
X114487461Y-65543341D01*
X114441458Y-65523356D01*
X114435668Y-65519768D01*
X114396802Y-65487998D01*
X114365987Y-65447641D01*
X114362497Y-65441655D01*
X114343499Y-65394693D01*
X114337166Y-65344082D01*
X114337166Y-65332846D01*
X114556985Y-65332846D01*
X115128269Y-65332846D01*
X115128269Y-64761562D01*
X114556985Y-64761562D01*
X114556985Y-65332846D01*
X114337166Y-65332846D01*
X114337166Y-64750327D01*
X114337279Y-64743194D01*
X114345300Y-64692307D01*
X114365987Y-64646036D01*
X114369630Y-64640248D01*
X114401519Y-64601587D01*
X114441458Y-64571297D01*
X114447356Y-64567896D01*
X114493903Y-64549381D01*
X114544528Y-64543209D01*
X115138038Y-64543209D01*
X115144997Y-64543319D01*
G37*
G36*
X113930502Y-65551200D02*
G01*
X113930502Y-64869518D01*
X113976664Y-64926915D01*
X114260718Y-64926915D01*
X113938806Y-64543209D01*
X113716301Y-64543209D01*
X113716301Y-65551200D01*
X113930502Y-65551200D01*
G37*
G36*
X113437764Y-64543322D02*
G01*
X113487642Y-64551343D01*
X113533119Y-64572030D01*
X113538818Y-64575676D01*
X113577065Y-64607769D01*
X113607369Y-64648234D01*
X113610740Y-64654220D01*
X113629094Y-64701181D01*
X113635212Y-64751793D01*
X113635212Y-65334312D01*
X113635103Y-65341102D01*
X113627354Y-65390872D01*
X113607369Y-65438604D01*
X113603787Y-65444731D01*
X113572424Y-65486183D01*
X113533119Y-65519692D01*
X113527309Y-65523508D01*
X113481246Y-65544277D01*
X113430781Y-65551200D01*
X112849971Y-65551200D01*
X112842989Y-65551076D01*
X112793111Y-65542307D01*
X112747634Y-65519692D01*
X112741935Y-65515683D01*
X112703757Y-65481115D01*
X112673628Y-65438604D01*
X112670227Y-65432357D01*
X112651712Y-65384354D01*
X112645540Y-65334312D01*
X112645540Y-65323077D01*
X112859741Y-65323077D01*
X113306217Y-65323077D01*
X112859741Y-64947920D01*
X112859741Y-65323077D01*
X112645540Y-65323077D01*
X112645540Y-64763028D01*
X112974535Y-64763028D01*
X113421011Y-65138185D01*
X113421011Y-64763028D01*
X112974535Y-64763028D01*
X112645540Y-64763028D01*
X112645540Y-64751793D01*
X112645650Y-64744834D01*
X112653467Y-64694709D01*
X112673628Y-64648234D01*
X112677180Y-64642355D01*
X112708382Y-64603006D01*
X112747634Y-64572030D01*
X112753443Y-64568540D01*
X112799507Y-64549542D01*
X112849971Y-64543209D01*
X113430781Y-64543209D01*
X113437764Y-64543322D01*
G37*
G36*
X118311486Y-67231200D02*
G01*
X118362097Y-67225082D01*
X118409059Y-67206728D01*
X118415045Y-67203356D01*
X118455402Y-67172730D01*
X118487173Y-67133518D01*
X118490760Y-67127641D01*
X118510745Y-67081165D01*
X118518495Y-67031041D01*
X118518604Y-67024082D01*
X118518604Y-66430327D01*
X118512486Y-66378825D01*
X118494132Y-66331938D01*
X118490760Y-66326036D01*
X118460134Y-66286258D01*
X118420922Y-66254852D01*
X118415045Y-66251297D01*
X118368569Y-66231136D01*
X118318445Y-66223319D01*
X118311486Y-66223209D01*
X117719197Y-66223209D01*
X117667695Y-66229381D01*
X117620808Y-66247896D01*
X117614905Y-66251297D01*
X117574966Y-66281587D01*
X117543078Y-66320248D01*
X117539434Y-66326036D01*
X117518747Y-66372307D01*
X117510726Y-66423194D01*
X117510613Y-66430327D01*
X117510613Y-66525582D01*
X117730432Y-66525582D01*
X117730432Y-66441562D01*
X118301716Y-66441562D01*
X118301716Y-67012846D01*
X117730432Y-67012846D01*
X117730432Y-66861660D01*
X117948785Y-66861660D01*
X117948785Y-66643307D01*
X117510613Y-66643307D01*
X117510613Y-67024082D01*
X117516946Y-67074693D01*
X117535944Y-67121655D01*
X117539434Y-67127641D01*
X117570249Y-67167998D01*
X117609115Y-67199768D01*
X117614905Y-67203356D01*
X117661176Y-67223341D01*
X117712063Y-67231091D01*
X117719197Y-67231200D01*
X118311486Y-67231200D01*
G37*
G36*
X117356985Y-67231200D02*
G01*
X117140097Y-67231200D01*
X117140097Y-66900739D01*
X116557578Y-66899518D01*
X116550444Y-66899408D01*
X116499557Y-66891591D01*
X116453286Y-66871430D01*
X116447496Y-66867842D01*
X116408630Y-66836072D01*
X116377815Y-66795715D01*
X116374325Y-66789729D01*
X116355327Y-66742767D01*
X116348994Y-66692156D01*
X116348994Y-66680920D01*
X116568813Y-66680920D01*
X117140097Y-66680920D01*
X117140097Y-66441562D01*
X116568813Y-66441562D01*
X116568813Y-66680920D01*
X116348994Y-66680920D01*
X116348994Y-66431793D01*
X116349107Y-66424834D01*
X116357128Y-66374709D01*
X116377815Y-66328234D01*
X116381459Y-66322358D01*
X116413347Y-66283213D01*
X116453286Y-66252763D01*
X116459189Y-66249361D01*
X116506076Y-66230846D01*
X116557578Y-66224675D01*
X117356985Y-66224675D01*
X117356985Y-67231200D01*
G37*
G36*
X116285003Y-67231200D02*
G01*
X116285003Y-66223209D01*
X116070802Y-66223209D01*
X116070802Y-67231200D01*
X116285003Y-67231200D01*
G37*
G36*
X115753650Y-66223319D02*
G01*
X115803775Y-66231136D01*
X115850250Y-66251297D01*
X115856128Y-66254852D01*
X115895340Y-66286258D01*
X115925966Y-66326036D01*
X115929337Y-66331938D01*
X115947691Y-66378825D01*
X115953809Y-66430327D01*
X115953809Y-67024082D01*
X115953701Y-67031041D01*
X115945951Y-67081165D01*
X115925966Y-67127641D01*
X115922378Y-67133518D01*
X115890608Y-67172730D01*
X115850250Y-67203356D01*
X115844265Y-67206728D01*
X115797303Y-67225082D01*
X115746691Y-67231200D01*
X115153181Y-67231200D01*
X115146196Y-67231091D01*
X115096114Y-67223341D01*
X115050111Y-67203356D01*
X115044321Y-67199768D01*
X115005455Y-67167998D01*
X114974640Y-67127641D01*
X114971150Y-67121655D01*
X114952152Y-67074693D01*
X114945819Y-67024082D01*
X114945819Y-67012846D01*
X115165638Y-67012846D01*
X115736922Y-67012846D01*
X115736922Y-66441562D01*
X115165638Y-66441562D01*
X115165638Y-67012846D01*
X114945819Y-67012846D01*
X114945819Y-66430327D01*
X114945932Y-66423194D01*
X114953953Y-66372307D01*
X114974640Y-66326036D01*
X114978283Y-66320248D01*
X115010172Y-66281587D01*
X115050111Y-66251297D01*
X115056009Y-66247896D01*
X115102556Y-66229381D01*
X115153181Y-66223209D01*
X115746691Y-66223209D01*
X115753650Y-66223319D01*
G37*
G36*
X114790969Y-67231200D02*
G01*
X114790969Y-66840655D01*
X114784851Y-66790191D01*
X114766497Y-66744127D01*
X114763126Y-66738317D01*
X114732822Y-66699227D01*
X114694575Y-66668508D01*
X114688876Y-66665045D01*
X114643399Y-66645410D01*
X114593521Y-66637796D01*
X114586538Y-66637689D01*
X114015498Y-66637689D01*
X114015498Y-66437410D01*
X114576768Y-66437410D01*
X114576768Y-66518499D01*
X114790969Y-66518499D01*
X114790969Y-66426175D01*
X114784851Y-66375886D01*
X114766497Y-66329890D01*
X114763126Y-66324082D01*
X114732822Y-66284937D01*
X114694575Y-66254057D01*
X114688876Y-66250564D01*
X114643399Y-66230930D01*
X114593521Y-66223316D01*
X114586538Y-66223209D01*
X114005728Y-66223209D01*
X113955264Y-66229220D01*
X113909200Y-66247252D01*
X113903391Y-66250564D01*
X113864139Y-66280342D01*
X113832937Y-66318385D01*
X113829385Y-66324082D01*
X113809224Y-66369505D01*
X113801407Y-66419222D01*
X113801297Y-66426175D01*
X113801297Y-66648680D01*
X113807469Y-66699145D01*
X113825984Y-66745209D01*
X113829385Y-66751018D01*
X113859514Y-66790324D01*
X113897692Y-66821686D01*
X113903391Y-66825268D01*
X113948868Y-66845253D01*
X113998746Y-66853003D01*
X114005728Y-66853112D01*
X114576768Y-66853112D01*
X114576768Y-67016999D01*
X113801297Y-67016999D01*
X113801297Y-67231200D01*
X114790969Y-67231200D01*
G37*
G36*
X113424919Y-67231200D02*
G01*
X113475383Y-67225082D01*
X113521447Y-67206728D01*
X113527257Y-67203356D01*
X113566562Y-67173052D01*
X113597925Y-67134806D01*
X113601507Y-67129106D01*
X113621492Y-67083829D01*
X113629241Y-67035010D01*
X113629350Y-67028234D01*
X113629350Y-66949832D01*
X113415149Y-66949832D01*
X113415149Y-67016999D01*
X112853879Y-67016999D01*
X112853879Y-66827955D01*
X113629350Y-66827955D01*
X113629350Y-66223209D01*
X112639678Y-66223209D01*
X112639678Y-66437410D01*
X113415149Y-66437410D01*
X113415149Y-66612288D01*
X112844109Y-66612288D01*
X112793645Y-66618299D01*
X112747581Y-66636331D01*
X112741772Y-66639643D01*
X112702520Y-66669421D01*
X112671318Y-66707464D01*
X112667766Y-66713160D01*
X112647605Y-66758638D01*
X112639788Y-66808515D01*
X112639678Y-66815498D01*
X112639678Y-67028234D01*
X112645850Y-67077525D01*
X112664365Y-67123274D01*
X112667766Y-67129106D01*
X112697895Y-67168411D01*
X112736073Y-67199774D01*
X112741772Y-67203356D01*
X112787249Y-67223341D01*
X112837127Y-67231091D01*
X112844109Y-67231200D01*
X113424919Y-67231200D01*
G37*
G36*
X118323210Y-68911200D02*
G01*
X118373821Y-68905082D01*
X118420783Y-68886728D01*
X118426769Y-68883356D01*
X118467126Y-68852730D01*
X118498897Y-68813518D01*
X118502484Y-68807641D01*
X118522469Y-68761165D01*
X118530219Y-68711041D01*
X118530328Y-68704082D01*
X118530328Y-68110327D01*
X118524210Y-68058825D01*
X118505856Y-68011938D01*
X118502484Y-68006036D01*
X118471858Y-67966258D01*
X118432646Y-67934852D01*
X118426769Y-67931297D01*
X118380293Y-67911136D01*
X118330169Y-67903319D01*
X118323210Y-67903209D01*
X117730921Y-67903209D01*
X117679419Y-67909381D01*
X117632532Y-67927896D01*
X117626629Y-67931297D01*
X117586690Y-67961587D01*
X117554802Y-68000248D01*
X117551158Y-68006036D01*
X117530471Y-68052307D01*
X117522450Y-68103194D01*
X117522337Y-68110327D01*
X117522337Y-68205582D01*
X117742156Y-68205582D01*
X117742156Y-68121562D01*
X118313440Y-68121562D01*
X118313440Y-68692846D01*
X117742156Y-68692846D01*
X117742156Y-68541660D01*
X117960509Y-68541660D01*
X117960509Y-68323307D01*
X117522337Y-68323307D01*
X117522337Y-68704082D01*
X117528670Y-68754693D01*
X117547668Y-68801655D01*
X117551158Y-68807641D01*
X117581973Y-68847998D01*
X117620839Y-68879768D01*
X117626629Y-68883356D01*
X117672900Y-68903341D01*
X117723787Y-68911091D01*
X117730921Y-68911200D01*
X118323210Y-68911200D01*
G37*
G36*
X117368709Y-68911200D02*
G01*
X117151821Y-68911200D01*
X117151821Y-68580739D01*
X116569302Y-68579518D01*
X116562168Y-68579408D01*
X116511281Y-68571591D01*
X116465010Y-68551430D01*
X116459220Y-68547842D01*
X116420354Y-68516072D01*
X116389539Y-68475715D01*
X116386049Y-68469729D01*
X116367051Y-68422767D01*
X116360718Y-68372156D01*
X116360718Y-68360920D01*
X116580537Y-68360920D01*
X117151821Y-68360920D01*
X117151821Y-68121562D01*
X116580537Y-68121562D01*
X116580537Y-68360920D01*
X116360718Y-68360920D01*
X116360718Y-68111793D01*
X116360831Y-68104834D01*
X116368852Y-68054709D01*
X116389539Y-68008234D01*
X116393183Y-68002358D01*
X116425071Y-67963213D01*
X116465010Y-67932763D01*
X116470913Y-67929361D01*
X116517800Y-67910846D01*
X116569302Y-67904675D01*
X117368709Y-67904675D01*
X117368709Y-68911200D01*
G37*
G36*
X116296727Y-68911200D02*
G01*
X116296727Y-67903209D01*
X116082526Y-67903209D01*
X116082526Y-68911200D01*
X116296727Y-68911200D01*
G37*
G36*
X115765374Y-67903319D02*
G01*
X115815499Y-67911136D01*
X115861974Y-67931297D01*
X115867852Y-67934852D01*
X115907064Y-67966258D01*
X115937690Y-68006036D01*
X115941061Y-68011938D01*
X115959415Y-68058825D01*
X115965533Y-68110327D01*
X115965533Y-68704082D01*
X115965425Y-68711041D01*
X115957675Y-68761165D01*
X115937690Y-68807641D01*
X115934102Y-68813518D01*
X115902332Y-68852730D01*
X115861974Y-68883356D01*
X115855989Y-68886728D01*
X115809027Y-68905082D01*
X115758415Y-68911200D01*
X115164905Y-68911200D01*
X115157920Y-68911091D01*
X115107838Y-68903341D01*
X115061835Y-68883356D01*
X115056045Y-68879768D01*
X115017179Y-68847998D01*
X114986364Y-68807641D01*
X114982874Y-68801655D01*
X114963876Y-68754693D01*
X114957543Y-68704082D01*
X114957543Y-68692846D01*
X115177362Y-68692846D01*
X115748646Y-68692846D01*
X115748646Y-68121562D01*
X115177362Y-68121562D01*
X115177362Y-68692846D01*
X114957543Y-68692846D01*
X114957543Y-68110327D01*
X114957656Y-68103194D01*
X114965677Y-68052307D01*
X114986364Y-68006036D01*
X114990007Y-68000248D01*
X115021896Y-67961587D01*
X115061835Y-67931297D01*
X115067733Y-67927896D01*
X115114280Y-67909381D01*
X115164905Y-67903209D01*
X115758415Y-67903209D01*
X115765374Y-67903319D01*
G37*
G36*
X114605245Y-67903322D02*
G01*
X114655123Y-67911343D01*
X114700600Y-67932030D01*
X114706299Y-67935676D01*
X114744546Y-67967769D01*
X114774850Y-68008234D01*
X114778221Y-68014220D01*
X114796575Y-68061181D01*
X114802693Y-68111793D01*
X114802693Y-68694312D01*
X114802584Y-68701102D01*
X114794835Y-68750872D01*
X114774850Y-68798604D01*
X114771268Y-68804731D01*
X114739905Y-68846183D01*
X114700600Y-68879692D01*
X114694790Y-68883508D01*
X114648726Y-68904277D01*
X114598262Y-68911200D01*
X114017452Y-68911200D01*
X114010470Y-68911076D01*
X113960592Y-68902307D01*
X113915115Y-68879692D01*
X113909416Y-68875683D01*
X113871238Y-68841115D01*
X113841109Y-68798604D01*
X113837708Y-68792357D01*
X113819193Y-68744354D01*
X113813021Y-68694312D01*
X113813021Y-68683077D01*
X114027222Y-68683077D01*
X114473698Y-68683077D01*
X114027222Y-68307920D01*
X114027222Y-68683077D01*
X113813021Y-68683077D01*
X113813021Y-68123028D01*
X114142016Y-68123028D01*
X114588492Y-68498185D01*
X114588492Y-68123028D01*
X114142016Y-68123028D01*
X113813021Y-68123028D01*
X113813021Y-68111793D01*
X113813131Y-68104834D01*
X113820948Y-68054709D01*
X113841109Y-68008234D01*
X113844661Y-68002355D01*
X113875863Y-67963006D01*
X113915115Y-67932030D01*
X113920924Y-67928540D01*
X113966988Y-67909542D01*
X114017452Y-67903209D01*
X114598262Y-67903209D01*
X114605245Y-67903322D01*
G37*
G36*
X113437764Y-67903316D02*
G01*
X113487642Y-67910930D01*
X113533119Y-67930564D01*
X113538819Y-67934057D01*
X113577065Y-67964937D01*
X113607369Y-68004082D01*
X113610740Y-68009890D01*
X113629094Y-68055886D01*
X113635212Y-68106175D01*
X113635212Y-68303523D01*
X113628374Y-68353349D01*
X113611521Y-68400243D01*
X113628374Y-68447138D01*
X113635212Y-68495498D01*
X113635212Y-68708234D01*
X113635104Y-68715010D01*
X113627354Y-68763829D01*
X113607369Y-68809106D01*
X113603787Y-68814806D01*
X113572424Y-68853052D01*
X113533119Y-68883356D01*
X113527310Y-68886728D01*
X113481246Y-68905082D01*
X113430781Y-68911200D01*
X112849972Y-68911200D01*
X112842989Y-68911091D01*
X112793111Y-68903341D01*
X112747634Y-68883356D01*
X112741935Y-68879774D01*
X112703757Y-68848411D01*
X112673628Y-68809106D01*
X112670227Y-68803274D01*
X112651712Y-68757525D01*
X112645540Y-68708234D01*
X112645540Y-68696999D01*
X112859741Y-68696999D01*
X113421011Y-68696999D01*
X113421011Y-68507955D01*
X112859741Y-68507955D01*
X112859741Y-68696999D01*
X112645540Y-68696999D01*
X112645540Y-68495498D01*
X112650746Y-68448050D01*
X112669232Y-68400243D01*
X112651463Y-68352250D01*
X112645896Y-68306454D01*
X112859741Y-68306454D01*
X113421011Y-68306454D01*
X113421011Y-68118876D01*
X112859741Y-68118876D01*
X112859741Y-68306454D01*
X112645896Y-68306454D01*
X112645540Y-68303523D01*
X112645540Y-68069783D01*
X112657995Y-68027333D01*
X112683398Y-67984542D01*
X112713988Y-67952593D01*
X112756182Y-67924947D01*
X112801245Y-67908644D01*
X112849972Y-67903209D01*
X113430781Y-67903209D01*
X113437764Y-67903316D01*
G37*
G36*
X117082456Y-70591200D02*
G01*
X117133067Y-70585082D01*
X117180029Y-70566728D01*
X117186015Y-70563356D01*
X117226372Y-70532730D01*
X117258143Y-70493518D01*
X117261730Y-70487641D01*
X117281715Y-70441165D01*
X117289465Y-70391041D01*
X117289574Y-70384082D01*
X117289574Y-69790327D01*
X117283456Y-69738825D01*
X117265102Y-69691938D01*
X117261730Y-69686036D01*
X117231104Y-69646258D01*
X117191892Y-69614852D01*
X117186015Y-69611297D01*
X117139539Y-69591136D01*
X117089415Y-69583319D01*
X117082456Y-69583209D01*
X116490167Y-69583209D01*
X116438665Y-69589381D01*
X116391778Y-69607896D01*
X116385875Y-69611297D01*
X116345936Y-69641587D01*
X116314048Y-69680248D01*
X116310404Y-69686036D01*
X116289717Y-69732307D01*
X116281696Y-69783194D01*
X116281583Y-69790327D01*
X116281583Y-69885582D01*
X116501402Y-69885582D01*
X116501402Y-69801562D01*
X117072686Y-69801562D01*
X117072686Y-70372846D01*
X116501402Y-70372846D01*
X116501402Y-70221660D01*
X116719755Y-70221660D01*
X116719755Y-70003307D01*
X116281583Y-70003307D01*
X116281583Y-70384082D01*
X116287916Y-70434693D01*
X116306914Y-70481655D01*
X116310404Y-70487641D01*
X116341219Y-70527998D01*
X116380085Y-70559768D01*
X116385875Y-70563356D01*
X116432146Y-70583341D01*
X116483033Y-70591091D01*
X116490167Y-70591200D01*
X117082456Y-70591200D01*
G37*
G36*
X116127955Y-70591200D02*
G01*
X115911067Y-70591200D01*
X115911067Y-70260739D01*
X115328548Y-70259518D01*
X115321414Y-70259408D01*
X115270527Y-70251591D01*
X115224256Y-70231430D01*
X115218466Y-70227842D01*
X115179600Y-70196072D01*
X115148785Y-70155715D01*
X115145295Y-70149729D01*
X115126297Y-70102767D01*
X115119964Y-70052156D01*
X115119964Y-70040920D01*
X115339783Y-70040920D01*
X115911067Y-70040920D01*
X115911067Y-69801562D01*
X115339783Y-69801562D01*
X115339783Y-70040920D01*
X115119964Y-70040920D01*
X115119964Y-69791793D01*
X115120077Y-69784834D01*
X115128098Y-69734709D01*
X115148785Y-69688234D01*
X115152429Y-69682358D01*
X115184317Y-69643213D01*
X115224256Y-69612763D01*
X115230159Y-69609361D01*
X115277046Y-69590846D01*
X115328548Y-69584675D01*
X116127955Y-69584675D01*
X116127955Y-70591200D01*
G37*
G36*
X115055973Y-70591200D02*
G01*
X115055973Y-69583209D01*
X114841772Y-69583209D01*
X114841772Y-70591200D01*
X115055973Y-70591200D01*
G37*
G36*
X114524620Y-69583319D02*
G01*
X114574745Y-69591136D01*
X114621220Y-69611297D01*
X114627098Y-69614852D01*
X114666310Y-69646258D01*
X114696936Y-69686036D01*
X114700307Y-69691938D01*
X114718661Y-69738825D01*
X114724779Y-69790327D01*
X114724779Y-70384082D01*
X114724671Y-70391041D01*
X114716921Y-70441165D01*
X114696936Y-70487641D01*
X114693348Y-70493518D01*
X114661578Y-70532730D01*
X114621220Y-70563356D01*
X114615235Y-70566728D01*
X114568273Y-70585082D01*
X114517661Y-70591200D01*
X113924151Y-70591200D01*
X113917166Y-70591091D01*
X113867084Y-70583341D01*
X113821081Y-70563356D01*
X113815291Y-70559768D01*
X113776425Y-70527998D01*
X113745610Y-70487641D01*
X113742120Y-70481655D01*
X113723122Y-70434693D01*
X113716789Y-70384082D01*
X113716789Y-70372846D01*
X113936608Y-70372846D01*
X114507892Y-70372846D01*
X114507892Y-69801562D01*
X113936608Y-69801562D01*
X113936608Y-70372846D01*
X113716789Y-70372846D01*
X113716789Y-69790327D01*
X113716902Y-69783194D01*
X113724923Y-69732307D01*
X113745610Y-69686036D01*
X113749253Y-69680248D01*
X113781142Y-69641587D01*
X113821081Y-69611297D01*
X113826979Y-69607896D01*
X113873526Y-69589381D01*
X113924151Y-69583209D01*
X114517661Y-69583209D01*
X114524620Y-69583319D01*
G37*
G36*
X113310125Y-70591200D02*
G01*
X113310125Y-69909518D01*
X113356287Y-69966915D01*
X113640341Y-69966915D01*
X113318429Y-69583209D01*
X113095924Y-69583209D01*
X113095924Y-70591200D01*
X113310125Y-70591200D01*
G37*
G36*
X112763021Y-70591200D02*
G01*
X112763021Y-69909518D01*
X112809183Y-69966915D01*
X113093237Y-69966915D01*
X112771325Y-69583209D01*
X112548820Y-69583209D01*
X112548820Y-70591200D01*
X112763021Y-70591200D01*
G37*
G36*
X117694040Y-72271200D02*
G01*
X117744651Y-72265082D01*
X117791613Y-72246728D01*
X117797599Y-72243356D01*
X117837956Y-72212730D01*
X117869727Y-72173518D01*
X117873314Y-72167641D01*
X117893299Y-72121165D01*
X117901049Y-72071041D01*
X117901158Y-72064082D01*
X117901158Y-71470327D01*
X117895040Y-71418825D01*
X117876686Y-71371938D01*
X117873314Y-71366036D01*
X117842688Y-71326258D01*
X117803476Y-71294852D01*
X117797599Y-71291297D01*
X117751123Y-71271136D01*
X117700999Y-71263319D01*
X117694040Y-71263209D01*
X117101751Y-71263209D01*
X117050249Y-71269381D01*
X117003362Y-71287896D01*
X116997459Y-71291297D01*
X116957520Y-71321587D01*
X116925632Y-71360248D01*
X116921988Y-71366036D01*
X116901301Y-71412307D01*
X116893280Y-71463194D01*
X116893167Y-71470327D01*
X116893167Y-71565582D01*
X117112986Y-71565582D01*
X117112986Y-71481562D01*
X117684270Y-71481562D01*
X117684270Y-72052846D01*
X117112986Y-72052846D01*
X117112986Y-71901660D01*
X117331339Y-71901660D01*
X117331339Y-71683307D01*
X116893167Y-71683307D01*
X116893167Y-72064082D01*
X116899500Y-72114693D01*
X116918498Y-72161655D01*
X116921988Y-72167641D01*
X116952803Y-72207998D01*
X116991669Y-72239768D01*
X116997459Y-72243356D01*
X117043730Y-72263341D01*
X117094617Y-72271091D01*
X117101751Y-72271200D01*
X117694040Y-72271200D01*
G37*
G36*
X116739539Y-72271200D02*
G01*
X116522651Y-72271200D01*
X116522651Y-71940739D01*
X115940132Y-71939518D01*
X115932998Y-71939408D01*
X115882111Y-71931591D01*
X115835840Y-71911430D01*
X115830050Y-71907842D01*
X115791184Y-71876072D01*
X115760369Y-71835715D01*
X115756879Y-71829729D01*
X115737881Y-71782767D01*
X115731548Y-71732156D01*
X115731548Y-71720920D01*
X115951367Y-71720920D01*
X116522651Y-71720920D01*
X116522651Y-71481562D01*
X115951367Y-71481562D01*
X115951367Y-71720920D01*
X115731548Y-71720920D01*
X115731548Y-71471793D01*
X115731661Y-71464834D01*
X115739682Y-71414709D01*
X115760369Y-71368234D01*
X115764013Y-71362358D01*
X115795901Y-71323213D01*
X115835840Y-71292763D01*
X115841743Y-71289361D01*
X115888630Y-71270846D01*
X115940132Y-71264675D01*
X116739539Y-71264675D01*
X116739539Y-72271200D01*
G37*
G36*
X115667557Y-72271200D02*
G01*
X115667557Y-71263209D01*
X115453356Y-71263209D01*
X115453356Y-72271200D01*
X115667557Y-72271200D01*
G37*
G36*
X115136204Y-71263319D02*
G01*
X115186329Y-71271136D01*
X115232804Y-71291297D01*
X115238682Y-71294852D01*
X115277894Y-71326258D01*
X115308520Y-71366036D01*
X115311891Y-71371938D01*
X115330245Y-71418825D01*
X115336363Y-71470327D01*
X115336363Y-72064082D01*
X115336255Y-72071041D01*
X115328505Y-72121165D01*
X115308520Y-72167641D01*
X115304932Y-72173518D01*
X115273162Y-72212730D01*
X115232804Y-72243356D01*
X115226819Y-72246728D01*
X115179857Y-72265082D01*
X115129245Y-72271200D01*
X114535735Y-72271200D01*
X114528750Y-72271091D01*
X114478668Y-72263341D01*
X114432665Y-72243356D01*
X114426875Y-72239768D01*
X114388009Y-72207998D01*
X114357194Y-72167641D01*
X114353704Y-72161655D01*
X114334706Y-72114693D01*
X114328373Y-72064082D01*
X114328373Y-72052846D01*
X114548192Y-72052846D01*
X115119476Y-72052846D01*
X115119476Y-71481562D01*
X114548192Y-71481562D01*
X114548192Y-72052846D01*
X114328373Y-72052846D01*
X114328373Y-71470327D01*
X114328486Y-71463194D01*
X114336507Y-71412307D01*
X114357194Y-71366036D01*
X114360837Y-71360248D01*
X114392726Y-71321587D01*
X114432665Y-71291297D01*
X114438563Y-71287896D01*
X114485110Y-71269381D01*
X114535735Y-71263209D01*
X115129245Y-71263209D01*
X115136204Y-71263319D01*
G37*
G36*
X113921709Y-72271200D02*
G01*
X113921709Y-71589518D01*
X113967871Y-71646915D01*
X114251925Y-71646915D01*
X113930013Y-71263209D01*
X113707508Y-71263209D01*
X113707508Y-72271200D01*
X113921709Y-72271200D01*
G37*
G36*
X113433338Y-71263316D02*
G01*
X113483054Y-71270930D01*
X113528478Y-71290564D01*
X113534177Y-71294057D01*
X113572424Y-71324937D01*
X113602728Y-71364082D01*
X113606099Y-71369890D01*
X113624453Y-71415886D01*
X113630571Y-71466175D01*
X113630571Y-71673293D01*
X113630463Y-71680276D01*
X113622713Y-71730154D01*
X113602728Y-71775631D01*
X113599146Y-71781330D01*
X113567783Y-71819577D01*
X113528478Y-71849881D01*
X113522669Y-71853252D01*
X113476674Y-71871606D01*
X113426384Y-71877724D01*
X112855100Y-71877724D01*
X112855100Y-72056999D01*
X113634968Y-72056999D01*
X113632197Y-72071836D01*
X113617331Y-72120883D01*
X113594423Y-72165442D01*
X113590498Y-72171411D01*
X113558019Y-72211310D01*
X113520174Y-72242623D01*
X113474989Y-72264055D01*
X113426384Y-72271200D01*
X112843865Y-72271200D01*
X112836912Y-72271091D01*
X112787195Y-72263341D01*
X112741772Y-72243356D01*
X112736046Y-72239774D01*
X112697911Y-72208411D01*
X112668255Y-72169106D01*
X112664942Y-72163274D01*
X112646910Y-72117525D01*
X112640899Y-72068234D01*
X112640899Y-71662302D01*
X112855100Y-71662302D01*
X113415149Y-71662302D01*
X113415149Y-71477410D01*
X112855100Y-71477410D01*
X112855100Y-71662302D01*
X112640899Y-71662302D01*
X112640899Y-71466175D01*
X112641006Y-71459222D01*
X112648620Y-71409505D01*
X112668255Y-71364082D01*
X112671719Y-71358385D01*
X112702506Y-71320342D01*
X112741772Y-71290564D01*
X112747580Y-71287252D01*
X112793576Y-71269220D01*
X112843865Y-71263209D01*
X113426384Y-71263209D01*
X113433338Y-71263316D01*
G37*
G36*
X118303671Y-73951200D02*
G01*
X118354282Y-73945082D01*
X118401244Y-73926728D01*
X118407230Y-73923356D01*
X118447587Y-73892730D01*
X118479358Y-73853518D01*
X118482945Y-73847641D01*
X118502930Y-73801165D01*
X118510680Y-73751041D01*
X118510789Y-73744082D01*
X118510789Y-73150327D01*
X118504671Y-73098825D01*
X118486317Y-73051938D01*
X118482945Y-73046036D01*
X118452319Y-73006258D01*
X118413107Y-72974852D01*
X118407230Y-72971297D01*
X118360754Y-72951136D01*
X118310630Y-72943319D01*
X118303671Y-72943209D01*
X117711382Y-72943209D01*
X117659880Y-72949381D01*
X117612993Y-72967896D01*
X117607090Y-72971297D01*
X117567151Y-73001587D01*
X117535263Y-73040248D01*
X117531619Y-73046036D01*
X117510932Y-73092307D01*
X117502911Y-73143194D01*
X117502798Y-73150327D01*
X117502798Y-73245582D01*
X117722617Y-73245582D01*
X117722617Y-73161562D01*
X118293901Y-73161562D01*
X118293901Y-73732846D01*
X117722617Y-73732846D01*
X117722617Y-73581660D01*
X117940970Y-73581660D01*
X117940970Y-73363307D01*
X117502798Y-73363307D01*
X117502798Y-73744082D01*
X117509131Y-73794693D01*
X117528129Y-73841655D01*
X117531619Y-73847641D01*
X117562434Y-73887998D01*
X117601300Y-73919768D01*
X117607090Y-73923356D01*
X117653361Y-73943341D01*
X117704248Y-73951091D01*
X117711382Y-73951200D01*
X118303671Y-73951200D01*
G37*
G36*
X117349170Y-73951200D02*
G01*
X117132282Y-73951200D01*
X117132282Y-73620739D01*
X116549763Y-73619518D01*
X116542629Y-73619408D01*
X116491742Y-73611591D01*
X116445471Y-73591430D01*
X116439681Y-73587842D01*
X116400815Y-73556072D01*
X116370000Y-73515715D01*
X116366510Y-73509729D01*
X116347512Y-73462767D01*
X116341179Y-73412156D01*
X116341179Y-73400920D01*
X116560998Y-73400920D01*
X117132282Y-73400920D01*
X117132282Y-73161562D01*
X116560998Y-73161562D01*
X116560998Y-73400920D01*
X116341179Y-73400920D01*
X116341179Y-73151793D01*
X116341292Y-73144834D01*
X116349313Y-73094709D01*
X116370000Y-73048234D01*
X116373644Y-73042358D01*
X116405532Y-73003213D01*
X116445471Y-72972763D01*
X116451374Y-72969361D01*
X116498261Y-72950846D01*
X116549763Y-72944675D01*
X117349170Y-72944675D01*
X117349170Y-73951200D01*
G37*
G36*
X116277188Y-73951200D02*
G01*
X116277188Y-72943209D01*
X116062987Y-72943209D01*
X116062987Y-73951200D01*
X116277188Y-73951200D01*
G37*
G36*
X115745835Y-72943319D02*
G01*
X115795960Y-72951136D01*
X115842435Y-72971297D01*
X115848313Y-72974852D01*
X115887525Y-73006258D01*
X115918151Y-73046036D01*
X115921522Y-73051938D01*
X115939876Y-73098825D01*
X115945994Y-73150327D01*
X115945994Y-73744082D01*
X115945886Y-73751041D01*
X115938136Y-73801165D01*
X115918151Y-73847641D01*
X115914563Y-73853518D01*
X115882793Y-73892730D01*
X115842435Y-73923356D01*
X115836450Y-73926728D01*
X115789488Y-73945082D01*
X115738876Y-73951200D01*
X115145366Y-73951200D01*
X115138381Y-73951091D01*
X115088299Y-73943341D01*
X115042296Y-73923356D01*
X115036506Y-73919768D01*
X114997640Y-73887998D01*
X114966825Y-73847641D01*
X114963335Y-73841655D01*
X114944337Y-73794693D01*
X114938004Y-73744082D01*
X114938004Y-73732846D01*
X115157823Y-73732846D01*
X115729107Y-73732846D01*
X115729107Y-73161562D01*
X115157823Y-73161562D01*
X115157823Y-73732846D01*
X114938004Y-73732846D01*
X114938004Y-73150327D01*
X114938117Y-73143194D01*
X114946138Y-73092307D01*
X114966825Y-73046036D01*
X114970468Y-73040248D01*
X115002357Y-73001587D01*
X115042296Y-72971297D01*
X115048194Y-72967896D01*
X115094741Y-72949381D01*
X115145366Y-72943209D01*
X115738876Y-72943209D01*
X115745835Y-72943319D01*
G37*
G36*
X114585706Y-72943322D02*
G01*
X114635584Y-72951343D01*
X114681061Y-72972030D01*
X114686760Y-72975676D01*
X114725007Y-73007769D01*
X114755311Y-73048234D01*
X114758682Y-73054220D01*
X114777036Y-73101181D01*
X114783154Y-73151793D01*
X114783154Y-73734312D01*
X114783045Y-73741102D01*
X114775296Y-73790872D01*
X114755311Y-73838604D01*
X114751729Y-73844731D01*
X114720366Y-73886183D01*
X114681061Y-73919692D01*
X114675251Y-73923508D01*
X114629187Y-73944277D01*
X114578723Y-73951200D01*
X113997913Y-73951200D01*
X113990931Y-73951076D01*
X113941053Y-73942307D01*
X113895576Y-73919692D01*
X113889877Y-73915683D01*
X113851699Y-73881115D01*
X113821570Y-73838604D01*
X113818169Y-73832357D01*
X113799654Y-73784354D01*
X113793482Y-73734312D01*
X113793482Y-73723077D01*
X114007683Y-73723077D01*
X114454159Y-73723077D01*
X114007683Y-73347920D01*
X114007683Y-73723077D01*
X113793482Y-73723077D01*
X113793482Y-73163028D01*
X114122477Y-73163028D01*
X114568953Y-73538185D01*
X114568953Y-73163028D01*
X114122477Y-73163028D01*
X113793482Y-73163028D01*
X113793482Y-73151793D01*
X113793592Y-73144834D01*
X113801409Y-73094709D01*
X113821570Y-73048234D01*
X113825122Y-73042355D01*
X113856324Y-73003006D01*
X113895576Y-72972030D01*
X113901385Y-72968540D01*
X113947449Y-72949542D01*
X113997913Y-72943209D01*
X114578723Y-72943209D01*
X114585706Y-72943322D01*
G37*
G36*
X113418225Y-72943316D02*
G01*
X113468103Y-72950930D01*
X113513580Y-72970564D01*
X113519280Y-72974057D01*
X113557526Y-73004937D01*
X113587830Y-73044082D01*
X113591201Y-73049890D01*
X113609555Y-73095886D01*
X113615673Y-73146175D01*
X113615673Y-73748234D01*
X113615565Y-73755010D01*
X113607815Y-73803829D01*
X113587830Y-73849106D01*
X113584248Y-73854806D01*
X113552885Y-73893052D01*
X113513580Y-73923356D01*
X113507771Y-73926728D01*
X113461707Y-73945082D01*
X113411242Y-73951200D01*
X112830433Y-73951200D01*
X112823450Y-73951091D01*
X112773572Y-73943341D01*
X112728095Y-73923356D01*
X112722396Y-73919774D01*
X112684218Y-73888411D01*
X112654089Y-73849106D01*
X112650688Y-73843274D01*
X112632173Y-73797525D01*
X112626001Y-73748234D01*
X112626001Y-73736999D01*
X112840202Y-73736999D01*
X113401472Y-73736999D01*
X113401472Y-73547955D01*
X112840202Y-73547955D01*
X112840202Y-73736999D01*
X112626001Y-73736999D01*
X112626001Y-73535498D01*
X112626111Y-73528515D01*
X112633929Y-73478638D01*
X112654089Y-73433160D01*
X112657641Y-73427464D01*
X112688843Y-73389421D01*
X112728095Y-73359643D01*
X112733904Y-73356331D01*
X112779968Y-73338299D01*
X112830433Y-73332288D01*
X113401472Y-73332288D01*
X113401472Y-73157410D01*
X112778653Y-73157410D01*
X112778653Y-72943209D01*
X113411242Y-72943209D01*
X113418225Y-72943316D01*
G37*
G36*
X117691110Y-75631200D02*
G01*
X117741721Y-75625082D01*
X117788683Y-75606728D01*
X117794669Y-75603356D01*
X117835026Y-75572730D01*
X117866797Y-75533518D01*
X117870384Y-75527641D01*
X117890369Y-75481165D01*
X117898119Y-75431041D01*
X117898228Y-75424082D01*
X117898228Y-74830327D01*
X117892110Y-74778825D01*
X117873756Y-74731938D01*
X117870384Y-74726036D01*
X117839758Y-74686258D01*
X117800546Y-74654852D01*
X117794669Y-74651297D01*
X117748193Y-74631136D01*
X117698069Y-74623319D01*
X117691110Y-74623209D01*
X117098821Y-74623209D01*
X117047319Y-74629381D01*
X117000432Y-74647896D01*
X116994529Y-74651297D01*
X116954590Y-74681587D01*
X116922702Y-74720248D01*
X116919058Y-74726036D01*
X116898371Y-74772307D01*
X116890350Y-74823194D01*
X116890237Y-74830327D01*
X116890237Y-74925582D01*
X117110056Y-74925582D01*
X117110056Y-74841562D01*
X117681340Y-74841562D01*
X117681340Y-75412846D01*
X117110056Y-75412846D01*
X117110056Y-75261660D01*
X117328409Y-75261660D01*
X117328409Y-75043307D01*
X116890237Y-75043307D01*
X116890237Y-75424082D01*
X116896570Y-75474693D01*
X116915568Y-75521655D01*
X116919058Y-75527641D01*
X116949873Y-75567998D01*
X116988739Y-75599768D01*
X116994529Y-75603356D01*
X117040800Y-75623341D01*
X117091687Y-75631091D01*
X117098821Y-75631200D01*
X117691110Y-75631200D01*
G37*
G36*
X116736609Y-75631200D02*
G01*
X116519721Y-75631200D01*
X116519721Y-75300739D01*
X115937202Y-75299518D01*
X115930068Y-75299408D01*
X115879181Y-75291591D01*
X115832910Y-75271430D01*
X115827120Y-75267842D01*
X115788254Y-75236072D01*
X115757439Y-75195715D01*
X115753949Y-75189729D01*
X115734951Y-75142767D01*
X115728618Y-75092156D01*
X115728618Y-75080920D01*
X115948437Y-75080920D01*
X116519721Y-75080920D01*
X116519721Y-74841562D01*
X115948437Y-74841562D01*
X115948437Y-75080920D01*
X115728618Y-75080920D01*
X115728618Y-74831793D01*
X115728731Y-74824834D01*
X115736752Y-74774709D01*
X115757439Y-74728234D01*
X115761083Y-74722358D01*
X115792971Y-74683213D01*
X115832910Y-74652763D01*
X115838813Y-74649361D01*
X115885700Y-74630846D01*
X115937202Y-74624675D01*
X116736609Y-74624675D01*
X116736609Y-75631200D01*
G37*
G36*
X115664627Y-75631200D02*
G01*
X115664627Y-74623209D01*
X115450426Y-74623209D01*
X115450426Y-75631200D01*
X115664627Y-75631200D01*
G37*
G36*
X115133274Y-74623319D02*
G01*
X115183399Y-74631136D01*
X115229874Y-74651297D01*
X115235752Y-74654852D01*
X115274964Y-74686258D01*
X115305590Y-74726036D01*
X115308961Y-74731938D01*
X115327315Y-74778825D01*
X115333433Y-74830327D01*
X115333433Y-75424082D01*
X115333325Y-75431041D01*
X115325575Y-75481165D01*
X115305590Y-75527641D01*
X115302002Y-75533518D01*
X115270232Y-75572730D01*
X115229874Y-75603356D01*
X115223889Y-75606728D01*
X115176927Y-75625082D01*
X115126315Y-75631200D01*
X114532805Y-75631200D01*
X114525820Y-75631091D01*
X114475738Y-75623341D01*
X114429735Y-75603356D01*
X114423945Y-75599768D01*
X114385079Y-75567998D01*
X114354264Y-75527641D01*
X114350774Y-75521655D01*
X114331776Y-75474693D01*
X114325443Y-75424082D01*
X114325443Y-75412846D01*
X114545262Y-75412846D01*
X115116546Y-75412846D01*
X115116546Y-74841562D01*
X114545262Y-74841562D01*
X114545262Y-75412846D01*
X114325443Y-75412846D01*
X114325443Y-74830327D01*
X114325556Y-74823194D01*
X114333577Y-74772307D01*
X114354264Y-74726036D01*
X114357907Y-74720248D01*
X114389796Y-74681587D01*
X114429735Y-74651297D01*
X114435633Y-74647896D01*
X114482180Y-74629381D01*
X114532805Y-74623209D01*
X115126315Y-74623209D01*
X115133274Y-74623319D01*
G37*
G36*
X113918779Y-75631200D02*
G01*
X113918779Y-74949518D01*
X113964941Y-75006915D01*
X114248995Y-75006915D01*
X113927083Y-74623209D01*
X113704578Y-74623209D01*
X113704578Y-75631200D01*
X113918779Y-75631200D01*
G37*
G36*
X113424676Y-75631200D02*
G01*
X113475140Y-75625082D01*
X113521204Y-75606728D01*
X113527013Y-75603356D01*
X113566319Y-75573052D01*
X113597682Y-75534806D01*
X113601263Y-75529106D01*
X113621249Y-75483829D01*
X113628998Y-75435010D01*
X113629107Y-75428234D01*
X113629107Y-75349832D01*
X113414906Y-75349832D01*
X113414906Y-75416999D01*
X112853636Y-75416999D01*
X112853636Y-75230885D01*
X113463999Y-75230885D01*
X113463999Y-75016684D01*
X112891249Y-75016684D01*
X112891249Y-74837410D01*
X113414906Y-74837410D01*
X113414906Y-74915812D01*
X113629107Y-74915812D01*
X113629107Y-74826175D01*
X113622989Y-74775886D01*
X113604635Y-74729890D01*
X113601263Y-74724082D01*
X113570959Y-74684937D01*
X113532713Y-74654057D01*
X113527013Y-74650564D01*
X113481536Y-74630930D01*
X113431658Y-74623316D01*
X113424676Y-74623209D01*
X112880258Y-74623209D01*
X112829794Y-74629220D01*
X112783730Y-74647252D01*
X112777920Y-74650564D01*
X112738776Y-74680342D01*
X112707896Y-74718385D01*
X112704403Y-74724082D01*
X112684769Y-74769505D01*
X112677155Y-74819222D01*
X112677048Y-74826175D01*
X112677048Y-75027920D01*
X112679246Y-75060892D01*
X112685597Y-75092156D01*
X112658898Y-75134287D01*
X112652135Y-75150285D01*
X112640439Y-75199450D01*
X112639435Y-75219650D01*
X112639435Y-75428234D01*
X112645445Y-75477525D01*
X112663477Y-75523274D01*
X112666790Y-75529106D01*
X112696446Y-75568411D01*
X112734582Y-75599774D01*
X112740307Y-75603356D01*
X112785731Y-75623341D01*
X112835447Y-75631091D01*
X112842401Y-75631200D01*
X113424676Y-75631200D01*
G37*
G36*
X118303671Y-77311200D02*
G01*
X118354282Y-77305082D01*
X118401244Y-77286728D01*
X118407230Y-77283356D01*
X118447587Y-77252730D01*
X118479358Y-77213518D01*
X118482945Y-77207641D01*
X118502930Y-77161165D01*
X118510680Y-77111041D01*
X118510789Y-77104082D01*
X118510789Y-76510327D01*
X118504671Y-76458825D01*
X118486317Y-76411938D01*
X118482945Y-76406036D01*
X118452319Y-76366258D01*
X118413107Y-76334852D01*
X118407230Y-76331297D01*
X118360754Y-76311136D01*
X118310630Y-76303319D01*
X118303671Y-76303209D01*
X117711382Y-76303209D01*
X117659880Y-76309381D01*
X117612993Y-76327896D01*
X117607090Y-76331297D01*
X117567151Y-76361587D01*
X117535263Y-76400248D01*
X117531619Y-76406036D01*
X117510932Y-76452307D01*
X117502911Y-76503194D01*
X117502798Y-76510327D01*
X117502798Y-76605582D01*
X117722617Y-76605582D01*
X117722617Y-76521562D01*
X118293901Y-76521562D01*
X118293901Y-77092846D01*
X117722617Y-77092846D01*
X117722617Y-76941660D01*
X117940970Y-76941660D01*
X117940970Y-76723307D01*
X117502798Y-76723307D01*
X117502798Y-77104082D01*
X117509131Y-77154693D01*
X117528129Y-77201655D01*
X117531619Y-77207641D01*
X117562434Y-77247998D01*
X117601300Y-77279768D01*
X117607090Y-77283356D01*
X117653361Y-77303341D01*
X117704248Y-77311091D01*
X117711382Y-77311200D01*
X118303671Y-77311200D01*
G37*
G36*
X117349170Y-77311200D02*
G01*
X117132282Y-77311200D01*
X117132282Y-76980739D01*
X116549763Y-76979518D01*
X116542629Y-76979408D01*
X116491742Y-76971591D01*
X116445471Y-76951430D01*
X116439681Y-76947842D01*
X116400815Y-76916072D01*
X116370000Y-76875715D01*
X116366510Y-76869729D01*
X116347512Y-76822767D01*
X116341179Y-76772156D01*
X116341179Y-76760920D01*
X116560998Y-76760920D01*
X117132282Y-76760920D01*
X117132282Y-76521562D01*
X116560998Y-76521562D01*
X116560998Y-76760920D01*
X116341179Y-76760920D01*
X116341179Y-76511793D01*
X116341292Y-76504834D01*
X116349313Y-76454709D01*
X116370000Y-76408234D01*
X116373644Y-76402358D01*
X116405532Y-76363213D01*
X116445471Y-76332763D01*
X116451374Y-76329361D01*
X116498261Y-76310846D01*
X116549763Y-76304675D01*
X117349170Y-76304675D01*
X117349170Y-77311200D01*
G37*
G36*
X116277188Y-77311200D02*
G01*
X116277188Y-76303209D01*
X116062987Y-76303209D01*
X116062987Y-77311200D01*
X116277188Y-77311200D01*
G37*
G36*
X115745835Y-76303319D02*
G01*
X115795960Y-76311136D01*
X115842435Y-76331297D01*
X115848313Y-76334852D01*
X115887525Y-76366258D01*
X115918151Y-76406036D01*
X115921522Y-76411938D01*
X115939876Y-76458825D01*
X115945994Y-76510327D01*
X115945994Y-77104082D01*
X115945886Y-77111041D01*
X115938136Y-77161165D01*
X115918151Y-77207641D01*
X115914563Y-77213518D01*
X115882793Y-77252730D01*
X115842435Y-77283356D01*
X115836450Y-77286728D01*
X115789488Y-77305082D01*
X115738876Y-77311200D01*
X115145366Y-77311200D01*
X115138381Y-77311091D01*
X115088299Y-77303341D01*
X115042296Y-77283356D01*
X115036506Y-77279768D01*
X114997640Y-77247998D01*
X114966825Y-77207641D01*
X114963335Y-77201655D01*
X114944337Y-77154693D01*
X114938004Y-77104082D01*
X114938004Y-77092846D01*
X115157823Y-77092846D01*
X115729107Y-77092846D01*
X115729107Y-76521562D01*
X115157823Y-76521562D01*
X115157823Y-77092846D01*
X114938004Y-77092846D01*
X114938004Y-76510327D01*
X114938117Y-76503194D01*
X114946138Y-76452307D01*
X114966825Y-76406036D01*
X114970468Y-76400248D01*
X115002357Y-76361587D01*
X115042296Y-76331297D01*
X115048194Y-76327896D01*
X115094741Y-76309381D01*
X115145366Y-76303209D01*
X115738876Y-76303209D01*
X115745835Y-76303319D01*
G37*
G36*
X114585706Y-76303322D02*
G01*
X114635584Y-76311343D01*
X114681061Y-76332030D01*
X114686760Y-76335676D01*
X114725007Y-76367769D01*
X114755311Y-76408234D01*
X114758682Y-76414220D01*
X114777036Y-76461181D01*
X114783154Y-76511793D01*
X114783154Y-77094312D01*
X114783045Y-77101102D01*
X114775296Y-77150872D01*
X114755311Y-77198604D01*
X114751729Y-77204731D01*
X114720366Y-77246183D01*
X114681061Y-77279692D01*
X114675251Y-77283508D01*
X114629187Y-77304277D01*
X114578723Y-77311200D01*
X113997913Y-77311200D01*
X113990931Y-77311076D01*
X113941053Y-77302307D01*
X113895576Y-77279692D01*
X113889877Y-77275683D01*
X113851699Y-77241115D01*
X113821570Y-77198604D01*
X113818169Y-77192357D01*
X113799654Y-77144354D01*
X113793482Y-77094312D01*
X113793482Y-77083077D01*
X114007683Y-77083077D01*
X114454159Y-77083077D01*
X114007683Y-76707920D01*
X114007683Y-77083077D01*
X113793482Y-77083077D01*
X113793482Y-76523028D01*
X114122477Y-76523028D01*
X114568953Y-76898185D01*
X114568953Y-76523028D01*
X114122477Y-76523028D01*
X113793482Y-76523028D01*
X113793482Y-76511793D01*
X113793592Y-76504834D01*
X113801409Y-76454709D01*
X113821570Y-76408234D01*
X113825122Y-76402355D01*
X113856324Y-76363006D01*
X113895576Y-76332030D01*
X113901385Y-76328540D01*
X113947449Y-76309542D01*
X113997913Y-76303209D01*
X114578723Y-76303209D01*
X114585706Y-76303322D01*
G37*
G36*
X113418225Y-76303316D02*
G01*
X113468103Y-76310930D01*
X113513580Y-76330564D01*
X113519280Y-76334057D01*
X113557526Y-76364937D01*
X113587830Y-76404082D01*
X113591201Y-76409890D01*
X113609555Y-76455886D01*
X113615673Y-76506175D01*
X113615673Y-77108234D01*
X113615565Y-77115010D01*
X113607815Y-77163829D01*
X113587830Y-77209106D01*
X113584248Y-77214806D01*
X113552885Y-77253052D01*
X113513580Y-77283356D01*
X113507771Y-77286728D01*
X113461707Y-77305082D01*
X113411242Y-77311200D01*
X112830433Y-77311200D01*
X112823450Y-77311091D01*
X112773572Y-77303341D01*
X112728095Y-77283356D01*
X112722396Y-77279774D01*
X112684218Y-77248411D01*
X112654089Y-77209106D01*
X112650688Y-77203274D01*
X112632173Y-77157525D01*
X112626001Y-77108234D01*
X112626001Y-77096999D01*
X112840202Y-77096999D01*
X113401472Y-77096999D01*
X113401472Y-76907955D01*
X112840202Y-76907955D01*
X112840202Y-77096999D01*
X112626001Y-77096999D01*
X112626001Y-76895498D01*
X112626111Y-76888515D01*
X112633929Y-76838638D01*
X112654089Y-76793160D01*
X112657641Y-76787464D01*
X112688843Y-76749421D01*
X112728095Y-76719643D01*
X112733904Y-76716331D01*
X112779968Y-76698299D01*
X112830433Y-76692288D01*
X113401472Y-76692288D01*
X113401472Y-76517410D01*
X112778653Y-76517410D01*
X112778653Y-76303209D01*
X113411242Y-76303209D01*
X113418225Y-76303316D01*
G37*
G36*
X117696971Y-78991200D02*
G01*
X117747582Y-78985082D01*
X117794544Y-78966728D01*
X117800530Y-78963356D01*
X117840887Y-78932730D01*
X117872658Y-78893518D01*
X117876245Y-78887641D01*
X117896230Y-78841165D01*
X117903980Y-78791041D01*
X117904089Y-78784082D01*
X117904089Y-78190327D01*
X117897971Y-78138825D01*
X117879617Y-78091938D01*
X117876245Y-78086036D01*
X117845619Y-78046258D01*
X117806407Y-78014852D01*
X117800530Y-78011297D01*
X117754054Y-77991136D01*
X117703930Y-77983319D01*
X117696971Y-77983209D01*
X117104682Y-77983209D01*
X117053180Y-77989381D01*
X117006293Y-78007896D01*
X117000390Y-78011297D01*
X116960451Y-78041587D01*
X116928563Y-78080248D01*
X116924919Y-78086036D01*
X116904232Y-78132307D01*
X116896211Y-78183194D01*
X116896098Y-78190327D01*
X116896098Y-78285582D01*
X117115917Y-78285582D01*
X117115917Y-78201562D01*
X117687201Y-78201562D01*
X117687201Y-78772846D01*
X117115917Y-78772846D01*
X117115917Y-78621660D01*
X117334270Y-78621660D01*
X117334270Y-78403307D01*
X116896098Y-78403307D01*
X116896098Y-78784082D01*
X116902431Y-78834693D01*
X116921429Y-78881655D01*
X116924919Y-78887641D01*
X116955734Y-78927998D01*
X116994600Y-78959768D01*
X117000390Y-78963356D01*
X117046661Y-78983341D01*
X117097548Y-78991091D01*
X117104682Y-78991200D01*
X117696971Y-78991200D01*
G37*
G36*
X116742470Y-78991200D02*
G01*
X116525582Y-78991200D01*
X116525582Y-78660739D01*
X115943063Y-78659518D01*
X115935929Y-78659408D01*
X115885042Y-78651591D01*
X115838771Y-78631430D01*
X115832981Y-78627842D01*
X115794115Y-78596072D01*
X115763300Y-78555715D01*
X115759810Y-78549729D01*
X115740812Y-78502767D01*
X115734479Y-78452156D01*
X115734479Y-78440920D01*
X115954298Y-78440920D01*
X116525582Y-78440920D01*
X116525582Y-78201562D01*
X115954298Y-78201562D01*
X115954298Y-78440920D01*
X115734479Y-78440920D01*
X115734479Y-78191793D01*
X115734592Y-78184834D01*
X115742613Y-78134709D01*
X115763300Y-78088234D01*
X115766944Y-78082358D01*
X115798832Y-78043213D01*
X115838771Y-78012763D01*
X115844674Y-78009361D01*
X115891561Y-77990846D01*
X115943063Y-77984675D01*
X116742470Y-77984675D01*
X116742470Y-78991200D01*
G37*
G36*
X115670488Y-78991200D02*
G01*
X115670488Y-77983209D01*
X115456287Y-77983209D01*
X115456287Y-78991200D01*
X115670488Y-78991200D01*
G37*
G36*
X115139135Y-77983319D02*
G01*
X115189260Y-77991136D01*
X115235735Y-78011297D01*
X115241613Y-78014852D01*
X115280825Y-78046258D01*
X115311451Y-78086036D01*
X115314822Y-78091938D01*
X115333176Y-78138825D01*
X115339294Y-78190327D01*
X115339294Y-78784082D01*
X115339186Y-78791041D01*
X115331436Y-78841165D01*
X115311451Y-78887641D01*
X115307863Y-78893518D01*
X115276093Y-78932730D01*
X115235735Y-78963356D01*
X115229750Y-78966728D01*
X115182788Y-78985082D01*
X115132176Y-78991200D01*
X114538666Y-78991200D01*
X114531681Y-78991091D01*
X114481599Y-78983341D01*
X114435596Y-78963356D01*
X114429806Y-78959768D01*
X114390940Y-78927998D01*
X114360125Y-78887641D01*
X114356635Y-78881655D01*
X114337637Y-78834693D01*
X114331304Y-78784082D01*
X114331304Y-78772846D01*
X114551123Y-78772846D01*
X115122407Y-78772846D01*
X115122407Y-78201562D01*
X114551123Y-78201562D01*
X114551123Y-78772846D01*
X114331304Y-78772846D01*
X114331304Y-78190327D01*
X114331417Y-78183194D01*
X114339438Y-78132307D01*
X114360125Y-78086036D01*
X114363768Y-78080248D01*
X114395657Y-78041587D01*
X114435596Y-78011297D01*
X114441494Y-78007896D01*
X114488041Y-77989381D01*
X114538666Y-77983209D01*
X115132176Y-77983209D01*
X115139135Y-77983319D01*
G37*
G36*
X113924640Y-78991200D02*
G01*
X113924640Y-78309518D01*
X113970802Y-78366915D01*
X114254856Y-78366915D01*
X113932944Y-77983209D01*
X113710439Y-77983209D01*
X113710439Y-78991200D01*
X113924640Y-78991200D01*
G37*
G36*
X113629350Y-78991200D02*
G01*
X113629350Y-78600655D01*
X113623232Y-78550191D01*
X113604878Y-78504127D01*
X113601507Y-78498317D01*
X113571203Y-78459227D01*
X113532956Y-78428508D01*
X113527257Y-78425045D01*
X113481780Y-78405410D01*
X113431902Y-78397796D01*
X113424919Y-78397689D01*
X112853879Y-78397689D01*
X112853879Y-78197410D01*
X113415149Y-78197410D01*
X113415149Y-78278499D01*
X113629350Y-78278499D01*
X113629350Y-78186175D01*
X113623232Y-78135886D01*
X113604878Y-78089890D01*
X113601507Y-78084082D01*
X113571203Y-78044937D01*
X113532956Y-78014057D01*
X113527257Y-78010564D01*
X113481780Y-77990930D01*
X113431902Y-77983316D01*
X113424919Y-77983209D01*
X112844109Y-77983209D01*
X112793645Y-77989220D01*
X112747581Y-78007252D01*
X112741772Y-78010564D01*
X112702520Y-78040342D01*
X112671318Y-78078385D01*
X112667766Y-78084082D01*
X112647605Y-78129505D01*
X112639788Y-78179222D01*
X112639678Y-78186175D01*
X112639678Y-78408680D01*
X112645850Y-78459145D01*
X112664365Y-78505209D01*
X112667766Y-78511018D01*
X112697895Y-78550324D01*
X112736073Y-78581686D01*
X112741772Y-78585268D01*
X112787249Y-78605253D01*
X112837127Y-78613003D01*
X112844109Y-78613112D01*
X113415149Y-78613112D01*
X113415149Y-78776999D01*
X112639678Y-78776999D01*
X112639678Y-78991200D01*
X113629350Y-78991200D01*
G37*
G36*
X118317348Y-80671200D02*
G01*
X118367959Y-80665082D01*
X118414921Y-80646728D01*
X118420907Y-80643356D01*
X118461264Y-80612730D01*
X118493035Y-80573518D01*
X118496622Y-80567641D01*
X118516607Y-80521165D01*
X118524357Y-80471041D01*
X118524466Y-80464082D01*
X118524466Y-79870327D01*
X118518348Y-79818825D01*
X118499994Y-79771938D01*
X118496622Y-79766036D01*
X118465996Y-79726258D01*
X118426784Y-79694852D01*
X118420907Y-79691297D01*
X118374431Y-79671136D01*
X118324307Y-79663319D01*
X118317348Y-79663209D01*
X117725059Y-79663209D01*
X117673557Y-79669381D01*
X117626670Y-79687896D01*
X117620767Y-79691297D01*
X117580828Y-79721587D01*
X117548940Y-79760248D01*
X117545296Y-79766036D01*
X117524609Y-79812307D01*
X117516588Y-79863194D01*
X117516475Y-79870327D01*
X117516475Y-79965582D01*
X117736294Y-79965582D01*
X117736294Y-79881562D01*
X118307578Y-79881562D01*
X118307578Y-80452846D01*
X117736294Y-80452846D01*
X117736294Y-80301660D01*
X117954647Y-80301660D01*
X117954647Y-80083307D01*
X117516475Y-80083307D01*
X117516475Y-80464082D01*
X117522808Y-80514693D01*
X117541806Y-80561655D01*
X117545296Y-80567641D01*
X117576111Y-80607998D01*
X117614977Y-80639768D01*
X117620767Y-80643356D01*
X117667038Y-80663341D01*
X117717925Y-80671091D01*
X117725059Y-80671200D01*
X118317348Y-80671200D01*
G37*
G36*
X117362847Y-80671200D02*
G01*
X117145959Y-80671200D01*
X117145959Y-80340739D01*
X116563440Y-80339518D01*
X116556306Y-80339408D01*
X116505419Y-80331591D01*
X116459148Y-80311430D01*
X116453358Y-80307842D01*
X116414492Y-80276072D01*
X116383677Y-80235715D01*
X116380187Y-80229729D01*
X116361189Y-80182767D01*
X116354856Y-80132156D01*
X116354856Y-80120920D01*
X116574675Y-80120920D01*
X117145959Y-80120920D01*
X117145959Y-79881562D01*
X116574675Y-79881562D01*
X116574675Y-80120920D01*
X116354856Y-80120920D01*
X116354856Y-79871793D01*
X116354969Y-79864834D01*
X116362990Y-79814709D01*
X116383677Y-79768234D01*
X116387321Y-79762358D01*
X116419209Y-79723213D01*
X116459148Y-79692763D01*
X116465051Y-79689361D01*
X116511938Y-79670846D01*
X116563440Y-79664675D01*
X117362847Y-79664675D01*
X117362847Y-80671200D01*
G37*
G36*
X116290865Y-80671200D02*
G01*
X116290865Y-79663209D01*
X116076664Y-79663209D01*
X116076664Y-80671200D01*
X116290865Y-80671200D01*
G37*
G36*
X115759512Y-79663319D02*
G01*
X115809637Y-79671136D01*
X115856112Y-79691297D01*
X115861990Y-79694852D01*
X115901202Y-79726258D01*
X115931828Y-79766036D01*
X115935199Y-79771938D01*
X115953553Y-79818825D01*
X115959671Y-79870327D01*
X115959671Y-80464082D01*
X115959563Y-80471041D01*
X115951813Y-80521165D01*
X115931828Y-80567641D01*
X115928240Y-80573518D01*
X115896470Y-80612730D01*
X115856112Y-80643356D01*
X115850127Y-80646728D01*
X115803165Y-80665082D01*
X115752553Y-80671200D01*
X115159043Y-80671200D01*
X115152058Y-80671091D01*
X115101976Y-80663341D01*
X115055973Y-80643356D01*
X115050183Y-80639768D01*
X115011317Y-80607998D01*
X114980502Y-80567641D01*
X114977012Y-80561655D01*
X114958014Y-80514693D01*
X114951681Y-80464082D01*
X114951681Y-80452846D01*
X115171500Y-80452846D01*
X115742784Y-80452846D01*
X115742784Y-79881562D01*
X115171500Y-79881562D01*
X115171500Y-80452846D01*
X114951681Y-80452846D01*
X114951681Y-79870327D01*
X114951794Y-79863194D01*
X114959815Y-79812307D01*
X114980502Y-79766036D01*
X114984145Y-79760248D01*
X115016034Y-79721587D01*
X115055973Y-79691297D01*
X115061871Y-79687896D01*
X115108418Y-79669381D01*
X115159043Y-79663209D01*
X115752553Y-79663209D01*
X115759512Y-79663319D01*
G37*
G36*
X114599383Y-79663322D02*
G01*
X114649261Y-79671343D01*
X114694738Y-79692030D01*
X114700437Y-79695676D01*
X114738684Y-79727769D01*
X114768988Y-79768234D01*
X114772359Y-79774220D01*
X114790713Y-79821181D01*
X114796831Y-79871793D01*
X114796831Y-80454312D01*
X114796722Y-80461102D01*
X114788973Y-80510872D01*
X114768988Y-80558604D01*
X114765406Y-80564731D01*
X114734043Y-80606183D01*
X114694738Y-80639692D01*
X114688928Y-80643508D01*
X114642864Y-80664277D01*
X114592400Y-80671200D01*
X114011590Y-80671200D01*
X114004608Y-80671076D01*
X113954730Y-80662307D01*
X113909253Y-80639692D01*
X113903554Y-80635683D01*
X113865376Y-80601115D01*
X113835247Y-80558604D01*
X113831846Y-80552357D01*
X113813331Y-80504354D01*
X113807159Y-80454312D01*
X113807159Y-80443077D01*
X114021360Y-80443077D01*
X114467836Y-80443077D01*
X114021360Y-80067920D01*
X114021360Y-80443077D01*
X113807159Y-80443077D01*
X113807159Y-79883028D01*
X114136154Y-79883028D01*
X114582630Y-80258185D01*
X114582630Y-79883028D01*
X114136154Y-79883028D01*
X113807159Y-79883028D01*
X113807159Y-79871793D01*
X113807269Y-79864834D01*
X113815086Y-79814709D01*
X113835247Y-79768234D01*
X113838799Y-79762355D01*
X113870001Y-79723006D01*
X113909253Y-79692030D01*
X113915062Y-79688540D01*
X113961126Y-79669542D01*
X114011590Y-79663209D01*
X114592400Y-79663209D01*
X114599383Y-79663322D01*
G37*
G36*
X113424919Y-80671200D02*
G01*
X113475384Y-80665082D01*
X113521448Y-80646728D01*
X113527257Y-80643356D01*
X113566562Y-80613052D01*
X113597925Y-80574806D01*
X113601507Y-80569106D01*
X113621492Y-80523829D01*
X113629242Y-80475010D01*
X113629350Y-80468234D01*
X113629350Y-80389832D01*
X113415149Y-80389832D01*
X113415149Y-80456999D01*
X112853879Y-80456999D01*
X112853879Y-80267955D01*
X113629350Y-80267955D01*
X113629350Y-79663209D01*
X112639678Y-79663209D01*
X112639678Y-79877410D01*
X113415149Y-79877410D01*
X113415149Y-80052288D01*
X112844110Y-80052288D01*
X112793645Y-80058299D01*
X112747581Y-80076331D01*
X112741772Y-80079643D01*
X112702520Y-80109421D01*
X112671318Y-80147464D01*
X112667766Y-80153160D01*
X112647606Y-80198638D01*
X112639788Y-80248515D01*
X112639678Y-80255498D01*
X112639678Y-80468234D01*
X112645850Y-80517525D01*
X112664365Y-80563274D01*
X112667766Y-80569106D01*
X112697895Y-80608411D01*
X112736073Y-80639774D01*
X112741772Y-80643356D01*
X112787249Y-80663341D01*
X112837127Y-80671091D01*
X112844110Y-80671200D01*
X113424919Y-80671200D01*
G37*
G36*
X118625826Y-82351200D02*
G01*
X118625826Y-81343209D01*
X118411625Y-81343209D01*
X118411625Y-82351200D01*
X118625826Y-82351200D01*
G37*
G36*
X118289260Y-82351200D02*
G01*
X117489853Y-82351200D01*
X117482719Y-82351091D01*
X117431832Y-82343341D01*
X117385561Y-82323356D01*
X117379771Y-82319768D01*
X117340905Y-82287998D01*
X117310090Y-82247641D01*
X117306600Y-82241655D01*
X117287602Y-82194693D01*
X117281269Y-82144082D01*
X117281269Y-82132846D01*
X117500844Y-82132846D01*
X118073593Y-82132846D01*
X118073593Y-81561562D01*
X117500844Y-81561562D01*
X117500844Y-82132846D01*
X117281269Y-82132846D01*
X117281269Y-81550327D01*
X117281382Y-81543194D01*
X117289403Y-81492307D01*
X117310090Y-81446036D01*
X117313734Y-81440248D01*
X117345622Y-81401587D01*
X117385561Y-81371297D01*
X117391464Y-81367896D01*
X117438351Y-81349381D01*
X117489853Y-81343209D01*
X118289260Y-81343209D01*
X118289260Y-82351200D01*
G37*
G36*
X117127152Y-82568087D02*
G01*
X117127152Y-82353886D01*
X116137480Y-82353886D01*
X116137480Y-82568087D01*
X117127152Y-82568087D01*
G37*
G36*
X115761346Y-82351200D02*
G01*
X115811957Y-82345082D01*
X115858919Y-82326728D01*
X115864905Y-82323356D01*
X115905262Y-82292730D01*
X115937033Y-82253518D01*
X115940620Y-82247641D01*
X115960606Y-82201165D01*
X115968355Y-82151041D01*
X115968464Y-82144082D01*
X115968464Y-82050292D01*
X115751576Y-82050292D01*
X115751576Y-82132846D01*
X115180292Y-82132846D01*
X115180292Y-81956503D01*
X115761346Y-81956503D01*
X115811957Y-81950331D01*
X115858919Y-81931816D01*
X115864905Y-81928415D01*
X115905262Y-81897950D01*
X115937033Y-81859221D01*
X115940620Y-81853433D01*
X115960606Y-81807161D01*
X115968355Y-81756274D01*
X115968464Y-81749141D01*
X115968464Y-81550327D01*
X115962346Y-81498825D01*
X115943992Y-81451938D01*
X115940620Y-81446036D01*
X115909995Y-81406258D01*
X115870782Y-81374852D01*
X115864905Y-81371297D01*
X115818430Y-81351136D01*
X115768305Y-81343319D01*
X115761346Y-81343209D01*
X115167836Y-81343209D01*
X115117211Y-81349381D01*
X115070664Y-81367896D01*
X115064766Y-81371297D01*
X115024827Y-81401587D01*
X114992938Y-81440248D01*
X114989295Y-81446036D01*
X114968608Y-81492307D01*
X114960586Y-81543194D01*
X114960474Y-81550327D01*
X114960474Y-81644116D01*
X115180292Y-81644116D01*
X115180292Y-81561562D01*
X115751576Y-81561562D01*
X115751576Y-81737906D01*
X115167836Y-81737906D01*
X115117211Y-81744077D01*
X115070664Y-81762592D01*
X115064766Y-81765994D01*
X115024827Y-81796458D01*
X114992938Y-81835188D01*
X114989295Y-81840976D01*
X114968608Y-81887248D01*
X114960586Y-81938134D01*
X114960474Y-81945268D01*
X114960474Y-82144082D01*
X114966807Y-82194693D01*
X114985805Y-82241655D01*
X114989295Y-82247641D01*
X115020110Y-82287998D01*
X115058975Y-82319768D01*
X115064766Y-82323356D01*
X115110769Y-82343341D01*
X115160850Y-82351091D01*
X115167836Y-82351200D01*
X115761346Y-82351200D01*
G37*
G36*
X114804403Y-82351200D02*
G01*
X114004996Y-82351200D01*
X113997862Y-82351091D01*
X113946976Y-82343341D01*
X113900704Y-82323356D01*
X113894914Y-82319768D01*
X113856048Y-82287998D01*
X113825233Y-82247641D01*
X113821743Y-82241655D01*
X113802745Y-82194693D01*
X113796412Y-82144082D01*
X113796412Y-82132846D01*
X114015987Y-82132846D01*
X114588736Y-82132846D01*
X114588736Y-81561562D01*
X114015987Y-81561562D01*
X114015987Y-82132846D01*
X113796412Y-82132846D01*
X113796412Y-81550327D01*
X113796525Y-81543194D01*
X113804546Y-81492307D01*
X113825233Y-81446036D01*
X113828877Y-81440248D01*
X113860765Y-81401587D01*
X113900704Y-81371297D01*
X113906607Y-81367896D01*
X113953494Y-81349381D01*
X114004996Y-81343209D01*
X114804403Y-81343209D01*
X114804403Y-82351200D01*
G37*
G36*
X113436519Y-81343319D02*
G01*
X113486643Y-81351136D01*
X113533119Y-81371297D01*
X113538996Y-81374852D01*
X113578208Y-81406258D01*
X113608834Y-81446036D01*
X113612235Y-81451938D01*
X113630750Y-81498825D01*
X113636922Y-81550327D01*
X113636922Y-82351200D01*
X113419790Y-82351200D01*
X113419790Y-82026357D01*
X112848506Y-82026357D01*
X112848506Y-82351200D01*
X112628932Y-82351200D01*
X112628932Y-81808003D01*
X112848506Y-81808003D01*
X113419790Y-81808003D01*
X113419790Y-81561562D01*
X112848506Y-81561562D01*
X112848506Y-81808003D01*
X112628932Y-81808003D01*
X112628932Y-81550327D01*
X112629044Y-81543194D01*
X112637066Y-81492307D01*
X112657752Y-81446036D01*
X112661396Y-81440248D01*
X112693285Y-81401587D01*
X112733223Y-81371297D01*
X112739126Y-81367896D01*
X112786013Y-81349381D01*
X112837515Y-81343209D01*
X113429560Y-81343209D01*
X113436519Y-81343319D01*
G37*
G36*
X118529106Y-84031200D02*
G01*
X118529106Y-83023209D01*
X118314905Y-83023209D01*
X118314905Y-84031200D01*
X118529106Y-84031200D01*
G37*
G36*
X118192540Y-84031200D02*
G01*
X117393133Y-84031200D01*
X117385999Y-84031091D01*
X117335112Y-84023341D01*
X117288841Y-84003356D01*
X117283051Y-83999768D01*
X117244185Y-83967998D01*
X117213370Y-83927641D01*
X117209880Y-83921655D01*
X117190882Y-83874693D01*
X117184549Y-83824082D01*
X117184549Y-83812846D01*
X117404124Y-83812846D01*
X117976873Y-83812846D01*
X117976873Y-83241562D01*
X117404124Y-83241562D01*
X117404124Y-83812846D01*
X117184549Y-83812846D01*
X117184549Y-83230327D01*
X117184662Y-83223194D01*
X117192683Y-83172307D01*
X117213370Y-83126036D01*
X117217014Y-83120248D01*
X117248902Y-83081587D01*
X117288841Y-83051297D01*
X117294744Y-83047896D01*
X117341631Y-83029381D01*
X117393133Y-83023209D01*
X118192540Y-83023209D01*
X118192540Y-84031200D01*
G37*
G36*
X117030432Y-84248087D02*
G01*
X117030432Y-84033886D01*
X116040760Y-84033886D01*
X116040760Y-84248087D01*
X117030432Y-84248087D01*
G37*
G36*
X115664626Y-84031200D02*
G01*
X115715237Y-84025082D01*
X115762199Y-84006728D01*
X115768185Y-84003356D01*
X115808542Y-83972730D01*
X115840313Y-83933518D01*
X115843900Y-83927641D01*
X115863886Y-83881165D01*
X115871635Y-83831041D01*
X115871744Y-83824082D01*
X115871744Y-83730292D01*
X115654856Y-83730292D01*
X115654856Y-83812846D01*
X115083572Y-83812846D01*
X115083572Y-83636503D01*
X115664626Y-83636503D01*
X115715237Y-83630331D01*
X115762199Y-83611816D01*
X115768185Y-83608415D01*
X115808542Y-83577950D01*
X115840313Y-83539221D01*
X115843900Y-83533433D01*
X115863886Y-83487161D01*
X115871635Y-83436274D01*
X115871744Y-83429141D01*
X115871744Y-83230327D01*
X115865626Y-83178825D01*
X115847272Y-83131938D01*
X115843900Y-83126036D01*
X115813275Y-83086258D01*
X115774062Y-83054852D01*
X115768185Y-83051297D01*
X115721710Y-83031136D01*
X115671585Y-83023319D01*
X115664626Y-83023209D01*
X115071116Y-83023209D01*
X115020491Y-83029381D01*
X114973944Y-83047896D01*
X114968046Y-83051297D01*
X114928107Y-83081587D01*
X114896218Y-83120248D01*
X114892575Y-83126036D01*
X114871888Y-83172307D01*
X114863866Y-83223194D01*
X114863754Y-83230327D01*
X114863754Y-83324116D01*
X115083572Y-83324116D01*
X115083572Y-83241562D01*
X115654856Y-83241562D01*
X115654856Y-83417906D01*
X115071116Y-83417906D01*
X115020491Y-83424077D01*
X114973944Y-83442592D01*
X114968046Y-83445994D01*
X114928107Y-83476458D01*
X114896218Y-83515188D01*
X114892575Y-83520976D01*
X114871888Y-83567248D01*
X114863866Y-83618134D01*
X114863754Y-83625268D01*
X114863754Y-83824082D01*
X114870087Y-83874693D01*
X114889085Y-83921655D01*
X114892575Y-83927641D01*
X114923390Y-83967998D01*
X114962255Y-83999768D01*
X114968046Y-84003356D01*
X115014049Y-84023341D01*
X115064130Y-84031091D01*
X115071116Y-84031200D01*
X115664626Y-84031200D01*
G37*
G36*
X114503251Y-84031200D02*
G01*
X114554754Y-84025082D01*
X114601640Y-84006728D01*
X114607543Y-84003356D01*
X114647375Y-83972891D01*
X114678941Y-83934162D01*
X114682526Y-83928373D01*
X114702511Y-83882102D01*
X114710261Y-83831215D01*
X114710369Y-83824082D01*
X114710369Y-83230327D01*
X114704251Y-83178825D01*
X114685897Y-83131938D01*
X114682526Y-83126036D01*
X114652061Y-83086258D01*
X114613331Y-83054852D01*
X114607543Y-83051297D01*
X114561272Y-83031136D01*
X114510385Y-83023319D01*
X114503251Y-83023209D01*
X113705066Y-83023209D01*
X113705066Y-83241562D01*
X114447076Y-83241562D01*
X114481514Y-83252798D01*
X114493482Y-83287724D01*
X114493482Y-83766684D01*
X114481514Y-83800878D01*
X114447076Y-83812846D01*
X113705066Y-83812846D01*
X113705066Y-84031200D01*
X114503251Y-84031200D01*
G37*
G36*
X113558032Y-84031200D02*
G01*
X113558032Y-83021744D01*
X113341144Y-83021744D01*
X113341144Y-83812846D01*
X112550041Y-83812846D01*
X112550041Y-84031200D01*
X113558032Y-84031200D01*
G37*
G36*
X163281215Y-88154119D02*
G01*
X163331339Y-88161936D01*
X163377815Y-88182097D01*
X163383692Y-88185652D01*
X163422904Y-88217058D01*
X163453530Y-88256836D01*
X163456931Y-88262738D01*
X163475446Y-88309625D01*
X163481618Y-88361127D01*
X163481618Y-89162000D01*
X163264486Y-89162000D01*
X163264486Y-88837157D01*
X162693202Y-88837157D01*
X162693202Y-89162000D01*
X162473628Y-89162000D01*
X162473628Y-88618803D01*
X162693202Y-88618803D01*
X163264486Y-88618803D01*
X163264486Y-88372362D01*
X162693202Y-88372362D01*
X162693202Y-88618803D01*
X162473628Y-88618803D01*
X162473628Y-88361127D01*
X162473740Y-88353994D01*
X162481762Y-88303107D01*
X162502448Y-88256836D01*
X162506092Y-88251048D01*
X162537981Y-88212387D01*
X162577919Y-88182097D01*
X162583822Y-88178696D01*
X162630709Y-88160181D01*
X162682211Y-88154009D01*
X163274256Y-88154009D01*
X163281215Y-88154119D01*
G37*
G36*
X162313893Y-89162000D02*
G01*
X162313893Y-88154009D01*
X162089922Y-88154009D01*
X161525721Y-88825921D01*
X161525721Y-88154009D01*
X161305903Y-88154009D01*
X161305903Y-89162000D01*
X161529873Y-89162000D01*
X162097005Y-88487157D01*
X162097005Y-89162000D01*
X162313893Y-89162000D01*
G37*
G36*
X160946253Y-88154119D02*
G01*
X160996378Y-88161936D01*
X161042853Y-88182097D01*
X161048730Y-88185652D01*
X161087943Y-88217058D01*
X161118568Y-88256836D01*
X161121970Y-88262738D01*
X161140485Y-88309625D01*
X161146656Y-88361127D01*
X161146656Y-89162000D01*
X160929524Y-89162000D01*
X160929524Y-88837157D01*
X160358240Y-88837157D01*
X160358240Y-89162000D01*
X160138666Y-89162000D01*
X160138666Y-88618803D01*
X160358240Y-88618803D01*
X160929524Y-88618803D01*
X160929524Y-88372362D01*
X160358240Y-88372362D01*
X160358240Y-88618803D01*
X160138666Y-88618803D01*
X160138666Y-88361127D01*
X160138779Y-88353994D01*
X160146800Y-88303107D01*
X160167487Y-88256836D01*
X160171130Y-88251048D01*
X160203019Y-88212387D01*
X160242958Y-88182097D01*
X160248861Y-88178696D01*
X160295747Y-88160181D01*
X160347249Y-88154009D01*
X160939294Y-88154009D01*
X160946253Y-88154119D01*
G37*
G36*
X159977466Y-89162000D02*
G01*
X159977466Y-88152544D01*
X159760578Y-88152544D01*
X159760578Y-88943646D01*
X158969476Y-88943646D01*
X158969476Y-89162000D01*
X159977466Y-89162000D01*
G37*
G36*
X158691159Y-88154119D02*
G01*
X158741284Y-88161936D01*
X158787759Y-88182097D01*
X158793636Y-88185652D01*
X158832848Y-88217058D01*
X158863474Y-88256836D01*
X158866846Y-88262738D01*
X158885200Y-88309625D01*
X158891318Y-88361127D01*
X158891318Y-88954882D01*
X158891209Y-88961841D01*
X158883460Y-89011965D01*
X158863474Y-89058441D01*
X158859887Y-89064318D01*
X158828116Y-89103530D01*
X158787759Y-89134156D01*
X158781773Y-89137528D01*
X158734811Y-89155882D01*
X158684200Y-89162000D01*
X158090690Y-89162000D01*
X158083704Y-89161891D01*
X158033622Y-89154141D01*
X157987619Y-89134156D01*
X157981829Y-89130568D01*
X157942964Y-89098798D01*
X157912148Y-89058441D01*
X157908658Y-89052455D01*
X157889660Y-89005493D01*
X157883328Y-88954882D01*
X157883328Y-88943646D01*
X158103146Y-88943646D01*
X158674430Y-88943646D01*
X158674430Y-88372362D01*
X158103146Y-88372362D01*
X158103146Y-88943646D01*
X157883328Y-88943646D01*
X157883328Y-88361127D01*
X157883440Y-88353994D01*
X157891462Y-88303107D01*
X157912148Y-88256836D01*
X157915792Y-88251048D01*
X157947681Y-88212387D01*
X157987619Y-88182097D01*
X157993517Y-88178696D01*
X158040064Y-88160181D01*
X158090690Y-88154009D01*
X158684200Y-88154009D01*
X158691159Y-88154119D01*
G37*
G36*
X157522825Y-89162000D02*
G01*
X157573436Y-89155882D01*
X157620398Y-89137528D01*
X157626384Y-89134156D01*
X157666741Y-89103530D01*
X157698512Y-89064318D01*
X157702099Y-89058441D01*
X157722085Y-89011965D01*
X157729834Y-88961841D01*
X157729943Y-88954882D01*
X157729943Y-88361127D01*
X157723825Y-88309625D01*
X157705471Y-88262738D01*
X157702099Y-88256836D01*
X157671474Y-88217058D01*
X157632261Y-88185652D01*
X157626384Y-88182097D01*
X157579909Y-88161936D01*
X157529784Y-88154119D01*
X157522825Y-88154009D01*
X156930536Y-88154009D01*
X156879034Y-88160181D01*
X156832147Y-88178696D01*
X156826245Y-88182097D01*
X156786306Y-88212387D01*
X156754417Y-88251048D01*
X156750773Y-88256836D01*
X156730087Y-88303107D01*
X156722065Y-88353994D01*
X156721953Y-88361127D01*
X156721953Y-88456382D01*
X156941771Y-88456382D01*
X156941771Y-88372362D01*
X157513055Y-88372362D01*
X157513055Y-88943646D01*
X156941771Y-88943646D01*
X156941771Y-88792460D01*
X157160125Y-88792460D01*
X157160125Y-88574107D01*
X156721953Y-88574107D01*
X156721953Y-88954882D01*
X156728286Y-89005493D01*
X156747283Y-89052455D01*
X156750773Y-89058441D01*
X156781589Y-89098798D01*
X156820454Y-89130568D01*
X156826245Y-89134156D01*
X156872516Y-89154141D01*
X156923403Y-89161891D01*
X156930536Y-89162000D01*
X157522825Y-89162000D01*
G37*
G36*
X156152867Y-89162000D02*
G01*
X156152867Y-88154009D01*
X155938666Y-88154009D01*
X155938666Y-89162000D01*
X156152867Y-89162000D01*
G37*
G36*
X155818987Y-89162000D02*
G01*
X155818987Y-88154009D01*
X155595016Y-88154009D01*
X155030815Y-88825921D01*
X155030815Y-88154009D01*
X154810997Y-88154009D01*
X154810997Y-89162000D01*
X155034967Y-89162000D01*
X155602099Y-88487157D01*
X155602099Y-89162000D01*
X155818987Y-89162000D01*
G37*
G36*
X154724535Y-89162000D02*
G01*
X154724535Y-88945112D01*
X154079001Y-88154009D01*
X154002064Y-88154009D01*
X154002064Y-88369676D01*
X154647354Y-89162000D01*
X154724535Y-89162000D01*
G37*
G36*
X153728144Y-88154119D02*
G01*
X153778269Y-88161936D01*
X153824744Y-88182097D01*
X153830621Y-88185652D01*
X153869834Y-88217058D01*
X153900459Y-88256836D01*
X153903831Y-88262738D01*
X153922185Y-88309625D01*
X153928303Y-88361127D01*
X153928303Y-88954882D01*
X153928194Y-88961841D01*
X153920445Y-89011965D01*
X153900459Y-89058441D01*
X153896872Y-89064318D01*
X153865101Y-89103530D01*
X153824744Y-89134156D01*
X153818758Y-89137528D01*
X153771796Y-89155882D01*
X153721185Y-89162000D01*
X153127675Y-89162000D01*
X153120689Y-89161891D01*
X153070608Y-89154141D01*
X153024605Y-89134156D01*
X153018814Y-89130568D01*
X152979949Y-89098798D01*
X152949134Y-89058441D01*
X152945644Y-89052455D01*
X152926646Y-89005493D01*
X152920313Y-88954882D01*
X152920313Y-88943646D01*
X153140131Y-88943646D01*
X153711416Y-88943646D01*
X153711416Y-88372362D01*
X153140131Y-88372362D01*
X153140131Y-88943646D01*
X152920313Y-88943646D01*
X152920313Y-88361127D01*
X152920426Y-88353994D01*
X152928447Y-88303107D01*
X152949134Y-88256836D01*
X152952777Y-88251048D01*
X152984666Y-88212387D01*
X153024605Y-88182097D01*
X153030503Y-88178696D01*
X153077050Y-88160181D01*
X153127675Y-88154009D01*
X153721185Y-88154009D01*
X153728144Y-88154119D01*
G37*
G36*
X152562497Y-89162000D02*
G01*
X152613108Y-89155882D01*
X152660070Y-89137528D01*
X152666056Y-89134156D01*
X152706413Y-89103530D01*
X152738184Y-89064318D01*
X152741771Y-89058441D01*
X152761757Y-89011965D01*
X152769506Y-88961841D01*
X152769615Y-88954882D01*
X152769615Y-88154009D01*
X152552727Y-88154009D01*
X152552727Y-88943646D01*
X151981443Y-88943646D01*
X151981443Y-88154009D01*
X151761625Y-88154009D01*
X151761625Y-88954882D01*
X151767958Y-89005493D01*
X151786956Y-89052455D01*
X151790446Y-89058441D01*
X151821261Y-89098798D01*
X151860126Y-89130568D01*
X151865917Y-89134156D01*
X151911920Y-89154141D01*
X151962001Y-89161891D01*
X151968987Y-89162000D01*
X152562497Y-89162000D01*
G37*
G36*
X151263858Y-89162000D02*
G01*
X151263858Y-88372362D01*
X151658554Y-88372362D01*
X151658554Y-88154009D01*
X150650564Y-88154009D01*
X150650564Y-88372362D01*
X151045505Y-88372362D01*
X151045505Y-89162000D01*
X151263858Y-89162000D01*
G37*
G36*
X150095889Y-89162000D02*
G01*
X149879001Y-89162000D01*
X149879001Y-88831539D01*
X149591269Y-88830935D01*
X149313335Y-89162000D01*
X149089364Y-89162000D01*
X149089364Y-89087750D01*
X149307347Y-88830340D01*
X149296482Y-88830318D01*
X149289348Y-88830208D01*
X149238461Y-88822391D01*
X149192190Y-88802230D01*
X149186400Y-88798642D01*
X149147534Y-88766872D01*
X149116719Y-88726515D01*
X149113229Y-88720529D01*
X149094231Y-88673567D01*
X149087898Y-88622956D01*
X149087898Y-88611720D01*
X149307717Y-88611720D01*
X149879001Y-88611720D01*
X149879001Y-88372362D01*
X149307717Y-88372362D01*
X149307717Y-88611720D01*
X149087898Y-88611720D01*
X149087898Y-88362593D01*
X149088011Y-88355634D01*
X149096032Y-88305509D01*
X149116719Y-88259034D01*
X149120363Y-88253158D01*
X149152251Y-88214013D01*
X149192190Y-88183563D01*
X149198093Y-88180161D01*
X149244980Y-88161646D01*
X149296482Y-88155475D01*
X150095889Y-88155475D01*
X150095889Y-89162000D01*
G37*
G36*
X148738019Y-88154119D02*
G01*
X148788143Y-88161936D01*
X148834619Y-88182097D01*
X148840496Y-88185652D01*
X148879708Y-88217058D01*
X148910334Y-88256836D01*
X148913735Y-88262738D01*
X148932250Y-88309625D01*
X148938422Y-88361127D01*
X148938422Y-89162000D01*
X148721290Y-89162000D01*
X148721290Y-88837157D01*
X148150006Y-88837157D01*
X148150006Y-89162000D01*
X147930432Y-89162000D01*
X147930432Y-88618803D01*
X148150006Y-88618803D01*
X148721290Y-88618803D01*
X148721290Y-88372362D01*
X148150006Y-88372362D01*
X148150006Y-88618803D01*
X147930432Y-88618803D01*
X147930432Y-88361127D01*
X147930544Y-88353994D01*
X147938566Y-88303107D01*
X147959252Y-88256836D01*
X147962896Y-88251048D01*
X147994785Y-88212387D01*
X148034723Y-88182097D01*
X148040626Y-88178696D01*
X148087513Y-88160181D01*
X148139015Y-88154009D01*
X148731060Y-88154009D01*
X148738019Y-88154119D01*
G37*
G36*
X147770697Y-89162000D02*
G01*
X147770697Y-88154009D01*
X147546726Y-88154009D01*
X146982525Y-88825921D01*
X146982525Y-88154009D01*
X146762707Y-88154009D01*
X146762707Y-89162000D01*
X146986677Y-89162000D01*
X147553809Y-88487157D01*
X147553809Y-89162000D01*
X147770697Y-89162000D01*
G37*
G36*
X146399029Y-89162000D02*
G01*
X146449640Y-89155882D01*
X146496602Y-89137528D01*
X146502588Y-89134156D01*
X146542945Y-89103530D01*
X146574716Y-89064318D01*
X146578303Y-89058441D01*
X146598289Y-89011965D01*
X146606038Y-88961841D01*
X146606147Y-88954882D01*
X146606147Y-88361127D01*
X146600029Y-88309625D01*
X146581675Y-88262738D01*
X146578303Y-88256836D01*
X146547677Y-88217058D01*
X146508465Y-88185652D01*
X146502588Y-88182097D01*
X146456113Y-88161936D01*
X146405988Y-88154119D01*
X146399029Y-88154009D01*
X145806740Y-88154009D01*
X145755238Y-88160181D01*
X145708351Y-88178696D01*
X145702448Y-88182097D01*
X145662510Y-88212387D01*
X145630621Y-88251048D01*
X145626977Y-88256836D01*
X145606291Y-88303107D01*
X145598269Y-88353994D01*
X145598157Y-88361127D01*
X145598157Y-88456382D01*
X145817975Y-88456382D01*
X145817975Y-88372362D01*
X146389259Y-88372362D01*
X146389259Y-88943646D01*
X145817975Y-88943646D01*
X145817975Y-88792460D01*
X146036328Y-88792460D01*
X146036328Y-88574107D01*
X145598157Y-88574107D01*
X145598157Y-88954882D01*
X145604489Y-89005493D01*
X145623487Y-89052455D01*
X145626977Y-89058441D01*
X145657793Y-89098798D01*
X145696658Y-89130568D01*
X145702448Y-89134156D01*
X145748720Y-89154141D01*
X145799606Y-89161891D01*
X145806740Y-89162000D01*
X146399029Y-89162000D01*
G37*
G36*
X145441841Y-89162000D02*
G01*
X145441841Y-88154009D01*
X144510787Y-88154009D01*
X144510787Y-88372362D01*
X145222023Y-88372362D01*
X145222023Y-88548706D01*
X144649273Y-88548706D01*
X144649273Y-88767303D01*
X145222023Y-88767303D01*
X145222023Y-88943646D01*
X144510787Y-88943646D01*
X144510787Y-89162000D01*
X145441841Y-89162000D01*
G37*
G36*
X143794912Y-89041588D02*
G01*
X143794912Y-88855475D01*
X143977117Y-88855475D01*
X143977117Y-88641274D01*
X143794912Y-88641274D01*
X143794912Y-88457847D01*
X143580711Y-88457847D01*
X143580711Y-88641274D01*
X143393132Y-88641274D01*
X143393132Y-88855475D01*
X143580711Y-88855475D01*
X143580711Y-89041588D01*
X143794912Y-89041588D01*
G37*
G36*
X143281269Y-88855475D02*
G01*
X143281269Y-88641274D01*
X142697529Y-88641274D01*
X142697529Y-88855475D01*
X143281269Y-88855475D01*
G37*
G36*
X142362183Y-89162000D02*
G01*
X142412648Y-89155882D01*
X142458712Y-89137528D01*
X142464521Y-89134156D01*
X142503826Y-89103852D01*
X142535189Y-89065606D01*
X142538771Y-89059906D01*
X142558756Y-89014629D01*
X142566506Y-88965810D01*
X142566614Y-88959034D01*
X142566614Y-88880632D01*
X142352413Y-88880632D01*
X142352413Y-88947799D01*
X141791143Y-88947799D01*
X141791143Y-88761685D01*
X142401506Y-88761685D01*
X142401506Y-88547484D01*
X141828757Y-88547484D01*
X141828757Y-88368210D01*
X142352413Y-88368210D01*
X142352413Y-88446612D01*
X142566614Y-88446612D01*
X142566614Y-88356975D01*
X142560496Y-88306686D01*
X142542142Y-88260690D01*
X142538771Y-88254882D01*
X142508467Y-88215737D01*
X142470221Y-88184857D01*
X142464521Y-88181364D01*
X142419044Y-88161730D01*
X142369166Y-88154116D01*
X142362183Y-88154009D01*
X141817766Y-88154009D01*
X141767301Y-88160020D01*
X141721237Y-88178052D01*
X141715428Y-88181364D01*
X141676284Y-88211142D01*
X141645404Y-88249185D01*
X141641911Y-88254882D01*
X141622276Y-88300305D01*
X141614663Y-88350022D01*
X141614556Y-88356975D01*
X141614556Y-88558720D01*
X141616754Y-88591692D01*
X141623104Y-88622956D01*
X141596405Y-88665087D01*
X141589643Y-88681085D01*
X141577947Y-88730250D01*
X141576942Y-88750450D01*
X141576942Y-88959034D01*
X141582953Y-89008325D01*
X141600985Y-89054074D01*
X141604298Y-89059906D01*
X141633954Y-89099211D01*
X141672089Y-89130574D01*
X141677815Y-89134156D01*
X141723238Y-89154141D01*
X141772955Y-89161891D01*
X141779908Y-89162000D01*
X142362183Y-89162000D01*
G37*
G36*
X140852274Y-89162000D02*
G01*
X141436014Y-88154009D01*
X141184200Y-88154009D01*
X140761416Y-88886249D01*
X140338387Y-88154009D01*
X140087794Y-88154009D01*
X140671778Y-89162000D01*
X140852274Y-89162000D01*
G37*
G36*
X111450511Y-58831200D02*
G01*
X110651104Y-58831200D01*
X110643970Y-58831091D01*
X110593084Y-58823341D01*
X110546812Y-58803356D01*
X110541022Y-58799768D01*
X110502157Y-58767998D01*
X110471341Y-58727641D01*
X110467851Y-58721655D01*
X110448853Y-58674693D01*
X110442521Y-58624082D01*
X110442521Y-58612846D01*
X110662095Y-58612846D01*
X111234844Y-58612846D01*
X111234844Y-58041562D01*
X110662095Y-58041562D01*
X110662095Y-58612846D01*
X110442521Y-58612846D01*
X110442521Y-58030327D01*
X110442633Y-58023194D01*
X110450655Y-57972307D01*
X110471341Y-57926036D01*
X110474985Y-57920248D01*
X110506874Y-57881587D01*
X110546812Y-57851297D01*
X110552715Y-57847896D01*
X110599602Y-57829381D01*
X110651104Y-57823209D01*
X111450511Y-57823209D01*
X111450511Y-58831200D01*
G37*
G36*
X110088244Y-57823319D02*
G01*
X110138369Y-57831136D01*
X110184844Y-57851297D01*
X110190722Y-57854852D01*
X110229934Y-57886258D01*
X110260560Y-57926036D01*
X110263931Y-57931938D01*
X110282285Y-57978825D01*
X110288403Y-58030327D01*
X110288403Y-58624082D01*
X110288295Y-58631041D01*
X110280545Y-58681165D01*
X110260560Y-58727641D01*
X110256972Y-58733518D01*
X110225202Y-58772730D01*
X110184844Y-58803356D01*
X110178859Y-58806728D01*
X110131897Y-58825082D01*
X110081285Y-58831200D01*
X109487775Y-58831200D01*
X109480790Y-58831091D01*
X109430708Y-58823341D01*
X109384705Y-58803356D01*
X109378915Y-58799768D01*
X109340049Y-58767998D01*
X109309234Y-58727641D01*
X109305744Y-58721655D01*
X109286746Y-58674693D01*
X109280413Y-58624082D01*
X109280413Y-58612846D01*
X109500232Y-58612846D01*
X110071516Y-58612846D01*
X110071516Y-58041562D01*
X109500232Y-58041562D01*
X109500232Y-58612846D01*
X109280413Y-58612846D01*
X109280413Y-58030327D01*
X109280526Y-58023194D01*
X109288547Y-57972307D01*
X109309234Y-57926036D01*
X109312877Y-57920248D01*
X109344766Y-57881587D01*
X109384705Y-57851297D01*
X109390603Y-57847896D01*
X109437150Y-57829381D01*
X109487775Y-57823209D01*
X110081285Y-57823209D01*
X110088244Y-57823319D01*
G37*
G36*
X108928115Y-57823322D02*
G01*
X108977993Y-57831343D01*
X109023470Y-57852030D01*
X109029169Y-57855676D01*
X109067416Y-57887769D01*
X109097720Y-57928234D01*
X109101091Y-57934220D01*
X109119445Y-57981181D01*
X109125563Y-58031793D01*
X109125563Y-58614312D01*
X109125454Y-58621102D01*
X109117705Y-58670872D01*
X109097720Y-58718604D01*
X109094138Y-58724731D01*
X109062775Y-58766183D01*
X109023470Y-58799692D01*
X109017660Y-58803508D01*
X108971596Y-58824277D01*
X108921132Y-58831200D01*
X108340322Y-58831200D01*
X108333340Y-58831076D01*
X108283462Y-58822307D01*
X108237985Y-58799692D01*
X108232286Y-58795683D01*
X108194108Y-58761115D01*
X108163979Y-58718604D01*
X108160578Y-58712357D01*
X108142063Y-58664354D01*
X108135891Y-58614312D01*
X108135891Y-58603077D01*
X108350092Y-58603077D01*
X108796568Y-58603077D01*
X108350092Y-58227920D01*
X108350092Y-58603077D01*
X108135891Y-58603077D01*
X108135891Y-58043028D01*
X108464886Y-58043028D01*
X108911362Y-58418185D01*
X108911362Y-58043028D01*
X108464886Y-58043028D01*
X108135891Y-58043028D01*
X108135891Y-58031793D01*
X108136001Y-58024834D01*
X108143818Y-57974709D01*
X108163979Y-57928234D01*
X108167531Y-57922355D01*
X108198733Y-57883006D01*
X108237985Y-57852030D01*
X108243794Y-57848540D01*
X108289858Y-57829542D01*
X108340322Y-57823209D01*
X108921132Y-57823209D01*
X108928115Y-57823322D01*
G37*
G36*
X111450511Y-60511200D02*
G01*
X110651104Y-60511200D01*
X110643970Y-60511091D01*
X110593084Y-60503341D01*
X110546812Y-60483356D01*
X110541022Y-60479768D01*
X110502157Y-60447998D01*
X110471341Y-60407641D01*
X110467851Y-60401655D01*
X110448853Y-60354693D01*
X110442521Y-60304082D01*
X110442521Y-60292846D01*
X110662095Y-60292846D01*
X111234844Y-60292846D01*
X111234844Y-59721562D01*
X110662095Y-59721562D01*
X110662095Y-60292846D01*
X110442521Y-60292846D01*
X110442521Y-59710327D01*
X110442633Y-59703194D01*
X110450655Y-59652307D01*
X110471341Y-59606036D01*
X110474985Y-59600248D01*
X110506874Y-59561587D01*
X110546812Y-59531297D01*
X110552715Y-59527896D01*
X110599602Y-59509381D01*
X110651104Y-59503209D01*
X111450511Y-59503209D01*
X111450511Y-60511200D01*
G37*
G36*
X110088244Y-59503319D02*
G01*
X110138369Y-59511136D01*
X110184844Y-59531297D01*
X110190722Y-59534852D01*
X110229934Y-59566258D01*
X110260560Y-59606036D01*
X110263931Y-59611938D01*
X110282285Y-59658825D01*
X110288403Y-59710327D01*
X110288403Y-60304082D01*
X110288295Y-60311041D01*
X110280545Y-60361165D01*
X110260560Y-60407641D01*
X110256972Y-60413518D01*
X110225202Y-60452730D01*
X110184844Y-60483356D01*
X110178859Y-60486728D01*
X110131897Y-60505082D01*
X110081285Y-60511200D01*
X109487775Y-60511200D01*
X109480790Y-60511091D01*
X109430708Y-60503341D01*
X109384705Y-60483356D01*
X109378915Y-60479768D01*
X109340049Y-60447998D01*
X109309234Y-60407641D01*
X109305744Y-60401655D01*
X109286746Y-60354693D01*
X109280413Y-60304082D01*
X109280413Y-60292846D01*
X109500232Y-60292846D01*
X110071516Y-60292846D01*
X110071516Y-59721562D01*
X109500232Y-59721562D01*
X109500232Y-60292846D01*
X109280413Y-60292846D01*
X109280413Y-59710327D01*
X109280526Y-59703194D01*
X109288547Y-59652307D01*
X109309234Y-59606036D01*
X109312877Y-59600248D01*
X109344766Y-59561587D01*
X109384705Y-59531297D01*
X109390603Y-59527896D01*
X109437150Y-59509381D01*
X109487775Y-59503209D01*
X110081285Y-59503209D01*
X110088244Y-59503319D01*
G37*
G36*
X108873749Y-60511200D02*
G01*
X108873749Y-59829518D01*
X108919911Y-59886915D01*
X109203965Y-59886915D01*
X108882053Y-59503209D01*
X108659548Y-59503209D01*
X108659548Y-60511200D01*
X108873749Y-60511200D01*
G37*
G36*
X111450511Y-62191200D02*
G01*
X110651104Y-62191200D01*
X110643970Y-62191091D01*
X110593084Y-62183341D01*
X110546812Y-62163356D01*
X110541022Y-62159768D01*
X110502157Y-62127998D01*
X110471341Y-62087641D01*
X110467851Y-62081655D01*
X110448853Y-62034693D01*
X110442521Y-61984082D01*
X110442521Y-61972846D01*
X110662095Y-61972846D01*
X111234844Y-61972846D01*
X111234844Y-61401562D01*
X110662095Y-61401562D01*
X110662095Y-61972846D01*
X110442521Y-61972846D01*
X110442521Y-61390327D01*
X110442633Y-61383194D01*
X110450655Y-61332307D01*
X110471341Y-61286036D01*
X110474985Y-61280248D01*
X110506874Y-61241587D01*
X110546812Y-61211297D01*
X110552715Y-61207896D01*
X110599602Y-61189381D01*
X110651104Y-61183209D01*
X111450511Y-61183209D01*
X111450511Y-62191200D01*
G37*
G36*
X110088244Y-61183319D02*
G01*
X110138369Y-61191136D01*
X110184844Y-61211297D01*
X110190722Y-61214852D01*
X110229934Y-61246258D01*
X110260560Y-61286036D01*
X110263931Y-61291938D01*
X110282285Y-61338825D01*
X110288403Y-61390327D01*
X110288403Y-61984082D01*
X110288295Y-61991041D01*
X110280545Y-62041165D01*
X110260560Y-62087641D01*
X110256972Y-62093518D01*
X110225202Y-62132730D01*
X110184844Y-62163356D01*
X110178859Y-62166728D01*
X110131897Y-62185082D01*
X110081285Y-62191200D01*
X109487775Y-62191200D01*
X109480790Y-62191091D01*
X109430708Y-62183341D01*
X109384705Y-62163356D01*
X109378915Y-62159768D01*
X109340049Y-62127998D01*
X109309234Y-62087641D01*
X109305744Y-62081655D01*
X109286746Y-62034693D01*
X109280413Y-61984082D01*
X109280413Y-61972846D01*
X109500232Y-61972846D01*
X110071516Y-61972846D01*
X110071516Y-61401562D01*
X109500232Y-61401562D01*
X109500232Y-61972846D01*
X109280413Y-61972846D01*
X109280413Y-61390327D01*
X109280526Y-61383194D01*
X109288547Y-61332307D01*
X109309234Y-61286036D01*
X109312877Y-61280248D01*
X109344766Y-61241587D01*
X109384705Y-61211297D01*
X109390603Y-61207896D01*
X109437150Y-61189381D01*
X109487775Y-61183209D01*
X110081285Y-61183209D01*
X110088244Y-61183319D01*
G37*
G36*
X109125563Y-62191200D02*
G01*
X109125563Y-61800655D01*
X109119445Y-61750191D01*
X109101091Y-61704127D01*
X109097720Y-61698317D01*
X109067416Y-61659227D01*
X109029169Y-61628508D01*
X109023470Y-61625045D01*
X108977993Y-61605410D01*
X108928115Y-61597796D01*
X108921132Y-61597689D01*
X108350092Y-61597689D01*
X108350092Y-61397410D01*
X108911362Y-61397410D01*
X108911362Y-61478499D01*
X109125563Y-61478499D01*
X109125563Y-61386175D01*
X109119445Y-61335886D01*
X109101091Y-61289890D01*
X109097720Y-61284082D01*
X109067416Y-61244937D01*
X109029169Y-61214057D01*
X109023470Y-61210564D01*
X108977993Y-61190930D01*
X108928115Y-61183316D01*
X108921132Y-61183209D01*
X108340322Y-61183209D01*
X108289858Y-61189220D01*
X108243794Y-61207252D01*
X108237985Y-61210564D01*
X108198733Y-61240342D01*
X108167531Y-61278385D01*
X108163979Y-61284082D01*
X108143818Y-61329505D01*
X108136001Y-61379222D01*
X108135891Y-61386175D01*
X108135891Y-61608680D01*
X108142063Y-61659145D01*
X108160578Y-61705209D01*
X108163979Y-61711018D01*
X108194108Y-61750324D01*
X108232286Y-61781686D01*
X108237985Y-61785268D01*
X108283462Y-61805253D01*
X108333340Y-61813003D01*
X108340322Y-61813112D01*
X108911362Y-61813112D01*
X108911362Y-61976999D01*
X108135891Y-61976999D01*
X108135891Y-62191200D01*
X109125563Y-62191200D01*
G37*
G36*
X111450511Y-63871200D02*
G01*
X110651104Y-63871200D01*
X110643970Y-63871091D01*
X110593084Y-63863341D01*
X110546812Y-63843356D01*
X110541022Y-63839768D01*
X110502157Y-63807998D01*
X110471341Y-63767641D01*
X110467851Y-63761655D01*
X110448853Y-63714693D01*
X110442521Y-63664082D01*
X110442521Y-63652846D01*
X110662095Y-63652846D01*
X111234844Y-63652846D01*
X111234844Y-63081562D01*
X110662095Y-63081562D01*
X110662095Y-63652846D01*
X110442521Y-63652846D01*
X110442521Y-63070327D01*
X110442633Y-63063194D01*
X110450655Y-63012307D01*
X110471341Y-62966036D01*
X110474985Y-62960248D01*
X110506874Y-62921587D01*
X110546812Y-62891297D01*
X110552715Y-62887896D01*
X110599602Y-62869381D01*
X110651104Y-62863209D01*
X111450511Y-62863209D01*
X111450511Y-63871200D01*
G37*
G36*
X110088244Y-62863319D02*
G01*
X110138369Y-62871136D01*
X110184844Y-62891297D01*
X110190722Y-62894852D01*
X110229934Y-62926258D01*
X110260560Y-62966036D01*
X110263931Y-62971938D01*
X110282285Y-63018825D01*
X110288403Y-63070327D01*
X110288403Y-63664082D01*
X110288295Y-63671041D01*
X110280545Y-63721165D01*
X110260560Y-63767641D01*
X110256972Y-63773518D01*
X110225202Y-63812730D01*
X110184844Y-63843356D01*
X110178859Y-63846728D01*
X110131897Y-63865082D01*
X110081285Y-63871200D01*
X109487775Y-63871200D01*
X109480790Y-63871091D01*
X109430708Y-63863341D01*
X109384705Y-63843356D01*
X109378915Y-63839768D01*
X109340049Y-63807998D01*
X109309234Y-63767641D01*
X109305744Y-63761655D01*
X109286746Y-63714693D01*
X109280413Y-63664082D01*
X109280413Y-63652846D01*
X109500232Y-63652846D01*
X110071516Y-63652846D01*
X110071516Y-63081562D01*
X109500232Y-63081562D01*
X109500232Y-63652846D01*
X109280413Y-63652846D01*
X109280413Y-63070327D01*
X109280526Y-63063194D01*
X109288547Y-63012307D01*
X109309234Y-62966036D01*
X109312877Y-62960248D01*
X109344766Y-62921587D01*
X109384705Y-62891297D01*
X109390603Y-62887896D01*
X109437150Y-62869381D01*
X109487775Y-62863209D01*
X110081285Y-62863209D01*
X110088244Y-62863319D01*
G37*
G36*
X108926750Y-63871200D02*
G01*
X108977214Y-63865082D01*
X109023278Y-63846728D01*
X109029087Y-63843356D01*
X109068393Y-63813052D01*
X109099756Y-63774806D01*
X109103337Y-63769106D01*
X109123323Y-63723829D01*
X109131072Y-63675010D01*
X109131181Y-63668234D01*
X109131181Y-63589832D01*
X108916980Y-63589832D01*
X108916980Y-63656999D01*
X108355710Y-63656999D01*
X108355710Y-63470885D01*
X108966073Y-63470885D01*
X108966073Y-63256684D01*
X108393323Y-63256684D01*
X108393323Y-63077410D01*
X108916980Y-63077410D01*
X108916980Y-63155812D01*
X109131181Y-63155812D01*
X109131181Y-63066175D01*
X109125063Y-63015886D01*
X109106709Y-62969890D01*
X109103337Y-62964082D01*
X109073033Y-62924937D01*
X109034787Y-62894057D01*
X109029087Y-62890564D01*
X108983610Y-62870930D01*
X108933732Y-62863316D01*
X108926750Y-62863209D01*
X108382332Y-62863209D01*
X108331868Y-62869220D01*
X108285804Y-62887252D01*
X108279994Y-62890564D01*
X108240850Y-62920342D01*
X108209970Y-62958385D01*
X108206477Y-62964082D01*
X108186843Y-63009505D01*
X108179229Y-63059222D01*
X108179122Y-63066175D01*
X108179122Y-63267920D01*
X108181320Y-63300892D01*
X108187671Y-63332156D01*
X108160972Y-63374287D01*
X108154209Y-63390285D01*
X108142513Y-63439450D01*
X108141509Y-63459650D01*
X108141509Y-63668234D01*
X108147519Y-63717525D01*
X108165551Y-63763274D01*
X108168864Y-63769106D01*
X108198520Y-63808411D01*
X108236656Y-63839774D01*
X108242381Y-63843356D01*
X108287805Y-63863341D01*
X108337521Y-63871091D01*
X108344475Y-63871200D01*
X108926750Y-63871200D01*
G37*
G36*
X111450511Y-65551200D02*
G01*
X110651104Y-65551200D01*
X110643970Y-65551091D01*
X110593084Y-65543341D01*
X110546812Y-65523356D01*
X110541022Y-65519768D01*
X110502157Y-65487998D01*
X110471341Y-65447641D01*
X110467851Y-65441655D01*
X110448853Y-65394693D01*
X110442521Y-65344082D01*
X110442521Y-65332846D01*
X110662095Y-65332846D01*
X111234844Y-65332846D01*
X111234844Y-64761562D01*
X110662095Y-64761562D01*
X110662095Y-65332846D01*
X110442521Y-65332846D01*
X110442521Y-64750327D01*
X110442633Y-64743194D01*
X110450655Y-64692307D01*
X110471341Y-64646036D01*
X110474985Y-64640248D01*
X110506874Y-64601587D01*
X110546812Y-64571297D01*
X110552715Y-64567896D01*
X110599602Y-64549381D01*
X110651104Y-64543209D01*
X111450511Y-64543209D01*
X111450511Y-65551200D01*
G37*
G36*
X110082627Y-64543319D02*
G01*
X110132752Y-64551136D01*
X110179227Y-64571297D01*
X110185104Y-64574852D01*
X110224316Y-64606258D01*
X110254942Y-64646036D01*
X110258343Y-64651938D01*
X110276858Y-64698825D01*
X110283030Y-64750327D01*
X110283030Y-65551200D01*
X110065898Y-65551200D01*
X110065898Y-65226357D01*
X109494614Y-65226357D01*
X109494614Y-65551200D01*
X109275040Y-65551200D01*
X109275040Y-65008003D01*
X109494614Y-65008003D01*
X110065898Y-65008003D01*
X110065898Y-64761562D01*
X109494614Y-64761562D01*
X109494614Y-65008003D01*
X109275040Y-65008003D01*
X109275040Y-64750327D01*
X109275152Y-64743194D01*
X109283174Y-64692307D01*
X109303860Y-64646036D01*
X109307504Y-64640248D01*
X109339393Y-64601587D01*
X109379332Y-64571297D01*
X109385234Y-64567896D01*
X109432121Y-64549381D01*
X109483623Y-64543209D01*
X110075668Y-64543209D01*
X110082627Y-64543319D01*
G37*
G36*
X108908187Y-65551200D02*
G01*
X108959689Y-65545082D01*
X109006576Y-65526728D01*
X109012479Y-65523356D01*
X109052310Y-65492891D01*
X109083877Y-65454162D01*
X109087461Y-65448373D01*
X109107447Y-65402102D01*
X109115196Y-65351215D01*
X109115305Y-65344082D01*
X109115305Y-64750327D01*
X109109187Y-64698825D01*
X109090833Y-64651938D01*
X109087461Y-64646036D01*
X109056997Y-64606258D01*
X109018267Y-64574852D01*
X109012479Y-64571297D01*
X108966207Y-64551136D01*
X108915321Y-64543319D01*
X108908187Y-64543209D01*
X108110001Y-64543209D01*
X108110001Y-64761562D01*
X108852011Y-64761562D01*
X108886449Y-64772798D01*
X108898417Y-64807724D01*
X108898417Y-65286684D01*
X108886449Y-65320878D01*
X108852011Y-65332846D01*
X108110001Y-65332846D01*
X108110001Y-65551200D01*
X108908187Y-65551200D01*
G37*
G36*
X107967119Y-65768087D02*
G01*
X107967119Y-65553886D01*
X106977447Y-65553886D01*
X106977447Y-65768087D01*
X107967119Y-65768087D01*
G37*
G36*
X106803058Y-65551200D02*
G01*
X106003651Y-65551200D01*
X105996518Y-65551091D01*
X105945631Y-65543341D01*
X105899359Y-65523356D01*
X105893569Y-65519768D01*
X105854704Y-65487998D01*
X105823888Y-65447641D01*
X105820398Y-65441655D01*
X105801400Y-65394693D01*
X105795068Y-65344082D01*
X105795068Y-65332846D01*
X106014642Y-65332846D01*
X106587392Y-65332846D01*
X106587392Y-64761562D01*
X106014642Y-64761562D01*
X106014642Y-65332846D01*
X105795068Y-65332846D01*
X105795068Y-64750327D01*
X105795180Y-64743194D01*
X105803202Y-64692307D01*
X105823888Y-64646036D01*
X105827532Y-64640248D01*
X105859421Y-64601587D01*
X105899359Y-64571297D01*
X105905262Y-64567896D01*
X105952149Y-64549381D01*
X106003651Y-64543209D01*
X106803058Y-64543209D01*
X106803058Y-65551200D01*
G37*
G36*
X105673191Y-65551200D02*
G01*
X105673191Y-64543209D01*
X105458990Y-64543209D01*
X105458990Y-65551200D01*
X105673191Y-65551200D01*
G37*
G36*
X105339311Y-65551200D02*
G01*
X105339311Y-64543209D01*
X105115340Y-64543209D01*
X104551139Y-65215121D01*
X104551139Y-64543209D01*
X104331320Y-64543209D01*
X104331320Y-65551200D01*
X104555291Y-65551200D01*
X105122423Y-64876357D01*
X105122423Y-65551200D01*
X105339311Y-65551200D01*
G37*
G36*
X111450511Y-67231200D02*
G01*
X110651104Y-67231200D01*
X110643970Y-67231091D01*
X110593084Y-67223341D01*
X110546812Y-67203356D01*
X110541022Y-67199768D01*
X110502157Y-67167998D01*
X110471341Y-67127641D01*
X110467851Y-67121655D01*
X110448853Y-67074693D01*
X110442521Y-67024082D01*
X110442521Y-67012846D01*
X110662095Y-67012846D01*
X111234844Y-67012846D01*
X111234844Y-66441562D01*
X110662095Y-66441562D01*
X110662095Y-67012846D01*
X110442521Y-67012846D01*
X110442521Y-66430327D01*
X110442633Y-66423194D01*
X110450655Y-66372307D01*
X110471341Y-66326036D01*
X110474985Y-66320248D01*
X110506874Y-66281587D01*
X110546812Y-66251297D01*
X110552715Y-66247896D01*
X110599602Y-66229381D01*
X110651104Y-66223209D01*
X111450511Y-66223209D01*
X111450511Y-67231200D01*
G37*
G36*
X110082627Y-66223319D02*
G01*
X110132752Y-66231136D01*
X110179227Y-66251297D01*
X110185104Y-66254852D01*
X110224316Y-66286258D01*
X110254942Y-66326036D01*
X110258343Y-66331938D01*
X110276858Y-66378825D01*
X110283030Y-66430327D01*
X110283030Y-67231200D01*
X110065898Y-67231200D01*
X110065898Y-66906357D01*
X109494614Y-66906357D01*
X109494614Y-67231200D01*
X109275040Y-67231200D01*
X109275040Y-66688003D01*
X109494614Y-66688003D01*
X110065898Y-66688003D01*
X110065898Y-66441562D01*
X109494614Y-66441562D01*
X109494614Y-66688003D01*
X109275040Y-66688003D01*
X109275040Y-66430327D01*
X109275152Y-66423194D01*
X109283174Y-66372307D01*
X109303860Y-66326036D01*
X109307504Y-66320248D01*
X109339393Y-66281587D01*
X109379332Y-66251297D01*
X109385234Y-66247896D01*
X109432121Y-66229381D01*
X109483623Y-66223209D01*
X110075668Y-66223209D01*
X110082627Y-66223319D01*
G37*
G36*
X108908187Y-67231200D02*
G01*
X108959689Y-67225082D01*
X109006576Y-67206728D01*
X109012479Y-67203356D01*
X109052310Y-67172891D01*
X109083877Y-67134162D01*
X109087461Y-67128373D01*
X109107447Y-67082102D01*
X109115196Y-67031215D01*
X109115305Y-67024082D01*
X109115305Y-66430327D01*
X109109187Y-66378825D01*
X109090833Y-66331938D01*
X109087461Y-66326036D01*
X109056997Y-66286258D01*
X109018267Y-66254852D01*
X109012479Y-66251297D01*
X108966207Y-66231136D01*
X108915321Y-66223319D01*
X108908187Y-66223209D01*
X108110001Y-66223209D01*
X108110001Y-66441562D01*
X108852011Y-66441562D01*
X108886449Y-66452798D01*
X108898417Y-66487724D01*
X108898417Y-66966684D01*
X108886449Y-67000878D01*
X108852011Y-67012846D01*
X108110001Y-67012846D01*
X108110001Y-67231200D01*
X108908187Y-67231200D01*
G37*
G36*
X107967119Y-67448087D02*
G01*
X107967119Y-67233886D01*
X106977447Y-67233886D01*
X106977447Y-67448087D01*
X107967119Y-67448087D01*
G37*
G36*
X106804279Y-67231200D02*
G01*
X106804279Y-66221744D01*
X106587392Y-66221744D01*
X106587392Y-67012846D01*
X105796289Y-67012846D01*
X105796289Y-67231200D01*
X106804279Y-67231200D01*
G37*
G36*
X105712758Y-67231200D02*
G01*
X104913351Y-67231200D01*
X104906217Y-67231091D01*
X104855331Y-67223341D01*
X104809059Y-67203356D01*
X104803269Y-67199768D01*
X104764404Y-67167998D01*
X104733588Y-67127641D01*
X104730098Y-67121655D01*
X104711100Y-67074693D01*
X104704768Y-67024082D01*
X104704768Y-67012846D01*
X104924342Y-67012846D01*
X105497091Y-67012846D01*
X105497091Y-66441562D01*
X104924342Y-66441562D01*
X104924342Y-67012846D01*
X104704768Y-67012846D01*
X104704768Y-66430327D01*
X104704880Y-66423194D01*
X104712902Y-66372307D01*
X104733588Y-66326036D01*
X104737232Y-66320248D01*
X104769121Y-66281587D01*
X104809059Y-66251297D01*
X104814962Y-66247896D01*
X104861849Y-66229381D01*
X104913351Y-66223209D01*
X105712758Y-66223209D01*
X105712758Y-67231200D01*
G37*
G36*
X104344874Y-66223319D02*
G01*
X104394999Y-66231136D01*
X104441474Y-66251297D01*
X104447351Y-66254852D01*
X104486563Y-66286258D01*
X104517189Y-66326036D01*
X104520590Y-66331938D01*
X104539105Y-66378825D01*
X104545277Y-66430327D01*
X104545277Y-67231200D01*
X104328145Y-67231200D01*
X104328145Y-66906357D01*
X103756861Y-66906357D01*
X103756861Y-67231200D01*
X103537287Y-67231200D01*
X103537287Y-66688003D01*
X103756861Y-66688003D01*
X104328145Y-66688003D01*
X104328145Y-66441562D01*
X103756861Y-66441562D01*
X103756861Y-66688003D01*
X103537287Y-66688003D01*
X103537287Y-66430327D01*
X103537399Y-66423194D01*
X103545421Y-66372307D01*
X103566108Y-66326036D01*
X103569751Y-66320248D01*
X103601640Y-66281587D01*
X103641579Y-66251297D01*
X103647481Y-66247896D01*
X103694368Y-66229381D01*
X103745870Y-66223209D01*
X104337915Y-66223209D01*
X104344874Y-66223319D01*
G37*
G36*
X103170434Y-67231200D02*
G01*
X103221936Y-67225082D01*
X103268823Y-67206728D01*
X103274726Y-67203356D01*
X103314557Y-67172891D01*
X103346124Y-67134162D01*
X103349708Y-67128373D01*
X103369694Y-67082102D01*
X103377443Y-67031215D01*
X103377552Y-67024082D01*
X103377552Y-66430327D01*
X103371434Y-66378825D01*
X103353080Y-66331938D01*
X103349708Y-66326036D01*
X103319244Y-66286258D01*
X103280514Y-66254852D01*
X103274726Y-66251297D01*
X103228454Y-66231136D01*
X103177568Y-66223319D01*
X103170434Y-66223209D01*
X102372248Y-66223209D01*
X102372248Y-66441562D01*
X103114258Y-66441562D01*
X103148696Y-66452798D01*
X103160664Y-66487724D01*
X103160664Y-66966684D01*
X103148696Y-67000878D01*
X103114258Y-67012846D01*
X102372248Y-67012846D01*
X102372248Y-67231200D01*
X103170434Y-67231200D01*
G37*
G36*
X111450511Y-68911200D02*
G01*
X110651104Y-68911200D01*
X110643970Y-68911091D01*
X110593084Y-68903341D01*
X110546812Y-68883356D01*
X110541022Y-68879768D01*
X110502157Y-68847998D01*
X110471341Y-68807641D01*
X110467851Y-68801655D01*
X110448853Y-68754693D01*
X110442521Y-68704082D01*
X110442521Y-68692846D01*
X110662095Y-68692846D01*
X111234844Y-68692846D01*
X111234844Y-68121562D01*
X110662095Y-68121562D01*
X110662095Y-68692846D01*
X110442521Y-68692846D01*
X110442521Y-68110327D01*
X110442633Y-68103194D01*
X110450655Y-68052307D01*
X110471341Y-68006036D01*
X110474985Y-68000248D01*
X110506874Y-67961587D01*
X110546812Y-67931297D01*
X110552715Y-67927896D01*
X110599602Y-67909381D01*
X110651104Y-67903209D01*
X111450511Y-67903209D01*
X111450511Y-68911200D01*
G37*
G36*
X110082627Y-67903319D02*
G01*
X110132752Y-67911136D01*
X110179227Y-67931297D01*
X110185104Y-67934852D01*
X110224316Y-67966258D01*
X110254942Y-68006036D01*
X110258343Y-68011938D01*
X110276858Y-68058825D01*
X110283030Y-68110327D01*
X110283030Y-68911200D01*
X110065898Y-68911200D01*
X110065898Y-68586357D01*
X109494614Y-68586357D01*
X109494614Y-68911200D01*
X109275040Y-68911200D01*
X109275040Y-68368003D01*
X109494614Y-68368003D01*
X110065898Y-68368003D01*
X110065898Y-68121562D01*
X109494614Y-68121562D01*
X109494614Y-68368003D01*
X109275040Y-68368003D01*
X109275040Y-68110327D01*
X109275152Y-68103194D01*
X109283174Y-68052307D01*
X109303860Y-68006036D01*
X109307504Y-68000248D01*
X109339393Y-67961587D01*
X109379332Y-67931297D01*
X109385234Y-67927896D01*
X109432121Y-67909381D01*
X109483623Y-67903209D01*
X110075668Y-67903209D01*
X110082627Y-67903319D01*
G37*
G36*
X108908187Y-68911200D02*
G01*
X108959689Y-68905082D01*
X109006576Y-68886728D01*
X109012479Y-68883356D01*
X109052310Y-68852891D01*
X109083877Y-68814162D01*
X109087461Y-68808373D01*
X109107447Y-68762102D01*
X109115196Y-68711215D01*
X109115305Y-68704082D01*
X109115305Y-68110327D01*
X109109187Y-68058825D01*
X109090833Y-68011938D01*
X109087461Y-68006036D01*
X109056997Y-67966258D01*
X109018267Y-67934852D01*
X109012479Y-67931297D01*
X108966207Y-67911136D01*
X108915321Y-67903319D01*
X108908187Y-67903209D01*
X108110001Y-67903209D01*
X108110001Y-68121562D01*
X108852011Y-68121562D01*
X108886449Y-68132798D01*
X108898417Y-68167724D01*
X108898417Y-68646684D01*
X108886449Y-68680878D01*
X108852011Y-68692846D01*
X108110001Y-68692846D01*
X108110001Y-68911200D01*
X108908187Y-68911200D01*
G37*
G36*
X107967119Y-69128087D02*
G01*
X107967119Y-68913886D01*
X106977447Y-68913886D01*
X106977447Y-69128087D01*
X107967119Y-69128087D01*
G37*
G36*
X106601313Y-68911200D02*
G01*
X106651925Y-68905082D01*
X106698886Y-68886728D01*
X106704872Y-68883356D01*
X106745230Y-68852730D01*
X106777000Y-68813518D01*
X106780588Y-68807641D01*
X106800573Y-68761165D01*
X106808323Y-68711041D01*
X106808431Y-68704082D01*
X106808431Y-68610292D01*
X106591544Y-68610292D01*
X106591544Y-68692846D01*
X106020260Y-68692846D01*
X106020260Y-68516503D01*
X106601313Y-68516503D01*
X106651925Y-68510331D01*
X106698886Y-68491816D01*
X106704872Y-68488415D01*
X106745230Y-68457950D01*
X106777000Y-68419221D01*
X106780588Y-68413433D01*
X106800573Y-68367161D01*
X106808323Y-68316274D01*
X106808431Y-68309141D01*
X106808431Y-68110327D01*
X106802313Y-68058825D01*
X106783959Y-68011938D01*
X106780588Y-68006036D01*
X106749962Y-67966258D01*
X106710749Y-67934852D01*
X106704872Y-67931297D01*
X106658397Y-67911136D01*
X106608272Y-67903319D01*
X106601313Y-67903209D01*
X106007803Y-67903209D01*
X105957178Y-67909381D01*
X105910631Y-67927896D01*
X105904733Y-67931297D01*
X105864794Y-67961587D01*
X105832905Y-68000248D01*
X105829262Y-68006036D01*
X105808575Y-68052307D01*
X105800554Y-68103194D01*
X105800441Y-68110327D01*
X105800441Y-68204116D01*
X106020260Y-68204116D01*
X106020260Y-68121562D01*
X106591544Y-68121562D01*
X106591544Y-68297906D01*
X106007803Y-68297906D01*
X105957178Y-68304077D01*
X105910631Y-68322592D01*
X105904733Y-68325994D01*
X105864794Y-68356458D01*
X105832905Y-68395188D01*
X105829262Y-68400976D01*
X105808575Y-68447248D01*
X105800554Y-68498134D01*
X105800441Y-68505268D01*
X105800441Y-68704082D01*
X105806774Y-68754693D01*
X105825772Y-68801655D01*
X105829262Y-68807641D01*
X105860077Y-68847998D01*
X105898943Y-68879768D01*
X105904733Y-68883356D01*
X105950736Y-68903341D01*
X106000818Y-68911091D01*
X106007803Y-68911200D01*
X106601313Y-68911200D01*
G37*
G36*
X105271900Y-68911200D02*
G01*
X105271900Y-68534577D01*
X105738159Y-67903209D01*
X105479018Y-67903209D01*
X105162723Y-68300837D01*
X104847650Y-67903209D01*
X104585821Y-67903209D01*
X105053546Y-68536042D01*
X105053546Y-68911200D01*
X105271900Y-68911200D01*
G37*
G36*
X104518655Y-68911200D02*
G01*
X104518655Y-67903209D01*
X104294684Y-67903209D01*
X103730483Y-68575121D01*
X103730483Y-67903209D01*
X103510664Y-67903209D01*
X103510664Y-68911200D01*
X103734635Y-68911200D01*
X104301767Y-68236357D01*
X104301767Y-68911200D01*
X104518655Y-68911200D01*
G37*
G36*
X103146987Y-68911200D02*
G01*
X103198489Y-68905082D01*
X103245376Y-68886728D01*
X103251278Y-68883356D01*
X103291110Y-68852891D01*
X103322677Y-68814162D01*
X103326261Y-68808373D01*
X103346247Y-68762102D01*
X103353996Y-68711215D01*
X103354105Y-68704082D01*
X103354105Y-68110327D01*
X103347987Y-68058825D01*
X103329633Y-68011938D01*
X103326261Y-68006036D01*
X103295796Y-67966258D01*
X103257067Y-67934852D01*
X103251278Y-67931297D01*
X103205007Y-67911136D01*
X103154120Y-67903319D01*
X103146987Y-67903209D01*
X102348801Y-67903209D01*
X102348801Y-68121562D01*
X103090811Y-68121562D01*
X103125249Y-68132798D01*
X103137217Y-68167724D01*
X103137217Y-68646684D01*
X103125249Y-68680878D01*
X103090811Y-68692846D01*
X102348801Y-68692846D01*
X102348801Y-68911200D01*
X103146987Y-68911200D01*
G37*
G36*
X111450511Y-70591200D02*
G01*
X110651104Y-70591200D01*
X110643970Y-70591091D01*
X110593084Y-70583341D01*
X110546812Y-70563356D01*
X110541022Y-70559768D01*
X110502157Y-70527998D01*
X110471341Y-70487641D01*
X110467851Y-70481655D01*
X110448853Y-70434693D01*
X110442521Y-70384082D01*
X110442521Y-70372846D01*
X110662095Y-70372846D01*
X111234844Y-70372846D01*
X111234844Y-69801562D01*
X110662095Y-69801562D01*
X110662095Y-70372846D01*
X110442521Y-70372846D01*
X110442521Y-69790327D01*
X110442633Y-69783194D01*
X110450655Y-69732307D01*
X110471341Y-69686036D01*
X110474985Y-69680248D01*
X110506874Y-69641587D01*
X110546812Y-69611297D01*
X110552715Y-69607896D01*
X110599602Y-69589381D01*
X110651104Y-69583209D01*
X111450511Y-69583209D01*
X111450511Y-70591200D01*
G37*
G36*
X110082627Y-69583319D02*
G01*
X110132752Y-69591136D01*
X110179227Y-69611297D01*
X110185104Y-69614852D01*
X110224316Y-69646258D01*
X110254942Y-69686036D01*
X110258343Y-69691938D01*
X110276858Y-69738825D01*
X110283030Y-69790327D01*
X110283030Y-70591200D01*
X110065898Y-70591200D01*
X110065898Y-70266357D01*
X109494614Y-70266357D01*
X109494614Y-70591200D01*
X109275040Y-70591200D01*
X109275040Y-70048003D01*
X109494614Y-70048003D01*
X110065898Y-70048003D01*
X110065898Y-69801562D01*
X109494614Y-69801562D01*
X109494614Y-70048003D01*
X109275040Y-70048003D01*
X109275040Y-69790327D01*
X109275152Y-69783194D01*
X109283174Y-69732307D01*
X109303860Y-69686036D01*
X109307504Y-69680248D01*
X109339393Y-69641587D01*
X109379332Y-69611297D01*
X109385234Y-69607896D01*
X109432121Y-69589381D01*
X109483623Y-69583209D01*
X110075668Y-69583209D01*
X110082627Y-69583319D01*
G37*
G36*
X108908187Y-70591200D02*
G01*
X108959689Y-70585082D01*
X109006576Y-70566728D01*
X109012479Y-70563356D01*
X109052310Y-70532891D01*
X109083877Y-70494162D01*
X109087461Y-70488373D01*
X109107447Y-70442102D01*
X109115196Y-70391215D01*
X109115305Y-70384082D01*
X109115305Y-69790327D01*
X109109187Y-69738825D01*
X109090833Y-69691938D01*
X109087461Y-69686036D01*
X109056997Y-69646258D01*
X109018267Y-69614852D01*
X109012479Y-69611297D01*
X108966207Y-69591136D01*
X108915321Y-69583319D01*
X108908187Y-69583209D01*
X108110001Y-69583209D01*
X108110001Y-69801562D01*
X108852011Y-69801562D01*
X108886449Y-69812798D01*
X108898417Y-69847724D01*
X108898417Y-70326684D01*
X108886449Y-70360878D01*
X108852011Y-70372846D01*
X108110001Y-70372846D01*
X108110001Y-70591200D01*
X108908187Y-70591200D01*
G37*
G36*
X107967119Y-70808087D02*
G01*
X107967119Y-70593886D01*
X106977447Y-70593886D01*
X106977447Y-70808087D01*
X107967119Y-70808087D01*
G37*
G36*
X106601313Y-70591200D02*
G01*
X106651925Y-70585082D01*
X106698886Y-70566728D01*
X106704872Y-70563356D01*
X106745230Y-70532730D01*
X106777000Y-70493518D01*
X106780588Y-70487641D01*
X106800573Y-70441165D01*
X106808323Y-70391041D01*
X106808431Y-70384082D01*
X106808431Y-70290292D01*
X106591544Y-70290292D01*
X106591544Y-70372846D01*
X106020260Y-70372846D01*
X106020260Y-70196503D01*
X106601313Y-70196503D01*
X106651925Y-70190331D01*
X106698886Y-70171816D01*
X106704872Y-70168415D01*
X106745230Y-70137950D01*
X106777000Y-70099221D01*
X106780588Y-70093433D01*
X106800573Y-70047161D01*
X106808323Y-69996274D01*
X106808431Y-69989141D01*
X106808431Y-69790327D01*
X106802313Y-69738825D01*
X106783959Y-69691938D01*
X106780588Y-69686036D01*
X106749962Y-69646258D01*
X106710749Y-69614852D01*
X106704872Y-69611297D01*
X106658397Y-69591136D01*
X106608272Y-69583319D01*
X106601313Y-69583209D01*
X106007803Y-69583209D01*
X105957178Y-69589381D01*
X105910631Y-69607896D01*
X105904733Y-69611297D01*
X105864794Y-69641587D01*
X105832905Y-69680248D01*
X105829262Y-69686036D01*
X105808575Y-69732307D01*
X105800554Y-69783194D01*
X105800441Y-69790327D01*
X105800441Y-69884116D01*
X106020260Y-69884116D01*
X106020260Y-69801562D01*
X106591544Y-69801562D01*
X106591544Y-69977906D01*
X106007803Y-69977906D01*
X105957178Y-69984077D01*
X105910631Y-70002592D01*
X105904733Y-70005994D01*
X105864794Y-70036458D01*
X105832905Y-70075188D01*
X105829262Y-70080976D01*
X105808575Y-70127248D01*
X105800554Y-70178134D01*
X105800441Y-70185268D01*
X105800441Y-70384082D01*
X105806774Y-70434693D01*
X105825772Y-70481655D01*
X105829262Y-70487641D01*
X105860077Y-70527998D01*
X105898943Y-70559768D01*
X105904733Y-70563356D01*
X105950736Y-70583341D01*
X106000818Y-70591091D01*
X106007803Y-70591200D01*
X106601313Y-70591200D01*
G37*
G36*
X105439939Y-70591200D02*
G01*
X105491441Y-70585082D01*
X105538327Y-70566728D01*
X105544230Y-70563356D01*
X105584062Y-70532891D01*
X105615628Y-70494162D01*
X105619213Y-70488373D01*
X105639198Y-70442102D01*
X105646948Y-70391215D01*
X105647057Y-70384082D01*
X105647057Y-69790327D01*
X105640939Y-69738825D01*
X105622585Y-69691938D01*
X105619213Y-69686036D01*
X105588748Y-69646258D01*
X105550019Y-69614852D01*
X105544230Y-69611297D01*
X105497959Y-69591136D01*
X105447072Y-69583319D01*
X105439939Y-69583209D01*
X104641753Y-69583209D01*
X104641753Y-69801562D01*
X105383763Y-69801562D01*
X105418201Y-69812798D01*
X105430169Y-69847724D01*
X105430169Y-70326684D01*
X105418201Y-70360878D01*
X105383763Y-70372846D01*
X104641753Y-70372846D01*
X104641753Y-70591200D01*
X105439939Y-70591200D01*
G37*
G36*
X104494719Y-70591200D02*
G01*
X104494719Y-69581744D01*
X104277831Y-69581744D01*
X104277831Y-70372846D01*
X103486729Y-70372846D01*
X103486729Y-70591200D01*
X104494719Y-70591200D01*
G37*
G36*
X103404419Y-70591200D02*
G01*
X103404419Y-69583209D01*
X103186066Y-69583209D01*
X103186066Y-69977906D01*
X102988717Y-69977906D01*
X102658257Y-69583209D01*
X102431600Y-69583209D01*
X102431600Y-69658680D01*
X102791369Y-70087082D01*
X102431600Y-70515484D01*
X102431600Y-70591200D01*
X102658257Y-70591200D01*
X102988717Y-70196503D01*
X103186066Y-70196503D01*
X103186066Y-70591200D01*
X103404419Y-70591200D01*
G37*
G36*
X111450511Y-72271200D02*
G01*
X110651104Y-72271200D01*
X110643970Y-72271091D01*
X110593084Y-72263341D01*
X110546812Y-72243356D01*
X110541022Y-72239768D01*
X110502157Y-72207998D01*
X110471341Y-72167641D01*
X110467851Y-72161655D01*
X110448853Y-72114693D01*
X110442521Y-72064082D01*
X110442521Y-72052846D01*
X110662095Y-72052846D01*
X111234844Y-72052846D01*
X111234844Y-71481562D01*
X110662095Y-71481562D01*
X110662095Y-72052846D01*
X110442521Y-72052846D01*
X110442521Y-71470327D01*
X110442633Y-71463194D01*
X110450655Y-71412307D01*
X110471341Y-71366036D01*
X110474985Y-71360248D01*
X110506874Y-71321587D01*
X110546812Y-71291297D01*
X110552715Y-71287896D01*
X110599602Y-71269381D01*
X110651104Y-71263209D01*
X111450511Y-71263209D01*
X111450511Y-72271200D01*
G37*
G36*
X110320643Y-72271200D02*
G01*
X110320643Y-71263209D01*
X110106442Y-71263209D01*
X110106442Y-72271200D01*
X110320643Y-72271200D01*
G37*
G36*
X109787850Y-71263322D02*
G01*
X109837727Y-71271343D01*
X109883205Y-71292030D01*
X109888904Y-71295676D01*
X109927151Y-71327769D01*
X109957454Y-71368234D01*
X109960826Y-71374220D01*
X109979180Y-71421181D01*
X109985298Y-71471793D01*
X109985298Y-72054312D01*
X109985189Y-72061102D01*
X109977440Y-72110872D01*
X109957454Y-72158604D01*
X109953873Y-72164731D01*
X109922510Y-72206183D01*
X109883205Y-72239692D01*
X109877395Y-72243508D01*
X109831331Y-72264277D01*
X109780867Y-72271200D01*
X109200057Y-72271200D01*
X109193074Y-72271076D01*
X109143197Y-72262307D01*
X109097720Y-72239692D01*
X109092021Y-72235683D01*
X109053842Y-72201115D01*
X109023714Y-72158604D01*
X109020313Y-72152357D01*
X109001798Y-72104354D01*
X108995626Y-72054312D01*
X108995626Y-72043077D01*
X109209827Y-72043077D01*
X109656303Y-72043077D01*
X109209827Y-71667920D01*
X109209827Y-72043077D01*
X108995626Y-72043077D01*
X108995626Y-71483028D01*
X109324621Y-71483028D01*
X109771097Y-71858185D01*
X109771097Y-71483028D01*
X109324621Y-71483028D01*
X108995626Y-71483028D01*
X108995626Y-71471793D01*
X108995736Y-71464834D01*
X109003553Y-71414709D01*
X109023714Y-71368234D01*
X109027266Y-71362355D01*
X109058468Y-71323006D01*
X109097720Y-71292030D01*
X109103529Y-71288540D01*
X109149593Y-71269542D01*
X109200057Y-71263209D01*
X109780867Y-71263209D01*
X109787850Y-71263322D01*
G37*
G36*
X111450511Y-73951200D02*
G01*
X110651104Y-73951200D01*
X110643970Y-73951091D01*
X110593084Y-73943341D01*
X110546812Y-73923356D01*
X110541022Y-73919768D01*
X110502157Y-73887998D01*
X110471341Y-73847641D01*
X110467851Y-73841655D01*
X110448853Y-73794693D01*
X110442521Y-73744082D01*
X110442521Y-73732846D01*
X110662095Y-73732846D01*
X111234844Y-73732846D01*
X111234844Y-73161562D01*
X110662095Y-73161562D01*
X110662095Y-73732846D01*
X110442521Y-73732846D01*
X110442521Y-73150327D01*
X110442633Y-73143194D01*
X110450655Y-73092307D01*
X110471341Y-73046036D01*
X110474985Y-73040248D01*
X110506874Y-73001587D01*
X110546812Y-72971297D01*
X110552715Y-72967896D01*
X110599602Y-72949381D01*
X110651104Y-72943209D01*
X111450511Y-72943209D01*
X111450511Y-73951200D01*
G37*
G36*
X110320643Y-73951200D02*
G01*
X110320643Y-72943209D01*
X110106442Y-72943209D01*
X110106442Y-73951200D01*
X110320643Y-73951200D01*
G37*
G36*
X109733484Y-73951200D02*
G01*
X109733484Y-73269518D01*
X109779646Y-73326915D01*
X110063700Y-73326915D01*
X109741788Y-72943209D01*
X109519283Y-72943209D01*
X109519283Y-73951200D01*
X109733484Y-73951200D01*
G37*
G36*
X111450511Y-75631200D02*
G01*
X110651104Y-75631200D01*
X110643970Y-75631091D01*
X110593084Y-75623341D01*
X110546812Y-75603356D01*
X110541022Y-75599768D01*
X110502157Y-75567998D01*
X110471341Y-75527641D01*
X110467851Y-75521655D01*
X110448853Y-75474693D01*
X110442521Y-75424082D01*
X110442521Y-75412846D01*
X110662095Y-75412846D01*
X111234844Y-75412846D01*
X111234844Y-74841562D01*
X110662095Y-74841562D01*
X110662095Y-75412846D01*
X110442521Y-75412846D01*
X110442521Y-74830327D01*
X110442633Y-74823194D01*
X110450655Y-74772307D01*
X110471341Y-74726036D01*
X110474985Y-74720248D01*
X110506874Y-74681587D01*
X110546812Y-74651297D01*
X110552715Y-74647896D01*
X110599602Y-74629381D01*
X110651104Y-74623209D01*
X111450511Y-74623209D01*
X111450511Y-75631200D01*
G37*
G36*
X110320643Y-75631200D02*
G01*
X110320643Y-74623209D01*
X110106442Y-74623209D01*
X110106442Y-75631200D01*
X110320643Y-75631200D01*
G37*
G36*
X109985298Y-75631200D02*
G01*
X109985298Y-75240655D01*
X109979180Y-75190191D01*
X109960826Y-75144127D01*
X109957454Y-75138317D01*
X109927151Y-75099227D01*
X109888904Y-75068508D01*
X109883205Y-75065045D01*
X109837727Y-75045410D01*
X109787850Y-75037796D01*
X109780867Y-75037689D01*
X109209827Y-75037689D01*
X109209827Y-74837410D01*
X109771097Y-74837410D01*
X109771097Y-74918499D01*
X109985298Y-74918499D01*
X109985298Y-74826175D01*
X109979180Y-74775886D01*
X109960826Y-74729890D01*
X109957454Y-74724082D01*
X109927151Y-74684937D01*
X109888904Y-74654057D01*
X109883205Y-74650564D01*
X109837727Y-74630930D01*
X109787850Y-74623316D01*
X109780867Y-74623209D01*
X109200057Y-74623209D01*
X109149593Y-74629220D01*
X109103529Y-74647252D01*
X109097720Y-74650564D01*
X109058468Y-74680342D01*
X109027266Y-74718385D01*
X109023714Y-74724082D01*
X109003553Y-74769505D01*
X108995736Y-74819222D01*
X108995626Y-74826175D01*
X108995626Y-75048680D01*
X109001798Y-75099145D01*
X109020313Y-75145209D01*
X109023714Y-75151018D01*
X109053842Y-75190324D01*
X109092021Y-75221686D01*
X109097720Y-75225268D01*
X109143197Y-75245253D01*
X109193074Y-75253003D01*
X109200057Y-75253112D01*
X109771097Y-75253112D01*
X109771097Y-75416999D01*
X108995626Y-75416999D01*
X108995626Y-75631200D01*
X109985298Y-75631200D01*
G37*
G36*
X111450511Y-77311200D02*
G01*
X110651104Y-77311200D01*
X110643970Y-77311091D01*
X110593084Y-77303341D01*
X110546812Y-77283356D01*
X110541022Y-77279768D01*
X110502157Y-77247998D01*
X110471341Y-77207641D01*
X110467851Y-77201655D01*
X110448853Y-77154693D01*
X110442521Y-77104082D01*
X110442521Y-77092846D01*
X110662095Y-77092846D01*
X111234844Y-77092846D01*
X111234844Y-76521562D01*
X110662095Y-76521562D01*
X110662095Y-77092846D01*
X110442521Y-77092846D01*
X110442521Y-76510327D01*
X110442633Y-76503194D01*
X110450655Y-76452307D01*
X110471341Y-76406036D01*
X110474985Y-76400248D01*
X110506874Y-76361587D01*
X110546812Y-76331297D01*
X110552715Y-76327896D01*
X110599602Y-76309381D01*
X110651104Y-76303209D01*
X111450511Y-76303209D01*
X111450511Y-77311200D01*
G37*
G36*
X110320643Y-77311200D02*
G01*
X110320643Y-76303209D01*
X110106442Y-76303209D01*
X110106442Y-77311200D01*
X110320643Y-77311200D01*
G37*
G36*
X109786484Y-77311200D02*
G01*
X109836949Y-77305082D01*
X109883013Y-77286728D01*
X109888822Y-77283356D01*
X109928128Y-77253052D01*
X109959490Y-77214806D01*
X109963072Y-77209106D01*
X109983057Y-77163829D01*
X109990807Y-77115010D01*
X109990916Y-77108234D01*
X109990916Y-77029832D01*
X109776715Y-77029832D01*
X109776715Y-77096999D01*
X109215445Y-77096999D01*
X109215445Y-76910885D01*
X109825807Y-76910885D01*
X109825807Y-76696684D01*
X109253058Y-76696684D01*
X109253058Y-76517410D01*
X109776715Y-76517410D01*
X109776715Y-76595812D01*
X109990916Y-76595812D01*
X109990916Y-76506175D01*
X109984798Y-76455886D01*
X109966444Y-76409890D01*
X109963072Y-76404082D01*
X109932768Y-76364937D01*
X109894522Y-76334057D01*
X109888822Y-76330564D01*
X109843345Y-76310930D01*
X109793467Y-76303316D01*
X109786484Y-76303209D01*
X109242067Y-76303209D01*
X109191603Y-76309220D01*
X109145539Y-76327252D01*
X109139729Y-76330564D01*
X109100585Y-76360342D01*
X109069705Y-76398385D01*
X109066212Y-76404082D01*
X109046577Y-76449505D01*
X109038964Y-76499222D01*
X109038857Y-76506175D01*
X109038857Y-76707920D01*
X109041055Y-76740892D01*
X109047406Y-76772156D01*
X109020707Y-76814287D01*
X109013944Y-76830285D01*
X109002248Y-76879450D01*
X109001244Y-76899650D01*
X109001244Y-77108234D01*
X109007254Y-77157525D01*
X109025286Y-77203274D01*
X109028599Y-77209106D01*
X109058255Y-77248411D01*
X109096391Y-77279774D01*
X109102116Y-77283356D01*
X109147539Y-77303341D01*
X109197256Y-77311091D01*
X109204209Y-77311200D01*
X109786484Y-77311200D01*
G37*
G36*
X111450511Y-78991200D02*
G01*
X110651104Y-78991200D01*
X110643970Y-78991091D01*
X110593084Y-78983341D01*
X110546812Y-78963356D01*
X110541022Y-78959768D01*
X110502157Y-78927998D01*
X110471341Y-78887641D01*
X110467851Y-78881655D01*
X110448853Y-78834693D01*
X110442521Y-78784082D01*
X110442521Y-78772846D01*
X110662095Y-78772846D01*
X111234844Y-78772846D01*
X111234844Y-78201562D01*
X110662095Y-78201562D01*
X110662095Y-78772846D01*
X110442521Y-78772846D01*
X110442521Y-78190327D01*
X110442633Y-78183194D01*
X110450655Y-78132307D01*
X110471341Y-78086036D01*
X110474985Y-78080248D01*
X110506874Y-78041587D01*
X110546812Y-78011297D01*
X110552715Y-78007896D01*
X110599602Y-77989381D01*
X110651104Y-77983209D01*
X111450511Y-77983209D01*
X111450511Y-78991200D01*
G37*
G36*
X110320643Y-78991200D02*
G01*
X110320643Y-77983209D01*
X110106442Y-77983209D01*
X110106442Y-78991200D01*
X110320643Y-78991200D01*
G37*
G36*
X110056861Y-78548876D02*
G01*
X110056861Y-78740606D01*
X109453337Y-78740606D01*
X109453337Y-78991200D01*
X109239136Y-78991200D01*
X109239136Y-78740606D01*
X109104803Y-78740606D01*
X109104803Y-78524940D01*
X109239136Y-78524940D01*
X109453337Y-78524940D01*
X109708082Y-78524940D01*
X109453337Y-78317822D01*
X109453337Y-78524940D01*
X109239136Y-78524940D01*
X109239136Y-77983209D01*
X109430867Y-77983209D01*
X110056861Y-78548876D01*
G37*
G36*
X111450511Y-80671200D02*
G01*
X110651104Y-80671200D01*
X110643970Y-80671091D01*
X110593084Y-80663341D01*
X110546812Y-80643356D01*
X110541022Y-80639768D01*
X110502157Y-80607998D01*
X110471341Y-80567641D01*
X110467851Y-80561655D01*
X110448853Y-80514693D01*
X110442521Y-80464082D01*
X110442521Y-80452846D01*
X110662095Y-80452846D01*
X111234844Y-80452846D01*
X111234844Y-79881562D01*
X110662095Y-79881562D01*
X110662095Y-80452846D01*
X110442521Y-80452846D01*
X110442521Y-79870327D01*
X110442633Y-79863194D01*
X110450655Y-79812307D01*
X110471341Y-79766036D01*
X110474985Y-79760248D01*
X110506874Y-79721587D01*
X110546812Y-79691297D01*
X110552715Y-79687896D01*
X110599602Y-79669381D01*
X110651104Y-79663209D01*
X111450511Y-79663209D01*
X111450511Y-80671200D01*
G37*
G36*
X110320643Y-80671200D02*
G01*
X110320643Y-79663209D01*
X110106442Y-79663209D01*
X110106442Y-80671200D01*
X110320643Y-80671200D01*
G37*
G36*
X109780867Y-80671200D02*
G01*
X109831331Y-80665082D01*
X109877395Y-80646728D01*
X109883205Y-80643356D01*
X109922510Y-80613052D01*
X109953873Y-80574806D01*
X109957454Y-80569106D01*
X109977440Y-80523829D01*
X109985189Y-80475010D01*
X109985298Y-80468234D01*
X109985298Y-80389832D01*
X109771097Y-80389832D01*
X109771097Y-80456999D01*
X109209827Y-80456999D01*
X109209827Y-80267955D01*
X109985298Y-80267955D01*
X109985298Y-79663209D01*
X108995626Y-79663209D01*
X108995626Y-79877410D01*
X109771097Y-79877410D01*
X109771097Y-80052288D01*
X109200057Y-80052288D01*
X109149593Y-80058299D01*
X109103529Y-80076331D01*
X109097720Y-80079643D01*
X109058468Y-80109421D01*
X109027266Y-80147464D01*
X109023714Y-80153160D01*
X109003553Y-80198638D01*
X108995736Y-80248515D01*
X108995626Y-80255498D01*
X108995626Y-80468234D01*
X109001798Y-80517525D01*
X109020313Y-80563274D01*
X109023714Y-80569106D01*
X109053842Y-80608411D01*
X109092021Y-80639774D01*
X109097720Y-80643356D01*
X109143197Y-80663341D01*
X109193074Y-80671091D01*
X109200057Y-80671200D01*
X109780867Y-80671200D01*
G37*
G36*
X111450511Y-82351200D02*
G01*
X110651104Y-82351200D01*
X110643970Y-82351091D01*
X110593084Y-82343341D01*
X110546812Y-82323356D01*
X110541022Y-82319768D01*
X110502157Y-82287998D01*
X110471341Y-82247641D01*
X110467851Y-82241655D01*
X110448853Y-82194693D01*
X110442521Y-82144082D01*
X110442521Y-82132846D01*
X110662095Y-82132846D01*
X111234844Y-82132846D01*
X111234844Y-81561562D01*
X110662095Y-81561562D01*
X110662095Y-82132846D01*
X110442521Y-82132846D01*
X110442521Y-81550327D01*
X110442633Y-81543194D01*
X110450655Y-81492307D01*
X110471341Y-81446036D01*
X110474985Y-81440248D01*
X110506874Y-81401587D01*
X110546812Y-81371297D01*
X110552715Y-81367896D01*
X110599602Y-81349381D01*
X110651104Y-81343209D01*
X111450511Y-81343209D01*
X111450511Y-82351200D01*
G37*
G36*
X110320643Y-82351200D02*
G01*
X110320643Y-81343209D01*
X110106442Y-81343209D01*
X110106442Y-82351200D01*
X110320643Y-82351200D01*
G37*
G36*
X109787850Y-81343316D02*
G01*
X109837727Y-81350930D01*
X109883205Y-81370564D01*
X109888904Y-81374057D01*
X109927151Y-81404937D01*
X109957454Y-81444082D01*
X109960826Y-81449890D01*
X109979180Y-81495886D01*
X109985298Y-81546175D01*
X109985298Y-82148234D01*
X109985189Y-82155010D01*
X109977440Y-82203829D01*
X109957454Y-82249106D01*
X109953873Y-82254806D01*
X109922510Y-82293052D01*
X109883205Y-82323356D01*
X109877395Y-82326728D01*
X109831331Y-82345082D01*
X109780867Y-82351200D01*
X109200057Y-82351200D01*
X109193074Y-82351091D01*
X109143197Y-82343341D01*
X109097720Y-82323356D01*
X109092021Y-82319774D01*
X109053842Y-82288411D01*
X109023714Y-82249106D01*
X109020313Y-82243274D01*
X109001798Y-82197525D01*
X108995626Y-82148234D01*
X108995626Y-82136999D01*
X109209827Y-82136999D01*
X109771097Y-82136999D01*
X109771097Y-81947955D01*
X109209827Y-81947955D01*
X109209827Y-82136999D01*
X108995626Y-82136999D01*
X108995626Y-81935498D01*
X108995736Y-81928515D01*
X109003553Y-81878638D01*
X109023714Y-81833160D01*
X109027266Y-81827464D01*
X109058468Y-81789421D01*
X109097720Y-81759643D01*
X109103529Y-81756331D01*
X109149593Y-81738299D01*
X109200057Y-81732288D01*
X109771097Y-81732288D01*
X109771097Y-81557410D01*
X109148278Y-81557410D01*
X109148278Y-81343209D01*
X109780867Y-81343209D01*
X109787850Y-81343316D01*
G37*
G36*
X111450511Y-84031200D02*
G01*
X110651104Y-84031200D01*
X110643970Y-84031091D01*
X110593084Y-84023341D01*
X110546812Y-84003356D01*
X110541022Y-83999768D01*
X110502157Y-83967998D01*
X110471341Y-83927641D01*
X110467851Y-83921655D01*
X110448853Y-83874693D01*
X110442521Y-83824082D01*
X110442521Y-83812846D01*
X110662095Y-83812846D01*
X111234844Y-83812846D01*
X111234844Y-83241562D01*
X110662095Y-83241562D01*
X110662095Y-83812846D01*
X110442521Y-83812846D01*
X110442521Y-83230327D01*
X110442633Y-83223194D01*
X110450655Y-83172307D01*
X110471341Y-83126036D01*
X110474985Y-83120248D01*
X110506874Y-83081587D01*
X110546812Y-83051297D01*
X110552715Y-83047896D01*
X110599602Y-83029381D01*
X110651104Y-83023209D01*
X111450511Y-83023209D01*
X111450511Y-84031200D01*
G37*
G36*
X110320643Y-84031200D02*
G01*
X110320643Y-83023209D01*
X110106442Y-83023209D01*
X110106442Y-84031200D01*
X110320643Y-84031200D01*
G37*
G36*
X109437950Y-84031200D02*
G01*
X109437950Y-83235945D01*
X110061013Y-83235945D01*
X110061013Y-83021744D01*
X109426715Y-83021744D01*
X109376425Y-83027754D01*
X109330430Y-83045786D01*
X109324621Y-83049099D01*
X109285477Y-83078877D01*
X109254597Y-83116919D01*
X109251104Y-83122616D01*
X109231469Y-83168040D01*
X109223856Y-83217756D01*
X109223749Y-83224710D01*
X109223749Y-84031200D01*
X109437950Y-84031200D01*
G37*
G36*
X108253827Y-56180046D02*
G01*
X107682543Y-56180046D01*
X107682543Y-55608762D01*
X108253827Y-55608762D01*
X108253827Y-56180046D01*
G37*
G36*
X110821552Y-55848120D02*
G01*
X110250268Y-55848120D01*
X110250268Y-55608762D01*
X110821552Y-55608762D01*
X110821552Y-55848120D01*
G37*
G36*
X114762410Y-56180046D02*
G01*
X114191126Y-56180046D01*
X114191126Y-55608762D01*
X114762410Y-55608762D01*
X114762410Y-56180046D01*
G37*
G36*
X117766842Y-55848120D02*
G01*
X117195558Y-55848120D01*
X117195558Y-55608762D01*
X117766842Y-55608762D01*
X117766842Y-55848120D01*
G37*
G36*
X118921622Y-55848120D02*
G01*
X118350338Y-55848120D01*
X118350338Y-55608762D01*
X118921622Y-55608762D01*
X118921622Y-55848120D01*
G37*
G36*
X119249621Y-56509511D02*
G01*
X105081865Y-56509511D01*
X105081865Y-55608762D01*
X105192976Y-55608762D01*
X105587916Y-55608762D01*
X105587916Y-56398400D01*
X105806269Y-56398400D01*
X105806269Y-56191282D01*
X106304036Y-56191282D01*
X106310369Y-56241893D01*
X106329367Y-56288855D01*
X106332857Y-56294841D01*
X106363672Y-56335198D01*
X106402538Y-56366968D01*
X106408328Y-56370556D01*
X106454331Y-56390541D01*
X106504413Y-56398291D01*
X106511399Y-56398400D01*
X107104909Y-56398400D01*
X107155520Y-56392282D01*
X107202482Y-56373928D01*
X107208468Y-56370556D01*
X107248825Y-56339930D01*
X107280596Y-56300718D01*
X107284183Y-56294841D01*
X107304168Y-56248365D01*
X107311918Y-56198241D01*
X107312027Y-56191282D01*
X107312027Y-55597527D01*
X107462724Y-55597527D01*
X107462724Y-56180046D01*
X107462724Y-56191282D01*
X107469057Y-56241893D01*
X107488055Y-56288855D01*
X107491545Y-56294841D01*
X107522361Y-56335198D01*
X107561226Y-56366968D01*
X107567016Y-56370556D01*
X107613019Y-56390541D01*
X107663101Y-56398291D01*
X107670087Y-56398400D01*
X108263597Y-56398400D01*
X108624588Y-56398400D01*
X108848558Y-56398400D01*
X109415690Y-55723557D01*
X109415690Y-56398400D01*
X109632578Y-56398400D01*
X109752257Y-56398400D01*
X109966458Y-56398400D01*
X109966458Y-55598993D01*
X110030450Y-55598993D01*
X110030450Y-55848120D01*
X110030450Y-55859356D01*
X110036782Y-55909967D01*
X110055780Y-55956929D01*
X110059270Y-55962915D01*
X110090086Y-56003272D01*
X110128951Y-56035042D01*
X110134741Y-56038630D01*
X110181013Y-56058791D01*
X110231899Y-56066608D01*
X110239033Y-56066718D01*
X110821552Y-56067939D01*
X110821552Y-56398400D01*
X111038440Y-56398400D01*
X111645383Y-56398400D01*
X111869354Y-56398400D01*
X112436486Y-55723557D01*
X112436486Y-56398400D01*
X112653373Y-56398400D01*
X112809933Y-56398400D01*
X113033904Y-56398400D01*
X113601036Y-55723557D01*
X113601036Y-56398400D01*
X113817923Y-56398400D01*
X113817923Y-55597527D01*
X113971308Y-55597527D01*
X113971308Y-56180046D01*
X113971308Y-56191282D01*
X113977641Y-56241893D01*
X113996639Y-56288855D01*
X114000129Y-56294841D01*
X114030944Y-56335198D01*
X114069809Y-56366968D01*
X114075600Y-56370556D01*
X114121603Y-56390541D01*
X114171684Y-56398291D01*
X114178670Y-56398400D01*
X114772180Y-56398400D01*
X114822791Y-56392282D01*
X114869753Y-56373928D01*
X114875739Y-56370556D01*
X114916096Y-56339930D01*
X114947867Y-56300718D01*
X114951454Y-56294841D01*
X114971440Y-56248365D01*
X114979189Y-56198241D01*
X114979298Y-56191282D01*
X114979298Y-55608762D01*
X115122180Y-55608762D01*
X115864190Y-55608762D01*
X115898628Y-55619998D01*
X115910596Y-55654924D01*
X115910596Y-56133884D01*
X115898628Y-56168078D01*
X115864190Y-56180046D01*
X115122180Y-56180046D01*
X115122180Y-56398400D01*
X115920366Y-56398400D01*
X116697547Y-56398400D01*
X116911748Y-56398400D01*
X116911748Y-55598993D01*
X116975739Y-55598993D01*
X116975739Y-55848120D01*
X116975739Y-55859356D01*
X116982072Y-55909967D01*
X117001070Y-55956929D01*
X117004560Y-55962915D01*
X117035375Y-56003272D01*
X117074241Y-56035042D01*
X117080031Y-56038630D01*
X117126302Y-56058791D01*
X117177189Y-56066608D01*
X117184323Y-56066718D01*
X117766842Y-56067939D01*
X117766842Y-56398400D01*
X117983729Y-56398400D01*
X117983729Y-55598993D01*
X118130519Y-55598993D01*
X118130519Y-55848120D01*
X118130519Y-55859356D01*
X118136852Y-55909967D01*
X118155850Y-55956929D01*
X118159340Y-55962915D01*
X118190155Y-56003272D01*
X118229021Y-56035042D01*
X118234811Y-56038630D01*
X118281082Y-56058791D01*
X118331969Y-56066608D01*
X118339103Y-56066718D01*
X118349968Y-56066740D01*
X118131985Y-56324150D01*
X118131985Y-56398400D01*
X118355955Y-56398400D01*
X118633890Y-56067335D01*
X118921622Y-56067939D01*
X118921622Y-56398400D01*
X119138510Y-56398400D01*
X119138510Y-55391875D01*
X118339103Y-55391875D01*
X118287601Y-55398046D01*
X118240714Y-55416561D01*
X118234811Y-55419963D01*
X118194872Y-55450413D01*
X118162984Y-55489558D01*
X118159340Y-55495434D01*
X118138653Y-55541909D01*
X118130632Y-55592034D01*
X118130519Y-55598993D01*
X117983729Y-55598993D01*
X117983729Y-55391875D01*
X117184323Y-55391875D01*
X117132820Y-55398046D01*
X117085934Y-55416561D01*
X117080031Y-55419963D01*
X117040092Y-55450413D01*
X117008203Y-55489558D01*
X117004560Y-55495434D01*
X116983873Y-55541909D01*
X116975852Y-55592034D01*
X116975739Y-55598993D01*
X116911748Y-55598993D01*
X116911748Y-55390409D01*
X116697547Y-55390409D01*
X116697547Y-56398400D01*
X115920366Y-56398400D01*
X115971868Y-56392282D01*
X116018755Y-56373928D01*
X116024657Y-56370556D01*
X116064489Y-56340091D01*
X116096056Y-56301362D01*
X116099640Y-56295573D01*
X116119625Y-56249302D01*
X116127375Y-56198415D01*
X116127484Y-56191282D01*
X116127484Y-55597527D01*
X116121366Y-55546025D01*
X116103012Y-55499138D01*
X116099640Y-55493236D01*
X116069175Y-55453458D01*
X116030446Y-55422052D01*
X116024657Y-55418497D01*
X115978386Y-55398336D01*
X115927499Y-55390519D01*
X115920366Y-55390409D01*
X115122180Y-55390409D01*
X115122180Y-55608762D01*
X114979298Y-55608762D01*
X114979298Y-55597527D01*
X114973180Y-55546025D01*
X114954826Y-55499138D01*
X114951454Y-55493236D01*
X114920829Y-55453458D01*
X114881616Y-55422052D01*
X114875739Y-55418497D01*
X114829264Y-55398336D01*
X114779139Y-55390519D01*
X114772180Y-55390409D01*
X114178670Y-55390409D01*
X114128045Y-55396581D01*
X114081498Y-55415096D01*
X114075600Y-55418497D01*
X114035661Y-55448787D01*
X114003772Y-55487448D01*
X114000129Y-55493236D01*
X113979442Y-55539507D01*
X113971420Y-55590394D01*
X113971308Y-55597527D01*
X113817923Y-55597527D01*
X113817923Y-55390409D01*
X113593953Y-55390409D01*
X113029752Y-56062321D01*
X113029752Y-55390409D01*
X112809933Y-55390409D01*
X112809933Y-56398400D01*
X112653373Y-56398400D01*
X112653373Y-55390409D01*
X112429403Y-55390409D01*
X111865202Y-56062321D01*
X111865202Y-55390409D01*
X111645383Y-55390409D01*
X111645383Y-56398400D01*
X111038440Y-56398400D01*
X111038440Y-55391875D01*
X110239033Y-55391875D01*
X110187531Y-55398046D01*
X110140644Y-55416561D01*
X110134741Y-55419963D01*
X110094803Y-55450413D01*
X110062914Y-55489558D01*
X110059270Y-55495434D01*
X110038583Y-55541909D01*
X110030562Y-55592034D01*
X110030450Y-55598993D01*
X109966458Y-55598993D01*
X109966458Y-55390409D01*
X109752257Y-55390409D01*
X109752257Y-56398400D01*
X109632578Y-56398400D01*
X109632578Y-55390409D01*
X109408607Y-55390409D01*
X108844406Y-56062321D01*
X108844406Y-55390409D01*
X108624588Y-55390409D01*
X108624588Y-56398400D01*
X108263597Y-56398400D01*
X108314208Y-56392282D01*
X108361170Y-56373928D01*
X108367156Y-56370556D01*
X108407513Y-56339930D01*
X108439284Y-56300718D01*
X108442871Y-56294841D01*
X108462856Y-56248365D01*
X108470606Y-56198241D01*
X108470715Y-56191282D01*
X108470715Y-55597527D01*
X108464597Y-55546025D01*
X108446243Y-55499138D01*
X108442871Y-55493236D01*
X108412245Y-55453458D01*
X108373033Y-55422052D01*
X108367156Y-55418497D01*
X108320680Y-55398336D01*
X108270556Y-55390519D01*
X108263597Y-55390409D01*
X107670087Y-55390409D01*
X107619461Y-55396581D01*
X107572914Y-55415096D01*
X107567016Y-55418497D01*
X107527077Y-55448787D01*
X107495189Y-55487448D01*
X107491545Y-55493236D01*
X107470858Y-55539507D01*
X107462837Y-55590394D01*
X107462724Y-55597527D01*
X107312027Y-55597527D01*
X107312027Y-55390409D01*
X107095139Y-55390409D01*
X107095139Y-56180046D01*
X106523855Y-56180046D01*
X106523855Y-55390409D01*
X106304036Y-55390409D01*
X106304036Y-56191282D01*
X105806269Y-56191282D01*
X105806269Y-55608762D01*
X106200966Y-55608762D01*
X106200966Y-55390409D01*
X105192976Y-55390409D01*
X105192976Y-55608762D01*
X105081865Y-55608762D01*
X105081865Y-55279298D01*
X119249621Y-55279298D01*
X119249621Y-56509511D01*
G37*
D12*
X105326109Y-47343333D02*
X105683252Y-47343333D01*
X105683252Y-47343333D02*
X105754680Y-47319524D01*
X105754680Y-47319524D02*
X105802300Y-47271905D01*
X105802300Y-47271905D02*
X105826109Y-47200476D01*
X105826109Y-47200476D02*
X105826109Y-47152857D01*
X105826109Y-47843333D02*
X105826109Y-47557619D01*
X105826109Y-47700476D02*
X105326109Y-47700476D01*
X105326109Y-47700476D02*
X105397538Y-47652857D01*
X105397538Y-47652857D02*
X105445157Y-47605238D01*
X105445157Y-47605238D02*
X105468966Y-47557619D01*
D13*
X107040000Y-47510000D02*
X107040000Y-44910000D01*
X107040000Y-50110000D02*
X107040000Y-48780000D01*
X108370000Y-50110000D02*
X107040000Y-50110000D01*
X109640000Y-47510000D02*
X107040000Y-47510000D01*
X109640000Y-50110000D02*
X109640000Y-47510000D01*
X157960000Y-44910000D02*
X107040000Y-44910000D01*
X157960000Y-50110000D02*
X109640000Y-50110000D01*
X157960000Y-50110000D02*
X157960000Y-44910000D01*
D14*
X162000000Y-44000000D02*
G75*
G02*
X165000000Y-47000000I0J-3000000D01*
G01*
X165000000Y-97000000D02*
X165000000Y-47000000D01*
X100000000Y-47000000D02*
X100000000Y-81000000D01*
X103000000Y-100000000D02*
G75*
G02*
X100000000Y-97000000I0J3000000D01*
G01*
X103000000Y-100000000D02*
X162000000Y-100000000D01*
X165000000Y-97000000D02*
G75*
G02*
X162000000Y-100000000I-3000000J0D01*
G01*
X100000000Y-47000000D02*
G75*
G02*
X103000000Y-44000000I3000000J0D01*
G01*
X100000000Y-81000000D02*
X100000000Y-97000000D01*
X162000000Y-44000000D02*
X103000000Y-44000000D01*
M02*
